<svg xmlns="http://www.w3.org/2000/svg" xmlns:xlink="http://www.w3.org/1999/xlink" width="102.38" height="102.38" viewBox="0 0 102.38 102.38">
  <defs>
    <clipPath id="clip-path">
      <rect id="Rectángulo_403518" data-name="Rectángulo 403518" width="52" height="52" transform="translate(0 0.167)" fill="none"/>
    </clipPath>
  </defs>
  <g id="Grupo_1102230" data-name="Grupo 1102230" transform="translate(-749.047 -7246.631)">
    <circle id="Elipse_11580" data-name="Elipse 11580" cx="49.69" cy="49.69" r="49.69" transform="translate(750.547 7248.131)" fill="#efedee" stroke="#007dfe" stroke-miterlimit="10" stroke-width="3"/>
    <g id="Grupo_1101923" data-name="Grupo 1101923" transform="translate(-72.093 -81.799)">
      <path id="Trazado_913111" data-name="Trazado 913111" d="M64.133,150.45H29.486a.958.958,0,0,1,0-1.916H64.133a.958.958,0,0,1,0,1.916" transform="translate(833.127 7257.718)" fill="#6b8be8"/>
      <path id="Trazado_913129" data-name="Trazado 913129" d="M50.415,150.45h-21.3c-.325,0-.589-.429-.589-.958s.263-.958.589-.958h21.3c.325,0,.589.429.589.958s-.263.958-.589.958" transform="translate(823.127 7262.985)" fill="#6b8be8"/>
      <rect id="Rectángulo_403515" data-name="Rectángulo 403515" width="48.172" height="67.631" transform="translate(850.045 7345.804)" fill="none"/>
      <g id="Grupo_1101922" data-name="Grupo 1101922" transform="translate(846.051 7348.833)">
        <g id="Grupo_1101922-2" data-name="Grupo 1101922" clip-path="url(#clip-path)">
          <path id="Trazado_913111-2" data-name="Trazado 913111" d="M54.912,8H11.475A3.475,3.475,0,0,0,8,11.475V28.85a3.475,3.475,0,0,0,3.475,3.475l44.306-.109a3.477,3.477,0,0,0,2.606-3.366V11.475A3.475,3.475,0,0,0,54.912,8" transform="translate(-7.131 -7.131)" fill="#4b96e3"/>
          <path id="Trazado_913112" data-name="Trazado 913112" d="M367.045,219.3a3.883,3.883,0,0,1-3.176-3.176.173.173,0,0,0-.33,0,3.882,3.882,0,0,1-3.176,3.176.173.173,0,0,0,0,.33,3.883,3.883,0,0,1,3.176,3.176.173.173,0,0,0,.33,0,3.883,3.883,0,0,1,3.176-3.176.173.173,0,0,0,0-.33" transform="translate(-321.122 -192.546)" fill="#ffe38f"/>
          <rect id="Rectángulo_403515-2" data-name="Rectángulo 403515" width="13" height="13" transform="translate(4 6.167)" fill="#fa6d61"/>
          <rect id="Rectángulo_403516" data-name="Rectángulo 403516" width="12" height="13" transform="translate(20 6.167)" fill="#fa6d61"/>
          <rect id="Rectángulo_403517" data-name="Rectángulo 403517" width="12" height="13" transform="translate(36 6.167)" fill="#fa6d61"/>
          <path id="Trazado_913113" data-name="Trazado 913113" d="M277.873,337.3l1.764-.023-.04-3.12-1.764.023a6.2,6.2,0,0,0-.685-1.6l1.231-1.263-2.234-2.178-1.231,1.263a6.214,6.214,0,0,0-1.613-.644L273.278,328l-3.12.04.023,1.764a6.2,6.2,0,0,0-1.6.685l-1.263-1.231-2.178,2.234,1.263,1.231a6.217,6.217,0,0,0-.644,1.613l-1.764.023.04,3.12,1.764-.023a6.2,6.2,0,0,0,.685,1.6l-1.231,1.263,2.234,2.178,1.231-1.263a6.215,6.215,0,0,0,1.613.644l.023,1.764,3.12-.04-.023-1.764a6.2,6.2,0,0,0,1.6-.685l1.263,1.231,2.178-2.234-1.263-1.231a6.19,6.19,0,0,0,.643-1.613m-6.04,1.089a2.612,2.612,0,1,1,2.578-2.645A2.612,2.612,0,0,1,271.833,338.39Z" transform="translate(-235.331 -292.381)" fill="#526273"/>
          <path id="Trazado_913114" data-name="Trazado 913114" d="M83.981,272l-4.4,7.532H71L66.606,272,64,273.738l6.081,11.294v9.556H80.506v-9.556l6.081-11.294Z" transform="translate(-57.05 -242.463)" fill="#4b96e3"/>
          <path id="Trazado_913115" data-name="Trazado 913115" d="M153.738,376,152,382.081l1.738,2.606,1.738-2.606Z" transform="translate(-135.494 -335.169)" fill="#759acc"/>
          <path id="Trazado_913116" data-name="Trazado 913116" d="M136.687,300.344a2.762,2.762,0,0,1-.043.539,4.333,4.333,0,0,1-8.6,0,2.762,2.762,0,0,1-.043-.539,4.344,4.344,0,1,1,8.687,0" transform="translate(-114.1 -263.856)" fill="#ffdbac"/>
          <path id="Trazado_913117" data-name="Trazado 913117" d="M132.344,296A4.345,4.345,0,0,0,128,300.344a2.762,2.762,0,0,0,.043.539,5.2,5.2,0,0,1,8.6,0,2.762,2.762,0,0,0,.043-.539A4.345,4.345,0,0,0,132.344,296" transform="translate(-114.1 -263.856)" fill="#526273"/>
          <path id="Trazado_913118" data-name="Trazado 913118" d="M307.211,367.568a3.481,3.481,0,0,0,.043,6.962h.046a3.481,3.481,0,0,0,2.386-5.974,3.55,3.55,0,0,0-2.474-.989m1.293,4.7a1.726,1.726,0,0,1-1.227.526,1.866,1.866,0,0,1-1.239-.494,1.743,1.743,0,0,1,1.195-2.992h.023a1.744,1.744,0,0,1,1.248,2.96" transform="translate(-270.786 -327.652)"/>
          <path id="Trazado_913119" data-name="Trazado 913119" d="M272.517,331.024a.869.869,0,0,0,.857-.88l-.04-3.12a.868.868,0,0,0-.869-.857h-.011l-1.126.015c-.073-.195-.155-.384-.244-.571l.784-.805a.868.868,0,0,0-.016-1.228L269.62,321.4a.765.765,0,0,0-.618-.247.867.867,0,0,0-.611.262l-.785.806q-.283-.129-.577-.23l-.014-1.125a.865.865,0,0,0-.262-.611.993.993,0,0,0-.618-.247l-3.12.04a.869.869,0,0,0-.857.88l.015,1.126c-.195.073-.384.155-.571.244l-.805-.784a.869.869,0,0,0-1.228.016l-2.178,2.234a.868.868,0,0,0,.016,1.228l.806.785q-.129.283-.23.577l-1.125.014a.869.869,0,0,0-.857.88l.04,3.12a.868.868,0,0,0,.869.857h.011l1.126-.015c.073.195.155.384.244.571l-.784.805a.868.868,0,0,0,.016,1.228l2.234,2.178a.9.9,0,0,0,.618.247.867.867,0,0,0,.611-.262l.785-.806q.283.129.577.23l.014,1.125a.867.867,0,0,0,.868.857h.011l3.12-.04a.869.869,0,0,0,.857-.88l-.015-1.126c.195-.073.384-.155.571-.244l.805.784a.867.867,0,0,0,1.228-.016l2.178-2.234a.868.868,0,0,0-.016-1.228l-.806-.785q.129-.283.23-.577Zm-1.787-1.716a.868.868,0,0,0-.833.665,5.329,5.329,0,0,1-.553,1.387.867.867,0,0,0,.147,1.054l.641.626-.965.99-.64-.625a.869.869,0,0,0-1.058-.121,5.339,5.339,0,0,1-1.372.589.868.868,0,0,0-.641.85l.011.9-1.382.018-.011-.9a.868.868,0,0,0-.665-.833,5.331,5.331,0,0,1-1.387-.553.856.856,0,0,0-.432-.116.87.87,0,0,0-.622.262l-.625.641-.99-.965.625-.64a.87.87,0,0,0,.121-1.058,5.337,5.337,0,0,1-.589-1.372.867.867,0,0,0-.838-.641h-.011l-.9.011-.018-1.382.9-.011a.868.868,0,0,0,.833-.665,5.329,5.329,0,0,1,.553-1.387.868.868,0,0,0-.147-1.054l-.641-.625.965-.99.64.625a.869.869,0,0,0,1.058.121,5.339,5.339,0,0,1,1.372-.589.868.868,0,0,0,.641-.85l-.011-.9,1.382-.018.011.9a.868.868,0,0,0,.665.833,5.329,5.329,0,0,1,1.387.552.867.867,0,0,0,1.054-.147l.625-.641.99.965-.625.64a.87.87,0,0,0-.121,1.058,5.335,5.335,0,0,1,.589,1.372.867.867,0,0,0,.838.641h.011l.9-.011.018,1.382Z" transform="translate(-228.2 -285.257)"/>
          <path id="Trazado_913120" data-name="Trazado 913120" d="M32.869,56a.868.868,0,0,0-.869.869V69.031a.868.868,0,0,0,.869.869H45.031a.868.868,0,0,0,.869-.869V56.869A.868.868,0,0,0,45.031,56ZM44.162,68.162H33.737V57.737H44.162Z" transform="translate(-28.525 -49.919)"/>
          <path id="Trazado_913121" data-name="Trazado 913121" d="M69.564,98.131c.028,0,.056,0,.086,0a.867.867,0,0,0,.637-.382l3.475-5.212-1.446-.963L69.43,95.9l-1.857-1.857L66.344,95.27l2.606,2.606A.866.866,0,0,0,69.564,98.131Z" transform="translate(-59.139 -81.624)"/>
          <path id="Trazado_913122" data-name="Trazado 913122" d="M176.869,56a.868.868,0,0,0-.869.869V69.031a.868.868,0,0,0,.869.869h12.162a.868.868,0,0,0,.869-.869V56.869a.868.868,0,0,0-.869-.869Zm11.294,12.162H177.738V57.737h10.425Z" transform="translate(-156.888 -49.919)"/>
          <path id="Trazado_913123" data-name="Trazado 913123" d="M213.564,98.131c.028,0,.056,0,.086,0a.867.867,0,0,0,.637-.382l3.475-5.212-1.446-.963L213.43,95.9l-1.857-1.857-1.228,1.228,2.606,2.606a.866.866,0,0,0,.614.255" transform="translate(-187.502 -81.624)"/>
          <path id="Trazado_913124" data-name="Trazado 913124" d="M333.9,69.031V56.869a.868.868,0,0,0-.869-.869H320.869a.868.868,0,0,0-.869.869V69.031a.868.868,0,0,0,.869.869h12.163a.868.868,0,0,0,.869-.869m-1.737-.869H321.738V57.737h10.425Z" transform="translate(-285.25 -49.919)"/>
          <path id="Trazado_913125" data-name="Trazado 913125" d="M357.564,98.131c.028,0,.056,0,.086,0a.867.867,0,0,0,.637-.382l3.475-5.212-1.446-.963L357.43,95.9l-1.857-1.857-1.228,1.228,2.606,2.606a.866.866,0,0,0,.614.255" transform="translate(-315.865 -81.624)"/>
          <path id="Trazado_913126" data-name="Trazado 913126" d="M4.344,26.062H36.487V24.325H4.344a2.609,2.609,0,0,1-2.606-2.606V4.344A2.609,2.609,0,0,1,4.344,1.737H47.781a2.609,2.609,0,0,1,2.606,2.606V21.719a2.6,2.6,0,0,1-1.954,2.524l.433,1.684a4.343,4.343,0,0,0,3.259-4.207V4.344A4.349,4.349,0,0,0,47.781,0H4.344A4.349,4.349,0,0,0,0,4.344V21.719a4.349,4.349,0,0,0,4.344,4.344"/>
          <path id="Trazado_913127" data-name="Trazado 913127" d="M357.556,208.778a.869.869,0,0,0-.638-.837c-2.322-.641-2.661-.981-3.3-3.3a.869.869,0,0,0-1.675,0c-.641,2.322-.981,2.661-3.3,3.3a.869.869,0,0,0,0,1.675c2.322.641,2.661.981,3.3,3.3a.869.869,0,0,0,1.675,0c.641-2.322.981-2.661,3.3-3.3A.869.869,0,0,0,357.556,208.778Zm-4.778,1.466a3.76,3.76,0,0,0-1.466-1.466,3.76,3.76,0,0,0,1.466-1.466,3.76,3.76,0,0,0,1.466,1.466,3.765,3.765,0,0,0-1.466,1.466" transform="translate(-310.209 -181.847)"/>
          <path id="Trazado_913128" data-name="Trazado 913128" d="M72.5,277.9v9.556H74.24v-9.337l5.978-11.1a.869.869,0,0,0-.283-1.135l-2.606-1.737a.882.882,0,0,0-.678-.124.865.865,0,0,0-.554.409L72.964,269.8a5.212,5.212,0,0,0-9.61,0l-3.133-5.368a.867.867,0,0,0-1.232-.285l-2.606,1.737a.869.869,0,0,0-.283,1.135l5.978,11.1v9.337h1.738V277.9a.875.875,0,0,0-.1-.412l-5.707-10.6,1.181-.787,3.867,6.627a5.166,5.166,0,0,0,3.991,4.17l-1.459,5.106a.869.869,0,0,0,.113.72l1.738,2.606a.869.869,0,0,0,1.446,0l1.738-2.606a.869.869,0,0,0,.113-.72L69.274,276.9a5.135,5.135,0,0,0,4-4.18l3.862-6.617,1.181.787-5.707,10.6A.875.875,0,0,0,72.5,277.9Zm-4.344-9.556a3.466,3.466,0,0,1,2.932,1.628,6.041,6.041,0,0,0-5.864,0,3.466,3.466,0,0,1,2.932-1.628m0,14.94-.791-1.188.791-2.771.791,2.771Zm0-7.99a3.456,3.456,0,0,1-3.368-2.725,4.314,4.314,0,0,1,6.739,0,3.445,3.445,0,0,1-3.371,2.723" transform="translate(-49.915 -235.334)"/>
        </g>
      </g>
    </g>
  </g>
</svg>
