<svg xmlns="http://www.w3.org/2000/svg" xmlns:xlink="http://www.w3.org/1999/xlink" width="102.38" height="102.38" viewBox="0 0 102.38 102.38">
  <defs>
    <clipPath id="clip-path">
      <rect id="Rectángulo_403522" data-name="Rectángulo 403522" width="55.756" height="55.531" fill="none"/>
    </clipPath>
  </defs>
  <g id="Grupo_1102231" data-name="Grupo 1102231" transform="translate(-1101.102 -7246.631)">
    <circle id="Elipse_11581" data-name="Elipse 11581" cx="49.69" cy="49.69" r="49.69" transform="translate(1102.602 7248.131)" fill="#efedee" stroke="#007dfe" stroke-miterlimit="10" stroke-width="3"/>
    <g id="Grupo_1101925" data-name="Grupo 1101925">
      <g id="Grupo_1101924" data-name="Grupo 1101924" transform="translate(1132.815 7269.973)">
        <g id="Grupo_1101924-2" data-name="Grupo 1101924" transform="translate(-2 -2)" clip-path="url(#clip-path)">
          <path id="Trazado_913130" data-name="Trazado 913130" d="M4,6.913V47.685a3.39,3.39,0,0,0,3.379,3.382H38.242a3.39,3.39,0,0,0,3.379-3.382V6.913a3.39,3.39,0,0,0-3.379-3.382H7.379A3.39,3.39,0,0,0,4,6.913Z" transform="translate(-1.771 -1.35)" fill="#4b96e3" fill-rule="evenodd"/>
          <rect id="Rectángulo_403519" data-name="Rectángulo 403519" width="8.575" height="8.572" transform="translate(6.125 35.906)" fill="#ffd301"/>
          <rect id="Rectángulo_403520" data-name="Rectángulo 403520" width="8.575" height="8.572" transform="translate(6.125 22.647)" fill="#ffd301"/>
          <rect id="Rectángulo_403521" data-name="Rectángulo 403521" width="8.575" height="8.575" transform="translate(6.125 9.389)" fill="#ffd301"/>
          <path id="Trazado_913131" data-name="Trazado 913131" d="M220.492,319.329a10.558,10.558,0,1,0-10.558-10.558,10.578,10.578,0,0,0,10.558,10.558" transform="translate(-186.703 -265.979)" fill="#fd646f" fill-rule="evenodd"/>
          <path id="Trazado_913132" data-name="Trazado 913132" d="M253,346.146a6.866,6.866,0,1,0-6.866-6.866A6.878,6.878,0,0,0,253,346.146" transform="translate(-219.212 -296.692)" fill="#f5f5f5" fill-rule="evenodd"/>
          <path id="Trazado_913133" data-name="Trazado 913133" d="M285.845,375.261a3.136,3.136,0,1,0-3.136-3.136,3.142,3.142,0,0,0,3.136,3.136" transform="translate(-252.056 -329.537)" fill="#fd646f" fill-rule="evenodd"/>
          <path id="Trazado_913134" data-name="Trazado 913134" d="M252.6,374.027a10.791,10.791,0,0,1-18.1,7.94,10.561,10.561,0,0,0,17.854-10.233,10.764,10.764,0,0,1,.246,2.294" transform="translate(-208.765 -332.001)" fill="#eb4954" fill-rule="evenodd"/>
          <path id="Trazado_913135" data-name="Trazado 913135" d="M430.133,290.364V287.4l3.177-1.834v2.966l2.572,1.486L432.7,291.85Z" transform="translate(-384.445 -254.619)" fill="#fac149" fill-rule="evenodd"/>
          <path id="Trazado_913136" data-name="Trazado 913136" d="M3.745,33.973a.713.713,0,0,1,.713-.713h5.906a.713.713,0,0,1,0,1.425H5.17v7.028H12.2V37.3a.713.713,0,1,1,1.425,0v5.124a.713.713,0,0,1-.713.713H4.457a.713.713,0,0,1-.713-.713Zm11.227-2.5a.713.713,0,0,0-1,.111l-5.428,6.78L7.087,36.036a.713.713,0,0,0-1.208.756l1.988,3.179a.713.713,0,0,0,.563.334h.041a.713.713,0,0,0,.556-.267l6.056-7.565A.712.712,0,0,0,14.972,31.472ZM3.745,29.351a.713.713,0,0,0,.713.713h8.453a.713.713,0,0,0,.713-.713V24.227a.713.713,0,1,0-1.425,0v4.411H5.17V21.61h5.193a.713.713,0,0,0,0-1.425H4.457a.713.713,0,0,0-.713.713ZM14.972,18.4a.713.713,0,0,0-1,.111L8.542,25.288,7.087,22.96a.713.713,0,1,0-1.208.756L7.867,26.9a.713.713,0,0,0,.563.334h.042a.712.712,0,0,0,.556-.267L15.083,19.4a.713.713,0,0,0-.111-1m6.56,28.482H4.048a2.626,2.626,0,0,1-2.623-2.623V4.048A2.626,2.626,0,0,1,4.048,1.425H34.483a2.626,2.626,0,0,1,2.623,2.623V29.789a.713.713,0,1,0,1.425,0V4.048A4.052,4.052,0,0,0,34.483,0H4.048A4.053,4.053,0,0,0,0,4.048v40.21a4.052,4.052,0,0,0,4.048,4.048H21.532a.713.713,0,0,0,0-1.425M10.363,8.534a.713.713,0,0,0,0-1.425H4.457a.713.713,0,0,0-.713.713v8.456a.713.713,0,0,0,.713.713h8.453a.713.713,0,0,0,.713-.713V11.151a.713.713,0,1,0-1.425,0v4.414H5.17V8.534Zm4.609-3.211a.712.712,0,0,0-1,.111L8.542,12.213,7.087,9.887a.713.713,0,1,0-1.208.756L7.867,13.82a.713.713,0,0,0,.563.333h.041a.712.712,0,0,0,.556-.267l6.056-7.562A.713.713,0,0,0,14.972,5.324Zm17.4,1.785H17.966a.713.713,0,0,0,0,1.425H32.377a.713.713,0,0,0,0-1.425m0,3.814H17.966a.713.713,0,0,0,0,1.425H32.377a.713.713,0,0,0,0-1.425m0,9.261H17.966a.713.713,0,0,0,0,1.425H32.377a.713.713,0,0,0,0-1.425m.713,4.527A.713.713,0,0,0,32.377,24H17.966a.713.713,0,0,0,0,1.425H32.377a.713.713,0,0,0,.713-.713M22.221,33.973a.713.713,0,0,0-.713-.713H17.966a.713.713,0,0,0,0,1.425h3.543a.713.713,0,0,0,.713-.713m-4.256,3.1a.713.713,0,0,0,0,1.425h1.887a.713.713,0,0,0,0-1.425Zm33.792-6.927-3.221,1.859L50,32.854a.713.713,0,0,1,0,1.234L46.871,35.9a.712.712,0,0,1-.713,0l-2.18-1.26-2.067,1.194A11.156,11.156,0,1,1,41.2,34.6L43.266,33.4V30.889a.713.713,0,0,1,.356-.617l3.133-1.809a.713.713,0,0,1,1.069.617v1.692l3.221-1.859a.713.713,0,0,1,.712,1.234Zm-11.084,6.4-1.927,1.113a7.509,7.509,0,1,1-.715-1.233l1.927-1.112a9.649,9.649,0,1,0,.715,1.233ZM31.2,40.366l2.346-1.354a2.38,2.38,0,1,0,.714,1.234L31.917,41.6a.713.713,0,1,1-.713-1.234m3.615-2.087,1.974-1.139a6.044,6.044,0,1,0,.714,1.233l-1.973,1.139a3.817,3.817,0,1,1-.715-1.233Zm13.4-4.809-1.461-.844,0,0,0,0-.017-.012c-.02-.012-.04-.025-.059-.04l-.022-.019c-.016-.014-.033-.027-.048-.042s-.018-.021-.028-.031-.023-.025-.034-.039a.725.725,0,0,1-.052-.077h0a.723.723,0,0,1-.038-.076l-.008-.02c-.008-.021-.015-.042-.021-.063l-.006-.02a.709.709,0,0,1-.016-.079v0a.7.7,0,0,1-.006-.088s0,0,0-.006V30.314l-1.708.986v2.1l1.824,1.054Z" transform="translate(1.821 1.821)"/>
        </g>
      </g>
      <path id="Trazado_913137" data-name="Trazado 913137" d="M49.242,160.1H33.336a.861.861,0,1,0,0,1.721H49.242a.861.861,0,1,0,0-1.721" transform="translate(1101.404 7170.467)" fill="#4b96e3"/>
      <path id="Trazado_913138" data-name="Trazado 913138" d="M82.643,146.3h0l-16.376.031a.861.861,0,0,0,0,1.722h0l16.375-.031a.861.861,0,0,0,0-1.722" transform="translate(1080.519 7179.221)" fill="#4b96e3"/>
    </g>
  </g>
</svg>
