<svg xmlns="http://www.w3.org/2000/svg" xmlns:xlink="http://www.w3.org/1999/xlink" width="102.38" height="102.38" viewBox="0 0 102.38 102.38">
  <defs>
    <clipPath id="clip-path">
      <rect id="Rectángulo_403523" data-name="Rectángulo 403523" width="52.336" height="54.379" fill="none"/>
    </clipPath>
    <linearGradient id="linear-gradient" x1="0.5" x2="0.5" y2="1" gradientUnits="objectBoundingBox">
      <stop offset="0" stop-color="#007dfe"/>
      <stop offset="1" stop-color="#6b8be8"/>
    </linearGradient>
  </defs>
  <g id="Grupo_1102226" data-name="Grupo 1102226" transform="translate(-398.096 -617.429)">
    <circle id="Elipse_11609" data-name="Elipse 11609" cx="49.69" cy="49.69" r="49.69" transform="translate(399.596 618.929)" fill="#efedee" stroke="#007dfe" stroke-miterlimit="10" stroke-width="3"/>
    <g id="Grupo_1101926" data-name="Grupo 1101926" transform="translate(422.664 638.621)">
      <g id="Grupo_1101926-2" data-name="Grupo 1101926" clip-path="url(#clip-path)">
        <path id="Trazado_913139" data-name="Trazado 913139" d="M55.519,247.384H49.225a.358.358,0,0,0-.358.358v4.188a.358.358,0,0,0,.358.358h6.295a.358.358,0,0,0,.358-.358v-4.188a.358.358,0,0,0-.358-.358" transform="translate(-43.677 -221.11)" fill="#4b96e3"/>
        <path id="Trazado_913140" data-name="Trazado 913140" d="M85.03,247.384H81.885v4.9H85.03a.358.358,0,0,0,.358-.358v-4.188a.358.358,0,0,0-.358-.358" transform="translate(-73.188 -221.11)" fill="#4b9ee2"/>
        <path id="Trazado_913141" data-name="Trazado 913141" d="M372.518,135.757h-2.64a.824.824,0,0,1-.824-.825v-2.885a.824.824,0,0,1,.824-.824h2.64a.824.824,0,0,1,.824.824v2.885a.824.824,0,0,1-.824.825" transform="translate(-329.857 -117.286)" fill="#fa6d61"/>
        <path id="Trazado_913142" data-name="Trazado 913142" d="M345.223,175.336h-10.09a.785.785,0,0,1-.786-.786v-7.616a.785.785,0,0,1,.786-.786h10.09a.785.785,0,0,1,.786.786v7.616a.785.785,0,0,1-.786.786" transform="translate(-298.837 -148.502)" fill="#f33a3a"/>
        <path id="Trazado_913143" data-name="Trazado 913143" d="M318.174,233.736H300.469V201.547H317.74a.435.435,0,0,1,.435.435Z" transform="translate(-268.556 -180.141)" fill="#fa6d61"/>
        <path id="Trazado_913144" data-name="Trazado 913144" d="M422.608,201.547H417.8a.435.435,0,0,1,.435.435v31.754h4.809V201.982a.435.435,0,0,0-.435-.435" transform="translate(-373.425 -180.141)" fill="#f33a3a"/>
        <path id="Trazado_913145" data-name="Trazado 913145" d="M345.145,250.187H335a.65.65,0,0,1-.65-.65v-1.5a.65.65,0,0,1,.65-.65h10.146a.65.65,0,0,1,.65.65v1.5a.65.65,0,0,1-.65.65" transform="translate(-298.838 -221.109)" fill="#e1effb"/>
        <path id="Trazado_913146" data-name="Trazado 913146" d="M345.145,310.722H335a.65.65,0,0,1-.65-.65v-1.5a.65.65,0,0,1,.65-.65h10.146a.65.65,0,0,1,.65.65v1.5a.65.65,0,0,1-.65.65" transform="translate(-298.838 -275.214)" fill="#e1effb"/>
        <path id="Trazado_913147" data-name="Trazado 913147" d="M345.145,371.256H335a.65.65,0,0,1-.65-.65v-1.5a.65.65,0,0,1,.65-.65h10.146a.65.65,0,0,1,.65.65v1.5a.65.65,0,0,1-.65.65" transform="translate(-298.838 -329.319)" fill="#e1effb"/>
        <path id="Trazado_913148" data-name="Trazado 913148" d="M345.145,431.79H335a.65.65,0,0,1-.65-.65v-1.5a.65.65,0,0,1,.65-.65h10.146a.65.65,0,0,1,.65.65v1.5a.65.65,0,0,1-.65.65" transform="translate(-298.838 -383.424)" fill="#e1effb"/>
        <path id="Trazado_913149" data-name="Trazado 913149" d="M166.769,68.164H146.324a.592.592,0,0,1-.592-.592V16.893a.592.592,0,0,1,.592-.592h20.446a.592.592,0,0,1,.592.592v50.68a.592.592,0,0,1-.592.592" transform="translate(-130.254 -14.57)" fill="#8ab2ee"/>
        <path id="Trazado_913150" data-name="Trazado 913150" d="M303.337,16.3h-4.809a.592.592,0,0,1,.592.592v50.68a.592.592,0,0,1-.592.592h4.809a.592.592,0,0,0,.592-.592V16.893a.592.592,0,0,0-.592-.592" transform="translate(-266.822 -14.57)" fill="url(#linear-gradient)"/>
        <path id="Trazado_913151" data-name="Trazado 913151" d="M155.9,7.385H132.16a.294.294,0,0,0-.294.294V9.671a.294.294,0,0,0,.294.294H155.9a.294.294,0,0,0,.294-.294V7.679a.294.294,0,0,0-.294-.294" transform="translate(-117.861 -6.601)" fill="#8ab2ee"/>
        <path id="Trazado_913152" data-name="Trazado 913152" d="M174.284,62.845h-2.876a.367.367,0,0,1-.367-.367V58.966a.367.367,0,0,1,.367-.367h2.876a.367.367,0,0,1,.367.367v3.512a.367.367,0,0,1-.367.367" transform="translate(-152.875 -52.375)" fill="#e1effb"/>
        <path id="Trazado_913153" data-name="Trazado 913153" d="M233.8,62.845h-2.876a.367.367,0,0,1-.367-.367V58.966a.367.367,0,0,1,.367-.367H233.8a.367.367,0,0,1,.367.367v3.512a.367.367,0,0,1-.367.367" transform="translate(-206.073 -52.375)" fill="#e1effb"/>
        <path id="Trazado_913154" data-name="Trazado 913154" d="M293.323,62.845h-2.876a.367.367,0,0,1-.367-.367V58.966a.367.367,0,0,1,.367-.367h2.876a.367.367,0,0,1,.367.367v3.512a.367.367,0,0,1-.367.367" transform="translate(-259.271 -52.375)" fill="#e1effb"/>
        <path id="Trazado_913155" data-name="Trazado 913155" d="M174.284,152.049h-2.876a.367.367,0,0,1-.367-.367V148.17a.367.367,0,0,1,.367-.367h2.876a.367.367,0,0,1,.367.367v3.512a.367.367,0,0,1-.367.367" transform="translate(-152.875 -132.105)" fill="#e1effb"/>
        <path id="Trazado_913156" data-name="Trazado 913156" d="M233.8,152.049h-2.876a.367.367,0,0,1-.367-.367V148.17a.367.367,0,0,1,.367-.367H233.8a.367.367,0,0,1,.367.367v3.512a.367.367,0,0,1-.367.367" transform="translate(-206.073 -132.105)" fill="#e1effb"/>
        <path id="Trazado_913157" data-name="Trazado 913157" d="M293.323,152.049h-2.876a.367.367,0,0,1-.367-.367V148.17a.367.367,0,0,1,.367-.367h2.876a.367.367,0,0,1,.367.367v3.512a.367.367,0,0,1-.367.367" transform="translate(-259.271 -132.105)" fill="#e1effb"/>
        <path id="Trazado_913158" data-name="Trazado 913158" d="M174.284,241.252h-2.876a.367.367,0,0,1-.367-.367v-3.512a.367.367,0,0,1,.367-.367h2.876a.367.367,0,0,1,.367.367v3.512a.367.367,0,0,1-.367.367" transform="translate(-152.875 -211.834)" fill="#e1effb"/>
        <path id="Trazado_913159" data-name="Trazado 913159" d="M233.8,241.252h-2.876a.367.367,0,0,1-.367-.367v-3.512a.367.367,0,0,1,.367-.367H233.8a.367.367,0,0,1,.367.367v3.512a.367.367,0,0,1-.367.367" transform="translate(-206.073 -211.834)" fill="#e1effb"/>
        <path id="Trazado_913160" data-name="Trazado 913160" d="M293.323,241.252h-2.876a.367.367,0,0,1-.367-.367v-3.512a.367.367,0,0,1,.367-.367h2.876a.367.367,0,0,1,.367.367v3.512a.367.367,0,0,1-.367.367" transform="translate(-259.271 -211.834)" fill="#e1effb"/>
        <path id="Trazado_913161" data-name="Trazado 913161" d="M233.8,330.455h-2.876a.367.367,0,0,1-.367-.367v-3.512a.367.367,0,0,1,.367-.367H233.8a.367.367,0,0,1,.367.367v3.512a.367.367,0,0,1-.367.367" transform="translate(-206.073 -291.563)" fill="#e1effb"/>
        <path id="Trazado_913162" data-name="Trazado 913162" d="M293.323,330.455h-2.876a.367.367,0,0,1-.367-.367v-3.512a.367.367,0,0,1,.367-.367h2.876a.367.367,0,0,1,.367.367v3.512a.367.367,0,0,1-.367.367" transform="translate(-259.271 -291.563)" fill="#e1effb"/>
        <path id="Trazado_913163" data-name="Trazado 913163" d="M233.8,419.659h-2.876a.367.367,0,0,1-.367-.367V415.78a.367.367,0,0,1,.367-.367H233.8a.367.367,0,0,1,.367.367v3.512a.367.367,0,0,1-.367.367" transform="translate(-206.073 -371.292)" fill="#e1effb"/>
        <path id="Trazado_913164" data-name="Trazado 913164" d="M293.323,419.659h-2.876a.367.367,0,0,1-.367-.367V415.78a.367.367,0,0,1,.367-.367h2.876a.367.367,0,0,1,.367.367v3.512a.367.367,0,0,1-.367.367" transform="translate(-259.271 -371.292)" fill="#e1effb"/>
        <path id="Trazado_913165" data-name="Trazado 913165" d="M47.8,303.065H26.044a.452.452,0,0,1-.452-.452V279.567a.452.452,0,0,1,.452-.452H47.8a.452.452,0,0,1,.452.452v23.046a.452.452,0,0,1-.452.452" transform="translate(-22.874 -249.47)" fill="#d2e1f1"/>
        <path id="Trazado_913166" data-name="Trazado 913166" d="M193.459,279.114h-4.9a.452.452,0,0,1,.452.452v23.046a.452.452,0,0,1-.452.452h4.9a.452.452,0,0,0,.452-.452V279.566a.452.452,0,0,0-.452-.452" transform="translate(-168.536 -249.47)" fill="#4b96e3"/>
        <path id="Trazado_913167" data-name="Trazado 913167" d="M54.108,317.762H51.261a.454.454,0,0,1-.454-.454v-1.813a.454.454,0,0,1,.454-.454h2.847a.454.454,0,0,1,.454.454v1.813a.454.454,0,0,1-.454.454" transform="translate(-45.411 -281.581)" fill="#e1effb"/>
        <path id="Trazado_913168" data-name="Trazado 913168" d="M116.507,317.762H113.66a.454.454,0,0,1-.454-.454v-1.813a.454.454,0,0,1,.454-.454h2.847a.454.454,0,0,1,.454.454v1.813a.454.454,0,0,1-.454.454" transform="translate(-101.182 -281.581)" fill="#e1effb"/>
        <path id="Trazado_913169" data-name="Trazado 913169" d="M178.9,317.762h-2.847a.454.454,0,0,1-.454-.454v-1.813a.454.454,0,0,1,.454-.454H178.9a.454.454,0,0,1,.454.454v1.813a.454.454,0,0,1-.454.454" transform="translate(-156.953 -281.581)" fill="#e1effb"/>
        <path id="Trazado_913170" data-name="Trazado 913170" d="M54.108,377.681H51.261a.454.454,0,0,1-.454-.454v-1.813a.454.454,0,0,1,.454-.454h2.847a.454.454,0,0,1,.454.454v1.813a.454.454,0,0,1-.454.454" transform="translate(-45.411 -335.136)" fill="#e1effb"/>
        <path id="Trazado_913171" data-name="Trazado 913171" d="M116.507,377.681H113.66a.454.454,0,0,1-.454-.454v-1.813a.454.454,0,0,1,.454-.454h2.847a.454.454,0,0,1,.454.454v1.813a.454.454,0,0,1-.454.454" transform="translate(-101.182 -335.136)" fill="#e1effb"/>
        <path id="Trazado_913172" data-name="Trazado 913172" d="M178.9,377.681h-2.847a.454.454,0,0,1-.454-.454v-1.813a.454.454,0,0,1,.454-.454H178.9a.454.454,0,0,1,.454.454v1.813a.454.454,0,0,1-.454.454" transform="translate(-156.953 -335.136)" fill="#e1effb"/>
        <path id="Trazado_913173" data-name="Trazado 913173" d="M54.108,437.6H51.261a.454.454,0,0,1-.454-.454v-1.813a.454.454,0,0,1,.454-.454h2.847a.454.454,0,0,1,.454.454v1.813a.454.454,0,0,1-.454.454" transform="translate(-45.411 -388.691)" fill="#e1effb"/>
        <path id="Trazado_913174" data-name="Trazado 913174" d="M116.507,437.6H113.66a.454.454,0,0,1-.454-.454v-1.813a.454.454,0,0,1,.454-.454h2.847a.454.454,0,0,1,.454.454v1.813a.454.454,0,0,1-.454.454" transform="translate(-101.182 -388.691)" fill="#e1effb"/>
        <path id="Trazado_913175" data-name="Trazado 913175" d="M178.9,437.6h-2.847a.454.454,0,0,1-.454-.454v-1.813a.454.454,0,0,1,.454-.454H178.9a.454.454,0,0,1,.454.454v1.813a.454.454,0,0,1-.454.454" transform="translate(-156.953 -388.691)" fill="#e1effb"/>
        <path id="Trazado_913176" data-name="Trazado 913176" d="M56.941,481.8H8.6a1.211,1.211,0,0,0,0,2.423H56.941a1.211,1.211,0,1,0,0-2.423" transform="translate(-6.601 -430.631)" fill="#2d5872"/>
        <path id="Trazado_913177" data-name="Trazado 913177" d="M58.145,482.882c0-.008,0-.016,0-.024,0-.037-.011-.073-.019-.109l0-.015a1.19,1.19,0,0,0-.033-.115l0,0a1.2,1.2,0,0,0-.049-.119h0a1.211,1.211,0,0,0-1.094-.693h-3.6v.309a1.077,1.077,0,0,1-1.077,1.077H8.6A1.21,1.21,0,0,1,7.5,482.5a1.209,1.209,0,0,0,1.094,1.73H56.941a1.209,1.209,0,0,0,1.2-1.344" transform="translate(-6.601 -430.632)" fill="#1d4859"/>
        <path id="Trazado_913178" data-name="Trazado 913178" d="M44.661,311.947h2.847a1.24,1.24,0,0,0,1.238-1.238V308.9a1.24,1.24,0,0,0-1.238-1.238H44.661a1.24,1.24,0,0,0-1.238,1.238v1.813a1.24,1.24,0,0,0,1.238,1.238m.33-2.721h2.186v1.152H44.992Z" transform="translate(-38.811 -274.982)"/>
        <path id="Trazado_913179" data-name="Trazado 913179" d="M107.059,311.947h2.847a1.24,1.24,0,0,0,1.238-1.238V308.9a1.24,1.24,0,0,0-1.238-1.238h-2.847a1.24,1.24,0,0,0-1.238,1.238v1.813a1.24,1.24,0,0,0,1.238,1.238m.331-2.721h2.186v1.152H107.39Z" transform="translate(-94.582 -274.982)"/>
        <path id="Trazado_913180" data-name="Trazado 913180" d="M169.457,311.947H172.3a1.24,1.24,0,0,0,1.238-1.238V308.9a1.24,1.24,0,0,0-1.238-1.238h-2.847a1.24,1.24,0,0,0-1.238,1.238v1.813a1.24,1.24,0,0,0,1.238,1.238m.33-2.721h2.186v1.152h-2.186Z" transform="translate(-150.353 -274.982)"/>
        <path id="Trazado_913181" data-name="Trazado 913181" d="M43.423,370.626a1.24,1.24,0,0,0,1.238,1.238h2.847a1.24,1.24,0,0,0,1.238-1.238v-1.813a1.24,1.24,0,0,0-1.238-1.238H44.661a1.24,1.24,0,0,0-1.238,1.238v1.813m1.569-1.483h2.186V370.3H44.992Z" transform="translate(-38.811 -328.535)"/>
        <path id="Trazado_913182" data-name="Trazado 913182" d="M105.821,370.626a1.24,1.24,0,0,0,1.238,1.238h2.847a1.24,1.24,0,0,0,1.238-1.238v-1.813a1.24,1.24,0,0,0-1.238-1.238h-2.847a1.24,1.24,0,0,0-1.238,1.238Zm1.569-1.483h2.186V370.3H107.39Z" transform="translate(-94.582 -328.535)"/>
        <path id="Trazado_913183" data-name="Trazado 913183" d="M168.219,370.626a1.24,1.24,0,0,0,1.238,1.238H172.3a1.24,1.24,0,0,0,1.238-1.238v-1.813a1.24,1.24,0,0,0-1.238-1.238h-2.847a1.24,1.24,0,0,0-1.238,1.238v1.813Zm1.569-1.483h2.186V370.3h-2.186Z" transform="translate(-150.353 -328.535)"/>
        <path id="Trazado_913184" data-name="Trazado 913184" d="M43.423,430.547a1.24,1.24,0,0,0,1.238,1.238h2.847a1.24,1.24,0,0,0,1.238-1.238v-1.813a1.24,1.24,0,0,0-1.238-1.238H44.661a1.24,1.24,0,0,0-1.238,1.238v1.813m1.569-1.483h2.186v1.152H44.992Z" transform="translate(-38.811 -382.092)"/>
        <path id="Trazado_913185" data-name="Trazado 913185" d="M105.821,430.547a1.24,1.24,0,0,0,1.238,1.238h2.847a1.24,1.24,0,0,0,1.238-1.238v-1.813a1.24,1.24,0,0,0-1.238-1.238h-2.847a1.24,1.24,0,0,0-1.238,1.238Zm1.569-1.483h2.186v1.152H107.39Z" transform="translate(-94.582 -382.092)"/>
        <path id="Trazado_913186" data-name="Trazado 913186" d="M168.219,430.547a1.24,1.24,0,0,0,1.238,1.238H172.3a1.24,1.24,0,0,0,1.238-1.238v-1.813A1.24,1.24,0,0,0,172.3,427.5h-2.847a1.24,1.24,0,0,0-1.238,1.238v1.813Zm1.569-1.483h2.186v1.152h-2.186Z" transform="translate(-150.353 -382.092)"/>
        <path id="Trazado_913187" data-name="Trazado 913187" d="M50.4,50.391v-17.4a.784.784,0,1,0-1.569,0v17.4H37.892V49.151h8.415a1.436,1.436,0,0,0,1.435-1.435v-1.5a1.436,1.436,0,0,0-1.435-1.435H37.892V42.722h8.415a1.436,1.436,0,0,0,1.435-1.435v-1.5a1.436,1.436,0,0,0-1.435-1.435H37.892V36.292h8.415a1.436,1.436,0,0,0,1.435-1.435v-1.5a1.436,1.436,0,0,0-1.435-1.435H37.892V29.863h8.415a1.436,1.436,0,0,0,1.435-1.435v-1.5a1.436,1.436,0,0,0-1.435-1.435H37.892v-3.3H48.834V28.1a.784.784,0,1,0,1.569,0V21.841a1.22,1.22,0,0,0-1.219-1.219H47.956v-2.19a1.572,1.572,0,0,0-1.57-1.57H44.27v-2.1a1.611,1.611,0,0,0-1.609-1.609h-.536V7.586a.784.784,0,1,0-1.569,0v5.567h-.536a1.611,1.611,0,0,0-1.609,1.609v2.1h-.521V4.149h.145a1.079,1.079,0,0,0,1.078-1.078V1.078A1.079,1.079,0,0,0,38.037,0H14.3a1.079,1.079,0,0,0-1.078,1.078V3.071A1.079,1.079,0,0,0,14.3,4.149h.394V28.86h-1.71V26.632a1.143,1.143,0,0,0-1.142-1.142H5.548a1.143,1.143,0,0,0-1.142,1.142V28.86H3.17A1.238,1.238,0,0,0,1.934,30.1V41.185a.784.784,0,1,0,1.569,0V30.429H24.591V50.388H3.5v-4.32a.784.784,0,0,0-1.569,0v4.324A1.995,1.995,0,0,0,2,54.379H50.34a1.995,1.995,0,0,0,.062-3.988M39.981,14.762a.04.04,0,0,1,.04-.04h2.64a.04.04,0,0,1,.04.04v2.1h-2.72Zm-2.089,3.669h8.5v2.19h-8.5Zm0,8.628h8.281v1.236H37.892Zm0,6.429h8.281v1.236H37.892Zm0,6.429h8.281v1.236H37.892Zm0,6.429h8.281v1.236H37.892ZM11.416,28.86H5.974v-1.8h5.441ZM14.79,2.58V1.569H37.546V2.58H14.79Zm6.2,26.054H18.95V25.957h2.042ZM23.7,25.539V28.86H22.561V25.539a1.152,1.152,0,0,0-1.151-1.151H18.533a1.152,1.152,0,0,0-1.151,1.151V28.86H16.262V4.149H36.323V50.388H26.159V49.151h1.572A1.152,1.152,0,0,0,28.882,48V44.488a1.153,1.153,0,0,0-1.151-1.151H26.159v-3.66h1.572a1.153,1.153,0,0,0,1.151-1.151V35.013a1.152,1.152,0,0,0-1.151-1.151H26.159V30.2h1.572a1.152,1.152,0,0,0,1.151-1.151V25.539a1.152,1.152,0,0,0-1.151-1.151H24.855A1.153,1.153,0,0,0,23.7,25.539m1.569.418h2.042v2.677H25.272Zm.887,9.474h1.154v2.677H26.159Zm0,9.474h1.154v2.677H26.159ZM50.34,52.811H2a.427.427,0,0,1,0-.854H50.34a.427.427,0,0,1,0,.854"/>
        <path id="Trazado_913188" data-name="Trazado 913188" d="M167.684,51.215h-2.876a1.153,1.153,0,0,0-1.151,1.151v3.512a1.152,1.152,0,0,0,1.151,1.151h2.876a1.152,1.152,0,0,0,1.151-1.151V52.366a1.152,1.152,0,0,0-1.151-1.151m-.417,4.246h-2.042V52.784h2.042Z" transform="translate(-146.274 -45.775)"/>
        <path id="Trazado_913189" data-name="Trazado 913189" d="M224.327,57.03H227.2a1.152,1.152,0,0,0,1.151-1.151V52.366a1.152,1.152,0,0,0-1.151-1.151h-2.876a1.152,1.152,0,0,0-1.151,1.151v3.512a1.153,1.153,0,0,0,1.151,1.151m.417-4.246h2.042v2.677h-2.042Z" transform="translate(-199.473 -45.775)"/>
        <path id="Trazado_913190" data-name="Trazado 913190" d="M283.848,57.03h2.876a1.152,1.152,0,0,0,1.151-1.151V52.366a1.152,1.152,0,0,0-1.151-1.151h-2.876a1.152,1.152,0,0,0-1.151,1.151v3.512a1.152,1.152,0,0,0,1.151,1.151m.418-4.246h2.041v2.677h-2.041Z" transform="translate(-252.672 -45.775)"/>
        <path id="Trazado_913191" data-name="Trazado 913191" d="M167.684,140.418h-2.876a1.153,1.153,0,0,0-1.151,1.151v3.512a1.152,1.152,0,0,0,1.151,1.151h2.876a1.152,1.152,0,0,0,1.151-1.151v-3.512a1.152,1.152,0,0,0-1.151-1.151m-.417,4.246h-2.042v-2.677h2.042Z" transform="translate(-146.274 -125.504)"/>
        <path id="Trazado_913192" data-name="Trazado 913192" d="M227.2,146.233a1.152,1.152,0,0,0,1.151-1.151V141.57a1.152,1.152,0,0,0-1.151-1.151h-2.876a1.152,1.152,0,0,0-1.151,1.151v3.512a1.152,1.152,0,0,0,1.151,1.151Zm-2.459-4.246h2.042v2.677h-2.042Z" transform="translate(-199.473 -125.505)"/>
        <path id="Trazado_913193" data-name="Trazado 913193" d="M283.848,146.233h2.876a1.152,1.152,0,0,0,1.151-1.151V141.57a1.152,1.152,0,0,0-1.151-1.151h-2.876a1.152,1.152,0,0,0-1.151,1.151v3.512a1.152,1.152,0,0,0,1.151,1.151m.418-4.246h2.041v2.677h-2.041Z" transform="translate(-252.672 -125.505)"/>
        <path id="Trazado_913194" data-name="Trazado 913194" d="M283.848,235.436h2.876a1.152,1.152,0,0,0,1.151-1.151v-3.512a1.152,1.152,0,0,0-1.151-1.151h-2.876a1.152,1.152,0,0,0-1.151,1.151v3.512a1.152,1.152,0,0,0,1.151,1.151m.418-4.246h2.041v2.677h-2.041Z" transform="translate(-252.672 -205.234)"/>
        <path id="Trazado_913195" data-name="Trazado 913195" d="M283.848,324.64h2.876a1.152,1.152,0,0,0,1.151-1.151v-3.512a1.152,1.152,0,0,0-1.151-1.151h-2.876a1.152,1.152,0,0,0-1.151,1.151v3.512a1.152,1.152,0,0,0,1.151,1.151m.418-4.246h2.041v2.677h-2.041Z" transform="translate(-252.672 -284.963)"/>
        <path id="Trazado_913196" data-name="Trazado 913196" d="M283.848,413.844h2.876a1.152,1.152,0,0,0,1.151-1.151V409.18a1.152,1.152,0,0,0-1.151-1.151h-2.876a1.153,1.153,0,0,0-1.151,1.151v3.512a1.152,1.152,0,0,0,1.151,1.151m.418-4.246h2.041v2.677h-2.041Z" transform="translate(-252.672 -364.693)"/>
      </g>
    </g>
  </g>
</svg>
