<svg xmlns="http://www.w3.org/2000/svg" xmlns:xlink="http://www.w3.org/1999/xlink" width="102.38" height="102.38" viewBox="0 0 102.38 102.38">
  <defs>
    <clipPath id="clip-path">
      <rect id="Rectángulo_403538" data-name="Rectángulo 403538" width="60.048" height="60.062" fill="none"/>
    </clipPath>
  </defs>
  <g id="Grupo_1102229" data-name="Grupo 1102229" transform="translate(-956.12 -2789.346)">
    <g id="Grupo_1102227" data-name="Grupo 1102227">
      <circle id="Elipse_11570" data-name="Elipse 11570" cx="49.69" cy="49.69" r="49.69" transform="translate(957.62 2790.846)" fill="#efedee" stroke="#007dfe" stroke-miterlimit="10" stroke-width="3"/>
      <g id="Grupo_1101935" data-name="Grupo 1101935" transform="translate(977.286 2810.504)">
        <g id="Grupo_1101935-2" data-name="Grupo 1101935" clip-path="url(#clip-path)">
          <path id="Trazado_913314" data-name="Trazado 913314" d="M115.353,96.554a18.681,18.681,0,1,1-18.677,18.682,18.679,18.679,0,0,1,18.677-18.682" transform="translate(-85.335 -85.227)" fill="#71d8fd"/>
          <path id="Trazado_913315" data-name="Trazado 913315" d="M238.668,96.554a18.849,18.849,0,0,0-2.289.14,18.683,18.683,0,0,1,0,37.083,18.682,18.682,0,1,0,2.289-37.223" transform="translate(-208.65 -85.227)" fill="#60c3f7"/>
          <path id="Trazado_913316" data-name="Trazado 913316" d="M10.993,9.118a3.5,3.5,0,1,1-3.5,3.5,3.5,3.5,0,0,1,3.5-3.5" transform="translate(-6.618 -8.048)" fill="#ffcd74"/>
          <path id="Trazado_913317" data-name="Trazado 913317" d="M448.291,9.118a3.5,3.5,0,1,1-3.5,3.5,3.5,3.5,0,0,1,3.5-3.5" transform="translate(-392.618 -8.048)" fill="#ffcd74"/>
          <path id="Trazado_913318" data-name="Trazado 913318" d="M10.993,444.262a3.5,3.5,0,1,1-3.5,3.5,3.5,3.5,0,0,1,3.5-3.5" transform="translate(-6.618 -392.146)" fill="#ffcd74"/>
          <path id="Trazado_913319" data-name="Trazado 913319" d="M10.993,226.2a3.5,3.5,0,1,1-3.5,3.5,3.5,3.5,0,0,1,3.5-3.5" transform="translate(-6.618 -199.663)" fill="#b4e173"/>
          <path id="Trazado_913320" data-name="Trazado 913320" d="M448.291,226.2a3.5,3.5,0,1,1-3.5,3.5,3.5,3.5,0,0,1,3.5-3.5" transform="translate(-392.618 -199.663)" fill="#b4e173"/>
          <path id="Trazado_913321" data-name="Trazado 913321" d="M229.59,7.5a3.5,3.5,0,1,1-3.5,3.5,3.5,3.5,0,0,1,3.5-3.5" transform="translate(-199.572 -6.618)" fill="#b4e173"/>
          <path id="Trazado_913322" data-name="Trazado 913322" d="M229.59,444.9a3.5,3.5,0,1,1-3.5,3.5,3.5,3.5,0,0,1,3.5-3.5" transform="translate(-199.572 -392.707)" fill="#b4e173"/>
          <path id="Trazado_913323" data-name="Trazado 913323" d="M448.291,444.262a3.5,3.5,0,1,1-3.5,3.5,3.5,3.5,0,0,1,3.5-3.5" transform="translate(-392.618 -392.146)" fill="#ffcd74"/>
          <path id="Trazado_913324" data-name="Trazado 913324" d="M32.338,12.618a3.5,3.5,0,0,1-4.619,3.31,3.5,3.5,0,0,0,0-6.62,3.5,3.5,0,0,1,4.619,3.31" transform="translate(-24.467 -8.052)" fill="#ff9650"/>
          <path id="Trazado_913325" data-name="Trazado 913325" d="M469.637,12.618a3.494,3.494,0,0,1-4.618,3.31,3.5,3.5,0,0,0,0-6.62,3.494,3.494,0,0,1,4.618,3.31" transform="translate(-410.468 -8.052)" fill="#ff9650"/>
          <path id="Trazado_913326" data-name="Trazado 913326" d="M32.338,447.763a3.5,3.5,0,0,1-4.619,3.31,3.5,3.5,0,0,0,0-6.62,3.5,3.5,0,0,1,4.619,3.31" transform="translate(-24.467 -392.152)" fill="#ff9650"/>
          <path id="Trazado_913327" data-name="Trazado 913327" d="M32.338,229.7a3.5,3.5,0,0,1-4.619,3.31,3.5,3.5,0,0,0,0-6.62,3.5,3.5,0,0,1,4.619,3.31" transform="translate(-24.467 -199.666)" fill="#87b45f"/>
          <path id="Trazado_913328" data-name="Trazado 913328" d="M469.637,229.7a3.494,3.494,0,0,1-4.618,3.31,3.5,3.5,0,0,0,0-6.62,3.494,3.494,0,0,1,4.618,3.31" transform="translate(-410.468 -199.666)" fill="#87b45f"/>
          <path id="Trazado_913329" data-name="Trazado 913329" d="M250.936,11a3.494,3.494,0,0,1-4.618,3.311,3.5,3.5,0,0,0,0-6.621A3.494,3.494,0,0,1,250.936,11" transform="translate(-217.423 -6.62)" fill="#87b45f"/>
          <path id="Trazado_913330" data-name="Trazado 913330" d="M250.936,448.4a3.494,3.494,0,0,1-4.618,3.31,3.5,3.5,0,0,0,0-6.62,3.495,3.495,0,0,1,4.618,3.31" transform="translate(-217.423 -392.71)" fill="#87b45f"/>
          <path id="Trazado_913331" data-name="Trazado 913331" d="M469.637,447.763a3.494,3.494,0,0,1-4.618,3.31,3.5,3.5,0,0,0,0-6.62,3.494,3.494,0,0,1,4.618,3.31" transform="translate(-410.468 -392.152)" fill="#ff9650"/>
          <path id="Trazado_913332" data-name="Trazado 913332" d="M247.861,285.287a.945.945,0,1,0,.945.945.946.946,0,0,0-.945-.945" transform="translate(-217.951 -251.82)"/>
          <path id="Trazado_913333" data-name="Trazado 913333" d="M231.658,258.638a4.111,4.111,0,0,0-2.9,1.192.88.88,0,0,0,1.235,1.252,2.372,2.372,0,0,1,3.387.053.88.88,0,0,0,1.275-1.212,4.149,4.149,0,0,0-2.994-1.286" transform="translate(-201.688 -228.298)"/>
          <path id="Trazado_913334" data-name="Trazado 913334" d="M220.022,233.641a7.318,7.318,0,0,0-10.391-.1.88.88,0,1,0,1.238,1.25,5.559,5.559,0,0,1,7.893.074.88.88,0,0,0,1.261-1.227" transform="translate(-184.809 -204.28)"/>
          <path id="Trazado_913335" data-name="Trazado 913335" d="M203.6,207.624a.88.88,0,0,0,1.255-1.233,10.627,10.627,0,0,0-15.055-.107.88.88,0,1,0,1.236,1.251,8.868,8.868,0,0,1,12.563.089" transform="translate(-167.301 -179.374)"/>
          <path id="Trazado_913336" data-name="Trazado 913336" d="M4.375,227.451A4.376,4.376,0,1,0,0,223.076a4.38,4.38,0,0,0,4.375,4.376m0-6.992a2.616,2.616,0,1,1-2.616,2.616,2.619,2.619,0,0,1,2.616-2.616" transform="translate(0 -193.045)"/>
          <path id="Trazado_913337" data-name="Trazado 913337" d="M441.672,218.7a4.376,4.376,0,1,0,4.375,4.376,4.38,4.38,0,0,0-4.375-4.376m0,6.992a2.616,2.616,0,1,1,2.616-2.616,2.619,2.619,0,0,1-2.616,2.616" transform="translate(-385.998 -193.045)"/>
          <path id="Trazado_913338" data-name="Trazado 913338" d="M222.971,8.751A4.376,4.376,0,1,0,218.6,4.376a4.38,4.38,0,0,0,4.375,4.376m0-6.992a2.616,2.616,0,1,1-2.616,2.616,2.619,2.619,0,0,1,2.616-2.616" transform="translate(-192.953)"/>
          <path id="Trazado_913339" data-name="Trazado 913339" d="M222.971,437.4a4.376,4.376,0,1,0,4.375,4.376,4.38,4.38,0,0,0-4.375-4.376m0,6.992a2.616,2.616,0,1,1,2.616-2.616,2.619,2.619,0,0,1-2.616,2.616" transform="translate(-192.953 -386.088)"/>
          <path id="Trazado_913340" data-name="Trazado 913340" d="M55.674,52.665a4.349,4.349,0,0,0-2.248.623l-8.76-8.906a19.524,19.524,0,0,0,.021-25.868L53.356,9.7a4.384,4.384,0,1,0-1.273-1.214l-8.616,8.759a19.548,19.548,0,0,0-21.62-3.587.88.88,0,1,0,.736,1.6,17.764,17.764,0,0,1,2.048-.793,14.949,14.949,0,0,0-2.344,3.352,23.478,23.478,0,0,0-1.755,4.448,23.543,23.543,0,0,0-4.122,1.617,14.837,14.837,0,0,0-3.419,2.347,17.731,17.731,0,0,1,1.166-2.877A17.968,17.968,0,0,1,19.336,17.2a.88.88,0,1,0-1.057-1.406,19.531,19.531,0,0,0-1.71,1.447l-8.6-8.747A4.378,4.378,0,1,0,6.692,9.7l8.658,8.8a19.642,19.642,0,0,0-2.758,4.046,19.554,19.554,0,0,0,2.784,21.835l-8.754,8.9a4.388,4.388,0,1,0,1.3,1.19L16.6,45.652A19.483,19.483,0,0,0,30.007,51h.024a19.484,19.484,0,0,0,13.413-5.35L52.13,54.48a4.373,4.373,0,1,0,3.544-1.815M1.76,5.995A2.616,2.616,0,1,1,4.376,8.611,2.619,2.619,0,0,1,1.76,5.995M34.811,40.708a.88.88,0,0,0,1.01.727q.865-.141,1.689-.321a20.849,20.849,0,0,1-1.316,3.124c-1.478,2.809-3.333,4.518-5.3,4.913V41.882c.5-.012.994-.032,1.484-.063a.88.88,0,0,0-.111-1.756c-.742.047-1.5.071-2.253.071a33.019,33.019,0,0,1-8.05-.956,33.63,33.63,0,0,1,0-15.482,33.02,33.02,0,0,1,8.05-.956,33.012,33.012,0,0,1,8.05.956,33.63,33.63,0,0,1,0,15.478q-1.213.307-2.532.524a.88.88,0,0,0-.727,1.01M13,36.654a14.85,14.85,0,0,0,3.409,2.338,23.538,23.538,0,0,0,4.122,1.617,23.482,23.482,0,0,0,1.755,4.448A14.964,14.964,0,0,0,24.625,48.4,17.879,17.879,0,0,1,13,36.654m6.316-4.337a34.362,34.362,0,0,0,.718,6.292,20.9,20.9,0,0,1-2.822-1.182c-2.79-1.431-4.492-3.219-4.9-5.11Zm3.211,8.8a35.006,35.006,0,0,0,6.611.768V49.15c-1.962-.395-3.816-2.1-5.295-4.913a20.868,20.868,0,0,1-1.316-3.122M36.194,18.637a20.848,20.848,0,0,1,1.316,3.122,35,35,0,0,0-6.611-.768V13.724c1.963.395,3.817,2.1,5.3,4.913m4.527,11.921A34.374,34.374,0,0,0,40,24.266a20.9,20.9,0,0,1,2.822,1.182c2.79,1.43,4.492,3.219,4.9,5.11Zm0,1.759h7c-.552,2.531-3.449,4.845-7.717,6.289a34.381,34.381,0,0,0,.717-6.289M55.674,3.378a2.616,2.616,0,1,1-2.616,2.616,2.619,2.619,0,0,1,2.616-2.616M47.036,26.221a14.85,14.85,0,0,0-3.409-2.338,23.537,23.537,0,0,0-4.122-1.617,23.493,23.493,0,0,0-1.755-4.448,14.96,14.96,0,0,0-2.338-3.346A17.879,17.879,0,0,1,47.036,26.221M23.844,18.637c1.478-2.809,3.332-4.518,5.295-4.913v7.267a35.008,35.008,0,0,0-6.611.768,20.838,20.838,0,0,1,1.316-3.122m-6.631,6.811a20.913,20.913,0,0,1,2.822-1.182,34.364,34.364,0,0,0-.718,6.292h-7c.4-1.891,2.107-3.679,4.9-5.11M4.376,59.657a2.616,2.616,0,1,1,2.616-2.616,2.619,2.619,0,0,1-2.616,2.616M35.412,48.4a14.955,14.955,0,0,0,2.338-3.346,23.486,23.486,0,0,0,1.755-4.449,18.548,18.548,0,0,0,7.537-3.975A17.879,17.879,0,0,1,35.412,48.4M55.674,59.657a2.616,2.616,0,1,1,2.616-2.616,2.619,2.619,0,0,1-2.616,2.616" transform="translate(-0.001 -1.429)"/>
        </g>
      </g>
    </g>
  </g>
</svg>
