<svg xmlns="http://www.w3.org/2000/svg" xmlns:xlink="http://www.w3.org/1999/xlink" width="47.25" height="40.906" viewBox="0 0 47.25 40.906">
  <defs>
    <clipPath id="clip-path">
      <rect id="Rect치ngulo_403539" data-name="Rect치ngulo 403539" width="37.863" height="35.516" fill="#12263f"/>
    </clipPath>
  </defs>
  <g id="Grupo_1102231" data-name="Grupo 1102231" transform="translate(-809.949 -3437.979)">
    <g id="Grupo_1100934" data-name="Grupo 1100934" transform="translate(-210.102 1041.979)">
      <g id="Grupo_1100929" data-name="Grupo 1100929" transform="translate(1020.051 2396)">
        <rect id="Rect치ngulo_402862" data-name="Rect치ngulo 402862" width="26.726" height="40.906" rx="13.363" transform="translate(0 0)" fill="#fa6d61"/>
        <circle id="Elipse_11523" data-name="Elipse 11523" cx="5.727" cy="5.727" r="5.727" transform="translate(0 0)" fill="#ffbe01"/>
      </g>
      <g id="Grupo_1101938" data-name="Grupo 1101938" transform="translate(1029.438 2401.391)">
        <g id="Grupo_1101938-2" data-name="Grupo 1101938" clip-path="url(#clip-path)">
          <path id="Trazado_913341" data-name="Trazado 913341" d="M33.949,26.749l-2.665-.018c-.028,0-.074.055-.074.092l.009,7.517c0,.028.046.055.083.055l2.665.018c.028,0,.074-.055.074-.092l-.009-7.507C34.041,26.777,33.995,26.749,33.949,26.749Zm-2.656-1.112,2.665.018a1.169,1.169,0,0,1,1.176,1.158c0,2.5.018,5.008.009,7.507a1.194,1.194,0,0,1-1.176,1.195c-.891,0-1.783-.018-2.674-.018a1.18,1.18,0,0,1-1.038-.616c-2.6-.037-10.567.009-11.753-.119a.326.326,0,0,1-.092-.018c-2.058-.6-7.811-4.889-10.705-6.883-.891-.616-1.259-1.489-.7-2.215a2.642,2.642,0,0,1,2.885-.5,1.44,1.44,0,0,1,1.1-1.057,3.281,3.281,0,0,1,2.555.515l.018.009,3.924,2.775a11.49,11.49,0,0,0,1.1.441c.5.184,1.094.4,1.663.57.616-.037,1.231-.092,1.81-.147,1.011-.092,1.856-.119,2.352-.147-.119-.064-.257-.138-.423-.239-.634-.414-1.516-.919-2.481-1.443A2.8,2.8,0,0,1,19.761,24.4a1.611,1.611,0,0,1,.891-1.672,3.823,3.823,0,0,1,3.446.34.2.2,0,0,1,.046.028c2.132,1.342,4.016,1.966,6.046,3.354A1.159,1.159,0,0,1,31.293,25.638Zm-1.167,8.142c-.009-2-.018-4.006-.009-6.019a21.742,21.742,0,0,0-3.6-2.1,31.33,31.33,0,0,1-2.941-1.608,2.862,2.862,0,0,0-2.426-.349.525.525,0,0,0-.312.57c.046.386.414.827,1.139,1.176l.055.028c.992.542,1.893,1.057,2.555,1.489.855.551,1.525,1.139,1.231,1.663a.536.536,0,0,1-.6.266,19.2,19.2,0,0,1-3.069.469c-1.59.147-5.964.505-6.864-.009L9.827,26.3c-.992-.515-1.994-.184-1.976.092.009.138.147.322.478.551.524.358,1.084.754,1.737,1.213,2.775,1.966,7.076,5.017,8.61,5.5C19.2,33.77,27.939,33.752,30.126,33.779Zm-18.9-7.949,4.595,2.564a6.282,6.282,0,0,0,1.507.129,3.378,3.378,0,0,1-.478-.23l-3.9-2.757c-1.038-.671-1.957-.386-1.985-.156C10.958,25.472,11.031,25.628,11.224,25.831Zm19.3-12.663a4.025,4.025,0,1,1-4.016,4.025A4.024,4.024,0,0,1,30.521,13.168Zm2.058,1.957a2.917,2.917,0,1,0,0,4.126,2.917,2.917,0,0,0,0-4.126m-3.1-5.275H31.56a.553.553,0,0,1,.551.551v.91a6.207,6.207,0,0,1,1.443.6l.643-.652a.56.56,0,0,1,.781,0l1.47,1.47a.56.56,0,0,1,0,.781l-.643.643a6.206,6.206,0,0,1,.6,1.443h.91a.553.553,0,0,1,.551.551v2.077a.553.553,0,0,1-.551.551H36.4a6.206,6.206,0,0,1-.6,1.443l.643.643a.56.56,0,0,1,0,.781l-1.47,1.47a.544.544,0,0,1-.781,0l-.643-.643a6.206,6.206,0,0,1-1.443.6v.91a.553.553,0,0,1-.551.551H29.483a.553.553,0,0,1-.551-.551v-.91a6.376,6.376,0,0,1-1.443-.6l-.643.643a.544.544,0,0,1-.781,0l-1.47-1.47a.544.544,0,0,1,0-.781l.643-.643a6.188,6.188,0,0,1-.349-.7,5.051,5.051,0,0,1-.248-.744h-.91a.553.553,0,0,1-.551-.551V16.145a.553.553,0,0,1,.551-.551h.91a5.526,5.526,0,0,1,.487-1.241,7.705,7.705,0,0,1-7.967.037c.028.165.064.331.092.5a1.54,1.54,0,0,1,1.525.414,1.637,1.637,0,0,1,.469.928,1.637,1.637,0,0,1,.928.469,1.473,1.473,0,0,1,.028,2.15l-.478.478a5.078,5.078,0,0,1,.726,1.921,1.367,1.367,0,0,1-.377,1.057L18.695,23.68a1.883,1.883,0,0,1-2.224.037l-.754-.377-.478.478a1.473,1.473,0,0,1-2.15-.028,1.637,1.637,0,0,1-.469-.928,1.606,1.606,0,0,1-1.342-2c-1.994-.34-4.1-.754-5.615-2.261A6.594,6.594,0,0,1,13.4,8.1,7.737,7.737,0,1,1,27.728,11.78a4.5,4.5,0,0,1,.478-.221,5.051,5.051,0,0,1,.744-.248V10.4A.526.526,0,0,1,29.483,9.851Zm-4.944,3.584a.558.558,0,0,1,.064-.708l1.47-1.47a.557.557,0,0,1,.717-.055A6.639,6.639,0,1,0,14.523,8.426c.018.165.037.331.064.487.129.11.266.239.4.358a7.5,7.5,0,0,1,1.847,3.519,6.688,6.688,0,0,0,1.93,1.139,6.577,6.577,0,0,0,5.78-.5m6.469-2.481h-.974v.8a.551.551,0,0,1-.45.542,5.342,5.342,0,0,0-.965.285,4.851,4.851,0,0,0-.864.459.548.548,0,0,1-.726-.046l-.57-.57-.689.689.57.57a.544.544,0,0,1,.064.7,4.935,4.935,0,0,0-.763,1.829.556.556,0,0,1-.551.487h-.8v.974h.8a.558.558,0,0,1,.542.45,5.671,5.671,0,0,0,.285.974,4.36,4.36,0,0,0,.469.864.558.558,0,0,1-.046.726l-.57.57.689.689.57-.57a.544.544,0,0,1,.7-.064,5,5,0,0,0,1.829.763.556.556,0,0,1,.487.551v.8h.974v-.8a.551.551,0,0,1,.45-.542,4.959,4.959,0,0,0,1.838-.754.548.548,0,0,1,.726.046l.57.57.689-.689-.57-.57a.544.544,0,0,1-.064-.7,4.935,4.935,0,0,0,.763-1.829.549.549,0,0,1,.551-.487h.8V16.7h-.8a.551.551,0,0,1-.542-.45,4.959,4.959,0,0,0-.754-1.838.548.548,0,0,1,.046-.726l.57-.57-.689-.689-.57.57a.544.544,0,0,1-.7.064A4.935,4.935,0,0,0,31.5,12.3a.549.549,0,0,1-.487-.551v-.79ZM18.024,16.687a.392.392,0,0,0-.028-.6.4.4,0,0,0-.6-.028l-4.971,4.971c-.386.386.239,1,.616.616Zm-5.991,3.2.937-.946L9.745,15.713a.727.727,0,1,0,0,1.029.56.56,0,0,1,.781,0,.544.544,0,0,1,0,.781,1.831,1.831,0,1,1,0-2.591l3.225,3.225.561-.561-3.235-3.225a1.832,1.832,0,1,1,2.591,0,.552.552,0,0,1-.781-.781.732.732,0,0,0-.515-1.25.722.722,0,0,0-.726.726.739.739,0,0,0,.211.515l3.225,3.225,1.176-1.176c-.34-1.976-.68-4.19-2.068-5.578a5.491,5.491,0,0,0-7.765,7.765C7.833,19.233,10.048,19.545,12.033,19.885Zm6.873.276-2.38,2.38c.294.147,1.139.625,1.378.386l1.378-1.378c.239-.248-.23-1.094-.377-1.388m-.1-2.7-4.971,4.971a.377.377,0,0,0,.028.588.4.4,0,0,0,.6.028l4.971-4.971a.386.386,0,0,0-.028-.6A.406.406,0,0,0,18.805,17.459ZM.666,9.768A.554.554,0,0,1,.4,9.033a.544.544,0,0,1,.726-.266l2.068.956a.554.554,0,0,1,.266.735.544.544,0,0,1-.726.266Zm5.7-5.808a.56.56,0,0,1,.331-.708.552.552,0,0,1,.708.331l.781,2.141A.552.552,0,1,1,7.144,6.1ZM6.547,23.6a.554.554,0,0,1-.735.266.544.544,0,0,1-.266-.726L6.5,21.071a.553.553,0,0,1,1,.469ZM.739,17.9a.552.552,0,0,1-.377-1.038L2.5,16.081a.552.552,0,0,1,.377,1.038ZM20.56,4.052V3.464a.551.551,0,0,1,1.1,0v.588a2.157,2.157,0,0,1,1.608,2.086.551.551,0,0,1-1.1,0,1.056,1.056,0,0,0-1.8-.744,1.041,1.041,0,0,0-.312.744c0,.79.588.928,1.176,1.066,1.02.239,2.031.478,2.031,2.141a2.157,2.157,0,0,1-1.608,2.086v.588a.551.551,0,1,1-1.1,0v-.588a2.157,2.157,0,0,1-1.608-2.086.551.551,0,1,1,1.1,0,1.056,1.056,0,0,0,1.8.744,1.033,1.033,0,0,0,.3-.744c0-.79-.588-.928-1.176-1.066-1.02-.239-2.031-.487-2.031-2.141A2.205,2.205,0,0,1,20.56,4.052" transform="translate(0)" fill="#12263f"/>
        </g>
      </g>
    </g>
  </g>
</svg>
