<svg xmlns="http://www.w3.org/2000/svg" xmlns:xlink="http://www.w3.org/1999/xlink" width="46.826" height="40.906" viewBox="0 0 46.826 40.906">
  <defs>
    <clipPath id="clip-path">
      <rect id="Rect치ngulo_403541" data-name="Rect치ngulo 403541" width="31.519" height="31.522" fill="#12263f"/>
    </clipPath>
  </defs>
  <g id="Grupo_1102233" data-name="Grupo 1102233" transform="translate(-809.949 -4851.021)">
    <g id="Grupo_1101437" data-name="Grupo 1101437" transform="translate(-210.102 2455.021)">
      <g id="Grupo_1100929" data-name="Grupo 1100929" transform="translate(1020.051 2396)">
        <rect id="Rect치ngulo_402862" data-name="Rect치ngulo 402862" width="26.726" height="40.906" rx="13.363" transform="translate(0 0)" fill="#fa6d61"/>
        <circle id="Elipse_11523" data-name="Elipse 11523" cx="5.727" cy="5.727" r="5.727" transform="translate(0 0)" fill="#ffbe01"/>
      </g>
      <g id="Grupo_1101940" data-name="Grupo 1101940" transform="translate(1035.357 2405.384)">
        <g id="Grupo_1101940-2" data-name="Grupo 1101940" clip-path="url(#clip-path)">
          <path id="Trazado_913349" data-name="Trazado 913349" d="M11.263,22.517a11.214,11.214,0,0,1-4.929-1.135.682.682,0,0,0-.483-.058l-3.087.856a1.451,1.451,0,0,1-1.809-1.7l.654-3.105a.7.7,0,0,0-.092-.487A11.189,11.189,0,0,1,.076,9.956,11.269,11.269,0,1,1,12.965,22.389,11.622,11.622,0,0,1,11.263,22.517ZM6.009,19.8a2.241,2.241,0,0,1,.982.23,9.783,9.783,0,1,0-4.176-3.895,2.194,2.194,0,0,1,.262,1.549l-.637,3.029,3.008-.835a2.1,2.1,0,0,1,.56-.079Z" transform="translate(0.001 -0.001)" fill="#12263f"/>
          <path id="Trazado_913350" data-name="Trazado 913350" d="M160.353,170.864a10.786,10.786,0,0,1-1.588-.118,10.463,10.463,0,0,1-8.822-9.038c-.025-.19-.042-.375-.05-.572a.75.75,0,0,1,.718-.779.769.769,0,0,1,.781.718c.007.15.019.294.04.444a8.959,8.959,0,0,0,7.553,7.739,9.094,9.094,0,0,0,5.32-.8,2.06,2.06,0,0,1,1.471-.143l2.7.75-.574-2.726a2.112,2.112,0,0,1,.245-1.469,8.938,8.938,0,0,0,1.154-5.553,9.086,9.086,0,0,0-8.248-7.927.75.75,0,1,1,.084-1.5l.029,0a10.606,10.606,0,0,1,9.625,9.249,10.421,10.421,0,0,1-1.34,6.47.616.616,0,0,0-.08.415l.607,2.881a1.4,1.4,0,0,1-1.74,1.646l-2.871-.8a.579.579,0,0,0-.408.05A10.548,10.548,0,0,1,160.353,170.864Z" transform="translate(-139.347 -139.343)" fill="#12263f"/>
          <path id="Trazado_913351" data-name="Trazado 913351" d="M139.817,87.5a1.126,1.126,0,1,1-1.126,1.126,1.126,1.126,0,0,1,1.126-1.126" transform="translate(-128.933 -81.348)" fill="#12263f"/>
          <path id="Trazado_913352" data-name="Trazado 913352" d="M130.961,143.008a1.814,1.814,0,0,1-1.812-1.812V137h-.375a.75.75,0,0,1,0-1.5h.375a1.5,1.5,0,0,1,1.5,1.5V141.2a.323.323,0,0,0,.53.22l.441-.44a.751.751,0,0,1,1.061,1.062l-.44.439A1.823,1.823,0,0,1,130.961,143.008Z" transform="translate(-119.017 -125.97)" fill="#12263f"/>
          <path id="Trazado_913353" data-name="Trazado 913353" d="M292.527,278.872h-3.752a.75.75,0,1,1,0-1.5h3.752a.75.75,0,1,1,0,1.5" transform="translate(-267.76 -257.856)" fill="#12263f"/>
          <path id="Trazado_913354" data-name="Trazado 913354" d="M262.778,332.2h-6a.75.75,0,1,1,0-1.5h6a.75.75,0,1,1,0,1.5" transform="translate(-238.011 -307.437)" fill="#12263f"/>
        </g>
      </g>
    </g>
  </g>
</svg>
