<svg xmlns="http://www.w3.org/2000/svg" xmlns:xlink="http://www.w3.org/1999/xlink" width="101.428" height="101.428" viewBox="0 0 101.428 101.428">
  <defs>
    <clipPath id="clip-path">
      <rect id="Rectángulo_403566" data-name="Rectángulo 403566" width="58" height="58" transform="translate(0.419 0.419)" fill="none"/>
    </clipPath>
  </defs>
  <g id="Grupo_1102226" data-name="Grupo 1102226" transform="translate(-375.072 -1593.582)">
    <ellipse id="Elipse_11619" data-name="Elipse 11619" cx="49.214" cy="49.214" rx="49.214" ry="49.214" transform="translate(376.572 1595.082)" fill="#efedee" stroke="#007dfe" stroke-miterlimit="10" stroke-width="3"/>
    <g id="Grupo_1101972" data-name="Grupo 1101972" transform="translate(393.519 1614.468)">
      <g id="Grupo_1101971" data-name="Grupo 1101971" transform="translate(0.113 0.113)" clip-path="url(#clip-path)">
        <path id="Trazado_913365" data-name="Trazado 913365" d="M58.833,77.292h45.231a2.481,2.481,0,0,0,2.481-2.481V29.167H67.515l-8.682,8.682Z" transform="translate(-51.637 -25.65)" fill="#f1e8dc"/>
        <path id="Trazado_913366" data-name="Trazado 913366" d="M386.694,48.668a.93.93,0,1,1-.93.93.93.93,0,0,1,.93-.93" transform="translate(-338.017 -42.733)" fill="#9a99a1"/>
        <path id="Trazado_913367" data-name="Trazado 913367" d="M307.694,48.668a.93.93,0,1,1-.93.93.93.93,0,0,1,.93-.93" transform="translate(-268.816 -42.733)" fill="#9a99a1"/>
        <path id="Trazado_913368" data-name="Trazado 913368" d="M228.694,48.668a.93.93,0,1,1-.93.93.93.93,0,0,1,.93-.93" transform="translate(-199.615 -42.733)" fill="#9a99a1"/>
        <path id="Trazado_913369" data-name="Trazado 913369" d="M149.694,48.668a.93.93,0,1,1-.93.93.93.93,0,0,1,.93-.93" transform="translate(-130.413 -42.733)" fill="#9a99a1"/>
        <path id="Trazado_913370" data-name="Trazado 913370" d="M253.251,189.88v6.45H249.53a.62.62,0,0,1-.62-.62V190.5a.62.62,0,0,1,.62-.62Z" transform="translate(-218.138 -166.43)" fill="#54c1ed"/>
        <path id="Trazado_913371" data-name="Trazado 913371" d="M358.251,111.5v15.008a.62.62,0,0,1-.62.62H353.91V111.5a.62.62,0,0,1,.62-.62h3.1a.62.62,0,0,1,.62.62" transform="translate(-310.114 -97.228)" fill="#f4644d"/>
        <path id="Trazado_913372" data-name="Trazado 913372" d="M288.251,163.88v9.675H283.91V164.5a.62.62,0,0,1,.62-.62Z" transform="translate(-248.797 -143.654)" fill="#8bc932"/>
        <path id="Trazado_913373" data-name="Trazado 913373" d="M323.251,136.88V149.9H318.91V137.5a.62.62,0,0,1,.62-.62Z" transform="translate(-279.455 -120.003)" fill="#f9d36b"/>
        <path id="Trazado_913374" data-name="Trazado 913374" d="M65.032,112.334h-6.2V72.891l3.721-3.721v40.683a2.482,2.482,0,0,0,2.481,2.481" transform="translate(-51.634 -60.692)" fill="#efdbc6"/>
        <path id="Trazado_913375" data-name="Trazado 913375" d="M58.833,37.85h6.2a2.481,2.481,0,0,0,2.481-2.481v-6.2Z" transform="translate(-51.637 -25.651)" fill="#e5cfbd"/>
        <path id="Trazado_913376" data-name="Trazado 913376" d="M112.108,164.029H98.464a.93.93,0,0,1,0-1.861h13.644a.93.93,0,0,1,0,1.861" transform="translate(-85.538 -142.155)" fill="#9a99a1"/>
        <path id="Trazado_913377" data-name="Trazado 913377" d="M144.039,198.03h-4.854a.93.93,0,1,1,0-1.861h4.854a.93.93,0,1,1,0,1.861" transform="translate(-121.208 -171.939)" fill="#9a99a1"/>
        <path id="Trazado_913378" data-name="Trazado 913378" d="M100.636,198.03H98.465a.93.93,0,1,1,0-1.861h2.171a.93.93,0,1,1,0,1.861" transform="translate(-85.538 -171.939)" fill="#9a99a1"/>
        <path id="Trazado_913379" data-name="Trazado 913379" d="M136.635,130.025H126.464a.93.93,0,0,1,0-1.861h10.171a.93.93,0,0,1,0,1.861" transform="translate(-110.065 -112.368)" fill="#9a99a1"/>
        <path id="Trazado_913380" data-name="Trazado 913380" d="M105.964,128.168a.93.93,0,1,1-.93.93.93.93,0,0,1,.93-.93" transform="translate(-92.107 -112.372)" fill="#9a99a1"/>
        <path id="Trazado_913381" data-name="Trazado 913381" d="M200.964,196.168a.93.93,0,1,1-.93.93.93.93,0,0,1,.93-.93" transform="translate(-175.324 -171.938)" fill="#9a99a1"/>
        <path id="Trazado_913382" data-name="Trazado 913382" d="M275.984,323.861H262.34a.93.93,0,0,1,0-1.861h13.644a.93.93,0,0,1,0,1.861" transform="translate(-229.087 -282.162)" fill="#9a99a1"/>
        <path id="Trazado_913383" data-name="Trazado 913383" d="M307.916,357.861h-4.854a.93.93,0,1,1,0-1.861h4.854a.93.93,0,0,1,0,1.861" transform="translate(-264.759 -311.945)" fill="#9a99a1"/>
        <path id="Trazado_913384" data-name="Trazado 913384" d="M264.512,357.861h-2.171a.93.93,0,0,1,0-1.861h2.171a.93.93,0,0,1,0,1.861" transform="translate(-229.088 -311.945)" fill="#9a99a1"/>
        <path id="Trazado_913385" data-name="Trazado 913385" d="M300.511,289.861H290.34a.93.93,0,0,1,0-1.861h10.171a.93.93,0,0,1,0,1.861" transform="translate(-253.615 -252.379)" fill="#9a99a1"/>
        <path id="Trazado_913386" data-name="Trazado 913386" d="M269.84,288a.93.93,0,1,1-.93.93.93.93,0,0,1,.93-.93" transform="translate(-235.657 -252.378)" fill="#9a99a1"/>
        <path id="Trazado_913387" data-name="Trazado 913387" d="M364.84,356a.93.93,0,1,1-.93.93.93.93,0,0,1,.93-.93" transform="translate(-318.874 -311.947)" fill="#9a99a1"/>
        <path id="Trazado_913388" data-name="Trazado 913388" d="M36.645,249.906v-3.67A1.24,1.24,0,0,0,35.517,245l-2.737-.249a11.083,11.083,0,0,0-.792-1.9l1.761-2.114a1.24,1.24,0,0,0-.076-1.671l-2.595-2.595a1.24,1.24,0,0,0-1.671-.076l-2.114,1.761a11.083,11.083,0,0,0-1.9-.792l-.249-2.737a1.24,1.24,0,0,0-1.235-1.128H20.237A1.24,1.24,0,0,0,19,234.625l-.249,2.737a11.083,11.083,0,0,0-1.9.792l-2.114-1.761a1.24,1.24,0,0,0-1.671.076l-2.595,2.595a1.24,1.24,0,0,0-.076,1.671l1.761,2.114a11.083,11.083,0,0,0-.792,1.9L8.625,245A1.24,1.24,0,0,0,7.5,246.237v3.67a1.24,1.24,0,0,0,1.128,1.235l2.737.249a11.083,11.083,0,0,0,.792,1.9l-1.761,2.114a1.24,1.24,0,0,0,.076,1.671l2.595,2.595a1.24,1.24,0,0,0,1.671.076l2.114-1.761a11.082,11.082,0,0,0,1.9.792L19,261.518a1.24,1.24,0,0,0,1.235,1.128h3.67a1.24,1.24,0,0,0,1.235-1.128l.249-2.737a11.082,11.082,0,0,0,1.9-.792l2.114,1.761a1.24,1.24,0,0,0,1.671-.076l2.595-2.595a1.24,1.24,0,0,0,.076-1.671l-1.761-2.114a11.083,11.083,0,0,0,.792-1.9l2.737-.249A1.24,1.24,0,0,0,36.645,249.906Zm-14.574,3.441a5.276,5.276,0,1,1,5.276-5.276,5.276,5.276,0,0,1-5.276,5.276" transform="translate(-6.668 -204.637)" fill="#46bee8"/>
        <path id="Trazado_913389" data-name="Trazado 913389" d="M31.482,254.886l-2.6,2.6a1.24,1.24,0,0,0-.076,1.671l1.761,2.112a11.252,11.252,0,0,1,4.693-4.693l-2.112-1.761A1.24,1.24,0,0,0,31.482,254.886Z" transform="translate(-25.086 -223.055)" fill="#17afde"/>
        <path id="Trazado_913390" data-name="Trazado 913390" d="M30.572,393.12l-1.761,2.112a1.24,1.24,0,0,0,.076,1.671l2.6,2.595a1.24,1.24,0,0,0,1.671.077l2.112-1.761a11.252,11.252,0,0,1-4.693-4.693" transform="translate(-25.086 -344.461)" fill="#17afde"/>
        <path id="Trazado_913391" data-name="Trazado 913391" d="M10.861,327.559a11.2,11.2,0,0,1,.5-3.319l-2.735.249A1.239,1.239,0,0,0,7.5,325.725v3.669a1.239,1.239,0,0,0,1.127,1.235l2.735.249A11.2,11.2,0,0,1,10.861,327.559Z" transform="translate(-6.671 -284.124)" fill="#17afde"/>
        <path id="Trazado_913392" data-name="Trazado 913392" d="M76.822,296a6.822,6.822,0,1,0,6.822,6.822A6.822,6.822,0,0,0,76.822,296m0,9.923a3.1,3.1,0,1,1,3.1-3.1,3.1,3.1,0,0,1-3.1,3.1" transform="translate(-61.419 -259.387)" fill="#17afde"/>
        <path id="Trazado_913393" data-name="Trazado 913393" d="M418.5,82.5v25.586l2.539,5.454a.62.62,0,0,0,1.124,0l2.539-5.454V82.5Z" transform="translate(-366.693 -72.368)" fill="#ffb155"/>
        <path id="Trazado_913394" data-name="Trazado 913394" d="M424.7,13.082h-6.2V10.6a3.1,3.1,0,0,1,6.2,0Z" transform="translate(-366.693 -6.671)" fill="#f4644d" fill-rule="evenodd"/>
        <rect id="Rectángulo_403564" data-name="Rectángulo 403564" width="6.202" height="3.721" transform="translate(51.807 6.411)" fill="#e6f0f6"/>
        <rect id="Rectángulo_403565" data-name="Rectángulo 403565" width="2.481" height="3.721" transform="translate(51.807 6.411)" fill="#aacfe2"/>
        <path id="Trazado_913395" data-name="Trazado 913395" d="M422.841,112.083l-.678,1.457a.62.62,0,0,1-1.124,0l-2.539-5.454V82.5h2.481v25.587Z" transform="translate(-366.693 -72.368)" fill="#f19b40"/>
        <path id="Trazado_913396" data-name="Trazado 913396" d="M420.981,8v5.519H418.5V11.039A3.1,3.1,0,0,1,420.981,8" transform="translate(-366.693 -7.109)" fill="#e8533a" fill-rule="evenodd"/>
        <path id="Trazado_913397" data-name="Trazado 913397" d="M70.225,304a7.752,7.752,0,1,1,4.408-14.126.93.93,0,1,1-1.06,1.529,5.893,5.893,0,1,0,1.668,1.758.93.93,0,0,1,1.583-.978A7.75,7.75,0,0,1,70.225,304m0-3.721a4.031,4.031,0,1,1,4.031-4.031,4.031,4.031,0,0,1-4.031,4.031m0-6.2a2.171,2.171,0,1,0,2.171,2.171,2.171,2.171,0,0,0-2.171-2.171" transform="translate(-54.822 -252.817)" fill="#12233f"/>
        <path id="Trazado_913398" data-name="Trazado 913398" d="M55.009,241.628a.93.93,0,0,0-.93.93v4.672a1.552,1.552,0,0,1-1.55,1.55h-24.3a2.195,2.195,0,0,0-.329-.536L26.524,246.6q.206-.444.375-.9l2.135-.194a2.16,2.16,0,0,0,1.974-2.162v-3.67a2.16,2.16,0,0,0-1.974-2.162l-2.135-.194q-.169-.458-.375-.9l1.374-1.648a2.16,2.16,0,0,0-.133-2.924l-2.595-2.595a2.16,2.16,0,0,0-2.924-.133L20.6,230.485q-.444-.206-.9-.375l-.194-2.135A2.16,2.16,0,0,0,17.339,226h-3.67a2.16,2.16,0,0,0-2.162,1.974l-.194,2.135q-.457.169-.9.375l-1.648-1.374a2.16,2.16,0,0,0-2.924.133l-2.595,2.595a2.16,2.16,0,0,0-.133,2.924l1.374,1.648q-.206.444-.375.9l-2.135.194A2.16,2.16,0,0,0,0,239.669v3.67A2.16,2.16,0,0,0,1.974,245.5l2.135.194q.169.458.375.9l-1.374,1.648a2.161,2.161,0,0,0,.133,2.924l2.595,2.595a2.16,2.16,0,0,0,2.924.133l1.648-1.374q.444.206.9.375l.194,2.135a2.16,2.16,0,0,0,2.162,1.974h3.67a2.16,2.16,0,0,0,2.162-1.974l.194-2.135q.457-.169.9-.375l1.648,1.374a2.16,2.16,0,0,0,2.924-.133l2.595-2.595a2.188,2.188,0,0,0,.389-.528H52.528a3.415,3.415,0,0,0,3.411-3.411v-4.672A.93.93,0,0,0,55.009,241.628Zm-28.56,8.226-2.6,2.6a.309.309,0,0,1-.418.019l-2.114-1.761a.93.93,0,0,0-1.031-.107,10.2,10.2,0,0,1-1.744.726.93.93,0,0,0-.651.8l-.249,2.737a.308.308,0,0,1-.309.282h-3.67a.308.308,0,0,1-.309-.282l-.249-2.737a.93.93,0,0,0-.651-.8,10.2,10.2,0,0,1-1.744-.726.93.93,0,0,0-1.031.107l-2.114,1.761a.308.308,0,0,1-.418-.019l-2.595-2.595a.308.308,0,0,1-.019-.418L6.3,247.322a.93.93,0,0,0,.107-1.031,10.178,10.178,0,0,1-.726-1.744.93.93,0,0,0-.8-.651l-2.737-.249a.309.309,0,0,1-.281-.309v-3.67a.308.308,0,0,1,.282-.309l2.737-.249a.93.93,0,0,0,.8-.651,10.177,10.177,0,0,1,.726-1.744.93.93,0,0,0-.107-1.031l-1.761-2.114a.308.308,0,0,1,.019-.418l2.594-2.595a.309.309,0,0,1,.418-.019L9.686,232.3a.93.93,0,0,0,1.031.108,10.177,10.177,0,0,1,1.744-.726.93.93,0,0,0,.651-.8l.249-2.737a.308.308,0,0,1,.309-.282h3.67a.308.308,0,0,1,.309.282l.249,2.737a.93.93,0,0,0,.651.8,10.176,10.176,0,0,1,1.744.726.93.93,0,0,0,1.031-.108l2.114-1.761a.308.308,0,0,1,.418.019l2.595,2.595a.308.308,0,0,1,.019.418l-1.761,2.114a.93.93,0,0,0-.107,1.031,10.176,10.176,0,0,1,.726,1.744.93.93,0,0,0,.8.651l2.737.249a.308.308,0,0,1,.282.308v3.67a.309.309,0,0,1-.282.309l-2.737.249a.93.93,0,0,0-.8.651,10.178,10.178,0,0,1-.726,1.744.93.93,0,0,0,.107,1.031l1.761,2.114a.309.309,0,0,1-.018.418Z" transform="translate(-0.101 -198.069)" fill="#12233f"/>
        <path id="Trazado_913399" data-name="Trazado 913399" d="M245.751,111.5v1.674H242.96a1.552,1.552,0,0,0-1.55,1.55v5.209a1.552,1.552,0,0,0,1.55,1.55h16.124a1.552,1.552,0,0,0,1.55-1.55V104.93a1.552,1.552,0,0,0-1.55-1.55h-3.1a1.552,1.552,0,0,0-1.55,1.55V106.6h-2.791a1.552,1.552,0,0,0-1.55,1.55v1.8H247.3a1.552,1.552,0,0,0-1.55,1.55m0,8.124h-2.481v-4.589h2.481Zm10.543-12.093v-2.295h2.481v14.388h-2.481Zm-4.341,3.349v-2.419h2.481v11.163h-2.481Zm-4.341,3.225v-2.295h2.481v7.814h-2.481Z" transform="translate(-211.568 -90.658)" fill="#12233f"/>
        <path id="Trazado_913400" data-name="Trazado 913400" d="M386.694,48.669a.93.93,0,1,1-.93.93.93.93,0,0,1,.93-.93" transform="translate(-338.017 -42.733)" fill="#12233f"/>
        <path id="Trazado_913401" data-name="Trazado 913401" d="M307.694,48.669a.93.93,0,1,1-.93.93.93.93,0,0,1,.93-.93" transform="translate(-268.816 -42.733)" fill="#12233f"/>
        <path id="Trazado_913402" data-name="Trazado 913402" d="M228.694,48.669a.93.93,0,1,1-.93.93.93.93,0,0,1,.93-.93" transform="translate(-199.615 -42.733)" fill="#12233f"/>
        <path id="Trazado_913403" data-name="Trazado 913403" d="M149.694,48.669a.93.93,0,1,1-.93.93.93.93,0,0,1,.93-.93" transform="translate(-130.413 -42.733)" fill="#12233f"/>
        <path id="Trazado_913404" data-name="Trazado 913404" d="M97.534,163.1a.93.93,0,0,0,.93.93h13.644a.93.93,0,0,0,0-1.861H98.464a.93.93,0,0,0-.93.93" transform="translate(-85.538 -142.155)" fill="#12233f"/>
        <path id="Trazado_913405" data-name="Trazado 913405" d="M139.185,196.169a.93.93,0,1,0,0,1.861h4.854a.93.93,0,1,0,0-1.861Z" transform="translate(-121.208 -171.939)" fill="#12233f"/>
        <path id="Trazado_913406" data-name="Trazado 913406" d="M98.464,198.03h2.171a.93.93,0,1,0,0-1.861H98.464a.93.93,0,1,0,0,1.861" transform="translate(-85.538 -171.939)" fill="#12233f"/>
        <path id="Trazado_913407" data-name="Trazado 913407" d="M125.534,129.094a.93.93,0,0,0,.93.93h10.171a.93.93,0,0,0,0-1.861H126.464a.93.93,0,0,0-.93.93" transform="translate(-110.065 -112.368)" fill="#12233f"/>
        <path id="Trazado_913408" data-name="Trazado 913408" d="M105.964,128.169a.93.93,0,1,1-.93.93.93.93,0,0,1,.93-.93" transform="translate(-92.107 -112.373)" fill="#12233f"/>
        <path id="Trazado_913409" data-name="Trazado 913409" d="M200.964,196.169a.93.93,0,1,1-.93.93.93.93,0,0,1,.93-.93" transform="translate(-175.324 -171.939)" fill="#12233f"/>
        <path id="Trazado_913410" data-name="Trazado 913410" d="M276.914,322.93a.93.93,0,0,0-.93-.93H262.34a.93.93,0,0,0,0,1.861h13.644a.93.93,0,0,0,.93-.93" transform="translate(-229.087 -282.162)" fill="#12233f"/>
        <path id="Trazado_913411" data-name="Trazado 913411" d="M303.062,356a.93.93,0,1,0,0,1.861h4.854a.93.93,0,0,0,0-1.861Z" transform="translate(-264.759 -311.945)" fill="#12233f"/>
        <path id="Trazado_913412" data-name="Trazado 913412" d="M262.34,356a.93.93,0,0,0,0,1.861h2.171a.93.93,0,0,0,0-1.861Z" transform="translate(-229.087 -311.945)" fill="#12233f"/>
        <path id="Trazado_913413" data-name="Trazado 913413" d="M300.511,288H290.34a.93.93,0,0,0,0,1.861h10.171a.93.93,0,0,0,0-1.861" transform="translate(-253.615 -252.379)" fill="#12233f"/>
        <path id="Trazado_913414" data-name="Trazado 913414" d="M269.84,289.861a.93.93,0,1,0-.93-.93.93.93,0,0,0,.93.93" transform="translate(-235.657 -252.379)" fill="#12233f"/>
        <path id="Trazado_913415" data-name="Trazado 913415" d="M363.91,356.93a.93.93,0,1,0,.93-.93.93.93,0,0,0-.93.93" transform="translate(-318.874 -311.945)" fill="#12233f"/>
        <path id="Trazado_913416" data-name="Trazado 913416" d="M99.975,0a4.037,4.037,0,0,0-3.8,2.688H60.946a.93.93,0,0,0-.657.273l-8.682,8.682a.93.93,0,0,0-.273.657V28.844a.93.93,0,0,0,1.861,0V13.23h5.271a3.415,3.415,0,0,0,3.411-3.411V4.548H95.944V35.819a.931.931,0,0,0,.087.393l2.539,5.454a1.55,1.55,0,0,0,2.811,0l2.539-5.454a.931.931,0,0,0,.087-.393V4.031A4.036,4.036,0,0,0,99.975,0ZM58.465,11.37H54.509l5.506-5.506V9.819a1.552,1.552,0,0,1-1.55,1.55m43.681,24.243-2.171,4.664L97.8,35.613V11.163h4.341Zm0-26.311H97.8V7.442h4.341Zm0-3.721H97.8V4.031a2.171,2.171,0,1,1,4.341,0Z" transform="translate(-45.067 -0.101)" fill="#12233f"/>
      </g>
    </g>
  </g>
</svg>
