<svg xmlns="http://www.w3.org/2000/svg" xmlns:xlink="http://www.w3.org/1999/xlink" width="105.872" height="113.349" viewBox="0 0 105.872 113.349">
  <defs>
    <clipPath id="clip-path">
      <rect id="Rectángulo_403394" data-name="Rectángulo 403394" width="104.372" height="103.176" fill="none"/>
    </clipPath>
  </defs>
  <g id="Grupo_1102228" data-name="Grupo 1102228" transform="translate(-799.565 -3647.815)">
    <ellipse id="Elipse_11531" data-name="Elipse 11531" cx="20.631" cy="20.631" rx="20.631" ry="20.631" transform="translate(860.327 3719.901)" fill="#4b96e3"/>
    <g id="Grupo_1102226" data-name="Grupo 1102226">
      <g id="Grupo_1101840" data-name="Grupo 1101840" transform="translate(2192.255 17160.363)">
        <ellipse id="Elipse_11571" data-name="Elipse 11571" cx="49.214" cy="49.214" rx="49.214" ry="49.214" transform="translate(-1391.191 -13510.174)" fill="#efedee" stroke="#007dfe" stroke-miterlimit="10" stroke-width="3"/>
        <g id="Grupo_1101775" data-name="Grupo 1101775" transform="translate(-1391.19 -13512.548)">
          <g id="Grupo_1101774" data-name="Grupo 1101774" transform="translate(0 0)">
            <g id="Grupo_1101773" data-name="Grupo 1101773" clip-path="url(#clip-path)">
              <path id="Trazado_912969" data-name="Trazado 912969" d="M53.51,50.2a6.511,6.511,0,0,1-6.575,6.5,6.422,6.422,0,0,1-6.471-6.5,6.511,6.511,0,0,1,6.575-6.5,6.423,6.423,0,0,1,6.471,6.5" transform="translate(1.285 1.388)" fill="#80b7f1"/>
              <path id="Trazado_912970" data-name="Trazado 912970" d="M26.684,71.3a2.58,2.58,0,1,1-2.609,2.579A2.569,2.569,0,0,1,26.684,71.3" transform="translate(0.765 2.265)" fill="#add1f6"/>
              <path id="Trazado_912971" data-name="Trazado 912971" d="M29.213,21.3A2.58,2.58,0,1,1,26.6,23.879,2.569,2.569,0,0,1,29.213,21.3" transform="translate(0.845 0.677)" fill="#add1f6"/>
              <path id="Trazado_912972" data-name="Trazado 912972" d="M72.833,25A3.2,3.2,0,1,1,69.6,28.2,3.168,3.168,0,0,1,72.833,25" transform="translate(2.211 0.794)" fill="#add1f6"/>
              <path id="Trazado_912973" data-name="Trazado 912973" d="M71.815,45.6h-9.5a15.477,15.477,0,1,0,0,10.318h9.5A24.776,24.776,0,1,1,47.6,26.2,24.879,24.879,0,0,1,71.815,45.6" transform="translate(0.723 0.832)" fill="#ffc92b"/>
              <path id="Trazado_912974" data-name="Trazado 912974" d="M74.7,36.3a1.341,1.341,0,1,1-1.357,1.341A1.308,1.308,0,0,1,74.7,36.3" transform="translate(2.329 1.153)"/>
              <path id="Trazado_912975" data-name="Trazado 912975" d="M73.382,65a1.341,1.341,0,1,1-1.357,1.341A1.45,1.45,0,0,1,73.382,65" transform="translate(2.288 2.065)"/>
              <path id="Trazado_912976" data-name="Trazado 912976" d="M67.11,75a1.341,1.341,0,1,1,0,2.683,1.45,1.45,0,0,1-1.357-1.341A1.374,1.374,0,0,1,67.11,75" transform="translate(2.088 2.382)"/>
              <path id="Trazado_912977" data-name="Trazado 912977" d="M63.266,22.5a1.374,1.374,0,0,1,1.357,1.341,1.288,1.288,0,0,1-1.357,1.238,1.374,1.374,0,0,1-1.357-1.341A1.288,1.288,0,0,1,63.266,22.5" transform="translate(1.966 0.715)"/>
              <path id="Trazado_912978" data-name="Trazado 912978" d="M35.447,75a1.341,1.341,0,1,1-1.357,1.341A1.45,1.45,0,0,1,35.447,75" transform="translate(1.083 2.382)"/>
              <path id="Trazado_912979" data-name="Trazado 912979" d="M24.118,30a1.341,1.341,0,1,1-1.357,1.341A1.374,1.374,0,0,1,24.118,30" transform="translate(0.723 0.953)"/>
              <path id="Trazado_912980" data-name="Trazado 912980" d="M47.639,76.588a25.8,25.8,0,1,1,0-51.588A26.264,26.264,0,0,1,64.13,30.778a25.628,25.628,0,0,1,8.976,14.445v.31a1.374,1.374,0,0,1-1.357,1.341h-9.5A1.356,1.356,0,0,1,61,46.048,14.367,14.367,0,1,0,47.431,65.032,14.5,14.5,0,0,0,61,55.54a1.258,1.258,0,0,1,1.253-.825h9.5a1.454,1.454,0,0,1,1.043.516,1.969,1.969,0,0,1,.314,1.032A25.884,25.884,0,0,1,64.13,70.81a26.7,26.7,0,0,1-16.491,5.778m0-49.009A23.216,23.216,0,1,0,70.183,57.191H63.3A16.986,16.986,0,0,1,47.639,67.509a16.768,16.768,0,1,1,0-33.532A16.986,16.986,0,0,1,63.3,44.294h6.888A23.574,23.574,0,0,0,47.639,27.579" transform="translate(0.684 0.794)"/>
              <path id="Trazado_912981" data-name="Trazado 912981" d="M47.2,62.018a11.66,11.66,0,1,1,0-23.318,1.341,1.341,0,1,1,0,2.683,9.08,9.08,0,1,0,0,18.159,1.374,1.374,0,0,1,1.357,1.341A1.27,1.27,0,0,1,47.2,62.018" transform="translate(1.125 1.229)"/>
              <path id="Trazado_912982" data-name="Trazado 912982" d="M47.077,57.976A7.739,7.739,0,1,1,54.9,50.238a7.841,7.841,0,0,1-7.828,7.738m0-12.9A5.159,5.159,0,1,0,52.3,50.238a5.2,5.2,0,0,0-5.219-5.159" transform="translate(1.247 1.35)"/>
              <path id="Trazado_912983" data-name="Trazado 912983" d="M47.564,54.041a1.283,1.283,0,0,1-.94-.413l-2.608-2.579a1.3,1.3,0,0,1,0-1.857l2.608-2.579a1.334,1.334,0,0,1,1.879,0,1.3,1.3,0,0,1,0,1.857L46.73,50.12,48.4,51.771a1.349,1.349,0,0,1-.835,2.27" transform="translate(1.386 1.468)"/>
              <path id="Trazado_912984" data-name="Trazado 912984" d="M79.5,51.383H44.957a1.341,1.341,0,1,1,0-2.683H79.5a1.341,1.341,0,1,1,0,2.683" transform="translate(1.385 1.547)"/>
              <path id="Trazado_912985" data-name="Trazado 912985" d="M26.726,77.741a3.921,3.921,0,1,1,3.966-3.921,4.01,4.01,0,0,1-3.966,3.921m0-5.159a1.341,1.341,0,1,0,1.357,1.341,1.54,1.54,0,0,0-1.357-1.341" transform="translate(0.723 2.22)"/>
              <path id="Trazado_912986" data-name="Trazado 912986" d="M29.255,27.741a3.921,3.921,0,1,1,3.966-3.921,4.01,4.01,0,0,1-3.966,3.921m0-5.159a1.341,1.341,0,1,0,1.357,1.341,1.54,1.54,0,0,0-1.357-1.341" transform="translate(0.803 0.632)"/>
              <path id="Trazado_912987" data-name="Trazado 912987" d="M72.874,32.78a4.54,4.54,0,1,1,4.592-4.54,4.607,4.607,0,0,1-4.592,4.54m0-6.4a1.971,1.971,0,0,0-1.983,1.96,1.908,1.908,0,0,0,1.983,1.96,1.96,1.96,0,1,0,0-3.921" transform="translate(2.169 0.753)"/>
            </g>
          </g>
        </g>
      </g>
    </g>
  </g>
</svg>
