<svg xmlns="http://www.w3.org/2000/svg" xmlns:xlink="http://www.w3.org/1999/xlink" width="101.428" height="113.495" viewBox="0 0 101.428 113.495">
  <defs>
    <clipPath id="clip-path">
      <rect id="Rect치ngulo_403387" data-name="Rect치ngulo 403387" width="58.806" height="58.938" fill="none"/>
    </clipPath>
  </defs>
  <g id="Grupo_1102227" data-name="Grupo 1102227" transform="translate(-802.537 -3995.297)">
    <ellipse id="Elipse_11531" data-name="Elipse 11531" cx="20.631" cy="20.631" rx="20.631" ry="20.631" transform="translate(862.327 4067.529)" fill="#4b96e3"/>
    <ellipse id="Elipse_11587" data-name="Elipse 11587" cx="49.214" cy="49.214" rx="49.214" ry="49.214" transform="translate(804.037 3996.797)" fill="#efedee" stroke="#007dfe" stroke-miterlimit="10" stroke-width="3"/>
    <g id="Grupo_1101768" data-name="Grupo 1101768" transform="translate(823.848 4018.413)">
      <path id="Trazado_912851" data-name="Trazado 912851" d="M17.943,8.7V26.331l-5.1-8.765Z" transform="translate(0.096 0.065)" fill="#ffc829"/>
      <path id="Trazado_912852" data-name="Trazado 912852" d="M7.789,8.7l5.1,8.866-5.1,8.765Z" transform="translate(0.058 0.065)" fill="#ffc829"/>
      <path id="Trazado_912853" data-name="Trazado 912853" d="M12.885,17.5l5.1,8.765H7.789Z" transform="translate(0.058 0.131)" fill="#ffd65e"/>
      <path id="Trazado_912854" data-name="Trazado 912854" d="M17.981,8.7l-5.1,8.866L7.789,8.7Z" transform="translate(0.058 0.065)" fill="#ffd65e"/>
      <path id="Trazado_912855" data-name="Trazado 912855" d="M21.781,30.187H3.945V5H21.781ZM18.01,8.728H7.818V26.359H18.01Z" transform="translate(0.03 0.037)" fill="#f2f6fd"/>
      <rect id="Rect치ngulo_403386" data-name="Rect치ngulo 403386" width="33.122" height="25.187" transform="translate(21.81 5.037)" fill="#e9f3fd"/>
      <path id="Trazado_912856" data-name="Trazado 912856" d="M47.764,44.7l2.344,5.743-2.344,2.418-2.243-2.418Z" transform="translate(0.341 0.335)" fill="#80b7f1"/>
      <path id="Trazado_912857" data-name="Trazado 912857" d="M10.74,44.7l2.243,5.743L10.74,52.861,8.4,50.443Z" transform="translate(0.063 0.335)" fill="#80b7f1"/>
      <path id="Trazado_912858" data-name="Trazado 912858" d="M29.253,44.7,31.6,50.443l-2.343,2.418-2.344-2.418Z" transform="translate(0.202 0.335)" fill="#6693ec"/>
      <g id="Grupo_1101767" data-name="Grupo 1101767" transform="translate(0 0)">
        <g id="Grupo_1101766" data-name="Grupo 1101766" clip-path="url(#clip-path)">
          <path id="Trazado_912859" data-name="Trazado 912859" d="M29.3,44.7a9.3,9.3,0,0,1,9.377,9.269,7.654,7.654,0,0,1-.714,3.425H20.641a9.8,9.8,0,0,1-.713-3.425A9.43,9.43,0,0,1,29.3,44.7L26.96,50.443,29.3,52.861l2.343-2.418Z" transform="translate(0.149 0.335)" fill="#ffa39b"/>
          <path id="Trazado_912860" data-name="Trazado 912860" d="M47.817,44.7l-2.343,5.743,2.343,2.418,2.344-2.418L47.817,44.7a9.3,9.3,0,0,1,9.377,9.269,7.653,7.653,0,0,1-.713,3.425H39.153a9.818,9.818,0,0,1-.713-3.425A9.431,9.431,0,0,1,47.817,44.7" transform="translate(0.288 0.335)" fill="#c4def9"/>
          <path id="Trazado_912861" data-name="Trazado 912861" d="M10.793,44.7a9.3,9.3,0,0,1,9.377,9.269,7.653,7.653,0,0,1-.713,3.425H2.129a9.818,9.818,0,0,1-.713-3.425A9.3,9.3,0,0,1,10.793,44.7L8.449,50.443l2.343,2.418,2.344-2.418Z" transform="translate(0.011 0.335)" fill="#c4def9"/>
          <path id="Trazado_912862" data-name="Trazado 912862" d="M47.782,35.5a4.635,4.635,0,1,1-4.688,4.635A4.649,4.649,0,0,1,47.782,35.5" transform="translate(0.323 0.266)" fill="#fff3cf"/>
          <path id="Trazado_912863" data-name="Trazado 912863" d="M29.27,35.5a4.635,4.635,0,1,1,0,9.269,4.585,4.585,0,0,1-4.688-4.633A4.649,4.649,0,0,1,29.27,35.5" transform="translate(0.184 0.266)" fill="#fff3cf"/>
          <path id="Trazado_912864" data-name="Trazado 912864" d="M10.758,35.5A4.635,4.635,0,1,1,6.07,40.135,4.587,4.587,0,0,1,10.758,35.5" transform="translate(0.045 0.266)" fill="#fff3cf"/>
          <path id="Trazado_912865" data-name="Trazado 912865" d="M55.85,33.7a1.31,1.31,0,1,1,0,2.619,1.31,1.31,0,1,1,0-2.619" transform="translate(0.408 0.252)"/>
          <path id="Trazado_912866" data-name="Trazado 912866" d="M52.006,0A1.341,1.341,0,0,1,53.33,1.31a1.324,1.324,0,0,1-2.649,0A1.341,1.341,0,0,1,52.006,0" transform="translate(0.38)"/>
          <path id="Trazado_912867" data-name="Trazado 912867" d="M48.263,0a1.341,1.341,0,0,1,1.325,1.31,1.325,1.325,0,0,1-2.65,0A1.341,1.341,0,0,1,48.263,0" transform="translate(0.352)"/>
          <path id="Trazado_912868" data-name="Trazado 912868" d="M44.419,0a1.341,1.341,0,0,1,1.324,1.31,1.324,1.324,0,0,1-2.649,0A1.341,1.341,0,0,1,44.419,0" transform="translate(0.323)"/>
          <path id="Trazado_912869" data-name="Trazado 912869" d="M41.89,32.5a1.31,1.31,0,1,1-1.325,1.31A1.342,1.342,0,0,1,41.89,32.5" transform="translate(0.304 0.243)"/>
          <path id="Trazado_912870" data-name="Trazado 912870" d="M40.676,0A1.341,1.341,0,0,1,42,1.31a1.341,1.341,0,0,1-1.325,1.31,1.434,1.434,0,0,1-1.326-1.41A1.259,1.259,0,0,1,40.676,0" transform="translate(0.295)"/>
          <path id="Trazado_912871" data-name="Trazado 912871" d="M38.147,40a1.31,1.31,0,1,1-1.324,1.31A1.342,1.342,0,0,1,38.147,40" transform="translate(0.276 0.3)"/>
          <path id="Trazado_912872" data-name="Trazado 912872" d="M36.832,0a1.341,1.341,0,0,1,1.324,1.31,1.324,1.324,0,0,1-2.649,0A1.341,1.341,0,0,1,36.832,0" transform="translate(0.266)"/>
          <path id="Trazado_912873" data-name="Trazado 912873" d="M33.089,0a1.341,1.341,0,0,1,1.325,1.31,1.325,1.325,0,0,1-2.651,0A1.342,1.342,0,0,1,33.089,0" transform="translate(0.238)"/>
          <path id="Trazado_912874" data-name="Trazado 912874" d="M29.245,0a1.341,1.341,0,0,1,1.324,1.31,1.324,1.324,0,0,1-2.649,0A1.341,1.341,0,0,1,29.245,0" transform="translate(0.209)"/>
          <path id="Trazado_912875" data-name="Trazado 912875" d="M25.5,0a1.341,1.341,0,0,1,1.324,1.31A1.341,1.341,0,0,1,25.5,2.619a1.433,1.433,0,0,1-1.325-1.41A1.258,1.258,0,0,1,25.5,0" transform="translate(0.181)"/>
          <path id="Trazado_912876" data-name="Trazado 912876" d="M21.658,0a1.341,1.341,0,0,1,1.324,1.31,1.324,1.324,0,0,1-2.649,0A1.341,1.341,0,0,1,21.658,0" transform="translate(0.152)"/>
          <path id="Trazado_912877" data-name="Trazado 912877" d="M19.129,36.2a1.341,1.341,0,0,1,1.325,1.31,1.258,1.258,0,0,1-1.325,1.209,1.341,1.341,0,0,1-1.325-1.31A1.258,1.258,0,0,1,19.129,36.2" transform="translate(0.133 0.271)"/>
          <path id="Trazado_912878" data-name="Trazado 912878" d="M17.915,0a1.342,1.342,0,0,1,1.326,1.31,1.325,1.325,0,0,1-2.651,0A1.341,1.341,0,0,1,17.915,0" transform="translate(0.124)"/>
          <path id="Trazado_912879" data-name="Trazado 912879" d="M14.071,0a1.341,1.341,0,0,1,1.324,1.31,1.324,1.324,0,0,1-2.649,0A1.341,1.341,0,0,1,14.071,0" transform="translate(0.095)"/>
          <path id="Trazado_912880" data-name="Trazado 912880" d="M10.328,0a1.341,1.341,0,0,1,1.325,1.31,1.341,1.341,0,0,1-1.325,1.31A1.433,1.433,0,0,1,9,1.209,1.258,1.258,0,0,1,10.328,0" transform="translate(0.067)"/>
          <path id="Trazado_912881" data-name="Trazado 912881" d="M6.485,0A1.341,1.341,0,0,1,7.809,1.31a1.324,1.324,0,0,1-2.649,0A1.341,1.341,0,0,1,6.485,0" transform="translate(0.039)"/>
          <path id="Trazado_912882" data-name="Trazado 912882" d="M2.741,33.7a1.31,1.31,0,1,1,0,2.619,1.31,1.31,0,1,1,0-2.619" transform="translate(0.011 0.252)"/>
          <path id="Trazado_912883" data-name="Trazado 912883" d="M10.767,45.988a5.844,5.844,0,1,1,5.911-5.843,5.883,5.883,0,0,1-5.911,5.843m0-9.169a3.325,3.325,0,1,0,3.364,3.326,3.374,3.374,0,0,0-3.364-3.326" transform="translate(0.036 0.257)"/>
          <path id="Trazado_912884" data-name="Trazado 912884" d="M10.749,54.079a1.108,1.108,0,0,1-.916-.4L7.489,51.259a1.587,1.587,0,0,1-.306-1.31l2.343-5.743a1.229,1.229,0,0,1,1.223-.806,1.324,1.324,0,0,1,1.223.806l2.345,5.743a1.06,1.06,0,0,1-.307,1.31l-2.343,2.418a1.25,1.25,0,0,1-.918.4m-.916-3.928.815.906.815-.906-.815-2.117Z" transform="translate(0.053 0.325)"/>
          <path id="Trazado_912885" data-name="Trazado 912885" d="M19.365,58.613H2.038a1.325,1.325,0,0,1-1.223-.806A10.443,10.443,0,0,1,0,53.878a10.6,10.6,0,0,1,21.2,0,10.424,10.424,0,0,1-.816,3.929c0,.5-.407.806-1.018.806M3.058,56.094H18.549a7.779,7.779,0,0,0,.306-2.216A7.959,7.959,0,0,0,10.8,45.919a7.958,7.958,0,0,0-8.051,7.959,7.744,7.744,0,0,0,.306,2.216" transform="translate(0 0.325)"/>
          <path id="Trazado_912886" data-name="Trazado 912886" d="M29.279,45.988a5.844,5.844,0,1,1,5.911-5.843,5.819,5.819,0,0,1-5.911,5.843m0-9.169a3.325,3.325,0,1,0,3.363,3.326,3.247,3.247,0,0,0-3.363-3.326" transform="translate(0.175 0.257)"/>
          <path id="Trazado_912887" data-name="Trazado 912887" d="M29.263,54.079h0a1.115,1.115,0,0,1-.919-.4L26,51.259a1.589,1.589,0,0,1-.305-1.31l2.344-5.743a1.33,1.33,0,0,1,2.445,0l2.344,5.743a1.06,1.06,0,0,1-.306,1.31L30.18,53.677a1,1,0,0,1-.917.4m-.816-3.928.816.906.814-.906-.814-2.117Z" transform="translate(0.192 0.325)"/>
          <path id="Trazado_912888" data-name="Trazado 912888" d="M37.977,58.613H20.652a1.324,1.324,0,0,1-1.223-.806,10.424,10.424,0,0,1-.816-3.929,10.6,10.6,0,0,1,21.2,0A10.423,10.423,0,0,1,39,57.807a.923.923,0,0,1-1.02.806M21.569,56.094H37.06a7.779,7.779,0,0,0,.306-2.216,8.052,8.052,0,0,0-16.1,0,7.779,7.779,0,0,0,.306,2.216" transform="translate(0.139 0.325)"/>
          <path id="Trazado_912889" data-name="Trazado 912889" d="M47.791,45.988A5.844,5.844,0,1,1,53.7,40.144a5.756,5.756,0,0,1-5.911,5.843m0-9.169a3.325,3.325,0,1,0,3.363,3.326,3.309,3.309,0,0,0-3.363-3.326" transform="translate(0.314 0.257)"/>
          <path id="Trazado_912890" data-name="Trazado 912890" d="M47.773,54.079h0a1.112,1.112,0,0,1-.917-.4l-2.344-2.418a1.594,1.594,0,0,1-.306-1.31l2.345-5.743a1.33,1.33,0,0,1,2.445,0L51.34,49.95a1.058,1.058,0,0,1-.305,1.31l-2.344,2.418a1,1,0,0,1-.918.4m-.814-3.928.814.906.816-.906-.816-2.117Z" transform="translate(0.331 0.325)"/>
          <path id="Trazado_912891" data-name="Trazado 912891" d="M56.489,58.613H39.163a1.324,1.324,0,0,1-1.223-.806,10.424,10.424,0,0,1-.816-3.929,10.6,10.6,0,0,1,21.2,0,10.422,10.422,0,0,1-.814,3.929.923.923,0,0,1-1.02.806M40.08,56.094H55.572a7.779,7.779,0,0,0,.305-2.216,8.052,8.052,0,0,0-16.1,0,7.779,7.779,0,0,0,.305,2.216" transform="translate(0.278 0.325)"/>
          <path id="Trazado_912892" data-name="Trazado 912892" d="M54.913,31.407H3.955A1.342,1.342,0,0,1,2.629,30.1V4.91a1.325,1.325,0,0,1,2.651,0V28.888H53.69V5.01a1.325,1.325,0,0,1,2.651,0V30.2a1.523,1.523,0,0,1-1.428,1.209" transform="translate(0.02 0.027)"/>
          <path id="Trazado_912893" data-name="Trazado 912893" d="M57.48,6.219H1.426A1.341,1.341,0,0,1,.1,4.91,1.341,1.341,0,0,1,1.426,3.6H57.48a1.341,1.341,0,0,1,1.325,1.31,1.341,1.341,0,0,1-1.325,1.31" transform="translate(0.001 0.027)"/>
          <path id="Trazado_912894" data-name="Trazado 912894" d="M21.658,31.407a1.341,1.341,0,0,1-1.325-1.31V4.91a1.324,1.324,0,0,1,2.649,0V30.1a1.341,1.341,0,0,1-1.324,1.31" transform="translate(0.152 0.027)"/>
          <path id="Trazado_912895" data-name="Trazado 912895" d="M17.991,27.651H7.8a1.341,1.341,0,0,1-1.324-1.31V8.71A1.341,1.341,0,0,1,7.8,7.4H17.991a1.342,1.342,0,0,1,1.326,1.31V26.341a1.505,1.505,0,0,1-1.326,1.31M9.022,25.132h7.644V10.019H9.022Z" transform="translate(0.048 0.055)"/>
          <path id="Trazado_912896" data-name="Trazado 912896" d="M17.99,27.649a1.282,1.282,0,0,1-1.12-.6L6.677,9.414A1.284,1.284,0,0,1,7.187,7.7a1.316,1.316,0,0,1,1.733.5L19.11,25.836a1.282,1.282,0,0,1-.509,1.713c-.2,0-.408.1-.612.1" transform="translate(0.049 0.057)"/>
          <path id="Trazado_912897" data-name="Trazado 912897" d="M7.7,27.65a1.46,1.46,0,0,1-.612-.2,1.282,1.282,0,0,1-.51-1.712L16.768,8.106A1.312,1.312,0,0,1,18.5,7.6a1.282,1.282,0,0,1,.509,1.712L8.818,26.945a1.252,1.252,0,0,1-1.12.705" transform="translate(0.048 0.056)"/>
          <path id="Trazado_912898" data-name="Trazado 912898" d="M35.685,11.219H26.716a1.31,1.31,0,1,1,0-2.619h8.969a1.341,1.341,0,0,1,1.324,1.31,1.5,1.5,0,0,1-1.324,1.31" transform="translate(0.19 0.064)"/>
          <path id="Trazado_912899" data-name="Trazado 912899" d="M35.685,15.019H26.716a1.31,1.31,0,1,1,0-2.619h8.969a1.341,1.341,0,0,1,1.324,1.31,1.5,1.5,0,0,1-1.324,1.31" transform="translate(0.19 0.093)"/>
          <path id="Trazado_912900" data-name="Trazado 912900" d="M35.685,22.519H26.716a1.31,1.31,0,1,1,0-2.619h8.969a1.341,1.341,0,0,1,1.324,1.31,1.5,1.5,0,0,1-1.324,1.31" transform="translate(0.19 0.149)"/>
          <path id="Trazado_912901" data-name="Trazado 912901" d="M35.685,26.219H26.716a1.31,1.31,0,1,1,0-2.619h8.969a1.341,1.341,0,0,1,1.324,1.31,1.5,1.5,0,0,1-1.324,1.31" transform="translate(0.19 0.177)"/>
          <path id="Trazado_912902" data-name="Trazado 912902" d="M49.544,22.519H40.575a1.31,1.31,0,1,1,0-2.619h8.969a1.31,1.31,0,1,1,0,2.619" transform="translate(0.294 0.149)"/>
          <path id="Trazado_912903" data-name="Trazado 912903" d="M49.544,26.219H40.575a1.31,1.31,0,1,1,0-2.619h8.969a1.31,1.31,0,1,1,0,2.619" transform="translate(0.294 0.177)"/>
          <path id="Trazado_912904" data-name="Trazado 912904" d="M49.544,11.219H40.575a1.31,1.31,0,1,1,0-2.619h8.969a1.31,1.31,0,1,1,0,2.619" transform="translate(0.294 0.064)"/>
          <path id="Trazado_912905" data-name="Trazado 912905" d="M49.544,15.019H40.575a1.31,1.31,0,1,1,0-2.619h8.969a1.31,1.31,0,1,1,0,2.619" transform="translate(0.294 0.093)"/>
        </g>
      </g>
    </g>
  </g>
</svg>
