<svg xmlns="http://www.w3.org/2000/svg" xmlns:xlink="http://www.w3.org/1999/xlink" width="101.428" height="119.423" viewBox="0 0 101.428 119.423">
  <defs>
    <clipPath id="clip-path">
      <rect id="Rectángulo_403392" data-name="Rectángulo 403392" width="63.701" height="62.856" fill="none"/>
    </clipPath>
  </defs>
  <g id="Grupo_1102230" data-name="Grupo 1102230" transform="translate(-803.613 -4681.427)">
    <ellipse id="Elipse_11531" data-name="Elipse 11531" cx="20.631" cy="20.631" rx="20.631" ry="20.631" transform="translate(854.327 4759.588)" fill="#4b96e3"/>
    <g id="Grupo_1101844" data-name="Grupo 1101844" transform="translate(1747.424 18633.773)">
      <ellipse id="Elipse_11589" data-name="Elipse 11589" cx="49.214" cy="49.214" rx="49.214" ry="49.214" transform="translate(-942.311 -13950.847)" fill="#efedee" stroke="#007dfe" stroke-miterlimit="10" stroke-width="3"/>
      <g id="Grupo_1101772" data-name="Grupo 1101772" transform="translate(-924.947 -13935.211)">
        <g id="Grupo_1101771" data-name="Grupo 1101771" transform="translate(0 0)" clip-path="url(#clip-path)">
          <path id="Trazado_912948" data-name="Trazado 912948" d="M16.059,1.2a2.187,2.187,0,0,1,2.2,2.175,2.118,2.118,0,0,1-2.2,2.175,2.118,2.118,0,0,1-2.2-2.175,2.187,2.187,0,0,1,2.2-2.175" transform="translate(2.008 0.174)" fill="#add1f6"/>
          <path id="Trazado_912949" data-name="Trazado 912949" d="M5.424,14.9a2.862,2.862,0,1,1,0,5.725,2.862,2.862,0,1,1,0-5.725" transform="translate(0.367 2.159)" fill="#add1f6"/>
          <path id="Trazado_912950" data-name="Trazado 912950" d="M51.642,7.4a3.549,3.549,0,1,1,0,7.1,3.549,3.549,0,1,1,0-7.1" transform="translate(6.963 1.072)" fill="#add1f6"/>
          <path id="Trazado_912951" data-name="Trazado 912951" d="M43.692,57.7H8.6V34a7.961,7.961,0,0,1,7.99-7.9H30.6L24.7,40.755,30.6,46.823l5.908-6.068L30.6,26.214H44.387a7.964,7.964,0,0,1,7.991,7.9V57.7Z" transform="translate(1.246 3.782)" fill="#c4def9"/>
          <path id="Trazado_912952" data-name="Trazado 912952" d="M28.566,26.2l5.907,14.655-5.907,6.069-5.907-6.069Z" transform="translate(3.284 3.797)" fill="#80b7f1"/>
          <path id="Trazado_912953" data-name="Trazado 912953" d="M29.328,5.6a11.793,11.793,0,1,0,11.93,11.793A11.844,11.844,0,0,0,29.328,5.6" transform="translate(2.521 0.812)" fill="#ffedba"/>
          <path id="Trazado_912954" data-name="Trazado 912954" d="M50.769,22.4a1.488,1.488,0,1,1-1.5,1.488,1.607,1.607,0,0,1,1.5-1.488" transform="translate(7.139 3.246)"/>
          <path id="Trazado_912955" data-name="Trazado 912955" d="M43.182,1.2a1.524,1.524,0,0,1,1.506,1.488,1.505,1.505,0,0,1-3.01,0,1.52,1.52,0,0,1,1.5-1.488" transform="translate(6.04 0.174)"/>
          <path id="Trazado_912956" data-name="Trazado 912956" d="M28.161,15.184v-2.29c-.927.114-1.275.458-1.275,1.03a.692.692,0,0,0,.348.687,6.539,6.539,0,0,0,.927.572m.925,3.435v2.29c.927,0,1.507-.345,1.507-1.03a1.036,1.036,0,0,0-.348-.8,12.01,12.01,0,0,0-1.159-.458m4.4-7.1L32.1,14.039a1.431,1.431,0,0,0-.347-.229c-.231-.116-.464-.229-.695-.343a8.245,8.245,0,0,0-.926-.345,3.443,3.443,0,0,0-1.043-.228v2.518l.579.116A15.315,15.315,0,0,1,31.4,16.1a4.759,4.759,0,0,1,1.273.8,4.119,4.119,0,0,1,.812,1.145,3.3,3.3,0,0,1,.347,1.6,4.322,4.322,0,0,1-.347,1.832,3.673,3.673,0,0,1-2.549,1.945,8.947,8.947,0,0,1-1.737.23v2.175H27.928V23.656a9.238,9.238,0,0,1-2.547-.572,14.251,14.251,0,0,1-2.316-1.03l1.39-2.634c0,.116.231.116.464.345a5.007,5.007,0,0,0,.811.458,12.408,12.408,0,0,0,1.158.458c.464.114.927.229,1.275.343V18.5l-.812-.458c-.578-.229-1.158-.345-1.621-.572a4.165,4.165,0,0,1-1.159-.8,3.247,3.247,0,0,1-.694-1.03,4.051,4.051,0,0,1-.232-1.259,3.784,3.784,0,0,1,.347-1.717,5.122,5.122,0,0,1,.927-1.261,2.792,2.792,0,0,1,1.389-.8,7.639,7.639,0,0,1,1.738-.458V8.2h1.273v1.946a7.6,7.6,0,0,1,2.317.572c.695.229,1.274.572,1.854.8" transform="translate(3.342 1.188)"/>
          <path id="Trazado_912957" data-name="Trazado 912957" d="M5.248,6.2a1.489,1.489,0,1,1-1.5,1.488A1.525,1.525,0,0,1,5.248,6.2" transform="translate(0.543 0.899)"/>
          <path id="Trazado_912958" data-name="Trazado 912958" d="M1.506,28.7a1.489,1.489,0,1,1,0,2.978,1.489,1.489,0,1,1,0-2.978" transform="translate(0 4.159)"/>
          <path id="Trazado_912959" data-name="Trazado 912959" d="M29.5,30.733A13.32,13.32,0,0,1,16.185,17.566a13.32,13.32,0,0,1,26.639,0A13.32,13.32,0,0,1,29.5,30.733m0-23.471a10.3,10.3,0,1,0,10.423,10.3A10.321,10.321,0,0,0,29.5,7.262" transform="translate(2.345 0.638)"/>
          <path id="Trazado_912960" data-name="Trazado 912960" d="M16.68,56.364a1.525,1.525,0,0,1-1.507-1.488V46.288a1.506,1.506,0,0,1,3.011,0v8.587a1.707,1.707,0,0,1-1.5,1.488" transform="translate(2.199 6.492)"/>
          <path id="Trazado_912961" data-name="Trazado 912961" d="M39.441,56.364a1.524,1.524,0,0,1-1.506-1.488V46.288a1.505,1.505,0,0,1,3.01,0v8.587a1.706,1.706,0,0,1-1.5,1.488" transform="translate(5.497 6.492)"/>
          <path id="Trazado_912962" data-name="Trazado 912962" d="M28.747,48.485a1.263,1.263,0,0,1-1.042-.458L21.8,41.96a1.809,1.809,0,0,1-.348-1.49l5.907-14.655a1.513,1.513,0,0,1,2.78,0l5.907,14.655a1.2,1.2,0,0,1-.348,1.49L29.79,48.027a1.265,1.265,0,0,1-1.043.458M24.463,40.7l4.284,4.351L33.032,40.7,28.747,30.167Z" transform="translate(3.102 3.608)"/>
          <path id="Trazado_912963" data-name="Trazado 912963" d="M51.327,55.277h-4.4a1.488,1.488,0,1,1,0-2.977h4.4a1.488,1.488,0,1,1,0,2.977" transform="translate(6.582 7.579)"/>
          <path id="Trazado_912964" data-name="Trazado 912964" d="M9.3,55.277H5.248a1.488,1.488,0,1,1,0-2.977H9.3a1.523,1.523,0,0,1,1.5,1.488,1.607,1.607,0,0,1-1.5,1.488" transform="translate(0.543 7.579)"/>
          <path id="Trazado_912965" data-name="Trazado 912965" d="M52.568,59.247H8.789a1.524,1.524,0,0,1-1.506-1.488V34.174A9.289,9.289,0,0,1,16.664,24.9H44.459a9.291,9.291,0,0,1,9.384,9.274V57.759a1.339,1.339,0,0,1-1.275,1.488M10.18,56.385H51.062V34.174a6.438,6.438,0,0,0-6.486-6.411H16.78a6.439,6.439,0,0,0-6.486,6.411c-.114,0-.114,22.211-.114,22.211" transform="translate(1.055 3.608)"/>
          <path id="Trazado_912966" data-name="Trazado 912966" d="M5.615,22.3a4.351,4.351,0,1,1,4.4-4.351,4.374,4.374,0,0,1-4.4,4.351m0-5.725a1.489,1.489,0,1,0,1.506,1.488,1.524,1.524,0,0,0-1.506-1.488" transform="translate(0.176 1.971)"/>
          <path id="Trazado_912967" data-name="Trazado 912967" d="M16.234,7.1a3.588,3.588,0,0,1-3.59-3.549,3.591,3.591,0,0,1,7.182,0A3.588,3.588,0,0,1,16.234,7.1m0-4.351a.744.744,0,0,0-.695.687.7.7,0,0,0,1.39,0,.663.663,0,0,0-.695-.687" transform="translate(1.832 0)"/>
          <path id="Trazado_912968" data-name="Trazado 912968" d="M51.832,16.175a5.111,5.111,0,0,1-5.1-5.038,5.1,5.1,0,0,1,10.192,0,5.113,5.113,0,0,1-5.1,5.038m0-7.1a2.187,2.187,0,0,0-2.2,2.175,2.118,2.118,0,0,0,2.2,2.175,2.186,2.186,0,0,0,2.2-2.175,2.117,2.117,0,0,0-2.2-2.175" transform="translate(6.773 0.884)"/>
        </g>
      </g>
    </g>
  </g>
</svg>
