<svg xmlns="http://www.w3.org/2000/svg" width="227.026" height="42.552" viewBox="0 0 227.026 42.552">
  <g id="Grupo_1102226" data-name="Grupo 1102226" transform="translate(-690.524 -3585.529)">
    <path id="Trazado_914059" data-name="Trazado 914059" d="M5.933,13.52,8.481,4.2h3.445L7.62,17H4.245L-.026,4.2H3.393Zm13.535,1.09H15.24L14.5,17h-3.3L15.9,4.2h2.9L23.528,17H20.215Zm-3.489-2.382h2.751L17.35,7.789ZM35.147,17H32.08L27.545,9.037V17H24.46V4.2h3.085l4.526,7.963V4.2h3.076Zm14.73-6.346H41.739V8.369h8.139Zm0,3.858H41.739V12.228h8.139Z" transform="translate(690.551 3594.226)" fill="#12263f"/>
    <path id="Trazado_914060" data-name="Trazado 914060" d="M4.254,17H1.178V4.2H4.254Zm6.715-5.2a13.431,13.431,0,0,1,.571-3.99,9.629,9.629,0,0,1,1.578-3.129,5.6,5.6,0,0,1,2.237-1.793l.563,1.459a5.73,5.73,0,0,0-1.9,2.826,13.782,13.782,0,0,0-.681,4.5v.387a14.051,14.051,0,0,0,.672,4.588A5.706,5.706,0,0,0,15.917,19.5l-.562,1.459a5.547,5.547,0,0,1-2.237-1.8,9.484,9.484,0,0,1-1.578-3.116,13.5,13.5,0,0,1-.571-3.85Zm9.58-6.671V7.49h1.564V9.547H20.549V13.9a1.111,1.111,0,0,0,.193.747,1.037,1.037,0,0,0,.765.211,4.345,4.345,0,0,0,.738-.053v2.118a5.466,5.466,0,0,1-1.67.255,3.1,3.1,0,0,1-2.259-.721,2.954,2.954,0,0,1-.729-2.188V9.547H16.374V7.49h1.213V5.126Zm13,7.5H28.266V10.338h5.282ZM48.41,11.568H43.559v3.059h5.73V17H40.474V4.2h8.833V6.585H43.559v2.7H48.41Zm5.449-6.442V7.49h1.564V9.547H53.859V13.9a1.111,1.111,0,0,0,.193.747,1.037,1.037,0,0,0,.765.211,4.345,4.345,0,0,0,.738-.053v2.118a5.466,5.466,0,0,1-1.67.255,3.1,3.1,0,0,1-2.259-.721,2.954,2.954,0,0,1-.729-2.188V9.547H49.685V7.49H50.9V5.126Zm7.4,6.917a12.532,12.532,0,0,1-.606,3.92,10.008,10.008,0,0,1-1.674,3.186,5.574,5.574,0,0,1-2.307,1.806L56.109,19.5A5.787,5.787,0,0,0,58,16.684a13.577,13.577,0,0,0,.694-4.368v-.536a14.051,14.051,0,0,0-.672-4.588,5.706,5.706,0,0,0-1.912-2.848l.563-1.459a5.676,5.676,0,0,1,2.29,1.789,9.885,9.885,0,0,1,1.67,3.138,12.426,12.426,0,0,1,.628,3.845Z" transform="translate(788.551 3594.226)" fill="#12263f"/>
    <path id="Trazado_914058" data-name="Trazado 914058" d="M5.309,7.126,4.9,9.49H6.416l-.36,2.057H4.535L3.8,15.915a1.164,1.164,0,0,0,.057.677q.119.229.593.246a6.873,6.873,0,0,0,.756-.044l-.211,2.145a4.673,4.673,0,0,1-1.556.22,2.563,2.563,0,0,1-2.013-.791,2.7,2.7,0,0,1-.545-2.1l.773-4.72H.475L.826,9.49H2l.413-2.364Zm7.049,7.5H7.216l.4-2.285h5.142Zm5.836-5.142-.2,1.143a3.38,3.38,0,0,1,2.751-1.318,2.27,2.27,0,0,1,1.964.98,4.1,4.1,0,0,1,.47,2.729l-1,5.985h-2.9l1.011-6.01a3.108,3.108,0,0,0,.018-.563q-.062-.836-.984-.836a1.807,1.807,0,0,0-1.4.678L16.734,19H13.843L15.5,9.49Z" transform="translate(754.551 3581.326)" fill="#12263f"/>
    <path id="Trazado_914063" data-name="Trazado 914063" d="M7.348,17H4.377V7.543L1.459,8.4V6.146L7.075,4.2h.272Z" transform="translate(875.784 3581.326)" fill="#12263f"/>
    <path id="Trazado_914061" data-name="Trazado 914061" d="M5.309,7.126,4.9,9.49H6.416l-.36,2.057H4.535L3.8,15.915a1.164,1.164,0,0,0,.057.677q.119.229.593.246a6.873,6.873,0,0,0,.756-.044l-.211,2.145a4.673,4.673,0,0,1-1.556.22,2.563,2.563,0,0,1-2.013-.791,2.7,2.7,0,0,1-.545-2.1l.773-4.72H.475L.826,9.49H2l.413-2.364Zm7.049,7.5H7.216l.4-2.285h5.142Zm5.977,4.553a3.812,3.812,0,0,1-1.9-.514,3.181,3.181,0,0,1-1.252-1.433A5.422,5.422,0,0,1,14.7,15.08a8.19,8.19,0,0,1,.053-1.31l.334-2.232a7.568,7.568,0,0,1,1.731-4.126,4.282,4.282,0,0,1,3.384-1.384,3.378,3.378,0,0,1,2.615,1.125,4.661,4.661,0,0,1,1.015,2.971,8.949,8.949,0,0,1-.062,1.31l-.352,2.276a7.5,7.5,0,0,1-1.745,4.122A4.284,4.284,0,0,1,18.334,19.176Zm2.61-8.139a10.1,10.1,0,0,0,.088-1.081q0-1.608-1.02-1.661-1.564-.079-1.942,2.681L17.6,14.14a10.008,10.008,0,0,0-.088,1.081q-.044,1.626,1.011,1.688,1.591.079,1.96-2.751Z" transform="translate(754.551 3607.126)" fill="#12263f"/>
    <path id="Trazado_914064" data-name="Trazado 914064" d="M3.247,7.6l-.157.889A2.629,2.629,0,0,1,5.229,7.46a1.766,1.766,0,0,1,1.528.762,3.19,3.19,0,0,1,.366,2.123L6.344,15H4.088l.786-4.674a2.417,2.417,0,0,0,.014-.438q-.048-.65-.766-.65a1.406,1.406,0,0,0-1.087.527L2.112,15H-.137L1.148,7.6Z" transform="translate(907.551 3602.676)" fill="#12263f"/>
    <path id="Trazado_914062" data-name="Trazado 914062" d="M1.055,11.8a13.431,13.431,0,0,1,.571-3.99A9.629,9.629,0,0,1,3.2,4.678,5.6,5.6,0,0,1,5.44,2.885L6,4.344A5.73,5.73,0,0,0,4.1,7.169a13.782,13.782,0,0,0-.681,4.5v.387a14.051,14.051,0,0,0,.672,4.588A5.706,5.706,0,0,0,6,19.5L5.44,20.955a5.547,5.547,0,0,1-2.237-1.8,9.484,9.484,0,0,1-1.578-3.116,13.5,13.5,0,0,1-.571-3.85ZM13.7,17H10.731V7.543L7.813,8.4V6.146L13.43,4.2H13.7ZM27.431,9.74h3v2.54h-3v3.437H24.662V12.28H21.656V9.74h3.006V6.4h2.769ZM39.313,17H36.343V7.49h2.971ZM36.167,5.038A1.322,1.322,0,0,1,36.624,4,1.943,1.943,0,0,1,39,4a1.322,1.322,0,0,1,.457,1.037A1.322,1.322,0,0,1,39,6.075a1.943,1.943,0,0,1-2.373,0A1.322,1.322,0,0,1,36.167,5.038Zm9.642,7a12.532,12.532,0,0,1-.606,3.92,10.008,10.008,0,0,1-1.674,3.186,5.574,5.574,0,0,1-2.307,1.806L40.658,19.5a5.787,5.787,0,0,0,1.89-2.812,13.577,13.577,0,0,0,.694-4.368v-.536a14.051,14.051,0,0,0-.672-4.588,5.706,5.706,0,0,0-1.912-2.848l.563-1.459a5.676,5.676,0,0,1,2.29,1.789,9.885,9.885,0,0,1,1.67,3.138,12.426,12.426,0,0,1,.628,3.845Z" transform="translate(859.551 3607.126)" fill="#12263f"/>
    <path id="Trazado_914056" data-name="Trazado 914056" d="M395.416-7954.483h57.534" transform="translate(464.602 11559.709)" fill="none" stroke="#12263f" stroke-width="2"/>
  </g>
</svg>
