<svg xmlns="http://www.w3.org/2000/svg" xmlns:xlink="http://www.w3.org/1999/xlink" width="400" height="318.936" viewBox="0 0 400 318.936">
  <defs>
    <clipPath id="clip-path">
      <rect id="Rectángulo_403870" data-name="Rectángulo 403870" width="389.771" height="294.271" fill="none"/>
    </clipPath>
    <clipPath id="clip-path-3">
      <rect id="Rectángulo_403814" data-name="Rectángulo 403814" width="116.545" height="106.516" transform="translate(0.436 91.528)" fill="none"/>
    </clipPath>
    <clipPath id="clip-path-4">
      <rect id="Rectángulo_403815" data-name="Rectángulo 403815" width="71.709" height="140.247" transform="translate(277.343 30.781)" fill="none"/>
    </clipPath>
    <clipPath id="clip-path-5">
      <rect id="Rectángulo_403818" data-name="Rectángulo 403818" width="23.207" height="5.662" transform="translate(248.809 67.324)" fill="none"/>
    </clipPath>
    <clipPath id="clip-path-7">
      <rect id="Rectángulo_403820" data-name="Rectángulo 403820" width="9.174" height="19.225" transform="translate(287.201 99.474)" fill="none"/>
    </clipPath>
    <clipPath id="clip-path-8">
      <rect id="Rectángulo_403819" data-name="Rectángulo 403819" width="9.174" height="19.222" transform="translate(287.201 99.474)" fill="none"/>
    </clipPath>
    <clipPath id="clip-path-9">
      <rect id="Rectángulo_403822" data-name="Rectángulo 403822" width="9.32" height="42.814" transform="translate(228.733 101.913)" fill="none"/>
    </clipPath>
    <clipPath id="clip-path-11">
      <rect id="Rectángulo_403825" data-name="Rectángulo 403825" width="47.235" height="0.874" transform="translate(141.05 69.072)" fill="none"/>
    </clipPath>
    <clipPath id="clip-path-13">
      <rect id="Rectángulo_403828" data-name="Rectángulo 403828" width="16.98" height="5.956" transform="translate(186.261 149.851)" fill="none"/>
    </clipPath>
    <clipPath id="clip-path-15">
      <rect id="Rectángulo_403830" data-name="Rectángulo 403830" width="73.666" height="4.335" transform="translate(155.938 193.903)" fill="none"/>
    </clipPath>
    <clipPath id="clip-path-17">
      <rect id="Rectángulo_403832" data-name="Rectángulo 403832" width="76.008" height="3.138" transform="translate(154.26 212.977)" fill="none"/>
    </clipPath>
    <clipPath id="clip-path-18">
      <rect id="Rectángulo_403831" data-name="Rectángulo 403831" width="76.007" height="3.137" transform="translate(154.261 212.978)" fill="none"/>
    </clipPath>
    <clipPath id="clip-path-19">
      <rect id="Rectángulo_403834" data-name="Rectángulo 403834" width="74.05" height="11.657" transform="translate(155.668 199.04)" fill="none"/>
    </clipPath>
    <clipPath id="clip-path-20">
      <rect id="Rectángulo_403833" data-name="Rectángulo 403833" width="74.05" height="11.656" transform="translate(155.668 199.041)" fill="none"/>
    </clipPath>
    <clipPath id="clip-path-21">
      <rect id="Rectángulo_403836" data-name="Rectángulo 403836" width="7.319" height="6.553" transform="translate(154.227 180.077)" fill="none"/>
    </clipPath>
    <clipPath id="clip-path-22">
      <rect id="Rectángulo_403835" data-name="Rectángulo 403835" width="7.318" height="6.553" transform="translate(154.228 180.077)" fill="none"/>
    </clipPath>
    <clipPath id="clip-path-23">
      <rect id="Rectángulo_403838" data-name="Rectángulo 403838" width="23.993" height="8.679" transform="translate(182.378 160.061)" fill="none"/>
    </clipPath>
    <clipPath id="clip-path-24">
      <rect id="Rectángulo_403837" data-name="Rectángulo 403837" width="23.993" height="8.676" transform="translate(182.378 160.064)" fill="none"/>
    </clipPath>
    <clipPath id="clip-path-25">
      <rect id="Rectángulo_403840" data-name="Rectángulo 403840" width="23.579" height="31.254" transform="translate(320.076 159.618)" fill="none"/>
    </clipPath>
    <clipPath id="clip-path-26">
      <rect id="Rectángulo_403839" data-name="Rectángulo 403839" width="23.574" height="31.254" transform="translate(320.081 159.618)" fill="none"/>
    </clipPath>
    <clipPath id="clip-path-27">
      <rect id="Rectángulo_403843" data-name="Rectángulo 403843" width="11.468" height="2.075" transform="translate(336.677 199.518)" fill="none"/>
    </clipPath>
    <clipPath id="clip-path-29">
      <rect id="Rectángulo_403845" data-name="Rectángulo 403845" width="6.408" height="19.082" transform="translate(348.946 195.908)" fill="none"/>
    </clipPath>
    <clipPath id="clip-path-30">
      <rect id="Rectángulo_403844" data-name="Rectángulo 403844" width="6.408" height="19.077" transform="translate(348.946 195.913)" fill="none"/>
    </clipPath>
    <clipPath id="clip-path-31">
      <rect id="Rectángulo_403848" data-name="Rectángulo 403848" width="12.015" height="13.215" transform="translate(355.79 216.665)" fill="none"/>
    </clipPath>
    <clipPath id="clip-path-32">
      <rect id="Rectángulo_403847" data-name="Rectángulo 403847" width="12.014" height="13.215" transform="translate(355.791 216.665)" fill="none"/>
    </clipPath>
    <clipPath id="clip-path-33">
      <rect id="Rectángulo_403850" data-name="Rectángulo 403850" width="18.812" height="16.289" transform="translate(370.863 252.637)" fill="none"/>
    </clipPath>
    <clipPath id="clip-path-35">
      <rect id="Rectángulo_403852" data-name="Rectángulo 403852" width="29.535" height="2.936" transform="translate(351.874 207.333)" fill="none"/>
    </clipPath>
    <clipPath id="clip-path-36">
      <rect id="Rectángulo_403851" data-name="Rectángulo 403851" width="29.533" height="2.936" transform="translate(351.876 207.333)" fill="none"/>
    </clipPath>
    <clipPath id="clip-path-37">
      <rect id="Rectángulo_403854" data-name="Rectángulo 403854" width="35.611" height="12.379" transform="translate(96.427 246.226)" fill="none"/>
    </clipPath>
    <clipPath id="clip-path-38">
      <rect id="Rectángulo_403853" data-name="Rectángulo 403853" width="35.605" height="12.378" transform="translate(96.433 246.226)" fill="none"/>
    </clipPath>
    <clipPath id="clip-path-39">
      <rect id="Rectángulo_403857" data-name="Rectángulo 403857" width="32.357" height="119.721" transform="translate(64.759 166.991)" fill="none"/>
    </clipPath>
    <clipPath id="clip-path-40">
      <rect id="Rectángulo_403856" data-name="Rectángulo 403856" width="32.354" height="119.703" transform="translate(64.76 167.008)" fill="none"/>
    </clipPath>
    <clipPath id="clip-path-41">
      <rect id="Rectángulo_403859" data-name="Rectángulo 403859" width="10.213" height="18.462" transform="translate(76.137 196.078)" fill="none"/>
    </clipPath>
    <clipPath id="clip-path-42">
      <rect id="Rectángulo_403858" data-name="Rectángulo 403858" width="10.212" height="18.458" transform="translate(76.137 196.078)" fill="none"/>
    </clipPath>
    <clipPath id="clip-path-43">
      <rect id="Rectángulo_403861" data-name="Rectángulo 403861" width="23.679" height="7.038" transform="translate(32.522 249.051)" fill="none"/>
    </clipPath>
    <clipPath id="clip-path-44">
      <rect id="Rectángulo_403860" data-name="Rectángulo 403860" width="23.679" height="7.034" transform="translate(32.522 249.055)" fill="none"/>
    </clipPath>
    <clipPath id="clip-path-45">
      <rect id="Rectángulo_403863" data-name="Rectángulo 403863" width="7.004" height="2.599" transform="translate(43.358 222.039)" fill="none"/>
    </clipPath>
    <clipPath id="clip-path-47">
      <rect id="Rectángulo_403865" data-name="Rectángulo 403865" width="3.004" height="6.942" transform="translate(47.467 217.914)" fill="none"/>
    </clipPath>
    <clipPath id="clip-path-48">
      <rect id="Rectángulo_403864" data-name="Rectángulo 403864" width="3.003" height="6.941" transform="translate(47.468 217.915)" fill="none"/>
    </clipPath>
    <clipPath id="clip-path-49">
      <rect id="Rectángulo_403867" data-name="Rectángulo 403867" width="32.356" height="119.725" transform="translate(128.271 166.989)" fill="none"/>
    </clipPath>
    <clipPath id="clip-path-50">
      <rect id="Rectángulo_403866" data-name="Rectángulo 403866" width="32.354" height="119.703" transform="translate(128.271 167.008)" fill="none"/>
    </clipPath>
  </defs>
  <g id="Grupo_1102351" data-name="Grupo 1102351" transform="translate(-180 -1292.864)">
    <rect id="Rectángulo_403291" data-name="Rectángulo 403291" width="380" height="26" rx="13" transform="translate(200 1585.8)" fill="#fa6d61"/>
    <g id="Grupo_1102350" data-name="Grupo 1102350" transform="translate(180 1292.864)">
      <g id="Grupo_1102349" data-name="Grupo 1102349" clip-path="url(#clip-path)">
        <g id="Grupo_1102348" data-name="Grupo 1102348">
          <g id="Grupo_1102347" data-name="Grupo 1102347" clip-path="url(#clip-path)">
            <path id="Trazado_914058" data-name="Trazado 914058" d="M114.327,186.093s-95.4-108.165-75.99-135.9,70.443,97.622,75.99,135.894" fill="#fa6d61"/>
            <path id="Trazado_914059" data-name="Trazado 914059" d="M99.6,154.183c6,5.154,5.784,15.849,13.37,20,9.229,5.042,5.55,20.316,5.55,20.316l-4.755,5.156s-14.91,4.88-20.681-3.912a12.34,12.34,0,0,0-4.239-3.944,22.043,22.043,0,0,0-2.34-1.187c-6.577-2.839-14.754-3.3-17.332-11.267-2.145-6.628-10.211-7.024-16.95-10.741A20.917,20.917,0,0,1,50,167.215c-3.569-2.564-6.455-6.544-7.357-13.655-2.253-17.8-19.636-13.81-24.68-22.938A11.561,11.561,0,0,1,17,128.135a14.966,14.966,0,0,1-.387-4.208C17.2,107.189-3.227,102.058.441,93.679a7.658,7.658,0,0,1,1.341-2.093c.017-.018.052-.056.088-.058,7.7-6.953,15.451,14.321,33.327,12.245,12.2-1.413,12.62,9.49,18.282,16.932a16.856,16.856,0,0,0,1.685,1.935c2.558,2.568,6.153,4.426,11.686,4.673,21.229.947,16.434,21.681,27.824,24.379a13.854,13.854,0,0,1,2.656.958,10.108,10.108,0,0,1,2.264,1.533" fill="#fcb3ad"/>
            <g id="Grupo_1102228" data-name="Grupo 1102228" opacity="0.5" style="mix-blend-mode: multiply;isolation: isolate">
              <g id="Grupo_1102227" data-name="Grupo 1102227">
                <g id="Grupo_1102226" data-name="Grupo 1102226" clip-path="url(#clip-path-3)">
                  <path id="Trazado_914060" data-name="Trazado 914060" d="M99.6,154.184C95.65,157.069,90,161.99,89.171,166.915a6.464,6.464,0,0,0,1.629,5.457l11.9,10.8c.26.17.536.321.814.509l-.1.149,13.567,12.339-1.729,1.875L101.1,185.168a4.7,4.7,0,0,0-3.158-.414c-3.079.63-6.435,3.78-9.1,7.046a22.043,22.043,0,0,0-2.34-1.187c2.9-3.637,6.879-7.534,10.943-8.366a2.812,2.812,0,0,1,.4-.016L68.759,155.79c-2.368-1.872-4.52-2.435-6.6-1.719-4.594,1.557-8.1,9.118-9.936,14.534A20.751,20.751,0,0,1,50,167.215c1.859-5.364,5.623-13.62,11.338-15.566a8.062,8.062,0,0,1,2.42-.4L38.89,128.623c-9.18-6.976-17.5-1.152-20.929,2A11.558,11.558,0,0,1,17,128.135c3.178-2.655,8.969-6.3,15.769-5.059L.436,93.679a7.658,7.658,0,0,1,1.341-2.093c.017-.018.052-.056.088-.058l46.9,42.634a10.875,10.875,0,0,1-.356-4.8c.5-3.594,2.733-6.5,5.065-8.652a16.855,16.855,0,0,0,1.685,1.935,12.447,12.447,0,0,0-4.245,7.084c-.533,3.776,1.468,7.739,6,11.815l-.017.019,29.644,26.96a8.8,8.8,0,0,1,.116-2.044c.916-5.471,6.466-10.622,10.668-13.824a10.107,10.107,0,0,1,2.264,1.533" fill="#fcb3ad"/>
                </g>
              </g>
            </g>
            <path id="Trazado_914061" data-name="Trazado 914061" d="M271.663,180.73S375.17,112.019,365.2,84.613s-80.389,65.511-93.542,96.117" fill="#fa6d61"/>
            <path id="Trazado_914062" data-name="Trazado 914062" d="M270.145,179.9s119.74-33.127,118.788-62.271S292.165,154.9,270.145,179.9" fill="#fa6d61"/>
            <path id="Trazado_914063" data-name="Trazado 914063" d="M278.4,124.483c-3.738,6.973.324,16.869-5.253,23.478-6.787,8.032,2.155,20.949,2.155,20.949l6.3,3.094s15.667-.829,17.876-11.111a12.355,12.355,0,0,1,2.53-5.208,21.916,21.916,0,0,1,1.754-1.951c5.11-5.021,12.568-8.4,12.1-16.761-.391-6.956,6.989-10.236,11.932-16.134a20.861,20.861,0,0,0,1.571-2.1c2.4-3.678,3.659-8.433,1.934-15.39-4.321-17.41,13.331-19.964,14.741-30.3a11.557,11.557,0,0,0,0-2.668,14.976,14.976,0,0,0-1.158-4.064c-6.587-15.4,10.608-27.554,4.163-34.045a7.668,7.668,0,0,0-2.006-1.468.154.154,0,0,0-.1-.023c-9.687-3.707-9.243,18.931-26.663,23.446-11.886,3.083-8.347,13.4-10.941,22.388a16.947,16.947,0,0,1-.873,2.413c-1.459,3.317-4.142,6.348-9.213,8.574-19.457,8.543-7.5,26.15-17.153,32.778a13.87,13.87,0,0,0-2.132,1.851,10.085,10.085,0,0,0-1.558,2.245" fill="#fcb3ad"/>
            <g id="Grupo_1102231" data-name="Grupo 1102231" opacity="0.5" style="mix-blend-mode: multiply;isolation: isolate">
              <g id="Grupo_1102230" data-name="Grupo 1102230">
                <g id="Grupo_1102229" data-name="Grupo 1102229" clip-path="url(#clip-path-4)">
                  <path id="Trazado_914064" data-name="Trazado 914064" d="M278.4,124.479c4.72,1.268,11.764,3.819,14.315,8.113a6.463,6.463,0,0,1,.451,5.678l-7.2,14.365c-.181.253-.384.494-.576.769l.148.1-8.2,16.4,2.289,1.124,8.549-17.112a4.7,4.7,0,0,1,2.8-1.526c3.1-.523,7.366,1.2,11.031,3.287a21.916,21.916,0,0,1,1.754-1.951c-4.02-2.344-9.134-4.544-13.224-3.853a2.92,2.92,0,0,0-.376.128l17.582-35.153c1.533-2.6,3.338-3.9,5.538-3.985,4.847-.205,10.841,5.581,14.511,9.969a20.862,20.862,0,0,0,1.571-2.1c-3.67-4.332-10.159-10.674-16.191-10.426a8.052,8.052,0,0,0-2.4.5L325.8,78.735c6.045-9.817,15.906-7.389,20.241-5.686a11.557,11.557,0,0,0,0-2.668c-3.921-1.33-10.638-2.64-16.533.972l19.539-39.08a7.667,7.667,0,0,0-2.006-1.468.153.153,0,0,0-.1-.023L318.589,87.467a10.881,10.881,0,0,0-1.4-4.61c-1.768-3.17-4.9-5.076-7.846-6.241a16.947,16.947,0,0,1-.873,2.413,12.431,12.431,0,0,1,6.515,5.076c1.86,3.329,1.423,7.747-1.333,13.184l.024.011-17.919,35.839a8.776,8.776,0,0,0-.846-1.865c-2.828-4.771-9.863-7.573-14.938-9.042a10.083,10.083,0,0,0-1.558,2.245" fill="#fcb3ad"/>
                </g>
              </g>
            </g>
            <path id="Trazado_914065" data-name="Trazado 914065" d="M309.643,214.245c-1.969-26.392-18.056-60.361-18.056-60.361h-31.6c.007.148.022.289.022.441v.369l-.044-.369c0-.152.015-.294.022-.441h-31.6s-16.087,33.97-18.056,60.361l49.63,24.971.044-.408v.408Z" fill="#3d85f2"/>
            <path id="Trazado_914066" data-name="Trazado 914066" d="M279.937,27.743c-2.255-2.3-4.406-.959-5.472.023l-.792-6.335A18.632,18.632,0,0,0,236.7,26.053l.792,6.334c-1.276-.689-3.692-1.462-5.31,1.325-2.177,3.748,2.962,10.75,6.94,10.219a18.63,18.63,0,0,0,36.607-4.574c3.986-.467,7.243-8.517,4.211-11.614" fill="#d9e9f9"/>
            <path id="Trazado_914067" data-name="Trazado 914067" d="M256.787,43.877c3.1-.438,6.186-1.266,8.01-3.969-.8,3.362-4.926,4.73-8.01,3.969" fill="#4b96e3"/>
            <path id="Trazado_914068" data-name="Trazado 914068" d="M261.186,45.045A9.839,9.839,0,0,0,264.4,43.1c-.384,1.309-1.969,1.893-3.219,1.943" fill="#4b96e3"/>
            <path id="Trazado_914069" data-name="Trazado 914069" d="M256.272,29.17a11.733,11.733,0,0,1,.656,6.332c-.3,1.494-1.092,2.837-.079,4.014a1.356,1.356,0,0,0,1.311.373c-.989.866-2.528-.214-2.7-1.364a7.108,7.108,0,0,1,.313-3.268,51.889,51.889,0,0,0,.5-6.087" fill="#4b96e3"/>
            <path id="Trazado_914070" data-name="Trazado 914070" d="M233.583,36.155c-.156-.988.46-2.379,1.687-2.382,1.18,0,2.006,1.092,2.542,1.928.362.554.663,1.109,1,1.664a.581.581,0,0,1-.927.692c-.609-.654-2.246-1.153-2.447.094a2.355,2.355,0,0,0,2.366,2.342h.047c-1.44.708-3.38-.769-3.36-2.421a1.867,1.867,0,0,1,1.9-1.811,3.23,3.23,0,0,1,2.329.993l-.927.692a14.907,14.907,0,0,0-1.92-3.1c-1-.932-2.064.194-2.293,1.308" fill="#4b96e3"/>
            <path id="Trazado_914071" data-name="Trazado 914071" d="M279.178,30.455c-.5-1.023-1.8-1.854-2.544-.7a15,15,0,0,0-1.1,3.471l-1.069-.443a3.227,3.227,0,0,1,2.013-1.534,1.865,1.865,0,0,1,2.29,1.287c.427,1.6-1.09,3.5-2.661,3.173a2.353,2.353,0,0,0,1.777-2.815c0-.015-.006-.029-.01-.044-.5-1.16-1.965-.273-2.395.51a.581.581,0,0,1-1.069-.443c.424-1.3.591-2.624,1.54-3.727,1.231-1.42,3.079-.346,3.228,1.269" fill="#4b96e3"/>
            <path id="Trazado_914072" data-name="Trazado 914072" d="M251.74,26.03c-2.739-.312-5.769.142-7.787,2.214a.429.429,0,0,1-.6.02l-.025-.026a.423.423,0,0,1-.045-.5,7.44,7.44,0,0,1,3.8-3.251c1.14-.563,6.2-1.462,5.84.776a1.025,1.025,0,0,1-1.174.767" fill="#4b96e3"/>
            <path id="Trazado_914073" data-name="Trazado 914073" d="M258.494,23.249a8.227,8.227,0,0,1,9.519,1.395.423.423,0,0,1,.008.6l0,0a.431.431,0,0,1-.536.059,7.825,7.825,0,0,0-4.067-1.067,13.631,13.631,0,0,0-4.116.87,1.014,1.014,0,0,1-.806-1.853" fill="#4b96e3"/>
            <path id="Trazado_914074" data-name="Trazado 914074" d="M264.248,31.78c.193,1.555-.319,2.9-1.145,3s-1.648-1.071-1.848-2.626.317-2.9,1.143-3,1.653,1.074,1.849,2.629" fill="#4b96e3"/>
            <path id="Trazado_914075" data-name="Trazado 914075" d="M249.394,33.637c.2,1.555,1.021,2.732,1.848,2.629s1.338-1.448,1.144-3-1.022-2.732-1.848-2.628-1.338,1.447-1.144,3" fill="#4b96e3"/>
            <path id="Trazado_914076" data-name="Trazado 914076" d="M264.23,13s2.288,6.344,3.952,7.592,2.7,9.464,4.16,9.153,2.184-2.184,2.184-2.184-.208-12.793-4.472-15.7S264.23,13,264.23,13" fill="#cee3f7"/>
            <path id="Trazado_914077" data-name="Trazado 914077" d="M243.307,15.542s-.445,6.73-1.7,8.389.018,9.843-1.467,9.945-2.7-1.495-2.7-1.495-3.337-12.35-.045-16.328,5.914-.511,5.914-.511" fill="#cee3f7"/>
            <path id="Trazado_914078" data-name="Trazado 914078" d="M243.308,15.542s8.337,2.655,14.161,1.616l-3.223-2.392A10.484,10.484,0,0,0,264.229,13c5.1-3.848,7.7,1.04,7.7,1.04S268.884-1.862,253,1.454c-17.684,3.691-17.059,20.174-17.059,20.174s1.074-8.112,7.367-6.087" fill="#4b96e3"/>
            <rect id="Rectángulo_403816" data-name="Rectángulo 403816" width="15.742" height="15.133" transform="translate(251.11 54.613) rotate(-7.123)" fill="#d9e9f9"/>
            <path id="Trazado_914079" data-name="Trazado 914079" d="M267,54.823l.428,3.428A18.623,18.623,0,0,1,251.814,60.2l-.428-3.428A18.631,18.631,0,0,0,267,54.823" fill="#c9e0f7"/>
            <path id="Trazado_914080" data-name="Trazado 914080" d="M362.145,133.019c-1.681,10.317-3.769,22.722-5.924,34.329-2.388,12.871-4.85,24.744-6.914,31.707l-10.516-.848s.133-28.23.175-54.837c.033-13.8.033-27.166-.017-35.918,0,0-.375-1.481-1.015-4.06,4.193,3.6,8.387,7.53,12.514,11.806a53.044,53.044,0,0,1,9.135,12.764c.758,1.48,1.614,3.178,2.563,5.058" fill="#d9e9f9"/>
            <path id="Trazado_914081" data-name="Trazado 914081" d="M293.176,74.739s38.3,16.994,62.994,43.494a15.783,15.783,0,0,1,3.613,6.357c2.466,8.472,6.048,30.731-7.257,68.432,0,0-12.481,1.248-15.393,0s2.08-44.928-1.664-49.5S285.132,102.754,284.3,93.186s8.875-18.443,8.875-18.443" fill="#ffbe01"/>
            <path id="Trazado_914082" data-name="Trazado 914082" d="M241.705,77.99s.94-5.911-4.1-5.726c-4.77.175-31.81,30.5-42.695,78.328a53.018,53.018,0,0,0-1.215,15.655c1.267,17.276,4.675,60.817,8.159,80.224,0,0-5.394,15.621-4.532,16.384s2.976-3.5,2.976-3.5-1.633,7.734-.993,8.086,3.5-6.837,3.5-6.837-.242,8.86.46,9.038,2.815-7.868,2.815-7.868.822,7.135,1.322,7.253,3.906-12.128,3.906-12.128,4.14,3.671,4.668,3.464-2.736-14.318-2.736-14.32c1.048-13.7,4.986-65.03,6.891-87.051,0,0,24.359-71.424,21.577-81" fill="#d9e9f9"/>
            <path id="Trazado_914083" data-name="Trazado 914083" d="M236.045,72.485s-16.64,11.336-29.12,36.92-15.6,51.792-15.6,51.792l8.32,76.96s11.648,3.536,15.392.208,6.864-79.248,6.864-79.248l20.8-68.641Z" fill="#ffbe01"/>
            <path id="Trazado_914084" data-name="Trazado 914084" d="M290.492,143.136c1.232-17.793,4.841-52.142,1.117-61.916-4.094-10.747-22.717-14.613-29.95-15.725h-2.908c-7.234,1.112-30.066,59.848-28.834,77.641a29.489,29.489,0,0,1-1,10.782h62.57a29.488,29.488,0,0,1-1-10.782" fill="#d9e9f9"/>
            <path id="Trazado_914085" data-name="Trazado 914085" d="M292.1,153.816s-33.176,14.041-64.482.411c0,0,1.669-11.228,1.249-18.506s3.643-60.428,7.173-63.233c2.324-1.844,8.668-3.775,12.757-4.893h.009c.367-.1.708-.192,1.031-.271,1.59-.419,2.639-.664,2.639-.664s5.819,5.513,16.121.21c0,0,.935.271,2.464.734.3.087.612.183.952.288,6.64,2,20.926,6.413,24.246,8.231,4.369,2.394-4.159,77.694-4.159,77.694" fill="#ffbe01"/>
            <g id="Grupo_1102236" data-name="Grupo 1102236" opacity="0.5" style="mix-blend-mode: screen;isolation: isolate">
              <g id="Grupo_1102235" data-name="Grupo 1102235">
                <g id="Grupo_1102234" data-name="Grupo 1102234" clip-path="url(#clip-path-5)">
                  <g id="Grupo_1102233" data-name="Grupo 1102233">
                    <g id="Grupo_1102232" data-name="Grupo 1102232" clip-path="url(#clip-path-5)">
                      <path id="Trazado_914086" data-name="Trazado 914086" d="M272.016,67.892c-3.277,3.311-6.868,5.024-10.686,5.094h-.262c-5.513,0-10.039-3.364-12.259-5.391.367-.1.708-.192,1.031-.271,2.263,1.94,6.4,4.788,11.236,4.788h.236c3.451-.07,6.719-1.581,9.751-4.509.3.087.612.183.952.288" fill="#ffbe01"/>
                    </g>
                  </g>
                </g>
              </g>
            </g>
            <g id="Grupo_1102241" data-name="Grupo 1102241" opacity="0.5" style="mix-blend-mode: multiply;isolation: isolate">
              <g id="Grupo_1102240" data-name="Grupo 1102240">
                <g id="Grupo_1102239" data-name="Grupo 1102239" clip-path="url(#clip-path-7)">
                  <g id="Grupo_1102238" data-name="Grupo 1102238">
                    <g id="Grupo_1102237" data-name="Grupo 1102237" clip-path="url(#clip-path-8)">
                      <path id="Trazado_914087" data-name="Trazado 914087" d="M296.375,108.758,287.2,99.474l8.3,19.225Z" fill="#ffbe01"/>
                    </g>
                  </g>
                </g>
              </g>
            </g>
            <g id="Grupo_1102246" data-name="Grupo 1102246" opacity="0.5" style="mix-blend-mode: multiply;isolation: isolate">
              <g id="Grupo_1102245" data-name="Grupo 1102245">
                <g id="Grupo_1102244" data-name="Grupo 1102244" clip-path="url(#clip-path-9)">
                  <g id="Grupo_1102243" data-name="Grupo 1102243">
                    <g id="Grupo_1102242" data-name="Grupo 1102242" clip-path="url(#clip-path-9)">
                      <path id="Trazado_914088" data-name="Trazado 914088" d="M228.733,136.426l9.32-34.513-9.32,42.814Z" fill="#ffbe01"/>
                    </g>
                  </g>
                </g>
              </g>
            </g>
            <path id="Trazado_914089" data-name="Trazado 914089" d="M230.478,164.319c-.14,1.922-.306,4.159-.5,6.658-1.529,19.983-4.561,56.287-7.671,73.473.358,1.031,5.347,15.588,4.517,16.322-.865.769-2.979-3.5-2.979-3.5s1.634,7.733,1,8.091-3.5-6.841-3.5-6.841.245,8.86-.463,9.043-2.813-7.872-2.813-7.872-.821,7.139-1.319,7.252-3.906-12.128-3.906-12.128-4.142,3.67-4.675,3.469,2.744-14.321,2.744-14.321h.035c-1.049-13.683-4.989-64.911-6.894-86.885,0,0-15.71-70.87-12.931-80.42,0,0-9.585-6.326-4.543-6.142,4.552.166,29.419,27.776,41.118,71.822.559,2.088,1.083,4.2,1.573,6.361a52.505,52.505,0,0,1,1.215,15.623" fill="#b5d4f4"/>
            <path id="Trazado_914090" data-name="Trazado 914090" d="M230.478,164.318c-.14,1.922-.306,4.159-.5,6.658a14.522,14.522,0,0,1-2.289-28.641c.559,2.088,1.083,4.2,1.573,6.361a52.506,52.506,0,0,1,1.215,15.623" fill="#c2dbf5"/>
            <path id="Trazado_914091" data-name="Trazado 914091" d="M156.165,72.348c-1.057,8.641-39.231,52.862-49.472,63.46a68.2,68.2,0,0,1-10.039,7.671c-6.038,3.862-12.7,6.876-14.233,3.434a53.14,53.14,0,0,1-3.128-9.279,51.7,51.7,0,0,1-1.031-5.671c-.009-.061-.017-.131-.026-.183-1.022-8.6-2.787-23.74-4.325-39.205s-2.866-31.236-3.014-41.1c0,0-8.274-14.3-7.575-15.212.673-.882,3.381,2.6,3.582,2.848-.166-.393-3.058-7.278-2.516-7.724s4.491,5.653,4.736,6.02c-.1-.437-1.9-8.641-1.267-8.938.655-.306,4.273,7.182,4.273,7.182s-.559-7.156-.1-7.374,6.151,11.158,6.151,11.158,3.364-4.4,3.923-4.29c.2.035.262,1.887.262,4.264,0,4.3-.21,10.31-.21,10.31,2.412,8.755,9.192,33.333,15.273,55.151,25.924-28.458,53.4-40.865,57.213-39.4,4.709,1.809,1.52,6.876,1.52,6.876" fill="#b5d4f4"/>
            <path id="Trazado_914092" data-name="Trazado 914092" d="M96.654,143.48c-6.038,3.862-12.7,6.876-14.233,3.434a53.141,53.141,0,0,1-3.128-9.279,14.531,14.531,0,0,1,17.361,5.845" fill="#c2dbf5"/>
            <path id="Trazado_914093" data-name="Trazado 914093" d="M194.258,141.057c-2.076-23.343,4.841-52.142,1.117-61.916-4.094-10.747-22.717-14.613-29.95-15.725h-2.908c-7.234,1.112-25.857,4.978-29.951,15.725-3.724,9.775-.115,44.123,1.117,61.916a29.488,29.488,0,0,1-1,10.782h62.57s-.41-4.184-1-10.782" fill="#b5d4f4"/>
            <rect id="Rectángulo_403823" data-name="Rectángulo 403823" width="15.746" height="15.139" transform="translate(156.097 52.36)" fill="#b5d4f4"/>
            <path id="Trazado_914094" data-name="Trazado 914094" d="M171.836,54.54v3.451a18.625,18.625,0,0,1-15.734,0V54.54a18.625,18.625,0,0,0,15.734,0" fill="#a3c9f1"/>
            <path id="Trazado_914095" data-name="Trazado 914095" d="M221.066,118.762c-4.159,7.077-22.254,13.106-22.254,13.106l-4.369-16.225,1.45,22.49a49.762,49.762,0,0,0,7.444,22.927c11.263,18.244,15.1,42.228,15.1,42.228H108.887c3.049-21.634,20.14-44.378,23.469-51.14S130.9,109.1,130.9,109.1l-7.9,9.043c-10.607-3.224-13.622-26-13.622-26,9.707-10.529,23.425-18.183,31.673-22.193.647-.315,1.267-.6,1.835-.874,3.25-1.512,5.277-2.307,5.277-2.307h31.516a16.825,16.825,0,0,1,7.13,2.307c.489.271.979.559,1.477.874,16.6,10.363,36.3,42.84,32.783,48.816" fill="#6b8be8"/>
            <g id="Grupo_1102251" data-name="Grupo 1102251" opacity="0.5" style="mix-blend-mode: screen;isolation: isolate">
              <g id="Grupo_1102250" data-name="Grupo 1102250">
                <g id="Grupo_1102249" data-name="Grupo 1102249" clip-path="url(#clip-path-11)">
                  <g id="Grupo_1102248" data-name="Grupo 1102248">
                    <g id="Grupo_1102247" data-name="Grupo 1102247" clip-path="url(#clip-path-11)">
                      <path id="Trazado_914096" data-name="Trazado 914096" d="M188.285,69.946H141.05c.647-.315,1.267-.6,1.835-.874h43.923c.489.271.979.559,1.477.874" fill="#6b8be8"/>
                    </g>
                  </g>
                </g>
              </g>
            </g>
            <path id="Trazado_914097" data-name="Trazado 914097" d="M219.547,202.449H168.241L126.633,76.682l2.246-1.2c.245-.131.516-.271.8-.419,4.4-2.324,12.39-6.492,15.972-8,.315-.131.585-.236.821-.323q.328-.118.55-.184c.222-.066,45.347,75.719,54.5,85.147,0,0,18.034,33.552,18.034,50.747" fill="#fff"/>
            <path id="Trazado_914098" data-name="Trazado 914098" d="M198.481,149.815a.417.417,0,0,1-.332.157.427.427,0,0,1-.28-.1c-17.921-15.238-47.628-73.639-52.224-82.8.315-.131.585-.236.821-.323,4.7,9.358,34.225,67.366,51.97,82.464a.43.43,0,0,1,.049.606l-.005.006" fill="#fa6d61"/>
            <path id="Trazado_914099" data-name="Trazado 914099" d="M165.419,170.872a.434.434,0,0,1-.323.14.422.422,0,0,1-.3-.114c-9.6-8.991-32.259-83.286-35.92-95.413.245-.131.516-.271.8-.419,3.373,11.175,26.361,86.422,35.719,95.186a.449.449,0,0,1,.026.62" fill="#fa6d61"/>
            <path id="Trazado_914100" data-name="Trazado 914100" d="M167.28,167.735a.434.434,0,0,1-.4-.271c-3.121-7.582-30.4-74.237-27.083-79.6a1.009,1.009,0,0,1,.8-.508h.114c3.078,0,7.085,9.152,13.277,24.134,4.456,10.78,9.506,23,12.275,23.5.229.039.293-.035.327-.076,1.4-1.685-3.7-15.041-7.419-24.793-4.82-12.636-6.54-17.5-5.452-18.39.2-.165.557-.286,1.122.067,5.3,3.311,33.066,67.791,34.246,70.535a.437.437,0,0,1-.8.344c-9.954-23.151-29.851-67.6-33.906-70.138a.993.993,0,0,0-.115-.064c-.353,1.4,3.009,10.215,5.725,17.334,5.434,14.246,8.876,23.727,7.277,25.661a1.147,1.147,0,0,1-1.154.378c-3.021-.54-6.9-9.435-12.929-24.021-4.573-11.065-9.752-23.6-12.456-23.6h-.063c-.03,0-.071,0-.126.1-2.33,3.774,14.958,49.2,27.146,78.814a.435.435,0,0,1-.237.569h0a.431.431,0,0,1-.166.033" fill="#fa6d61"/>
            <path id="Trazado_914101" data-name="Trazado 914101" d="M188.034,29.275c-1.952-2.565-4.253-1.5-5.433-.656V22.235a18.632,18.632,0,1,0-37.264,0v6.384c-1.18-.842-3.481-1.909-5.433.656-2.628,3.455,1.619,11.056,5.638,11a18.608,18.608,0,0,0,36.854,0c4.018.055,8.266-7.547,5.637-11" fill="#b5d4f4"/>
            <path id="Trazado_914102" data-name="Trazado 914102" d="M166.361,46.141c1.2-.456,2.463-.648,3.435-1.529-.543,1.251-2.189,1.635-3.435,1.529" fill="#4b96e3"/>
            <path id="Trazado_914103" data-name="Trazado 914103" d="M164.374,27.755a11.745,11.745,0,0,1-.135,6.365c-.484,1.444-1.436,2.679-.575,3.973a1.355,1.355,0,0,0,1.253.532c-1.089.737-2.481-.526-2.506-1.687a7.1,7.1,0,0,1,.716-3.2,51.84,51.84,0,0,0,1.247-5.979" fill="#4b96e3"/>
            <path id="Trazado_914104" data-name="Trazado 914104" d="M140.995,31.872c-.032-1,.751-2.3,1.97-2.154,1.171.143,1.855,1.332,2.282,2.228.29.6.521,1.182.783,1.775a.582.582,0,0,1-1.006.572c-.523-.725-2.086-1.423-2.439-.211a2.354,2.354,0,0,0,2.06,2.615l.047.005c-1.517.523-3.258-1.183-3.034-2.82a1.866,1.866,0,0,1,2.114-1.561,3.224,3.224,0,0,1,2.187,1.273l-1,.571a14.985,14.985,0,0,0-1.522-3.309c-.879-1.049-2.071-.064-2.437,1.014" fill="#4b96e3"/>
            <path id="Trazado_914105" data-name="Trazado 914105" d="M186.944,31.871c-.366-1.076-1.558-2.064-2.437-1.013a14.91,14.91,0,0,0-1.522,3.308l-1-.571a3.228,3.228,0,0,1,2.187-1.273,1.866,1.866,0,0,1,2.114,1.561c.225,1.637-1.517,3.341-3.034,2.82a2.355,2.355,0,0,0,2.112-2.575l-.005-.045c-.355-1.213-1.917-.515-2.44.211a.582.582,0,0,1-1.006-.572c.582-1.235.911-2.53,1.99-3.508,1.4-1.256,3.1.038,3.045,1.659" fill="#4b96e3"/>
            <path id="Trazado_914106" data-name="Trazado 914106" d="M160.267,24.074c-2.68-.649-5.742-.575-8,1.231a.424.424,0,0,1-.606-.585,7.446,7.446,0,0,1,4.17-2.756c1.2-.417,6.336-.681,5.7,1.494a1.025,1.025,0,0,1-1.261.616" fill="#4b96e3"/>
            <path id="Trazado_914107" data-name="Trazado 914107" d="M167.318,22.156a8.23,8.23,0,0,1,9.272,2.564.421.421,0,0,1-.067.592h0a.429.429,0,0,1-.538-.008,7.816,7.816,0,0,0-3.9-1.563,13.628,13.628,0,0,0-4.192.353,1.014,1.014,0,0,1-.57-1.939" fill="#4b96e3"/>
            <path id="Trazado_914108" data-name="Trazado 914108" d="M171.964,31.335c0,1.567-.675,2.838-1.507,2.838s-1.507-1.27-1.507-2.838.675-2.838,1.507-2.838,1.507,1.27,1.507,2.838" fill="#4b96e3"/>
            <path id="Trazado_914109" data-name="Trazado 914109" d="M170.946,29.128a4.416,4.416,0,0,0,2-.631s-.589,1.518-1.734,1.565Z" fill="#4b96e3"/>
            <path id="Trazado_914110" data-name="Trazado 914110" d="M157,31.335c0,1.567.674,2.838,1.506,2.838s1.508-1.27,1.508-2.838S159.336,28.5,158.5,28.5,157,29.767,157,31.335" fill="#4b96e3"/>
            <path id="Trazado_914111" data-name="Trazado 914111" d="M158.016,29.128a4.416,4.416,0,0,1-2-.631s.589,1.518,1.734,1.565Z" fill="#4b96e3"/>
            <path id="Trazado_914112" data-name="Trazado 914112" d="M158.016,39.808a4.755,4.755,0,1,1-4.755-4.755,4.755,4.755,0,0,1,4.755,4.755" fill="#c2dbf5"/>
            <path id="Trazado_914113" data-name="Trazado 914113" d="M181.73,39.808a4.755,4.755,0,1,1-4.755-4.755,4.755,4.755,0,0,1,4.755,4.755" fill="#c2dbf5"/>
            <path id="Trazado_914114" data-name="Trazado 914114" d="M170.675,40a6.953,6.953,0,0,1-.708,2.638,4.05,4.05,0,0,1-3.2,2.221,5.308,5.308,0,0,1-.882.05c-3.844-.083-5.658-4.351-5.658-4.351l1.1-.191,9.36-1.614A7.431,7.431,0,0,1,170.671,40" fill="#4b96e3"/>
            <path id="Trazado_914115" data-name="Trazado 914115" d="M170.675,40,161.9,41.532a.354.354,0,0,1-.414-.281l0-.01-.149-.874,9.357-1.614A7.43,7.43,0,0,1,170.672,40" fill="#fff"/>
            <path id="Trazado_914116" data-name="Trazado 914116" d="M169.967,42.637a4.048,4.048,0,0,1-3.2,2.221,5.309,5.309,0,0,1-.882.05,2.246,2.246,0,0,1-.075-.582,2.424,2.424,0,0,1,4.152-1.689" fill="#c2dbf5"/>
            <path id="Trazado_914117" data-name="Trazado 914117" d="M121.3,81.742l5.616-3.952-.347-1.04L147.09,66.488l.208.625c1.734-.833,8.806-2.5,8.806-2.5V54.563c-8.182-3.6-10.885-14.144-10.885-14.144-5.824-1.456-7.072-9.429-4.924-11.717s5.166,0,5.166,0c10.92-2.808,18.72-14.248,18.72-14.248S173.3,32.1,182.352,28.774c0,0,3.5-2.429,5.645.413s-.208,9.5-5.131,11.024c0,0-2.218,10.538-10.955,14.282l-.069,10.054,7.21,2.218a30.865,30.865,0,0,1,14.7,7.28,20.736,20.736,0,0,0,2.137-19.269c-.64-1.512-1.474-2.939-2.072-4.469-2.7-6.91-.273-14.612.4-22a18.23,18.23,0,0,0-.66-7.839,8.372,8.372,0,0,0-5.388-5.4c-.17-.045-.952-2.5-1.127-2.827a13.623,13.623,0,0,0-1.764-2.535A32,32,0,0,0,172.81,1.549,21.779,21.779,0,0,0,160.71.376a22.92,22.92,0,0,0-9.454,4.8c-2.67,2.151-5.728,4.8-7.562,7.72-4.261,6.775-11.142,10.065-13.635,17.67-2.063,6.293,1.946,13.025,1.408,19.625a14.443,14.443,0,0,1-3.333,8.085c-2.767,3.279-7.106,5.5-8.349,9.6-1.193,3.942-.561,10.307,1.513,13.865" fill="#4b96e3"/>
            <path id="Trazado_914118" data-name="Trazado 914118" d="M165.792,21a1.4,1.4,0,0,1-2.808,0c0-.776.629-4,1.4-4s1.4,3.228,1.4,4" fill="#8ab2ee"/>
            <path id="Trazado_914119" data-name="Trazado 914119" d="M147.978,48.1a3.536,3.536,0,1,1-7.072,0c0-1.953,1.583-7.384,3.536-7.384s3.536,5.431,3.536,7.384" fill="#8ab2ee"/>
            <circle id="Elipse_11624" data-name="Elipse 11624" cx="1.69" cy="1.69" r="1.69" transform="translate(142.753 38.373)" fill="#8ab2ee"/>
            <path id="Trazado_914120" data-name="Trazado 914120" d="M187.013,48.1a3.536,3.536,0,0,1-7.072,0c0-1.953,1.583-7.384,3.536-7.384s3.536,5.431,3.536,7.384" fill="#8ab2ee"/>
            <circle id="Elipse_11625" data-name="Elipse 11625" cx="1.69" cy="1.69" r="1.69" transform="translate(181.787 38.373)" fill="#8ab2ee"/>
            <path id="Trazado_914121" data-name="Trazado 914121" d="M243.742,293.074H143.486c-1.669-17.265,13.1-56.785,13.1-56.785h71.97c12.066,20.175,15.186,56.785,15.186,56.785" fill="#3d85f2"/>
            <path id="Trazado_914122" data-name="Trazado 914122" d="M172.294,238.6c-1.791,7.907-10.983,18.462-12.031,19.642-.28,1.9-3.574,24.876-2.56,34.828h-.882c-.987-10.057,2.158-32.084,2.56-34.828-3.355-2.831.166-18.165.594-19.948a.436.436,0,0,1,.848.2c-1.092,4.6-3.3,16.6-1.022,18.96,1.616-1.87,10-11.8,11.638-19.048a.439.439,0,0,1,.856.192" fill="#1e2224"/>
            <path id="Trazado_914123" data-name="Trazado 914123" d="M297.114,177.321c15.771,11.378,56.724,41.238,70.544,54.338l-5.886,9.563s-61.612-31.749-85.986-43.991c0,0-78.323-17.77-85.449-25.633,0,0-5.881-2.447-2.9-6.914,2.82-4.225,45.393-11.812,94.811,5a56.412,56.412,0,0,1,14.866,7.633" fill="#91bfee"/>
            <path id="Trazado_914124" data-name="Trazado 914124" d="M365.273,229.471s17.166,3.827,17.378,5.034-4.836.742-4.836.742,7.92,2.834,7.882,3.611-8.15-.64-8.15-.64,8.164,4.723,7.935,5.458-8.7-1.837-8.7-1.837,6.009,4.726,5.837,5.244-13.171-3.226-13.171-3.226,1.017,5.8.536,6.164-11.452-10.468-11.452-10.468Z" fill="#91bfee"/>
            <path id="Trazado_914125" data-name="Trazado 914125" d="M353.563,217.564s-9.148,13.316-12.9,14.565-65.934-33.49-65.934-33.49-23.993-4.919-45.234-10.467c-13.692-3.574-26.239-7.4-30.476-10.336-4.439-3.076-4.666-6.571-3.381-9.629a10.667,10.667,0,0,1,.533-1.11,23.582,23.582,0,0,1,6.239-6.754s1-.087,2.779-.2q.537-.039,1.18-.079c9.375-.559,33.6-1.424,52.556,3.006,24.019,5.618,33.692,9.358,40.14,14.976s54.5,39.52,54.5,39.52" fill="#8ab2ee"/>
            <path id="Trazado_914126" data-name="Trazado 914126" d="M173.9,176.182c1.681-4.22,3.251-8.53,5.215-12.63a6.223,6.223,0,0,0-3.91-.583c-29.745,5.375-62.43,37.541-62.43,37.541L99.337,164.527a6.845,6.845,0,0,0-7.942-4.278l-1.4.321a6.845,6.845,0,0,0-5.251,7.615c2.406,17.353,10.036,65.2,21.373,68.379,9.31,2.607,40.994-20.036,60.981-38.641a150.956,150.956,0,0,1,6.8-21.741" fill="#91bfee"/>
            <path id="Trazado_914127" data-name="Trazado 914127" d="M185.3,160.885l-.848,1.931-.411.926L167.925,200.3s-5.522,4.29-13.342,9.926c-16.121,11.612-42.019,28.965-49.576,26.37-11.236-3.845-22.263-57.3-20.184-61.564s17.475-5.723,17.475-5.723l11.236,28.606s20.9-16.225,35.666-26.212c11.455-7.741,26.841-9.978,33.176-10.59.218-.026.428-.044.62-.061.114-.009.227-.026.332-.035,1.258-.1,1.966-.131,1.966-.131" fill="#8ab2ee"/>
            <rect id="Rectángulo_403826" data-name="Rectángulo 403826" width="16.112" height="16.758" transform="translate(185.221 163.577) rotate(-84.38)" fill="#91bfee"/>
            <g id="Grupo_1102256" data-name="Grupo 1102256" opacity="0.5" style="mix-blend-mode: multiply;isolation: isolate">
              <g id="Grupo_1102255" data-name="Grupo 1102255">
                <g id="Grupo_1102254" data-name="Grupo 1102254" clip-path="url(#clip-path-13)">
                  <g id="Grupo_1102253" data-name="Grupo 1102253">
                    <g id="Grupo_1102252" data-name="Grupo 1102252" clip-path="url(#clip-path-13)">
                      <path id="Trazado_914128" data-name="Trazado 914128" d="M203.241,151.492l-.315,3.194a19.826,19.826,0,0,1-16.665-1.64l.314-3.194a19.829,19.829,0,0,0,16.666,1.64" fill="#8abbed"/>
                    </g>
                  </g>
                </g>
              </g>
            </g>
            <path id="Trazado_914129" data-name="Trazado 914129" d="M231.054,238.578c-.524,4.779-69.262,10.5-75.509,0-2.219-3.731-2.184-13.665-1.284-24.727.026-.288.052-.585.07-.874.079-.909.166-1.835.253-2.752.315-3.277.682-6.6,1.083-9.838.044-.358.087-.708.14-1.066s.087-.725.131-1.083c.044-.3.079-.594.122-.891.489-3.81,1.014-7.462,1.5-10.721v-.009c.306-2.08.6-3.993.865-5.706.21-1.363.4-2.586.568-3.652A11.911,11.911,0,0,1,165,168.644c4.8-2.647,12.023-6.291,17.4-7.479.2-.044.393-.079.585-.114.1-.026.218-.044.323-.061a12.966,12.966,0,0,1,2.08-.21s6.09,4.972,17.012-.437c0,0,.848.149,2.219.472.3.07.629.149.97.236,4.8,1.206,13.814,4.063,18.48,9.4,3.967,4.535,5.111,11.2,5.417,17.72.122,2.42.122,4.814.1,7.069,0,.3,0,.585-.009.874-.009,1.4-.017,2.735,0,3.976.009.882.035,1.922.087,3.093.009.384.026.786.035,1.206.122,2.918.306,6.448.507,10.127.009.3.026.585.044.882.516,9.725,1.1,20.236.786,23.181" fill="#8ab2ee"/>
            <g id="Grupo_1102261" data-name="Grupo 1102261" opacity="0.5" style="mix-blend-mode: screen;isolation: isolate">
              <g id="Grupo_1102260" data-name="Grupo 1102260">
                <g id="Grupo_1102259" data-name="Grupo 1102259" clip-path="url(#clip-path-15)">
                  <g id="Grupo_1102258" data-name="Grupo 1102258">
                    <g id="Grupo_1102257" data-name="Grupo 1102257" clip-path="url(#clip-path-15)">
                      <path id="Trazado_914130" data-name="Trazado 914130" d="M229.6,195.241c0,.3,0,.585-.009.874-30.948-3.539-65.286.917-73.657,2.123.044-.3.079-.594.122-.891,8.807-1.267,42.814-5.609,73.543-2.106" fill="#8ab2ee"/>
                    </g>
                  </g>
                </g>
              </g>
            </g>
            <g id="Grupo_1102266" data-name="Grupo 1102266" opacity="0.5" style="mix-blend-mode: screen;isolation: isolate">
              <g id="Grupo_1102265" data-name="Grupo 1102265">
                <g id="Grupo_1102264" data-name="Grupo 1102264" clip-path="url(#clip-path-17)">
                  <g id="Grupo_1102263" data-name="Grupo 1102263">
                    <g id="Grupo_1102262" data-name="Grupo 1102262" clip-path="url(#clip-path-18)">
                      <path id="Trazado_914131" data-name="Trazado 914131" d="M230.268,215.4c-8.021.516-16.339.716-24.439.716-23.014,0-44.194-1.625-51.569-2.263.026-.288.052-.585.07-.874,9.943.856,45.12,3.53,75.894,1.538.009.3.026.585.044.882" fill="#8ab2ee"/>
                    </g>
                  </g>
                </g>
              </g>
            </g>
            <g id="Grupo_1102271" data-name="Grupo 1102271" opacity="0.5" style="mix-blend-mode: screen;isolation: isolate">
              <g id="Grupo_1102270" data-name="Grupo 1102270">
                <g id="Grupo_1102269" data-name="Grupo 1102269" clip-path="url(#clip-path-19)">
                  <g id="Grupo_1102268" data-name="Grupo 1102268">
                    <g id="Grupo_1102267" data-name="Grupo 1102267" clip-path="url(#clip-path-20)">
                      <path id="Trazado_914132" data-name="Trazado 914132" d="M229.718,204.388l-4.622-4.177L213.5,210.7l-11.612-10.485-11.6,10.485-11.6-10.485-11.6,10.485-11.42-10.31c.044-.358.087-.708.14-1.066l11.28,10.2,11.6-10.485,11.6,10.485,11.6-10.485L213.5,209.525l11.6-10.485,4.587,4.142c.009.384.026.786.035,1.206" fill="#8ab2ee"/>
                    </g>
                  </g>
                </g>
              </g>
            </g>
            <g id="Grupo_1102276" data-name="Grupo 1102276" opacity="0.5" style="mix-blend-mode: multiply;isolation: isolate">
              <g id="Grupo_1102275" data-name="Grupo 1102275">
                <g id="Grupo_1102274" data-name="Grupo 1102274" clip-path="url(#clip-path-21)">
                  <g id="Grupo_1102273" data-name="Grupo 1102273">
                    <g id="Grupo_1102272" data-name="Grupo 1102272" clip-path="url(#clip-path-22)">
                      <path id="Trazado_914133" data-name="Trazado 914133" d="M157.559,186.63l-3.332-4.587,7.318-1.966Z" fill="#8ab2ee"/>
                    </g>
                  </g>
                </g>
              </g>
            </g>
            <g id="Grupo_1102281" data-name="Grupo 1102281" opacity="0.5" style="mix-blend-mode: screen;isolation: isolate">
              <g id="Grupo_1102280" data-name="Grupo 1102280">
                <g id="Grupo_1102279" data-name="Grupo 1102279" clip-path="url(#clip-path-23)">
                  <g id="Grupo_1102278" data-name="Grupo 1102278">
                    <g id="Grupo_1102277" data-name="Grupo 1102277" clip-path="url(#clip-path-24)">
                      <path id="Trazado_914134" data-name="Trazado 914134" d="M206.371,160.064c-.227.3-.481.629-.769.987-1.966,2.377-5.417,5.784-9.961,7.156a13.877,13.877,0,0,1-1.634.393,8.824,8.824,0,0,1-1.564.14c-3.81,0-6.614-2.569-8.4-5a21.487,21.487,0,0,1-1.625-2.578.183.183,0,0,0-.035-.052c.218-.026.428-.044.62-.061.1-.026.218-.044.323-.061a.031.031,0,0,0,.009.026,18.049,18.049,0,0,0,1.118,1.8c1.852,2.674,5.007,5.714,9.4,4.928a13.672,13.672,0,0,0,2.324-.647,21.543,21.543,0,0,0,8.458-6.282c.2-.236.384-.463.559-.673q.537-.039,1.18-.079" fill="#8ab2ee"/>
                    </g>
                  </g>
                </g>
              </g>
            </g>
            <path id="Trazado_914135" data-name="Trazado 914135" d="M223.031,126.419c-1.8-2.92-4.349-2.03-5.686-1.262l.666-6.761a19.829,19.829,0,0,0-39.468-3.885l-.665,6.762c-1.163-1.014-3.489-2.384-5.824.128-3.138,3.38.551,11.854,4.806,12.239a19.827,19.827,0,0,0,39.073,3.845c4.247.452,9.519-7.14,7.1-11.067" fill="#91bfee"/>
            <path id="Trazado_914136" data-name="Trazado 914136" d="M178.741,122.978s3.484-6.084,4.108-10.5,2.911-7.02,5.044-6.032,7.748,4.473,11.44,4.42,11.18-2.652,12.428-1.092-1.457,5.773.363,9.153a62.024,62.024,0,0,0,4.316,6.708l.9-.472s1.487-9.46.759-12.58-5.2-14.924-17.263-16.12-19.5,7.28-20.957,11.232-2.094,13.511-2.094,13.511Z" fill="#88baed"/>
            <path id="Trazado_914137" data-name="Trazado 914137" d="M177.79,121.2s1.54,7.133-.887,12.472.624,19.275,7.558,23.574c6.243,3.871,20.523,2.773,25.376-1.248s6.031-18.582,6.031-18.582-2.336-8.307,1.477-12.259a25.193,25.193,0,0,0-6.544,4.4c-2.855,2.79-17.018,8.693-22.9,4.8a16.2,16.2,0,0,1-6.042-6.068Z" fill="#4b96e3"/>
            <path id="Trazado_914138" data-name="Trazado 914138" d="M201.216,114.561a7.443,7.443,0,0,1,9.542,3.37.525.525,0,0,1-.233.705.539.539,0,0,1-.577-.065,10.511,10.511,0,0,0-3.986-1.875c-1.47-.329-3.014-.338-4.511-.6a.826.826,0,0,1-.235-1.536" fill="#4b96e3"/>
            <path id="Trazado_914139" data-name="Trazado 914139" d="M195.106,115.486c-2.965-.253-5.919-.682-8.675.774a.533.533,0,0,1-.721-.22c-.008-.015-.015-.031-.022-.047a.527.527,0,0,1,.073-.52,7.553,7.553,0,0,1,7.5-2.6c.88.233,3.506.97,2.646,2.3a.875.875,0,0,1-.8.3" fill="#4b96e3"/>
            <path id="Trazado_914140" data-name="Trazado 914140" d="M204.459,135.494c-2.838,7.09-9.247,2.239-9.247,2.239Z" fill="#fff"/>
            <path id="Trazado_914141" data-name="Trazado 914141" d="M198.131,122.344a12.515,12.515,0,0,1-.806,6.727c-.673,1.474-1.794,2.693-1.024,4.149a1.445,1.445,0,0,0,1.272.695,1.541,1.541,0,0,1-1.725-.278c-1.028-.9-.848-2.488-.37-3.587,1.339-2.447,1.844-5.036,2.653-7.706" fill="#4b96e3"/>
            <path id="Trazado_914142" data-name="Trazado 914142" d="M172.939,124.268c.069-1.062,1.035-2.362,2.31-2.076,1.226.274,1.826,1.6,2.186,2.6.245.66.427,1.306.644,1.96a.619.619,0,0,1-1.125.5c-.479-.822-2.06-1.725-2.562-.476a2.5,2.5,0,0,0,1.9,2.982l.059.012c-1.642.412-3.34-1.612-2.919-3.3a1.987,1.987,0,0,1,2.4-1.433,3.443,3.443,0,0,1,2.184,1.576l-1.125.5a15.892,15.892,0,0,0-1.266-3.663c-.821-1.2-2.188-.284-2.687.819" fill="#4b96e3"/>
            <path id="Trazado_914143" data-name="Trazado 914143" d="M221.607,129.057c-.275-1.179-1.435-2.348-2.476-1.327a15.951,15.951,0,0,0-1.956,3.346l-1-.71a3.436,3.436,0,0,1,2.45-1.12,1.986,1.986,0,0,1,2.075,1.873c.083,1.741-1.977,3.393-3.507,2.67a2.5,2.5,0,0,0,2.506-2.494c0-.021,0-.041,0-.062-.249-1.322-1.976-.745-2.606-.031a.619.619,0,0,1-1-.711c.744-1.246,1.229-2.585,2.474-3.508,1.611-1.185,3.277.363,3.052,2.075" fill="#4b96e3"/>
            <path id="Trazado_914144" data-name="Trazado 914144" d="M205.8,126.926c-.163,1.66-1.01,2.935-1.893,2.848s-1.464-1.5-1.3-3.163,1.01-2.935,1.892-2.848,1.464,1.5,1.3,3.163" fill="#4b96e3"/>
            <path id="Trazado_914145" data-name="Trazado 914145" d="M189.943,125.369c-.163,1.66.419,3.076,1.3,3.163s1.728-1.189,1.892-2.848-.419-3.076-1.3-3.163-1.729,1.188-1.893,2.848" fill="#4b96e3"/>
            <path id="Trazado_914146" data-name="Trazado 914146" d="M385.255,294.271H280.645c2.29-11.79,7.79-23.88,12.67-32.94,2.09-3.88,4.06-7.21,5.61-9.72.14-.21.27-.42.39-.62.06-.09.11-.17.16-.25,1.67-2.66,2.74-4.19,2.74-4.19h61.47s1.07,1.53,2.74,4.19c.18.28.36.57.55.87,5.18,8.36,15.01,25.81,18.28,42.66" fill="#8ab2ee"/>
            <path id="Trazado_914147" data-name="Trazado 914147" d="M320.272,160.219a6.168,6.168,0,0,1,6.339,1.938c1.713,2.04,3.484,5.5,3.713,11.189.457,11.375-58.17,68.95-72.327,66.314-11.575-2.155-23.424-49.14-27.362-66.209a6.844,6.844,0,0,1,4.554-8.051l1.368-.445a6.845,6.845,0,0,1,8.291,3.555l16.577,34.648s29.7-34.942,58.848-42.939" fill="#a3c9f1"/>
            <path id="Trazado_914148" data-name="Trazado 914148" d="M275.982,186.505s25.792-24.544,44.928-26.9l-19.552,52.139-8.459,7.35s-21.771-17.611-16.917-32.587" fill="#6b8be8"/>
            <path id="Trazado_914149" data-name="Trazado 914149" d="M362.046,235.9c1.232-17.793,4.841-52.142,1.117-61.916-4.094-10.747-22.717-14.613-29.95-15.725H330.3c-7.234,1.112-30.067,59.848-28.835,77.641.458,6.609,28.835,10.782,28.835,10.782h2.908s28.374-4.172,28.833-10.782" fill="#a3c9f1"/>
            <path id="Trazado_914150" data-name="Trazado 914150" d="M365.419,194.551c-.83,15.526-1.73,52-1.73,52h-61.91l-2.6-43a30.755,30.755,0,0,1,2.717-14.627c4.168-9.166,11.726-24.264,18.191-29.035.122-.087.236-.175.358-.253l.489-.017,2.927-.122s2.324,26.457,5.933,27.427,10.677-27.733,10.677-27.733.917.236,2.359.664c.262.087.533.166.83.262,4.648,1.442,13.08,4.447,16.225,8.082,4.43,5.129,6.378,10.817,5.54,26.352" fill="#6b8be8"/>
            <g id="Grupo_1102286" data-name="Grupo 1102286" opacity="0.5" style="mix-blend-mode: screen;isolation: isolate">
              <g id="Grupo_1102285" data-name="Grupo 1102285">
                <g id="Grupo_1102284" data-name="Grupo 1102284" clip-path="url(#clip-path-25)">
                  <g id="Grupo_1102283" data-name="Grupo 1102283">
                    <g id="Grupo_1102282" data-name="Grupo 1102282" clip-path="url(#clip-path-26)">
                      <path id="Trazado_914151" data-name="Trazado 914151" d="M343.65,160.116c-1.625,8.047-7.2,26.335-12.608,30.048a3.585,3.585,0,0,1-2.027.708,2.6,2.6,0,0,1-.769-.114c-5.522-1.625-7.549-22.167-8.17-30.87.122-.087.236-.175.358-.253l.489-.017c.725,10.406,2.953,28.939,7.575,30.31a2.378,2.378,0,0,0,2.045-.481c5.146-3.547,10.7-21.809,12.276-29.594.262.087.533.166.83.262" fill="#6b8be8"/>
                    </g>
                  </g>
                </g>
              </g>
            </g>
            <g id="Grupo_1102291" data-name="Grupo 1102291" opacity="0.5" style="mix-blend-mode: screen;isolation: isolate">
              <g id="Grupo_1102290" data-name="Grupo 1102290">
                <g id="Grupo_1102289" data-name="Grupo 1102289" clip-path="url(#clip-path-27)">
                  <g id="Grupo_1102288" data-name="Grupo 1102288">
                    <g id="Grupo_1102287" data-name="Grupo 1102287" clip-path="url(#clip-path-27)">
                      <rect id="Rectángulo_403841" data-name="Rectángulo 403841" width="11.468" height="2.075" transform="translate(336.677 199.518)" fill="#6b8be8"/>
                    </g>
                  </g>
                </g>
              </g>
            </g>
            <g id="Grupo_1102296" data-name="Grupo 1102296" opacity="0.5" style="mix-blend-mode: multiply;isolation: isolate">
              <g id="Grupo_1102295" data-name="Grupo 1102295">
                <g id="Grupo_1102294" data-name="Grupo 1102294" clip-path="url(#clip-path-29)">
                  <g id="Grupo_1102293" data-name="Grupo 1102293">
                    <g id="Grupo_1102292" data-name="Grupo 1102292" clip-path="url(#clip-path-30)">
                      <path id="Trazado_914152" data-name="Trazado 914152" d="M354.771,211.563,352.8,211.2l-3.859-15.291,2.368,16.261a3.271,3.271,0,0,0,3.171,2.8l.869.017Z" fill="#6b8be8"/>
                    </g>
                  </g>
                </g>
              </g>
            </g>
            <rect id="Rectángulo_403846" data-name="Rectángulo 403846" width="15.74" height="15.132" transform="translate(322.01 149.103) rotate(-10.14)" fill="#a3c9f1"/>
            <path id="Trazado_914153" data-name="Trazado 914153" d="M337.887,148.472l.609,3.4a18.627,18.627,0,0,1-15.488,2.774l-.609-3.4a18.631,18.631,0,0,0,15.488-2.775" fill="#8fbeee"/>
            <path id="Trazado_914154" data-name="Trazado 914154" d="M389.675,256.9a51.984,51.984,0,0,1-.725,6.029c-.009.052-.017.114-.026.175a7.068,7.068,0,0,1-10.293,4.98q-2.32-1.245-4.666-2.578c-1.048-.594-2.08-1.232-3.084-1.9a51.276,51.276,0,0,1-7.558-6.064c-.577-.55-1.153-1.136-1.713-1.721C349.736,243.2,319.924,211.182,308,195.507c-.1-.131-.184-.253-.28-.376l-13.709-15.972s-2.5-4.439.69-4.159,15.439,3.792,21.381,12.433l-.017.017c6.474,5.1,23.617,18.576,40.087,31.464-4.045-20.577-7.925-43.757-5.924-48.685,0,0-.332-5.976,4.666-5.277,4.587.647,27.139,31.691,33.884,78.052.236,1.608.454,3.242.647,4.884a50.124,50.124,0,0,1,.253,9.017" fill="#a3c9f1"/>
            <g id="Grupo_1102301" data-name="Grupo 1102301" opacity="0.4" style="mix-blend-mode: multiply;isolation: isolate">
              <g id="Grupo_1102300" data-name="Grupo 1102300">
                <g id="Grupo_1102299" data-name="Grupo 1102299" clip-path="url(#clip-path-31)">
                  <g id="Grupo_1102298" data-name="Grupo 1102298">
                    <g id="Grupo_1102297" data-name="Grupo 1102297" clip-path="url(#clip-path-32)">
                      <path id="Trazado_914155" data-name="Trazado 914155" d="M355.79,216.665,367.8,229.88l-11.9-10.922Z" fill="#a3c9f1"/>
                    </g>
                  </g>
                </g>
              </g>
            </g>
            <g id="Grupo_1102306" data-name="Grupo 1102306" opacity="0.4" style="mix-blend-mode: multiply;isolation: isolate">
              <g id="Grupo_1102305" data-name="Grupo 1102305">
                <g id="Grupo_1102304" data-name="Grupo 1102304" clip-path="url(#clip-path-33)">
                  <g id="Grupo_1102303" data-name="Grupo 1102303">
                    <g id="Grupo_1102302" data-name="Grupo 1102302" clip-path="url(#clip-path-33)">
                      <path id="Trazado_914156" data-name="Trazado 914156" d="M389.675,256.9a51.984,51.984,0,0,1-.725,6.029c-.009.052-.017.114-.026.175a7.068,7.068,0,0,1-10.293,4.98q-2.32-1.245-4.666-2.578c-1.048-.594-2.079-1.232-3.084-1.9-.009-.183-.018-.367-.018-.559a10.41,10.41,0,0,1,18.812-6.142" fill="#a3c9f1"/>
                    </g>
                  </g>
                </g>
              </g>
            </g>
            <path id="Trazado_914157" data-name="Trazado 914157" d="M382.064,209.937l-3.74.961a52.883,52.883,0,0,1-22.927.751l-2.455-.463s-.3-.891-.769-2.438c-.1-.3-.192-.612-.3-.952-2.979-9.917-10.581-38.637-.874-45.147,0,0,9.707.979,17.475,15.955A286.14,286.14,0,0,1,381.1,207.333c.114.3.218.577.306.821.428,1.145.655,1.782.655,1.782" fill="#6b8be8"/>
            <g id="Grupo_1102311" data-name="Grupo 1102311" opacity="0.5" style="mix-blend-mode: screen;isolation: isolate">
              <g id="Grupo_1102310" data-name="Grupo 1102310">
                <g id="Grupo_1102309" data-name="Grupo 1102309" clip-path="url(#clip-path-35)">
                  <g id="Grupo_1102308" data-name="Grupo 1102308">
                    <g id="Grupo_1102307" data-name="Grupo 1102307" clip-path="url(#clip-path-36)">
                      <path id="Trazado_914158" data-name="Trazado 914158" d="M381.409,208.154c-3.748,1.59-8.589,2.114-13.368,2.114a94.371,94.371,0,0,1-15.867-1.52c-.1-.3-.192-.612-.3-.952,5.723,1.031,20.673,3.172,29.227-.463.114.3.218.577.306.821" fill="#6b8be8"/>
                    </g>
                  </g>
                </g>
              </g>
            </g>
            <path id="Trazado_914159" data-name="Trazado 914159" d="M349.376,120.746c-2.373-2.181-4.451-.724-5.464.312l-1.126-6.284a18.632,18.632,0,1,0-36.728,6.3c.016.091.032.183.049.274l1.126,6.284c-1.311-.62-3.763-1.265-5.232,1.6-1.976,3.858,3.526,10.578,7.471,9.838a18.629,18.629,0,0,0,36.311-6.505c3.956-.676,6.783-8.888,3.592-11.82" fill="#a3c9f1"/>
            <path id="Trazado_914160" data-name="Trazado 914160" d="M331.565,139.011a9.856,9.856,0,0,0,3.111-2.11c-.314,1.326-1.866,1.995-3.111,2.11" fill="#4b96e3"/>
            <path id="Trazado_914161" data-name="Trazado 914161" d="M325.819,123.423a11.734,11.734,0,0,1,.99,6.289c-.221,1.507-.941,2.889.135,4.011a1.353,1.353,0,0,0,1.327.3c-.941.917-2.535-.079-2.764-1.219a7.093,7.093,0,0,1,.139-3.28,51.958,51.958,0,0,0,.173-6.1" fill="#4b96e3"/>
            <path id="Trazado_914162" data-name="Trazado 914162" d="M303.531,131.6c-.208-.979.334-2.4,1.56-2.467,1.178-.066,2.06.985,2.64,1.791.391.534.721,1.072,1.083,1.608a.582.582,0,0,1-.889.741c-.642-.621-2.3-1.034-2.439.224a2.354,2.354,0,0,0,2.489,2.21l.047,0c-1.4.782-3.416-.59-3.484-2.24a1.868,1.868,0,0,1,1.8-1.909,3.228,3.228,0,0,1,2.377.868l-.889.74a14.918,14.918,0,0,0-2.081-2.988c-1.05-.878-2.05.3-2.22,1.427" fill="#4b96e3"/>
            <path id="Trazado_914163" data-name="Trazado 914163" d="M348.762,123.492c-.55-1-1.9-1.756-2.578-.567a14.861,14.861,0,0,0-.914,3.525l-1.09-.385a3.225,3.225,0,0,1,1.928-1.639,1.867,1.867,0,0,1,2.355,1.164c.511,1.572-.9,3.557-2.488,3.31A2.353,2.353,0,0,0,347.6,126l-.014-.046c-.563-1.132-1.977-.169-2.364.636a.581.581,0,0,1-1.09-.385c.355-1.318.45-2.651,1.339-3.8,1.154-1.483,3.056-.508,3.291,1.1" fill="#4b96e3"/>
            <path id="Trazado_914164" data-name="Trazado 914164" d="M321.127,120.524c-2.752-.165-5.754.447-7.659,2.623a.423.423,0,0,1-.7-.468,7.438,7.438,0,0,1,3.618-3.448c1.109-.623,6.117-1.788,5.873.466a1.025,1.025,0,0,1-1.132.827" fill="#4b96e3"/>
            <path id="Trazado_914165" data-name="Trazado 914165" d="M327.725,117.393a8.23,8.23,0,0,1,9.579.889.422.422,0,0,1-.452.7,8.729,8.729,0,0,0-2.08-.735,10.512,10.512,0,0,0-6.144.953,1.014,1.014,0,0,1-.9-1.809" fill="#4b96e3"/>
            <path id="Trazado_914166" data-name="Trazado 914166" d="M333.921,125.607c.276,1.543-.164,2.912-.983,3.059s-1.708-.985-1.984-2.528.163-2.911.983-3.058,1.708.984,1.984,2.527" fill="#4b96e3"/>
            <path id="Trazado_914167" data-name="Trazado 914167" d="M332.529,123.615a4.413,4.413,0,0,0,1.853-.972s-.312,1.6-1.431,1.845Z" fill="#4b96e3"/>
            <path id="Trazado_914168" data-name="Trazado 914168" d="M319.191,128.247c.276,1.543,1.165,2.675,1.984,2.528s1.259-1.517.983-3.059-1.165-2.675-1.984-2.528-1.259,1.517-.983,3.059" fill="#4b96e3"/>
            <path id="Trazado_914169" data-name="Trazado 914169" d="M319.8,125.9a4.409,4.409,0,0,1-2.075-.269s.847,1.39,1.983,1.235Z" fill="#4b96e3"/>
            <path id="Trazado_914170" data-name="Trazado 914170" d="M321.682,136.4a4.755,4.755,0,1,1-5.519-3.842A4.755,4.755,0,0,1,321.682,136.4Z" fill="#accff2"/>
            <path id="Trazado_914171" data-name="Trazado 914171" d="M345.027,132.223a4.755,4.755,0,1,1-5.519-3.842h0a4.755,4.755,0,0,1,5.519,3.842" fill="#accff2"/>
            <path id="Trazado_914172" data-name="Trazado 914172" d="M328.684,137.955s-.13-1.9,1.04-2.08a3.949,3.949,0,0,1,1.638-.025s.468-1.638,1.3-1.8a3.42,3.42,0,0,1,1.872.417,7.281,7.281,0,0,1-5.85,3.484" fill="#b0d1f3"/>
            <path id="Trazado_914173" data-name="Trazado 914173" d="M328.684,137.955s3.12,1.326,4.6-.338,1.118-2.938,1.118-2.938a6.638,6.638,0,0,1-5.72,3.276" fill="#b0d1f3"/>
            <path id="Trazado_914174" data-name="Trazado 914174" d="M327.111,138.081c3.076-.6,6.111-1.591,7.789-4.387-.624,3.4-4.669,4.984-7.789,4.387" fill="#4b96e3"/>
            <path id="Trazado_914175" data-name="Trazado 914175" d="M357.257,136.829c6.058-11.312-15.929-30.436-18.577-32.68a23.3,23.3,0,0,0-5.5-4.208c-12.771-7.167-29.213,4.771-30.456,14.751-1.442,2.732-12.218,24.012-2.754,32.569,0,0-6.229,8.815-.278,15.808,8.321,9.776,22.187,4.161,24.129-3.466l-1.249-8.459s-10.191-2.357-13.173-12.134c0,0-7.35-.971-7.766-8.112,0,0,.211-4.585,5.089-3.5a1.972,1.972,0,0,0,.528.241c7,.833,5.269-7.9,5.269-7.9,7.558-1.872,9.118-9.914,9.118-9.914s5.928,5.824,11.856,2.6c0,0,2.909,6.356,6.69,8.35.894,1,2.11,1.344,3.71.282,4.344-2.883,6.278.933,6.278.933,2.017,6.863-4.575,10.256-4.575,10.256.491,10.209-7.683,16.267-7.683,16.267l1.931,10.925c4.4,6.524,24.524,2.23,26.01-6.832,1.336-8.149-8.6-15.774-8.6-15.774" fill="#4b96e3"/>
            <path id="Trazado_914176" data-name="Trazado 914176" d="M359.5,166.753c-.043,4.359-.495,11.79-1.517,12.315-1.658.85-2.775-3.37-2.775-3.37s-1.706,6.88-2.842,7.243-.5-7.735-.5-7.735-2.583,6.89-3.564,7.448.13-8.772.13-8.772-3.613,6.922-4.754,6.846,3.215-15.864,3.215-15.864-6.98-.718-5.265-2.424c.843-.839,2.9-1.092,5.308-1.584,2.451-.5,12.589,2.916,12.56,5.9" fill="#d9e9f9"/>
            <path id="Trazado_914177" data-name="Trazado 914177" d="M165.4,294.271H60.1a82.029,82.029,0,0,1,3.06-10.81c6.43-18.21,18.49-36.91,18.49-36.91h62.38a53.191,53.191,0,0,1,9.63,12.89c6.67,12.06,10.14,26.37,11.74,34.83" fill="#3d85f2"/>
            <g id="Grupo_1102316" data-name="Grupo 1102316" opacity="0.5" style="mix-blend-mode: screen;isolation: isolate">
              <g id="Grupo_1102315" data-name="Grupo 1102315">
                <g id="Grupo_1102314" data-name="Grupo 1102314" clip-path="url(#clip-path-37)">
                  <g id="Grupo_1102313" data-name="Grupo 1102313">
                    <g id="Grupo_1102312" data-name="Grupo 1102312" clip-path="url(#clip-path-38)">
                      <path id="Trazado_914178" data-name="Trazado 914178" d="M131.6,257.585H120.752V246.663a.437.437,0,0,0-.874,0v10.922h-6.626v-10.7a.437.437,0,0,0-.874,0v10.7H96.866a.437.437,0,0,0,0,.874h23.129a.426.426,0,0,0,.6.041.4.4,0,0,0,.041-.041H131.6a.437.437,0,0,0,0-.874h0" fill="#3d85f2"/>
                    </g>
                  </g>
                </g>
              </g>
            </g>
            <path id="Trazado_914179" data-name="Trazado 914179" d="M137,124.123c-1.952-2.565-4.253-1.5-5.433-.656v-6.384a18.632,18.632,0,0,0-37.264,0v6.389c-1.18-.842-3.481-1.909-5.433.656-2.624,3.449,1.607,11.034,5.62,11a18.629,18.629,0,0,0,36.89,0c4.014.032,8.244-7.553,5.62-11" fill="#c7def6"/>
            <path id="Trazado_914180" data-name="Trazado 914180" d="M112.032,137.264c3.134-.05,6.3-.488,8.44-2.945-1.215,3.236-5.476,4.082-8.44,2.945" fill="#4b96e3"/>
            <path id="Trazado_914181" data-name="Trazado 914181" d="M116.252,138.962c1.2-.456,2.463-.648,3.435-1.528-.543,1.25-2.189,1.634-3.435,1.528" fill="#4b96e3"/>
            <path id="Trazado_914182" data-name="Trazado 914182" d="M113.345,122.6a11.745,11.745,0,0,1-.135,6.365c-.484,1.444-1.436,2.679-.575,3.973a1.353,1.353,0,0,0,1.253.532c-1.089.737-2.481-.526-2.506-1.687a7.1,7.1,0,0,1,.716-3.2,51.845,51.845,0,0,0,1.247-5.979" fill="#4b96e3"/>
            <path id="Trazado_914183" data-name="Trazado 914183" d="M89.965,126.721c-.032-1,.751-2.3,1.97-2.154,1.171.143,1.855,1.332,2.282,2.228.291.6.521,1.182.783,1.775a.581.581,0,0,1-1.006.571c-.523-.724-2.086-1.422-2.439-.21a2.354,2.354,0,0,0,2.058,2.615l.049,0c-1.517.523-3.258-1.183-3.034-2.82a1.866,1.866,0,0,1,2.114-1.561,3.224,3.224,0,0,1,2.187,1.273l-1,.571c-.233-.6-.49-1.2-.7-1.789-.676-2.094-2.207-2.894-3.256-.507" fill="#4b96e3"/>
            <path id="Trazado_914184" data-name="Trazado 914184" d="M135.915,126.72c-.366-1.076-1.558-2.064-2.438-1.014a15.026,15.026,0,0,0-1.521,3.309l-1-.571a3.224,3.224,0,0,1,2.187-1.273,1.866,1.866,0,0,1,2.113,1.561c.226,1.637-1.516,3.341-3.033,2.82a2.354,2.354,0,0,0,2.112-2.573c0-.016,0-.031-.005-.047-.354-1.213-1.916-.515-2.439.21a.581.581,0,0,1-1.006-.571c.582-1.235.911-2.53,1.99-3.508,1.4-1.256,3.1.038,3.045,1.659" fill="#4b96e3"/>
            <path id="Trazado_914185" data-name="Trazado 914185" d="M109.238,118.923c-2.68-.649-5.742-.575-8,1.231a.424.424,0,0,1-.606-.585,7.446,7.446,0,0,1,4.17-2.756c1.2-.417,6.336-.681,5.7,1.494a1.023,1.023,0,0,1-1.26.616" fill="#4b96e3"/>
            <path id="Trazado_914186" data-name="Trazado 914186" d="M116.285,117a8.23,8.23,0,0,1,9.272,2.564.421.421,0,0,1-.067.592h0a.429.429,0,0,1-.538-.008,7.817,7.817,0,0,0-3.9-1.563,13.628,13.628,0,0,0-4.192.353,1.014,1.014,0,0,1-.57-1.939" fill="#4b96e3"/>
            <path id="Trazado_914187" data-name="Trazado 914187" d="M120.935,126.183c0,1.567-.675,2.838-1.507,2.838s-1.507-1.27-1.507-2.838.675-2.838,1.507-2.838,1.507,1.27,1.507,2.838" fill="#4b96e3"/>
            <path id="Trazado_914188" data-name="Trazado 914188" d="M119.916,123.976a4.416,4.416,0,0,0,2-.631s-.589,1.518-1.734,1.565Z" fill="#4b96e3"/>
            <path id="Trazado_914189" data-name="Trazado 914189" d="M105.966,126.183c0,1.567.675,2.838,1.507,2.838s1.507-1.27,1.507-2.838-.675-2.838-1.507-2.838-1.507,1.27-1.507,2.838" fill="#4b96e3"/>
            <path id="Trazado_914190" data-name="Trazado 914190" d="M106.987,123.976a4.416,4.416,0,0,1-2-.631s.59,1.518,1.734,1.565Z" fill="#4b96e3"/>
            <path id="Trazado_914191" data-name="Trazado 914191" d="M106.986,134.653a4.755,4.755,0,1,1-4.755-4.755,4.755,4.755,0,0,1,4.755,4.755" fill="#bbd7f4"/>
            <circle id="Elipse_11626" data-name="Elipse 11626" cx="4.755" cy="4.755" r="4.755" transform="translate(121.191 129.898)" fill="#bbd7f4"/>
            <path id="Trazado_914192" data-name="Trazado 914192" d="M131.559,123.411s-1.664,2.5-2.426,2.357-3.259-13.867-3.259-13.867a10.385,10.385,0,0,1,0,5.893c-7.488,2.219-26.971,0-26.971,0-1.11-2.08,0-6.447,0-6.447s-1.837,8.563-1.7,11.812c.143,3.361-2.21,1.69-2.886.287s-2.8-14.179,4.55-21.112,26.729-3.744,30.126,1.387,2.565,19.691,2.565,19.691" fill="#4b96e3"/>
            <path id="Trazado_914193" data-name="Trazado 914193" d="M124.61,93.076c-.627,4.579-6.1,10.5-11.857,10.5s-11.229-5.925-11.856-10.5c-.7-5.121,4.571-9.739,11.856-9.739s12.558,4.618,11.857,9.739" fill="#4b96e3"/>
            <rect id="Rectángulo_403855" data-name="Rectángulo 403855" width="15.746" height="15.139" transform="translate(105.067 147.209)" fill="#c7def6"/>
            <path id="Trazado_914194" data-name="Trazado 914194" d="M120.806,149.386v3.455a18.625,18.625,0,0,1-15.734,0v-3.455a18.625,18.625,0,0,0,15.734,0" fill="#bbd7f4"/>
            <path id="Trazado_914195" data-name="Trazado 914195" d="M104.866,159.6s-2.515-4.262-.253-6.309c1.173-1.062,3.725-.741,8.555-.936,5.057-.2,7.61-.227,8.737.832,2.19,2.061-1.1,6.422-1.1,6.422s16.507,3.18,23.024,10.668-1.391,70.861.205,76.268H81.654s.331-24.129-1.06-30.646-1.664-47.84-1.664-47.84,18.72-7.9,25.932-8.459" fill="#fff"/>
            <path id="Trazado_914196" data-name="Trazado 914196" d="M123.519,244.042H102.477a.437.437,0,0,1,0-.874h21.046a.437.437,0,0,1,0,.874Z" fill="#fcb3ad"/>
            <path id="Trazado_914197" data-name="Trazado 914197" d="M112.834,161.832a19.106,19.106,0,0,1-7.111-1.342.437.437,0,0,1,.351-.8,18.333,18.333,0,0,0,13.2,0,.437.437,0,1,1,.338.806,17.4,17.4,0,0,1-6.777,1.339" fill="#fcb3ad"/>
            <path id="Trazado_914198" data-name="Trazado 914198" d="M105.083,159.609h0c-3.892.8-7.217,4.323-6.55,8.239,8.135,47.635,2.7,114.055-.74,120.575-4.02,7.626-36.884.97-36.884.97s15.114-63.093,15.253-72.8,1.387-49.084,1.387-49.084a62.621,62.621,0,0,1,26.428-9.976Z" fill="#ffbe01"/>
            <g id="Grupo_1102321" data-name="Grupo 1102321" opacity="0.5" style="mix-blend-mode: screen;isolation: isolate">
              <g id="Grupo_1102320" data-name="Grupo 1102320">
                <g id="Grupo_1102319" data-name="Grupo 1102319" clip-path="url(#clip-path-39)">
                  <g id="Grupo_1102318" data-name="Grupo 1102318">
                    <g id="Grupo_1102317" data-name="Grupo 1102317" clip-path="url(#clip-path-40)">
                      <path id="Trazado_914199" data-name="Trazado 914199" d="M84.149,286.71H65.2a.437.437,0,1,1,0-.874H84.149a11.7,11.7,0,0,0,10.937-7.617,18.451,18.451,0,0,0,.576-11.012c-2.3-9-8.187-25.236-11.018-33.041-.533-1.468-.954-2.63-1.218-3.376-2.051-5.8,6.757-17.9,10.638-22.829a2.732,2.732,0,0,0-.092-3.489c-3.134-3.578-8.594-10.021-9.949-12.964-2.187-4.751,10-23.507,10.516-24.3a.437.437,0,1,1,.755.44.291.291,0,0,1-.024.037C91.8,173,83.17,187.563,84.817,191.146c1.358,2.949,7.314,9.9,9.812,12.754a3.6,3.6,0,0,1,.121,4.6c-2.958,3.76-12.46,16.459-10.5,22,.264.744.685,1.9,1.216,3.37,2.835,7.818,8.736,24.086,11.043,33.122a19.335,19.335,0,0,1-.6,11.531,12.583,12.583,0,0,1-11.756,8.189" fill="#ffbe01"/>
                    </g>
                  </g>
                </g>
              </g>
            </g>
            <path id="Trazado_914200" data-name="Trazado 914200" d="M63.165,283.461c.94,4.02,1.79,7.68,2.52,10.81H51.125c-6.22-13.46-13.69-31.32-19.49-45.52-2.76-6.76-5.15-12.69-6.83-16.93a51.564,51.564,0,0,1-2.59-8.57,14.106,14.106,0,0,1,2.65-11.5c.87-1.12,1.76-2.21,2.71-3.27A184.8,184.8,0,0,1,48.055,189a176.4,176.4,0,0,1,24.86-17.04c1.28,3.99,3.02,7.85,4.44,11.89,1.28,3.62,2.35,7.29,3.54,10.92-11.76,11.66-24.92,23.8-31.38,29.7,3.76,16.48,9.5,41.22,13.65,58.99" fill="#c7def6"/>
            <path id="Trazado_914201" data-name="Trazado 914201" d="M56.2,250.016l.76,3.329c-5.723,5.714-21.949,6.754-21.949,6.754s-.821-1.512-2.062-4.01c-.14-.28-.28-.568-.428-.874-4.893-9.969-14.9-32.512-10.511-42.018,5.723-12.37,37.126-34.112,37.126-34.112L78.193,167.1,84.2,196.9,50.4,224.735l5.573,24.32Z" fill="#ffbe01"/>
            <g id="Grupo_1102326" data-name="Grupo 1102326" opacity="0.5" style="mix-blend-mode: multiply;isolation: isolate">
              <g id="Grupo_1102325" data-name="Grupo 1102325">
                <g id="Grupo_1102324" data-name="Grupo 1102324" clip-path="url(#clip-path-41)">
                  <g id="Grupo_1102323" data-name="Grupo 1102323">
                    <g id="Grupo_1102322" data-name="Grupo 1102322" clip-path="url(#clip-path-42)">
                      <path id="Trazado_914202" data-name="Trazado 914202" d="M76.465,203.286l9.885-7.208L76.137,214.54Z" fill="#ffbe01"/>
                    </g>
                  </g>
                </g>
              </g>
            </g>
            <g id="Grupo_1102331" data-name="Grupo 1102331" opacity="0.5" style="mix-blend-mode: screen;isolation: isolate">
              <g id="Grupo_1102330" data-name="Grupo 1102330">
                <g id="Grupo_1102329" data-name="Grupo 1102329" clip-path="url(#clip-path-43)">
                  <g id="Grupo_1102328" data-name="Grupo 1102328">
                    <g id="Grupo_1102327" data-name="Grupo 1102327" clip-path="url(#clip-path-44)">
                      <path id="Trazado_914203" data-name="Trazado 914203" d="M56.2,250.016c-5.9,5.138-17.9,5.969-23.251,6.069-.14-.28-.28-.568-.428-.874,5.12-.1,17.851-.874,23.451-6.16Z" fill="#ffbe01"/>
                    </g>
                  </g>
                </g>
              </g>
            </g>
            <g id="Grupo_1102336" data-name="Grupo 1102336" opacity="0.5" style="mix-blend-mode: multiply;isolation: isolate">
              <g id="Grupo_1102335" data-name="Grupo 1102335">
                <g id="Grupo_1102334" data-name="Grupo 1102334" clip-path="url(#clip-path-45)">
                  <g id="Grupo_1102333" data-name="Grupo 1102333">
                    <g id="Grupo_1102332" data-name="Grupo 1102332" clip-path="url(#clip-path-45)">
                      <path id="Trazado_914204" data-name="Trazado 914204" d="M50.361,224.638s-6.061-3.658-6.935-2.294,6.935,2.294,6.935,2.294" fill="#ffbe01"/>
                    </g>
                  </g>
                </g>
              </g>
            </g>
            <g id="Grupo_1102341" data-name="Grupo 1102341" opacity="0.5" style="mix-blend-mode: multiply;isolation: isolate">
              <g id="Grupo_1102340" data-name="Grupo 1102340">
                <g id="Grupo_1102339" data-name="Grupo 1102339" clip-path="url(#clip-path-47)">
                  <g id="Grupo_1102338" data-name="Grupo 1102338">
                    <g id="Grupo_1102337" data-name="Grupo 1102337" clip-path="url(#clip-path-48)">
                      <path id="Trazado_914205" data-name="Trazado 914205" d="M50.47,224.856s-4.369-6.061-2.567-6.881,2.567,6.881,2.567,6.881" fill="#ffbe01"/>
                    </g>
                  </g>
                </g>
              </g>
            </g>
            <path id="Trazado_914206" data-name="Trazado 914206" d="M120.808,159.613h0c3.892.8,7.624,4.415,6.549,8.239-8.485,30.163-2.7,114.055.74,120.575,4.021,7.626,36.885.97,36.885.97s-15.115-63.093-15.253-72.8-1.387-42.294-1.387-42.294-11.171-14.7-26.425-16.575Z" fill="#ffbe01"/>
            <g id="Grupo_1102346" data-name="Grupo 1102346" opacity="0.5" style="mix-blend-mode: screen;isolation: isolate">
              <g id="Grupo_1102345" data-name="Grupo 1102345">
                <g id="Grupo_1102344" data-name="Grupo 1102344" clip-path="url(#clip-path-49)">
                  <g id="Grupo_1102343" data-name="Grupo 1102343">
                    <g id="Grupo_1102342" data-name="Grupo 1102342" clip-path="url(#clip-path-50)">
                      <path id="Trazado_914207" data-name="Trazado 914207" d="M160.188,286.71H141.236a12.583,12.583,0,0,1-11.756-8.189,19.327,19.327,0,0,1-.6-11.531c2.308-9.036,8.208-25.3,11.043-33.122.531-1.465.952-2.626,1.215-3.37,1.96-5.538-7.542-18.237-10.5-22a3.607,3.607,0,0,1,.121-4.6c2.5-2.853,8.455-9.8,9.813-12.754,1.649-3.583-6.987-18.149-10.454-23.461a.437.437,0,0,1,.707-.514c.008.012.017.024.024.037.521.8,12.7,19.552,10.516,24.3-1.355,2.943-6.815,9.386-9.949,12.964a2.732,2.732,0,0,0-.092,3.489c3.882,4.933,12.689,17.033,10.639,22.829-.265.746-.685,1.908-1.218,3.376-2.831,7.8-8.721,24.046-11.019,33.041a18.451,18.451,0,0,0,.577,11.012,11.7,11.7,0,0,0,10.933,7.623h18.952a.437.437,0,1,1,0,.874h0" fill="#ffbe01"/>
                    </g>
                  </g>
                </g>
              </g>
            </g>
            <path id="Trazado_914208" data-name="Trazado 914208" d="M179.455,259.011c-.57,7.88-1.61,21.23-2.88,35.26h-20.11c-.98-12.43-1.99-25.06-2.8-34.83-.24-2.83-.45-5.41-.65-7.68,0,0-3.03-57.95-1.03-60.43,9.81,13.41,19.79,23.65,26.25,52.02a53.193,53.193,0,0,1,1.22,15.66" fill="#c7def6"/>
            <path id="Trazado_914209" data-name="Trazado 914209" d="M148.342,174.3s9.131,11.856,11.107,15.288,17.663,38.515,20.574,57.374c0,0,.416,22.187-.693,32.171,0,0-16.363,5.547-25.654-1.387l-2.08-27.041L145,203.558Z" fill="#ffbe01"/>
            <path id="Trazado_914210" data-name="Trazado 914210" d="M90.787,158.457a8.21,8.21,0,0,0-4.149,7.221c.049,4.359.308,10.145,1.332,10.668,1.659.848,2.771-3.374,2.771-3.374s1.715,6.877,2.853,7.238.484-7.735.484-7.735,2.592,6.886,3.575,7.443-.142-8.772-.142-8.772,3.623,6.917,4.764,6.839-3.237-15.859-3.237-15.859,6.979-.728,5.262-2.432a17.7,17.7,0,0,0-4.936-2.568,8.263,8.263,0,0,0-7.114.5Z" fill="#91bfee"/>
            <path id="Trazado_914211" data-name="Trazado 914211" d="M284.824,127.867c-1.952-2.565-4.253-1.5-5.433-.656v-6.384a18.632,18.632,0,1,0-37.264,0v6.384c-1.18-.842-3.481-1.909-5.433.656-2.628,3.454,1.619,11.056,5.638,11a18.608,18.608,0,0,0,36.854,0c4.018.055,8.266-7.547,5.637-11" fill="#d2e5f8"/>
            <path id="Trazado_914212" data-name="Trazado 914212" d="M259.575,142.288c3.134-.05,6.3-.488,8.44-2.945-1.215,3.236-5.476,4.082-8.44,2.945" fill="#4b96e3"/>
            <path id="Trazado_914213" data-name="Trazado 914213" d="M263.8,143.987c1.2-.456,2.463-.648,3.435-1.528-.543,1.25-2.189,1.634-3.435,1.528" fill="#4b96e3"/>
            <path id="Trazado_914214" data-name="Trazado 914214" d="M261.165,126.347a11.756,11.756,0,0,1-.135,6.368c-.483,1.444-1.436,2.679-.575,3.973a1.353,1.353,0,0,0,1.253.532c-1.089.737-2.481-.526-2.506-1.687a7.092,7.092,0,0,1,.716-3.2,51.847,51.847,0,0,0,1.247-5.979" fill="#4b96e3"/>
            <path id="Trazado_914215" data-name="Trazado 914215" d="M237.784,130.464c-.032-1,.751-2.3,1.97-2.154,1.171.143,1.855,1.332,2.282,2.228.291.6.521,1.182.783,1.775a.581.581,0,0,1-1.006.571c-.523-.724-2.086-1.422-2.439-.21a2.354,2.354,0,0,0,2.06,2.615l.047.005c-1.517.522-3.258-1.183-3.034-2.82a1.866,1.866,0,0,1,2.114-1.561,3.224,3.224,0,0,1,2.187,1.273l-1,.571c-.233-.6-.49-1.2-.7-1.789-.676-2.094-2.207-2.894-3.256-.507" fill="#4b96e3"/>
            <path id="Trazado_914216" data-name="Trazado 914216" d="M283.736,130.464c-.366-1.076-1.558-2.064-2.437-1.013a14.91,14.91,0,0,0-1.522,3.308l-1-.571a3.224,3.224,0,0,1,2.187-1.273,1.867,1.867,0,0,1,2.114,1.561c.225,1.637-1.517,3.341-3.034,2.82a2.353,2.353,0,0,0,2.112-2.571c0-.017,0-.033-.005-.049-.354-1.213-1.916-.515-2.44.21a.581.581,0,0,1-1.006-.571c.582-1.235.911-2.53,1.99-3.508,1.4-1.256,3.1.038,3.045,1.659" fill="#4b96e3"/>
            <path id="Trazado_914217" data-name="Trazado 914217" d="M257.057,120.171c-2.68-.649-5.742-.575-8,1.231a.427.427,0,0,1-.6-.055l-.023-.03a.422.422,0,0,1,.017-.5,7.446,7.446,0,0,1,4.17-2.756c1.2-.417,6.336-.681,5.7,1.494a1.023,1.023,0,0,1-1.26.616" fill="#4b96e3"/>
            <path id="Trazado_914218" data-name="Trazado 914218" d="M264.1,118.256a8.23,8.23,0,0,1,9.272,2.564.422.422,0,0,1-.068.592.429.429,0,0,1-.538-.008,7.816,7.816,0,0,0-3.9-1.563,13.627,13.627,0,0,0-4.192.353,1.014,1.014,0,0,1-.57-1.939" fill="#4b96e3"/>
            <path id="Trazado_914219" data-name="Trazado 914219" d="M264.7,130.363c1.972-1.652,5.488-1.513,6.916.78a9.555,9.555,0,0,0-6.916-.78" fill="#4b96e3"/>
            <path id="Trazado_914220" data-name="Trazado 914220" d="M257.418,130.363a9.555,9.555,0,0,0-6.916.78c1.428-2.294,4.943-2.433,6.916-.78" fill="#4b96e3"/>
            <path id="Trazado_914221" data-name="Trazado 914221" d="M279.31,126.982s-3.432,1.144-6.032-10.816c0,0-14.144,4.264-23.816,3.848,0,0-2.7,8.008-7.384,7.072a5.174,5.174,0,0,0-4.264-.52s-.937-17.888,9.36-23.4,26.416-3.12,30.057,3.327c0,0,8.216,6.032,7.175,20.488a5.732,5.732,0,0,0-5.1,0" fill="#4b96e3"/>
            <path id="Trazado_914222" data-name="Trazado 914222" d="M306.755,294.271h-93.02c1.43-5.27,3.19-10.48,5.01-15.3A224.633,224.633,0,0,1,229.455,255h30.87c-.01.14-.02.28-.02.42l.04.34v-.34c0-.14-.01-.28-.02-.42h29.59s1.37,2.37,3.4,6.33a216.913,216.913,0,0,1,9.81,22.02c1.32,3.53,2.57,7.21,3.63,10.92" fill="#ffbe01"/>
            <rect id="Rectángulo_403868" data-name="Rectángulo 403868" width="15.746" height="15.139" transform="translate(252.887 150.953)" fill="#d2e5f8"/>
            <path id="Trazado_914223" data-name="Trazado 914223" d="M268.625,153.133v3.455a18.625,18.625,0,0,1-15.734,0v-3.455a18.625,18.625,0,0,0,15.734,0" fill="#c4dcf6"/>
            <path id="Trazado_914224" data-name="Trazado 914224" d="M292.226,238.945c-.306,6.413-.577,10.835-.612,11.411,0,0-1.162,7.5-4.281,9.367-1.311.778-12.634,1.249-24.814,1.276h-.874c-14.356.009-29.585-.6-30.817-2.045-2.5-2.91-2.412-8.528-2.412-8.528s-3.224-62.919.507-72.7c4.089-10.747,22.647-13.648,29.882-14.766l1.319,2.132,1.59-2.132c3.949.612,11.324,1.756,17.868,4.421.5.2,1,.419,1.485.638,4.814,2.184,8.973,5.286,10.66,9.707a32.673,32.673,0,0,1,1.232,8.108c.044.568.079,1.162.114,1.765.743,13.849-.166,37.353-.848,51.341" fill="#fff"/>
            <path id="Trazado_914225" data-name="Trazado 914225" d="M262.519,167.735V261h-.874V167.735a.437.437,0,0,1,.874,0Z" fill="#fa6d61"/>
            <path id="Trazado_914226" data-name="Trazado 914226" d="M252.477,161.562l7.18,1.4a1.259,1.259,0,0,1,1.015,1.318l-.561,8.582a.191.191,0,0,1-.2.18.189.189,0,0,1-.158-.1l-3.116-5.712-6.916-2.548Z" fill="#fa6d61"/>
            <path id="Trazado_914227" data-name="Trazado 914227" d="M268.7,161.562l-7.18,1.4a1.259,1.259,0,0,0-1.015,1.318l.561,8.582a.191.191,0,0,0,.2.18.189.189,0,0,0,.158-.1l3.116-5.712,6.916-2.548Z" fill="#fa6d61"/>
            <path id="Trazado_914228" data-name="Trazado 914228" d="M327.275,262.751c-.53,7.17-1.42,18.89-2.54,31.52h-20.75c-.29-3.68-.58-7.34-.86-10.92-.87-10.82-1.68-20.83-2.29-27.85,0,0-.57-1.66-1.52-4.51-5.27-15.83-22.41-68.38-20.06-76.49,0,0-.69-3.67,1.81-4.9h.01a3.21,3.21,0,0,1,.85-.31,6.055,6.055,0,0,1,1.35-.1c4.75.18,31.69,29.85,42.65,77.36.05.18.09.37.13.55a53.125,53.125,0,0,1,1.22,15.65" fill="#fff"/>
            <path id="Trazado_914229" data-name="Trazado 914229" d="M292.517,229.918l-8.01-15.582,7.719,24.61Z" fill="#fa6d61"/>
            <path id="Trazado_914230" data-name="Trazado 914230" d="M321.315,294.271h-.88a259.1,259.1,0,0,0-1.15-47.72c-1.48-11.86-3.84-21.36-6.7-27.07-3.55-7.1-11.86-20.21-19.51-31.87-4.65-7.1-9.05-13.67-12-18.01-.55-.82-1.05-1.57-1.49-2.21.5.2,1,.42,1.49.64.27.4.55.82.85,1.26,2.76,4.08,6.76,10.04,11.04,16.55,7.89,12,16.7,25.86,20.41,33.26,2.89,5.79,5.28,15.42,6.78,27.45a260.933,260.933,0,0,1,1.16,47.72" fill="#fa6d61"/>
            <path id="Trazado_914231" data-name="Trazado 914231" d="M232.955,217.1v.02c-1.8,6.04-3.67,12-5.38,17.36v.01c-3.82,12.02-6.89,21.01-6.89,21.01-.52,6.06-1.2,14.35-1.94,23.47-.39,4.93-.8,10.11-1.22,15.3h-20.73c-1.12-12.63-2.02-24.35-2.55-31.52a53.392,53.392,0,0,1,1.21-15.64c8.73-38.34,27.83-65.43,37.53-74.77a27.62,27.62,0,0,1,2.73-2.34,5.291,5.291,0,0,1,2.44-1.23c5.05-.18,4.1,5.73,4.1,5.73,1.36,4.66-3.72,23.99-9.3,42.6" fill="#fff"/>
            <path id="Trazado_914232" data-name="Trazado 914232" d="M227.568,234.286l5.388-17.184-4.806,27.669Z" fill="#fa6d61"/>
            <path id="Trazado_914233" data-name="Trazado 914233" d="M201.125,239.261c-3.17,14.6-2.96,35.57-1.64,55.01h-.87c-1.32-19.49-1.53-40.53,1.66-55.2,5.47-25.16,23.17-53.01,32.71-66.73a27.62,27.62,0,0,1,2.73-2.34c-8.78,12.29-28.74,42.36-34.59,69.26" fill="#fa6d61"/>
            <path id="Trazado_914234" data-name="Trazado 914234" d="M235.012,167.005a8.214,8.214,0,0,0-4.159,7.215c.043,4.359.294,10.146,1.316,10.67,1.658.85,2.776-3.37,2.776-3.37s1.706,6.88,2.841,7.242.5-7.735.5-7.735,2.583,6.889,3.563,7.448-.129-8.772-.129-8.772,3.613,6.922,4.754,6.846-3.215-15.864-3.215-15.864,6.98-.718,5.265-2.424a17.71,17.71,0,0,0-4.932-2.576,8.261,8.261,0,0,0-7.115.488Z" fill="#a3c9f1"/>
          </g>
        </g>
      </g>
    </g>
  </g>
</svg>
