<svg xmlns="http://www.w3.org/2000/svg" xmlns:xlink="http://www.w3.org/1999/xlink" width="102.38" height="102.38" viewBox="0 0 102.38 102.38">
  <defs>
    <clipPath id="clip-path">
      <rect id="Rectángulo_403358" data-name="Rectángulo 403358" width="51.819" height="64.324" fill="none"/>
    </clipPath>
  </defs>
  <g id="Grupo_1102226" data-name="Grupo 1102226" transform="translate(-397.051 -6817.098)">
    <circle id="Elipse_11585" data-name="Elipse 11585" cx="49.69" cy="49.69" r="49.69" transform="translate(398.551 6818.598)" fill="#efedee" stroke="#007dfe" stroke-miterlimit="10" stroke-width="3"/>
    <g id="Grupo_1101720" data-name="Grupo 1101720" transform="translate(422 6836.125)">
      <g id="Grupo_1101719" data-name="Grupo 1101719" transform="translate(0)" clip-path="url(#clip-path)">
        <path id="Trazado_912466" data-name="Trazado 912466" d="M118.789,147.277h-7.4a.907.907,0,0,1,0-1.815h7.4a.907.907,0,1,1,0,1.815" transform="translate(-67.878 -89.373)" fill="#6b8be8"/>
        <path id="Trazado_912467" data-name="Trazado 912467" d="M21.638,151.5a.907.907,0,0,1,0-1.815l25.377-.049h0a.907.907,0,0,1,0,1.815L21.64,151.5Z" transform="translate(-12.737 -91.937)" fill="#6b8be8"/>
        <path id="Trazado_912468" data-name="Trazado 912468" d="M88.663,163.927H71.9a.907.907,0,0,1,0-1.815H88.663a.907.907,0,0,1,0,1.815" transform="translate(-43.616 -99.603)" fill="#6b8be8"/>
        <path id="Trazado_912469" data-name="Trazado 912469" d="M29.9,6.341l3.893,1.9C25.419,28.092,3.821,26.365,3.821,26.365c20.986,4.569,29.224-6.358,34.437-15.219l3.814,2.288L40.138,2Z" transform="translate(-2.348 -1.228)" fill="#007dfe"/>
        <path id="Trazado_912470" data-name="Trazado 912470" d="M11.848,26.983a44.6,44.6,0,0,1-9.42-1.093.771.771,0,0,1,.225-1.522s.461.035,1.249.035c4.74,0,20.584-1.24,27.662-17.021l-3.23-1.576a.771.771,0,0,1,.037-1.4L38.608.061A.772.772,0,0,1,39.67.642l1.916,11.329a.775.775,0,0,1,.036.235.759.759,0,0,1-.775.771.836.836,0,0,1-.4-.11L37.3,10.977C32.467,19,25.6,26.983,11.848,26.983m-1.823-1.59q.928.048,1.823.048c13.318,0,19.654-7.649,24.516-15.914a.771.771,0,0,1,1.062-.27L39.8,10.683,38.311,1.862l-7.779,3.3L32.9,6.32a.771.771,0,0,1,.372.993c-5.364,12.714-15.994,16.8-23.251,18.08" transform="translate(-1.119 0)"/>
        <rect id="Rectángulo_403355" data-name="Rectángulo 403355" width="12.116" height="13.217" rx="6.058" transform="translate(0.771 37.096)" fill="#fa6d61"/>
        <path id="Trazado_912471" data-name="Trazado 912471" d="M9.8,108.965H3.856A3.86,3.86,0,0,1,0,105.109V98.061a3.86,3.86,0,0,1,3.856-3.856H9.8a3.86,3.86,0,0,1,3.856,3.856v7.048A3.86,3.86,0,0,1,9.8,108.965M3.856,95.747a2.316,2.316,0,0,0-2.314,2.314v7.048a2.316,2.316,0,0,0,2.314,2.314H9.8a2.316,2.316,0,0,0,2.314-2.314V98.061A2.316,2.316,0,0,0,9.8,95.747Z" transform="translate(0 -57.881)"/>
        <rect id="Rectángulo_403356" data-name="Rectángulo 403356" width="12.116" height="19.825" rx="6.058" transform="translate(16.521 30.487)" fill="#fa6d61"/>
        <path id="Trazado_912472" data-name="Trazado 912472" d="M50.649,98.435H44.7a3.86,3.86,0,0,1-3.856-3.856V80.923A3.86,3.86,0,0,1,44.7,77.067h5.947a3.86,3.86,0,0,1,3.856,3.856V94.579a3.86,3.86,0,0,1-3.856,3.856M44.7,78.609a2.316,2.316,0,0,0-2.314,2.314V94.579A2.316,2.316,0,0,0,44.7,96.892h5.947a2.316,2.316,0,0,0,2.314-2.314V80.923a2.316,2.316,0,0,0-2.314-2.314Z" transform="translate(-25.097 -47.351)"/>
        <rect id="Rectángulo_403357" data-name="Rectángulo 403357" width="12.116" height="27.755" rx="6.058" transform="translate(32.271 22.558)" fill="#fa6d61"/>
        <path id="Trazado_912473" data-name="Trazado 912473" d="M91.5,85.8H85.549a3.86,3.86,0,0,1-3.856-3.856V60.36A3.86,3.86,0,0,1,85.549,56.5H91.5a3.86,3.86,0,0,1,3.856,3.856V81.945A3.86,3.86,0,0,1,91.5,85.8M85.549,58.046a2.316,2.316,0,0,0-2.314,2.314V81.945a2.316,2.316,0,0,0,2.314,2.314H91.5a2.316,2.316,0,0,0,2.314-2.314V60.36A2.316,2.316,0,0,0,91.5,58.046Z" transform="translate(-50.193 -34.717)"/>
      </g>
    </g>
  </g>
</svg>
