<svg xmlns="http://www.w3.org/2000/svg" xmlns:xlink="http://www.w3.org/1999/xlink" width="102.38" height="102.38" viewBox="0 0 102.38 102.38">
  <defs>
    <clipPath id="clip-path">
      <rect id="Rectángulo_403360" data-name="Rectángulo 403360" width="48.172" height="67.631" fill="none"/>
    </clipPath>
  </defs>
  <g id="Grupo_1102227" data-name="Grupo 1102227" transform="translate(-749.047 -6817.098)">
    <circle id="Elipse_11584" data-name="Elipse 11584" cx="49.69" cy="49.69" r="49.69" transform="translate(750.547 6818.598)" fill="#efedee" stroke="#007dfe" stroke-miterlimit="10" stroke-width="3"/>
    <g id="Grupo_1101724" data-name="Grupo 1101724" transform="translate(776.045 6836.804)">
      <g id="Grupo_1101723" data-name="Grupo 1101723" clip-path="url(#clip-path)">
        <path id="Trazado_912516" data-name="Trazado 912516" d="M64.133,150.45H29.486a.958.958,0,0,1,0-1.916H64.133a.958.958,0,0,1,0,1.916" transform="translate(-16.918 -88.085)" fill="#6b8be8"/>
        <path id="Trazado_912517" data-name="Trazado 912517" d="M18.654,163.392H.958a.957.957,0,1,1,0-1.915h17.7a.957.957,0,1,1,0,1.915" transform="translate(0 -95.761)" fill="#6b8be8"/>
        <path id="Trazado_912518" data-name="Trazado 912518" d="M28.437,59.532a8.415,8.415,0,1,0,8.415,8.414,8.425,8.425,0,0,0-8.415-8.414" transform="translate(-11.874 -35.304)" fill="#007dfe"/>
        <path id="Trazado_912519" data-name="Trazado 912519" d="M27.251,75.99a9.229,9.229,0,1,1,9.229-9.23,9.24,9.24,0,0,1-9.229,9.23m0-16.83a7.6,7.6,0,1,0,7.6,7.6,7.61,7.61,0,0,0-7.6-7.6" transform="translate(-10.688 -34.118)"/>
        <path id="Trazado_912520" data-name="Trazado 912520" d="M82.807,108.452c-1.216-.823-2.238,1.444-3.267,1.684-.079.017-.158.033-.238.047a6.8,6.8,0,0,1-.778.092c-.145.01-.289.016-.435.016a6.962,6.962,0,0,1-1.629-.195l.01.015a7.949,7.949,0,0,1-2.674-1.239l-.053-.106q-.209-.167-.406-.35l-.055.048a9.78,9.78,0,0,0-1.751,2.011,22.176,22.176,0,0,1,1.516,6.515H86.532c-.566-6.031-3.076-8.1-3.725-8.541" transform="translate(-42.42 -64.209)" fill="#fa6d61"/>
        <path id="Trazado_912521" data-name="Trazado 912521" d="M85.94,117.02H72.453a.407.407,0,0,1-.4-.369,21.937,21.937,0,0,0-1.486-6.4.408.408,0,0,1,.036-.382,10.21,10.21,0,0,1,1.824-2.093l.056-.048a.407.407,0,0,1,.544.011q.184.172.381.328a.412.412,0,0,1,.11.136l.007.015a7.515,7.515,0,0,0,2.349,1.091.476.476,0,0,1,.093.011,6.539,6.539,0,0,0,1.943.168,6.449,6.449,0,0,0,.734-.087c.075-.013.15-.029.224-.045a7.676,7.676,0,0,0,3.093-1.6.407.407,0,0,1,.486-.022c.77.521,3.327,2.7,3.9,8.84a.408.408,0,0,1-.405.445m-13.118-.814H85.488c-.563-4.949-2.5-6.99-3.267-7.62a8.333,8.333,0,0,1-3.182,1.567c-.091.02-.175.037-.26.052a7.082,7.082,0,0,1-.824.1,7.31,7.31,0,0,1-2.072-.163.341.341,0,0,1-.1-.011,8.317,8.317,0,0,1-2.814-1.3.406.406,0,0,1-.127-.148l-.014-.027-.081-.068a9.472,9.472,0,0,0-1.348,1.562,22.662,22.662,0,0,1,1.425,6.061" transform="translate(-41.827 -63.829)"/>
        <path id="Trazado_912522" data-name="Trazado 912522" d="M33.658,107.028a10.015,10.015,0,0,0-3.3-4.529,10.4,10.4,0,0,1-4.225,2.178c-.1.022-.2.043-.307.061a8.723,8.723,0,0,1-1.006.119c-.187.013-.374.021-.562.021a9.04,9.04,0,0,1-2.107-.251l.013.02a10.258,10.258,0,0,1-3.458-1.6l-.07-.137q-.27-.216-.524-.452l-.072.062c-3.8,3.287-4.8,8.359-5.068,11.026h22.2a22.167,22.167,0,0,0-1.517-6.516" transform="translate(-7.692 -60.76)" fill="#007dfe"/>
        <path id="Trazado_912523" data-name="Trazado 912523" d="M33.988,113.171h-22.2a.814.814,0,0,1-.81-.894c.28-2.832,1.347-8.1,5.346-11.561l.075-.065a.814.814,0,0,1,1.085.023c.153.143.312.28.476.411a.807.807,0,0,1,.192.221,9.389,9.389,0,0,0,2.859,1.322.786.786,0,0,1,.146.021,8.263,8.263,0,0,0,3.345.1c.094-.016.186-.036.278-.056a9.652,9.652,0,0,0,3.88-2.012.813.813,0,0,1,.972-.044,10.787,10.787,0,0,1,3.6,4.889,23.138,23.138,0,0,1,1.576,6.754.813.813,0,0,1-.81.89M12.7,111.543H33.08a20.643,20.643,0,0,0-1.36-5.387,10.316,10.316,0,0,0-2.551-3.811,10.964,10.964,0,0,1-4.04,1.938c-.127.027-.24.05-.353.07a9.636,9.636,0,0,1-1.1.13,9.815,9.815,0,0,1-2.727-.21.792.792,0,0,1-.17-.022,11.045,11.045,0,0,1-3.738-1.73.841.841,0,0,1-.143-.131c-2.823,2.745-3.837,6.6-4.2,9.153" transform="translate(-6.505 -59.574)"/>
        <path id="Trazado_912524" data-name="Trazado 912524" d="M77.163,88.094a6.507,6.507,0,1,0-6.507-6.508,6.516,6.516,0,0,0,6.507,6.508" transform="translate(-41.901 -44.524)" fill="#fa6d61"/>
        <path id="Trazado_912525" data-name="Trazado 912525" d="M76.57,87.908a6.914,6.914,0,1,1,6.915-6.915,6.922,6.922,0,0,1-6.915,6.915m0-13.015a6.1,6.1,0,1,0,6.1,6.1,6.107,6.107,0,0,0-6.1-6.1" transform="translate(-41.308 -43.931)"/>
        <path id="Trazado_912526" data-name="Trazado 912526" d="M63.142,39.121v2.912a1.39,1.39,0,0,0,1.389,1.391h6.857L73.457,45.8l-.187-2.379h4.122a1.391,1.391,0,0,0,1.389-1.391V33.749a1.39,1.39,0,0,0-1.389-1.39H72.28v4.37a2.4,2.4,0,0,1-2.393,2.393Z" transform="translate(-37.445 -19.19)" fill="#fa6d61"/>
        <path id="Trazado_912527" data-name="Trazado 912527" d="M72.864,45.618a.407.407,0,0,1-.307-.14L70.61,43.238H63.938a1.8,1.8,0,0,1-1.8-1.8V38.528a.407.407,0,0,1,.407-.407h6.745a1.988,1.988,0,0,0,1.986-1.986v-4.37a.407.407,0,0,1,.407-.407H76.8a1.8,1.8,0,0,1,1.8,1.8V41.44a1.8,1.8,0,0,1-1.8,1.8H73.117l.146,1.86a.407.407,0,0,1,.016.112.4.4,0,0,1-.41.407Zm-9.908-6.682V41.44a.984.984,0,0,0,.982.984H70.8a.407.407,0,0,1,.307.14l1.259,1.448-.09-1.149a.406.406,0,0,1,.406-.439H76.8a.984.984,0,0,0,.982-.984V33.156a.984.984,0,0,0-.982-.983H72.094v3.963a2.8,2.8,0,0,1-2.8,2.8Z" transform="translate(-36.852 -18.597)"/>
        <path id="Trazado_912528" data-name="Trazado 912528" d="M37.68,2H15.2a2.221,2.221,0,0,0-2.22,2.222v12.1a2.219,2.219,0,0,0,2.22,2.22h9.036l-.3,3.8,3.3-3.8H37.68a2.221,2.221,0,0,0,2.221-2.22V4.222A2.222,2.222,0,0,0,37.68,2" transform="translate(-7.699 -1.186)" fill="#007dfe"/>
        <path id="Trazado_912529" data-name="Trazado 912529" d="M22.753,21.977a.814.814,0,0,1-.811-.877l.23-2.925H14.016a3.037,3.037,0,0,1-3.034-3.034V3.036A3.038,3.038,0,0,1,14.016,0H36.494a3.039,3.039,0,0,1,3.035,3.036v12.1a3.038,3.038,0,0,1-3.035,3.034H26.43L23.368,21.7a.813.813,0,0,1-.615.28M14.016,1.628A1.409,1.409,0,0,0,12.61,3.036v12.1a1.408,1.408,0,0,0,1.406,1.406h9.036a.814.814,0,0,1,.811.877l-.1,1.343,1.686-1.94a.814.814,0,0,1,.614-.28H36.494A1.408,1.408,0,0,0,37.9,15.14V3.036a1.409,1.409,0,0,0-1.407-1.408Z" transform="translate(-6.513)"/>
        <path id="Trazado_912530" data-name="Trazado 912530" d="M41.345,14.277H24.19a.814.814,0,1,1,0-1.628H41.345a.814.814,0,0,1,0,1.628" transform="translate(-13.863 -7.501)" fill="#fff"/>
        <path id="Trazado_912531" data-name="Trazado 912531" d="M41.345,26H24.19a.814.814,0,1,1,0-1.628H41.345a.814.814,0,0,1,0,1.628" transform="translate(-13.863 -14.454)" fill="#fff"/>
      </g>
    </g>
  </g>
</svg>
