<svg xmlns="http://www.w3.org/2000/svg" xmlns:xlink="http://www.w3.org/1999/xlink" width="102.38" height="102.38" viewBox="0 0 102.38 102.38">
  <defs>
    <clipPath id="clip-path">
      <rect id="Rectángulo_403363" data-name="Rectángulo 403363" width="67.171" height="55.93" fill="none"/>
    </clipPath>
  </defs>
  <g id="Grupo_1102228" data-name="Grupo 1102228" transform="translate(-1101.102 -6817.098)">
    <circle id="Elipse_11583" data-name="Elipse 11583" cx="49.69" cy="49.69" r="49.69" transform="translate(1102.602 6818.598)" fill="#efedee" stroke="#007dfe" stroke-miterlimit="10" stroke-width="3"/>
    <g id="Grupo_1101730" data-name="Grupo 1101730" transform="translate(1119.102 6844.519)">
      <g id="Grupo_1101729" data-name="Grupo 1101729" clip-path="url(#clip-path)">
        <path id="Trazado_912554" data-name="Trazado 912554" d="M79.455,124.26H60.289a1.037,1.037,0,1,1,0-2.074H79.455a1.037,1.037,0,1,1,0,2.074" transform="translate(-33.135 -68.33)" fill="#6b8be8"/>
        <path id="Trazado_912555" data-name="Trazado 912555" d="M93.221,110.495a1.037,1.037,0,0,1,0-2.074l19.732-.038h0a1.037,1.037,0,0,1,0,2.075l-19.732.038Z" transform="translate(-51.551 -60.61)" fill="#6b8be8"/>
        <path id="Trazado_912556" data-name="Trazado 912556" d="M112.441,20.152a9.076,9.076,0,1,0-8.609-11.928,10.966,10.966,0,0,1,1.023,7.821,9.071,9.071,0,0,0,7.586,4.108" transform="translate(-58.066 -1.118)" fill="#fa6d61"/>
        <path id="Trazado_912557" data-name="Trazado 912557" d="M111.323,19.915A9.939,9.939,0,0,1,103,15.41a.882.882,0,0,1-.121-.687,10.08,10.08,0,0,0-.941-7.2.881.881,0,0,1-.061-.7,9.954,9.954,0,1,1,9.446,13.087m-6.643-5.173a8.192,8.192,0,1,0-1.007-7.7,11.993,11.993,0,0,1,1.254,5.333,11.86,11.86,0,0,1-.247,2.369" transform="translate(-56.947)"/>
        <path id="Trazado_912558" data-name="Trazado 912558" d="M123.183,57.136c-.307-9.164-5.329-12.489-5.329-12.489s-.16.142-.242.212l-.119.1a10.978,10.978,0,0,1-4.909,2.148c-.234.033-.465.069-.7.085-.2.012-.4.019-.607.019a9.708,9.708,0,0,1-2.149-.244,11.707,11.707,0,0,1-4.339-2.247c-.045-.04-.094-.078-.138-.119l-.077.067a13.391,13.391,0,0,0-2.81,3.4c1.529,1.408,4.784,5.388,5.411,13.063a36.668,36.668,0,0,0,3.934.21c6.676,0,12.087-1.7,12.087-3.8,0-.029-.011-.056-.013-.084h.018Z" transform="translate(-56.907 -24.942)" fill="#fa6d61"/>
        <path id="Trazado_912559" data-name="Trazado 912559" d="M109.986,61.1a37.545,37.545,0,0,1-4.029-.215.882.882,0,0,1-.784-.8c-.636-7.79-4.087-11.526-5.129-12.486a.881.881,0,0,1-.156-1.107,14.287,14.287,0,0,1,2.986-3.609l.078-.068a.883.883,0,0,1,1.183.027l.116.1a10.773,10.773,0,0,0,3.972,2.053,8.941,8.941,0,0,0,2.486.2c.18-.011.359-.038.539-.064l.094-.013a10.125,10.125,0,0,0,4.485-1.965l.1-.082c.075-.064.226-.2.227-.2a.881.881,0,0,1,1.072-.075c.22.146,5.4,3.685,5.723,13.194l.013.314a.9.9,0,0,1,0,.124c0,3.071-6.527,4.678-12.969,4.678m-3.124-1.9c1.028.089,2.076.135,3.124.135,7.136,0,11.08-1.867,11.2-2.87,0-.02-.005-.038-.007-.051a.884.884,0,0,1,.007-.219l-.006-.145a17.782,17.782,0,0,0-2.58-9.149,11.177,11.177,0,0,0-1.862-2.238A11.817,11.817,0,0,1,111.6,46.86l-.1.015c-.226.032-.45.063-.681.078a10.734,10.734,0,0,1-3.008-.245,12.571,12.571,0,0,1-4.249-2.069,11.894,11.894,0,0,0-1.8,2.18c1.611,1.686,4.371,5.507,5.1,12.386" transform="translate(-55.789 -23.824)"/>
        <path id="Trazado_912560" data-name="Trazado 912560" d="M18.325,3a9.076,9.076,0,1,0,7.624,13.98,10.947,10.947,0,0,1,1.008-7.694A9.089,9.089,0,0,0,18.325,3" transform="translate(-5.173 -1.678)" fill="#fa6d61"/>
        <path id="Trazado_912561" data-name="Trazado 912561" d="M17.208,20.916A9.957,9.957,0,1,1,26.679,7.9a.881.881,0,0,1-.06.687,10.066,10.066,0,0,0-.928,7.08.883.883,0,0,1-.118.677,9.926,9.926,0,0,1-8.365,4.575m0-18.152a8.194,8.194,0,1,0,6.683,12.917,11.811,11.811,0,0,1-.234-2.309A11.981,11.981,0,0,1,24.885,8.1a8.175,8.175,0,0,0-7.677-5.339" transform="translate(-4.055 -0.56)"/>
        <path id="Trazado_912562" data-name="Trazado 912562" d="M14.093,61.275a36.373,36.373,0,0,0,3.889-.205c.221-2.726.824-8.517,5.462-12.97a14.041,14.041,0,0,0-2.589-3.571s-.16.142-.241.212l-.121.1a10.962,10.962,0,0,1-4.908,2.149c-.234.032-.464.068-.7.082-.2.014-.4.022-.607.022a9.718,9.718,0,0,1-2.151-.245A11.712,11.712,0,0,1,7.786,44.6c-.045-.04-.093-.077-.138-.119l-.078.067C1.922,49.437,1.994,56.727,2,57.089l.005.3h.012c0,.028-.014.055-.014.084,0,2.1,5.413,3.8,12.089,3.8" transform="translate(-1.118 -24.876)" fill="#fa6d61"/>
        <path id="Trazado_912563" data-name="Trazado 912563" d="M12.975,61.038C6.529,61.038,0,59.43,0,56.357c0-.02,0-.04,0-.058v-.011L0,55.985c-.014-.822.035-8.168,5.875-13.221l.083-.071a.882.882,0,0,1,1.181.034l.116.1a10.783,10.783,0,0,0,3.969,2.051,8.723,8.723,0,0,0,2.479.2c.182-.011.349-.035.517-.059L14.347,45a10.1,10.1,0,0,0,4.479-1.965l.326-.283a.883.883,0,0,1,1.159-.008,14.821,14.821,0,0,1,2.784,3.81.882.882,0,0,1-.159,1.065c-4.542,4.362-5.016,10.206-5.194,12.406a.881.881,0,0,1-.785.8,37.278,37.278,0,0,1-3.984.211M1.77,56.4c.123,1,4.068,2.87,11.2,2.87,1.037,0,2.067-.044,3.074-.13a20.139,20.139,0,0,1,5.176-12.309,16.26,16.26,0,0,0-1.563-2.224A11.809,11.809,0,0,1,14.6,46.742l-.139.019c-.216.03-.43.06-.651.072a10.569,10.569,0,0,1-3-.243A12.571,12.571,0,0,1,6.562,44.52a16.615,16.615,0,0,0-4.8,11.436l0,.164a.813.813,0,0,1,.014.194c0,.024,0,.057-.009.091" transform="translate(0 -23.758)"/>
        <path id="Trazado_912564" data-name="Trazado 912564" d="M53.111,15.443a9.931,9.931,0,1,0,9.93-9.93,9.941,9.941,0,0,0-9.93,9.93" transform="translate(-29.701 -3.083)" fill="#007dfe"/>
        <path id="Trazado_912565" data-name="Trazado 912565" d="M61.923,25.135a10.811,10.811,0,1,1,10.812-10.81,10.824,10.824,0,0,1-10.812,10.81m0-19.859a9.048,9.048,0,1,0,9.049,9.048,9.059,9.059,0,0,0-9.049-9.048" transform="translate(-28.583 -1.965)"/>
        <path id="Trazado_912566" data-name="Trazado 912566" d="M71.625,66.139C71.289,56.111,65.8,52.294,65.8,52.294l-.264.231-.13.109a11.98,11.98,0,0,1-5.372,2.352c-.254.035-.508.075-.768.092-.22.014-.441.023-.664.023a10.646,10.646,0,0,1-2.354-.268,12.821,12.821,0,0,1-4.747-2.46c-.049-.044-.1-.085-.151-.13l-.085.074c-6.181,5.347-6.1,13.445-6.09,13.842l.007.331H45.2c0,.031-.015.061-.015.093,0,2.3,5.92,4.157,13.228,4.157s13.226-1.862,13.226-4.157c0-.031-.012-.061-.015-.093h.018Z" transform="translate(-25.264 -29.216)" fill="#007dfe"/>
        <path id="Trazado_912567" data-name="Trazado 912567" d="M57.291,70.5c-7.011,0-14.109-1.731-14.109-5.038,0-.021,0-.042,0-.061v-.015l-.007-.331c-.015-.911.039-9.028,6.4-14.527l.086-.074a.883.883,0,0,1,1.175.02l.141.121a11.928,11.928,0,0,0,4.376,2.262,9.744,9.744,0,0,0,2.744.219c.182-.011.361-.037.539-.062l.168-.023a11.072,11.072,0,0,0,4.939-2.168l.361-.312a.882.882,0,0,1,1.087-.063c.239.166,5.855,4.189,6.2,14.539l.013.347a.906.906,0,0,1,0,.1v.022c0,3.308-7.1,5.038-14.108,5.038M44.948,65.516c.124,1.155,4.357,3.225,12.343,3.225S69.5,66.674,69.633,65.518a.7.7,0,0,1-.009-.074.891.891,0,0,1,.008-.214l-.007-.175c-.257-7.682-3.64-11.529-4.941-12.73a12.994,12.994,0,0,1-5.63,2.414l-.179.026c-.222.031-.445.062-.673.076a11.546,11.546,0,0,1-3.267-.265,13.723,13.723,0,0,1-4.674-2.293c-5.384,5.058-5.328,12.424-5.324,12.744l0,.183a.854.854,0,0,1,.014.235c0,.019,0,.045-.009.072" transform="translate(-24.145 -28.098)"/>
      </g>
    </g>
  </g>
</svg>
