<svg xmlns="http://www.w3.org/2000/svg" xmlns:xlink="http://www.w3.org/1999/xlink" width="102.38" height="102.38" viewBox="0 0 102.38 102.38">
  <defs>
    <clipPath id="clip-path">
      <rect id="Rectángulo_403361" data-name="Rectángulo 403361" width="42.022" height="60.285" fill="none"/>
    </clipPath>
  </defs>
  <g id="Grupo_1102229" data-name="Grupo 1102229" transform="translate(-397.051 -7246.631)">
    <circle id="Elipse_11582" data-name="Elipse 11582" cx="49.69" cy="49.69" r="49.69" transform="translate(398.551 7248.131)" fill="#efedee" stroke="#007dfe" stroke-miterlimit="10" stroke-width="3"/>
    <g id="Grupo_1101726" data-name="Grupo 1101726" transform="translate(426 7269.003)">
      <g id="Grupo_1101725" data-name="Grupo 1101725" transform="translate(0)" clip-path="url(#clip-path)">
        <path id="Trazado_912532" data-name="Trazado 912532" d="M13.333,60.177a2.462,2.462,0,0,1-2.565,2.344h-6.2A2.462,2.462,0,0,1,2,60.177V36.728a2.462,2.462,0,0,1,2.565-2.343h6.2a2.462,2.462,0,0,1,2.565,2.343Z" transform="translate(-1.268 -21.807)" fill="#007dfe"/>
        <path id="Trazado_912533" data-name="Trazado 912533" d="M9.5,61.984H3.3A3.2,3.2,0,0,1,0,58.909V35.46a3.2,3.2,0,0,1,3.3-3.075H9.5a3.2,3.2,0,0,1,3.3,3.075V58.909a3.2,3.2,0,0,1-3.3,3.075M3.3,33.848A1.735,1.735,0,0,0,1.463,35.46V58.909A1.735,1.735,0,0,0,3.3,60.521H9.5a1.735,1.735,0,0,0,1.833-1.612V35.46A1.735,1.735,0,0,0,9.5,33.848Z" transform="translate(0 -20.539)"/>
        <path id="Trazado_912534" data-name="Trazado 912534" d="M92.11,38.653c0,1.839-1.148,3.33-2.565,3.33h-6.2c-1.416,0-2.565-1.491-2.565-3.33V5.331c0-1.839,1.148-3.33,2.565-3.33h6.2c1.417,0,2.565,1.491,2.565,3.33Z" transform="translate(-51.229 -1.269)" fill="#fa6d61"/>
        <path id="Trazado_912535" data-name="Trazado 912535" d="M88.277,41.445h-6.2c-1.818,0-3.3-1.822-3.3-4.062V4.062c0-2.24,1.479-4.062,3.3-4.062h6.2c1.818,0,3.3,1.822,3.3,4.062V37.383c0,2.24-1.479,4.062-3.3,4.062m-6.2-39.982c-.993,0-1.833,1.19-1.833,2.6V37.383c0,1.409.84,2.6,1.833,2.6h6.2c.994,0,1.833-1.19,1.833-2.6V4.062c0-1.409-.84-2.6-1.833-2.6Z" transform="translate(-49.961)"/>
        <path id="Trazado_912536" data-name="Trazado 912536" d="M52.165,77.511c0,.856-1.148,1.549-2.565,1.549H43.4c-1.416,0-2.564-.693-2.564-1.549v-15.5c0-.855,1.148-1.549,2.564-1.549h6.2c1.417,0,2.565.694,2.565,1.549Z" transform="translate(-25.896 -38.347)" fill="#fa6d61"/>
        <path id="Trazado_912537" data-name="Trazado 912537" d="M48.331,78.523h-6.2c-1.848,0-3.3-1-3.3-2.28v-15.5c0-1.278,1.448-2.28,3.3-2.28h6.2c1.848,0,3.3,1,3.3,2.28v15.5c0,1.279-1.448,2.28-3.3,2.28m-6.2-18.6c-1.1,0-1.833.492-1.833.817v15.5c0,.325.731.817,1.833.817h6.2c1.1,0,1.833-.492,1.833-.817v-15.5c0-.325-.731-.817-1.833-.817Z" transform="translate(-24.627 -37.078)"/>
        <path id="Trazado_912538" data-name="Trazado 912538" d="M49.242,160.1H33.336a.861.861,0,1,0,0,1.721H49.242a.861.861,0,1,0,0-1.721" transform="translate(-20.596 -101.536)" fill="#4b96e3"/>
        <path id="Trazado_912539" data-name="Trazado 912539" d="M82.643,146.3h0l-16.376.031a.861.861,0,0,0,0,1.722h0l16.375-.031a.861.861,0,0,0,0-1.722" transform="translate(-41.481 -92.782)" fill="#4b96e3"/>
        <path id="Trazado_912540" data-name="Trazado 912540" d="M43.258,119.355a1.641,1.641,0,0,0-1.71-1.56H5.459a1.567,1.567,0,1,0,0,3.122H41.548a1.641,1.641,0,0,0,1.71-1.561" transform="translate(-2.378 -74.706)"/>
      </g>
    </g>
  </g>
</svg>
