<svg xmlns="http://www.w3.org/2000/svg" xmlns:xlink="http://www.w3.org/1999/xlink" width="107.288" height="104.017" viewBox="0 0 107.288 104.017">
  <defs>
    <clipPath id="clip-path">
      <rect id="Rectángulo_403367" data-name="Rectángulo 403367" width="100.122" height="98.975" fill="none"/>
    </clipPath>
  </defs>
  <g id="Grupo_1102227" data-name="Grupo 1102227" transform="translate(-746.356 -617.429)">
    <circle id="Elipse_11611" data-name="Elipse 11611" cx="49.69" cy="49.69" r="49.69" transform="translate(750.31 618.929)" fill="#efedee" stroke="#007dfe" stroke-miterlimit="10" stroke-width="3"/>
    <g id="Grupo_1101816" data-name="Grupo 1101816" transform="translate(746.356 615.387)">
      <path id="Trazado_912661" data-name="Trazado 912661" d="M107.288,100h0Z" transform="translate(0 6.059)" fill="#fff"/>
      <g id="Grupo_1101740" data-name="Grupo 1101740" transform="translate(3.583 3.542)">
        <g id="Grupo_1101739" data-name="Grupo 1101739" clip-path="url(#clip-path)">
          <path id="Trazado_912640" data-name="Trazado 912640" d="M25.264,71.3a2.475,2.475,0,1,1-2.5,2.474,2.465,2.465,0,0,1,2.5-2.474" transform="translate(-0.233 -0.731)" fill="#add1f6"/>
          <path id="Trazado_912641" data-name="Trazado 912641" d="M25.264,21.3a2.475,2.475,0,1,1-2.5,2.474,2.465,2.465,0,0,1,2.5-2.474" transform="translate(-0.233 -0.218)" fill="#add1f6"/>
          <path id="Trazado_912642" data-name="Trazado 912642" d="M75.23,21.3a3.068,3.068,0,1,1-3.1,3.069,3.039,3.039,0,0,1,3.1-3.069" transform="translate(-0.74 -0.218)" fill="#add1f6"/>
          <path id="Trazado_912643" data-name="Trazado 912643" d="M78.026,44.767v9.9l-6.308.495a19.452,19.452,0,0,1-2.4,5.741l4.1,4.751-7.008,6.928-4.805-4.058A19.908,19.908,0,0,1,55.8,70.9l-.5,6.235H45.287l-.5-6.235a19.908,19.908,0,0,1-5.807-2.375l-4.806,4.058-7.008-6.928,4.1-4.751a19.424,19.424,0,0,1-2.4-5.741l-6.308-.495v-9.9l6.308-.495a22.527,22.527,0,0,1,2.4-5.741l-4.1-4.751,7.008-6.928,4.806,4.058a19.908,19.908,0,0,1,5.807-2.375l.5-6.235H55.3l.5,6.235a23.06,23.06,0,0,1,5.807,2.375l4.805-4.058,7.008,6.928-4.1,4.751a19.452,19.452,0,0,1,2.4,5.741ZM66.011,49.716A15.72,15.72,0,1,0,50.292,65.255,15.656,15.656,0,0,0,66.011,49.716" transform="translate(-0.231 -0.229)" fill="#80b7f1"/>
          <path id="Trazado_912644" data-name="Trazado 912644" d="M60.791,49.9H55.785a5.2,5.2,0,0,0-5.206-5.147V39.8A10.2,10.2,0,0,1,60.791,49.9" transform="translate(-0.519 -0.408)" fill="#ff6d60"/>
          <path id="Trazado_912645" data-name="Trazado 912645" d="M50.473,39.8v4.949A5.2,5.2,0,0,0,45.267,49.9H40.262A10.2,10.2,0,0,1,50.473,39.8" transform="translate(-0.413 -0.408)" fill="#ff897e"/>
          <path id="Trazado_912646" data-name="Trazado 912646" d="M77.172,67.5a1.287,1.287,0,1,1,0,2.573,1.392,1.392,0,0,1-1.3-1.287,1.319,1.319,0,0,1,1.3-1.287" transform="translate(-0.778 -0.692)"/>
          <path id="Trazado_912647" data-name="Trazado 912647" d="M75.856,38.8a1.287,1.287,0,1,1-1.3,1.287,1.319,1.319,0,0,1,1.3-1.287" transform="translate(-0.764 -0.398)"/>
          <path id="Trazado_912648" data-name="Trazado 912648" d="M68.269,75a1.287,1.287,0,1,1-1.3,1.287A1.391,1.391,0,0,1,68.269,75" transform="translate(-0.687 -0.769)"/>
          <path id="Trazado_912649" data-name="Trazado 912649" d="M39.237,22.5a1.317,1.317,0,0,1,1.3,1.287,1.3,1.3,0,0,1-1.3,1.188,1.392,1.392,0,0,1-1.3-1.287,1.236,1.236,0,0,1,1.3-1.188" transform="translate(-0.389 -0.231)"/>
          <path id="Trazado_912650" data-name="Trazado 912650" d="M25.277,58.8a1.287,1.287,0,1,1-1.3,1.287,1.319,1.319,0,0,1,1.3-1.287" transform="translate(-0.246 -0.603)"/>
          <path id="Trazado_912651" data-name="Trazado 912651" d="M22.748,38.8a1.287,1.287,0,1,1-1.3,1.287,1.319,1.319,0,0,1,1.3-1.287" transform="translate(-0.22 -0.398)"/>
          <path id="Trazado_912652" data-name="Trazado 912652" d="M55.283,78.305H45.271a1.15,1.15,0,0,1-1.2-1.188l-.4-5.346a22.678,22.678,0,0,1-4.506-1.88l-4.205,3.563a1.255,1.255,0,0,1-1.7-.1l-7.009-6.928a1.221,1.221,0,0,1-.1-1.683l3.5-4.059a22.13,22.13,0,0,1-1.9-4.454l-5.406-.395a1.282,1.282,0,0,1-1.2-1.188v-9.9a1.129,1.129,0,0,1,1.1-1.189l5.406-.395a22.13,22.13,0,0,1,1.9-4.454l-3.3-4.157a1.222,1.222,0,0,1,.1-1.683l7.008-6.928a1.256,1.256,0,0,1,1.7-.1l4.1,3.464a22.623,22.623,0,0,1,4.506-1.881l.4-5.346a1.374,1.374,0,0,1,1.2-1.187H55.283a1.15,1.15,0,0,1,1.2,1.187l.4,5.346a22.614,22.614,0,0,1,4.505,1.881L65.5,25.849a1.255,1.255,0,0,1,1.7.1l7.009,6.928a1.222,1.222,0,0,1,.1,1.683l-3.5,4.057a22.228,22.228,0,0,1,1.9,4.454l5.406.4a1.372,1.372,0,0,1,1.2,1.188v10a1.151,1.151,0,0,1-1.2,1.188l-5.406.395a22.131,22.131,0,0,1-1.9,4.454l3.5,4.059a1.222,1.222,0,0,1-.1,1.683L67.2,73.357a1.255,1.255,0,0,1-1.7.1L61.39,69.991a22.731,22.731,0,0,1-4.505,1.881l-.4,5.344a1.2,1.2,0,0,1-1.2,1.09m-8.811-2.474h7.609l.4-5.049a1.16,1.16,0,0,1,.9-1.088,22.254,22.254,0,0,0,5.506-2.276,1.384,1.384,0,0,1,1.5.1l3.9,3.265L71.7,65.439l-3.4-3.762a1.33,1.33,0,0,1-.1-1.485,20.279,20.279,0,0,0,2.3-5.444,1.169,1.169,0,0,1,1.1-.89l5.106-.4V45.941l-5.206-.4a1.169,1.169,0,0,1-1.1-.89,21.751,21.751,0,0,0-2.3-5.444,1.343,1.343,0,0,1,.1-1.485l3.3-3.86L66.3,28.52l-3.9,3.366a1.221,1.221,0,0,1-1.4.1,22.277,22.277,0,0,0-5.507-2.276,1.161,1.161,0,0,1-.9-1.088l-.4-5.049H46.574l-.4,5.049a1.16,1.16,0,0,1-.9,1.088,22.255,22.255,0,0,0-5.506,2.276,1.211,1.211,0,0,1-1.4-.1L34.257,28.52l-5.406,5.346,3.3,3.86a1.186,1.186,0,0,1,.1,1.385,21.727,21.727,0,0,0-2.3,5.444,1.171,1.171,0,0,1-1.1.892l-5.106.395v7.523l5.106.395a1.171,1.171,0,0,1,1.1.892,21.712,21.712,0,0,0,2.3,5.444,1.176,1.176,0,0,1-.1,1.386l-3.3,4.058,5.406,5.345,3.906-3.267a1.221,1.221,0,0,1,1.4-.1,20.8,20.8,0,0,0,5.507,2.275,1.164,1.164,0,0,1,.9,1.09Z" transform="translate(-0.217 -0.214)"/>
          <path id="Trazado_912653" data-name="Trazado 912653" d="M50.4,66.554A16.728,16.728,0,1,1,67.324,49.827,16.869,16.869,0,0,1,50.4,66.554m0-30.98A14.254,14.254,0,1,0,64.821,49.827,14.338,14.338,0,0,0,50.4,35.574" transform="translate(-0.343 -0.339)"/>
          <path id="Trazado_912654" data-name="Trazado 912654" d="M55.667,51.07a1.226,1.226,0,0,1-.9-.4,1.11,1.11,0,0,1-.3-.792,4.005,4.005,0,0,0-8.01,0,1.207,1.207,0,0,1-.4.891,1.5,1.5,0,0,1-.9.4H40.148a1.233,1.233,0,0,1-1.2-1.287,11.515,11.515,0,0,1,23.028,0,1.383,1.383,0,0,1-1.2,1.287ZM50.46,43.449A6.546,6.546,0,0,1,56.868,48.6h2.5a9.02,9.02,0,0,0-17.821,0h2.5a6.545,6.545,0,0,1,6.408-5.147" transform="translate(-0.399 -0.395)"/>
          <path id="Trazado_912655" data-name="Trazado 912655" d="M50.566,51.169a1.318,1.318,0,0,1-1.3-1.287v-10.1a1.3,1.3,0,0,1,2.6,0v10.1a1.391,1.391,0,0,1-1.3,1.287" transform="translate(-0.505 -0.395)"/>
          <path id="Trazado_912656" data-name="Trazado 912656" d="M59.286,56.273H41.765a1.287,1.287,0,1,1,0-2.573H59.286a1.318,1.318,0,0,1,1.3,1.287,1.391,1.391,0,0,1-1.3,1.287" transform="translate(-0.415 -0.551)"/>
          <path id="Trazado_912657" data-name="Trazado 912657" d="M54.333,59.973H46.824a1.287,1.287,0,1,1,0-2.573h7.509a1.317,1.317,0,0,1,1.3,1.287,1.391,1.391,0,0,1-1.3,1.287" transform="translate(-0.467 -0.589)"/>
          <path id="Trazado_912658" data-name="Trazado 912658" d="M25.251,77.423a3.782,3.782,0,0,1-3.806-3.761A3.7,3.7,0,0,1,25.251,70a3.782,3.782,0,0,1,3.8,3.761,3.7,3.7,0,0,1-3.8,3.662m0-4.949a1.287,1.287,0,1,0,1.3,1.287,1.317,1.317,0,0,0-1.3-1.287" transform="translate(-0.22 -0.718)"/>
          <path id="Trazado_912659" data-name="Trazado 912659" d="M25.251,27.423a3.782,3.782,0,0,1-3.806-3.761A3.7,3.7,0,0,1,25.251,20a3.782,3.782,0,0,1,3.8,3.761,3.7,3.7,0,0,1-3.8,3.662m0-4.949a1.287,1.287,0,1,0,1.3,1.287,1.317,1.317,0,0,0-1.3-1.287" transform="translate(-0.22 -0.205)"/>
          <path id="Trazado_912660" data-name="Trazado 912660" d="M75.216,28.71a4.355,4.355,0,1,1,4.405-4.355,4.418,4.418,0,0,1-4.405,4.355m0-6.235a1.891,1.891,0,0,0-1.9,1.881,1.831,1.831,0,0,0,1.9,1.881,1.881,1.881,0,1,0,0-3.761" transform="translate(-0.726 -0.205)"/>
        </g>
      </g>
    </g>
  </g>
</svg>
