<svg xmlns="http://www.w3.org/2000/svg" xmlns:xlink="http://www.w3.org/1999/xlink" width="102.38" height="102.38" viewBox="0 0 102.38 102.38">
  <defs>
    <clipPath id="clip-path">
      <rect id="Rect치ngulo_403371" data-name="Rect치ngulo 403371" width="101.159" height="100" fill="none"/>
    </clipPath>
  </defs>
  <g id="Grupo_1102229" data-name="Grupo 1102229" transform="translate(-399.257 -920.369)">
    <circle id="Elipse_11613" data-name="Elipse 11613" cx="49.69" cy="49.69" r="49.69" transform="translate(400.757 921.869)" fill="#efedee" stroke="#007dfe" stroke-miterlimit="10" stroke-width="3"/>
    <g id="Grupo_1101818" data-name="Grupo 1101818" transform="translate(399.257 922.249)">
      <path id="Trazado_912721" data-name="Trazado 912721" d="M101.158,100h0Z" fill="#fff"/>
      <path id="Trazado_912693" data-name="Trazado 912693" d="M36.721,22.5V30H29.134V72.5H65.753v-50Z" fill="#f2f6fd"/>
      <g id="Grupo_1101745" data-name="Grupo 1101745">
        <g id="Grupo_1101744" data-name="Grupo 1101744" clip-path="url(#clip-path)">
          <path id="Trazado_912694" data-name="Trazado 912694" d="M23.368,71.3a1.9,1.9,0,1,1,0,3.8,1.849,1.849,0,0,1-1.922-1.9,1.977,1.977,0,0,1,1.922-1.9" fill="#add1f6"/>
          <path id="Trazado_912695" data-name="Trazado 912695" d="M75.869,22.5A2.5,2.5,0,1,1,73.34,25a2.49,2.49,0,0,1,2.529-2.5" fill="#add1f6"/>
          <rect id="Rect치ngulo_403370" data-name="Rect치ngulo 403370" width="19.018" height="6.3" transform="translate(41.778 27.5)" fill="#ffd969"/>
          <path id="Trazado_912696" data-name="Trazado 912696" d="M72.126,30V78.8H35.4V72.5H65.753V30Z" fill="#cfddf9"/>
          <path id="Trazado_912697" data-name="Trazado 912697" d="M36.721,22.5V30H29.134c3.338-3.4,4.148-4.1,7.587-7.5" fill="#cfddf9"/>
          <path id="Trazado_912698" data-name="Trazado 912698" d="M79.713,76.3A1.3,1.3,0,1,1,78.4,77.6a1.268,1.268,0,0,1,1.315-1.3"/>
          <path id="Trazado_912699" data-name="Trazado 912699" d="M75.869,35a1.3,1.3,0,1,1-1.315,1.3A1.406,1.406,0,0,1,75.869,35"/>
          <path id="Trazado_912700" data-name="Trazado 912700" d="M54.423,42.5a1.3,1.3,0,1,1-1.315,1.3,1.331,1.331,0,0,1,1.315-1.3"/>
          <path id="Trazado_912701" data-name="Trazado 912701" d="M30.348,76.3a1.3,1.3,0,1,1-1.315,1.3,1.332,1.332,0,0,1,1.315-1.3"/>
          <path id="Trazado_912702" data-name="Trazado 912702" d="M27.818,22.5a1.331,1.331,0,0,1,1.315,1.3A1.249,1.249,0,0,1,27.818,25,1.331,1.331,0,0,1,26.5,23.7a1.249,1.249,0,0,1,1.315-1.2"/>
          <path id="Trazado_912703" data-name="Trazado 912703" d="M24.076,28.8a1.3,1.3,0,1,1-1.315,1.3,1.268,1.268,0,0,1,1.315-1.3"/>
          <path id="Trazado_912704" data-name="Trazado 912704" d="M24.076,51.3a1.3,1.3,0,1,1-1.315,1.3,1.332,1.332,0,0,1,1.315-1.3"/>
          <path id="Trazado_912705" data-name="Trazado 912705" d="M65.753,73.8H29.134a1.331,1.331,0,0,1-1.315-1.3V30a1.215,1.215,0,0,1,.405-.9l7.586-7.5a1.517,1.517,0,0,1,.911-.4H65.753a1.332,1.332,0,0,1,1.316,1.3v50a1.332,1.332,0,0,1-1.316,1.3m-35.4-2.5H64.539V23.8H37.227l-6.879,6.7Z"/>
          <path id="Trazado_912706" data-name="Trazado 912706" d="M36.721,31.3H29.134a1.3,1.3,0,1,1,0-2.6H35.4V22.4a1.316,1.316,0,0,1,2.631,0V30a1.492,1.492,0,0,1-1.315,1.3"/>
          <path id="Trazado_912707" data-name="Trazado 912707" d="M72.126,80H35.4a1.331,1.331,0,0,1-1.315-1.3V72.4a1.316,1.316,0,0,1,2.631,0v5h34.09V31.3H65.753a1.3,1.3,0,1,1,0-2.6h6.373A1.332,1.332,0,0,1,73.442,30V78.8A1.5,1.5,0,0,1,72.126,80"/>
          <path id="Trazado_912708" data-name="Trazado 912708" d="M60.695,35H41.778a1.331,1.331,0,0,1-1.315-1.3V27.4a1.331,1.331,0,0,1,1.315-1.3H60.695a1.331,1.331,0,0,1,1.315,1.3v6.3A1.331,1.331,0,0,1,60.695,35m-17.7-2.5H59.481V28.7H42.992Z"/>
          <path id="Trazado_912709" data-name="Trazado 912709" d="M48.05,41.3H34.191a1.3,1.3,0,1,1,0-2.6h13.96A1.331,1.331,0,0,1,49.466,40a1.5,1.5,0,0,1-1.416,1.3"/>
          <path id="Trazado_912710" data-name="Trazado 912710" d="M50.579,45H34.191a1.3,1.3,0,1,1,0-2.6H50.579a1.3,1.3,0,1,1,0,2.6"/>
          <path id="Trazado_912711" data-name="Trazado 912711" d="M60.695,48.8h-26.5a1.3,1.3,0,1,1,0-2.6h26.5a1.3,1.3,0,1,1,0,2.6"/>
          <path id="Trazado_912712" data-name="Trazado 912712" d="M60.695,52.5h-26.5a1.3,1.3,0,1,1,0-2.6h26.5a1.3,1.3,0,1,1,0,2.6"/>
          <path id="Trazado_912713" data-name="Trazado 912713" d="M60.695,56.3h-26.5a1.3,1.3,0,1,1,0-2.6h26.5a1.3,1.3,0,1,1,0,2.6"/>
          <path id="Trazado_912714" data-name="Trazado 912714" d="M60.695,60h-26.5a1.3,1.3,0,1,1,0-2.6h26.5a1.3,1.3,0,1,1,0,2.6"/>
          <path id="Trazado_912715" data-name="Trazado 912715" d="M60.695,63.8h-26.5a1.3,1.3,0,1,1,0-2.6h26.5a1.3,1.3,0,1,1,0,2.6"/>
          <path id="Trazado_912716" data-name="Trazado 912716" d="M60.695,67.5h-26.5a1.3,1.3,0,1,1,0-2.6h26.5a1.3,1.3,0,1,1,0,2.6"/>
          <path id="Trazado_912717" data-name="Trazado 912717" d="M23.368,76.3A3.1,3.1,0,1,1,26.5,73.2a3.134,3.134,0,0,1-3.136,3.1m0-3.8a.6.6,0,1,0,.607.6c.1-.3-.2-.6-.607-.6"/>
          <path id="Trazado_912718" data-name="Trazado 912718" d="M75.869,28.8A3.8,3.8,0,1,1,79.713,25a3.821,3.821,0,0,1-3.844,3.8m0-5a1.3,1.3,0,1,0,1.315,1.3,1.268,1.268,0,0,0-1.315-1.3"/>
          <path id="Trazado_912719" data-name="Trazado 912719" d="M75.869,67.5a1.331,1.331,0,0,1-1.315-1.3V40a1.315,1.315,0,0,1,2.63,0V66.3a1.318,1.318,0,0,1-1.315,1.2"/>
          <path id="Trazado_912720" data-name="Trazado 912720" d="M79.713,75A1.331,1.331,0,0,1,78.4,73.7V56.3a1.316,1.316,0,0,1,2.631,0V73.8A1.5,1.5,0,0,1,79.713,75"/>
        </g>
      </g>
    </g>
  </g>
</svg>
