<svg xmlns="http://www.w3.org/2000/svg" xmlns:xlink="http://www.w3.org/1999/xlink" width="102.38" height="102.38" viewBox="0 0 102.38 102.38">
  <defs>
    <clipPath id="clip-path">
      <rect id="Rectángulo_403529" data-name="Rectángulo 403529" width="66.899" height="75.375" fill="none"/>
    </clipPath>
    <linearGradient id="linear-gradient" x1="0.5" x2="0.5" y2="1" gradientUnits="objectBoundingBox">
      <stop offset="0" stop-color="#007dfe"/>
      <stop offset="1" stop-color="#6b8be8"/>
    </linearGradient>
  </defs>
  <g id="Grupo_1102230" data-name="Grupo 1102230" transform="translate(-748.811 -925.102)">
    <circle id="Elipse_11614" data-name="Elipse 11614" cx="49.69" cy="49.69" r="49.69" transform="translate(750.311 926.602)" fill="#efedee" stroke="#007dfe" stroke-miterlimit="10" stroke-width="3"/>
    <g id="Grupo_1101929" data-name="Grupo 1101929" transform="translate(766.551 939.3)">
      <g id="Grupo_1101929-2" data-name="Grupo 1101929" clip-path="url(#clip-path)">
        <path id="Trazado_913222" data-name="Trazado 913222" d="M311.31,252.069l-17.077,9.544v19.2l.963.819a2,2,0,0,0,1-.269l15.334-8.853a2.006,2.006,0,0,0,1-1.737V253.072a2,2,0,0,0-.269-1Z" transform="translate(-261.746 -224.238)" fill="#e39b74"/>
        <path id="Trazado_913223" data-name="Trazado 913223" d="M189.6,272.522l-.312.188-.393.878v19.283l11.59,6.691a2,2,0,0,0,1,.269V279.808l-.374-.872Z" transform="translate(-168.042 -242.432)" fill="#da7e4a"/>
        <path id="Trazado_913224" data-name="Trazado 913224" d="M151.108,274.3V255.9a2.085,2.085,0,0,1,.547-1.407l-4.349-2.423h-1.129a2,2,0,0,0-.269,1v17.706a2.005,2.005,0,0,0,1,1.737l4.319,2.494a2.085,2.085,0,0,1-.123-.7" transform="translate(-129.798 -224.237)" fill="#cb6c35"/>
        <path id="Trazado_913225" data-name="Trazado 913225" d="M268.149,14.932a4.932,4.932,0,1,0-4.932,4.932,4.932,4.932,0,0,0,4.932-4.932" transform="translate(-229.768 -8.896)" fill="#ff5595"/>
        <path id="Trazado_913226" data-name="Trazado 913226" d="M268.149,588.265a4.932,4.932,0,1,0-4.932,4.932,4.932,4.932,0,0,0,4.932-4.932" transform="translate(-229.768 -518.926)" fill="#60b9fe"/>
        <path id="Trazado_913227" data-name="Trazado 913227" d="M17.417,153.988a4.932,4.932,0,1,0,1.805,6.737,4.932,4.932,0,0,0-1.805-6.737" transform="translate(-8.912 -136.397)" fill="#938493"/>
        <path id="Trazado_913228" data-name="Trazado 913228" d="M513.937,440.654a4.932,4.932,0,1,0,1.805,6.737,4.932,4.932,0,0,0-1.805-6.737" transform="translate(-450.611 -391.412)" fill="#727997"/>
        <path id="Trazado_913229" data-name="Trazado 913229" d="M12.484,440.654a4.932,4.932,0,1,0,6.737,1.805,4.932,4.932,0,0,0-6.737-1.805" transform="translate(-8.912 -391.412)" fill="#8479c2"/>
        <path id="Trazado_913230" data-name="Trazado 913230" d="M509,153.988a4.932,4.932,0,1,0,6.737,1.805A4.932,4.932,0,0,0,509,153.988" transform="translate(-450.61 -136.397)" fill="#ffc365"/>
        <path id="Trazado_913231" data-name="Trazado 913231" d="M263.217,14.932a4.928,4.928,0,0,1,2.466-4.27,4.932,4.932,0,1,0,0,8.541,4.928,4.928,0,0,1-2.466-4.27" transform="translate(-229.767 -8.896)" fill="#fa6d61"/>
        <path id="Trazado_913232" data-name="Trazado 913232" d="M263.217,588.265a4.928,4.928,0,0,1,2.466-4.27,4.932,4.932,0,1,0,0,8.541,4.928,4.928,0,0,1-2.466-4.27" transform="translate(-229.767 -518.926)" fill="#4b96e3"/>
        <path id="Trazado_913233" data-name="Trazado 913233" d="M15.611,155.793a4.907,4.907,0,0,1,1.806-1.8h0a4.932,4.932,0,1,0,0,8.542,4.932,4.932,0,0,1-1.8-6.736" transform="translate(-8.912 -136.397)" fill="#7b6c79"/>
        <path id="Trazado_913234" data-name="Trazado 913234" d="M512.132,442.459a4.905,4.905,0,0,1,1.806-1.8h0a4.932,4.932,0,1,0,0,8.542,4.932,4.932,0,0,1-1.8-6.736" transform="translate(-450.611 -391.412)" fill="#b0c0d2"/>
        <path id="Trazado_913235" data-name="Trazado 913235" d="M15.611,447.4a4.932,4.932,0,0,1,1.8-6.736,4.931,4.931,0,1,0,0,8.542h0a4.906,4.906,0,0,1-1.806-1.8" transform="translate(-8.912 -391.417)" fill="#6e60b8"/>
        <path id="Trazado_913236" data-name="Trazado 913236" d="M512.132,160.729a4.932,4.932,0,0,1,1.8-6.736,4.931,4.931,0,1,0,0,8.542h0a4.907,4.907,0,0,1-1.806-1.8" transform="translate(-450.611 -136.402)" fill="#ffbe01"/>
        <path id="Trazado_913237" data-name="Trazado 913237" d="M219.945,190.235l-11.863-6.849-16.673,10.029-.13.291,11.323,6.537a2.014,2.014,0,0,0,2.014,0l16.064-9.274a2,2,0,0,0-.734-.734" transform="translate(-170.159 -163.138)" fill="#dd8858"/>
        <path id="Trazado_913238" data-name="Trazado 913238" d="M154.315,174.684l15.941-9.2c.057-.033.116-.062.175-.089l-4.016-2.319a2.006,2.006,0,0,0-2.006,0l-5,2.887-.175.417-3.6,2.208-1.03.148-5.53,3.193a2,2,0,0,0-.734.734l5.123,2.958a2.083,2.083,0,0,1,.85-.934" transform="translate(-131.963 -144.828)" fill="#da7e4a"/>
        <path id="Trazado_913239" data-name="Trazado 913239" d="M366.7,282.176h-.535l-3.975,2.226-.294.548v7.4a.524.524,0,0,0,.786.454l3.524-2.034a.994.994,0,0,0,.5-.861v-7.73Z" transform="translate(-321.942 -251.02)" fill="#4b96e3"/>
        <path id="Trazado_913240" data-name="Trazado 913240" d="M264.972,222.822l-12.727-7.367-4.7,2.83,12.627,7.309v0Z" transform="translate(-220.209 -191.667)" fill="#4b96e3"/>
        <path id="Trazado_913241" data-name="Trazado 913241" d="M214.876,194.284l-5-2.9-4.8,2.773,5,2.9Z" transform="translate(-182.429 -170.257)" fill="url(#linear-gradient)"/>
        <path id="Trazado_913242" data-name="Trazado 913242" d="M254.32,12.072a6.036,6.036,0,1,1,6.036-6.036,6.043,6.043,0,0,1-6.036,6.036m0-9.863a3.828,3.828,0,1,0,3.828,3.828,3.832,3.832,0,0,0-3.828-3.828" transform="translate(-220.87)"/>
        <path id="Trazado_913243" data-name="Trazado 913243" d="M254.32,585.4a6.036,6.036,0,1,1,6.036-6.036,6.043,6.043,0,0,1-6.036,6.036m0-9.864a3.828,3.828,0,1,0,3.828,3.828,3.832,3.832,0,0,0-3.828-3.828" transform="translate(-220.87 -510.03)"/>
        <path id="Trazado_913244" data-name="Trazado 913244" d="M6.029,155.419A6.054,6.054,0,1,1,7.6,155.21a6.067,6.067,0,0,1-1.572.208m.016-9.868a3.851,3.851,0,0,0-1,.132,3.805,3.805,0,1,0,1-.132" transform="translate(0 -127.519)"/>
        <path id="Trazado_913245" data-name="Trazado 913245" d="M6.048,442.049a6.033,6.033,0,1,1,3.008-.808,6.04,6.04,0,0,1-3.008.808m-.016-9.864a3.839,3.839,0,1,0,1,.132,3.845,3.845,0,0,0-1-.132m-2.46-.442h0Z" transform="translate(0 -382.502)"/>
        <path id="Trazado_913246" data-name="Trazado 913246" d="M502.568,155.387a6.065,6.065,0,0,1-1.572-.208,6,6,0,1,1,1.572.208m-.016-9.868a3.84,3.84,0,1,0,1,.132,3.845,3.845,0,0,0-1-.132m-2.46-.442h0Z" transform="translate(-441.698 -127.487)"/>
        <path id="Trazado_913247" data-name="Trazado 913247" d="M351.6,80.1a1.1,1.1,0,0,1-.551-.148L332.18,69.056a1.1,1.1,0,1,1,1.1-1.912l18.87,10.894A1.1,1.1,0,0,1,351.6,80.1" transform="translate(-295.012 -59.599)"/>
        <path id="Trazado_913248" data-name="Trazado 913248" d="M542.315,256.658a1.1,1.1,0,0,1-1.1-1.1V233.765a1.1,1.1,0,1,1,2.208,0v21.789a1.1,1.1,0,0,1-1.1,1.1" transform="translate(-481.455 -206.972)"/>
        <path id="Trazado_913249" data-name="Trazado 913249" d="M332.733,510.1a1.1,1.1,0,0,1-.553-2.061l18.87-10.895a1.1,1.1,0,0,1,1.1,1.912l-18.87,10.895a1.1,1.1,0,0,1-.551.148" transform="translate(-295.012 -442.121)"/>
        <path id="Trazado_913250" data-name="Trazado 913250" d="M103.34,510.1a1.1,1.1,0,0,1-.551-.148l-18.87-10.895a1.1,1.1,0,0,1,1.1-1.912l18.87,10.895a1.1,1.1,0,0,1-.553,2.061" transform="translate(-74.162 -442.12)"/>
        <path id="Trazado_913251" data-name="Trazado 913251" d="M45.794,256.659a1.1,1.1,0,0,1-1.1-1.1V233.766a1.1,1.1,0,1,1,2.208,0v21.789a1.1,1.1,0,0,1-1.1,1.1" transform="translate(-39.756 -206.973)"/>
        <path id="Trazado_913252" data-name="Trazado 913252" d="M84.473,80.1a1.1,1.1,0,0,1-.553-2.061l18.87-10.894a1.1,1.1,0,1,1,1.1,1.912L85.023,79.951a1.1,1.1,0,0,1-.551.148" transform="translate(-74.162 -59.598)"/>
        <path id="Trazado_913253" data-name="Trazado 913253" d="M156.513,174.422a3.118,3.118,0,0,1-1.559-.417l-16.064-9.274a1.1,1.1,0,0,1-.4-1.508,3.112,3.112,0,0,1,1.138-1.138l15.334-8.853a3.12,3.12,0,0,1,3.11,0l15.334,8.853a3.113,3.113,0,0,1,1.138,1.139,1.1,1.1,0,0,1-.4,1.508l-16.063,9.274a3.118,3.118,0,0,1-1.559.417m-.455-2.329a.913.913,0,0,0,.91,0l14.676-8.473-14.68-8.476a.9.9,0,0,0-.9,0l-14.68,8.476Z" transform="translate(-123.064 -135.944)"/>
        <path id="Trazado_913254" data-name="Trazado 913254" d="M213.491,196.4a1.1,1.1,0,0,1-.552-.148l-.053-.033-17.264-9.993a1.1,1.1,0,0,1,0-1.912l4.8-2.773a1.1,1.1,0,0,1,1.105,0l17.317,10.024a1.1,1.1,0,0,1,0,1.912l-4.8,2.774a1.1,1.1,0,0,1-.552.148m-15.11-11.128,15.112,8.747,2.6-1.5-15.112-8.747Z" transform="translate(-173.533 -161.362)"/>
        <path id="Trazado_913255" data-name="Trazado 913255" d="M154.351,273.845a3.113,3.113,0,0,1-1.555-.417l-15.334-8.853a3.118,3.118,0,0,1-1.555-2.693V244.177a3.114,3.114,0,0,1,.417-1.555,1.1,1.1,0,0,1,1.508-.4l16.064,9.274a.911.911,0,0,0,.455.122,1.1,1.1,0,0,1,1.1,1.1v20.023a1.1,1.1,0,0,1-1.1,1.1m-16.235-28.914v16.952a.9.9,0,0,0,.451.781l14.681,8.476V253.62a3.121,3.121,0,0,1-.455-.216Z" transform="translate(-120.901 -215.342)"/>
        <path id="Trazado_913256" data-name="Trazado 913256" d="M353.527,285.08a1.626,1.626,0,0,1-1.628-1.627v-7.4a1.1,1.1,0,0,1,.552-.956l4.8-2.774a1.106,1.106,0,0,1,1.658.957v7.73a2.1,2.1,0,0,1-1.049,1.817l-3.523,2.034a1.627,1.627,0,0,1-.814.217m.58-8.388v5.755l2.6-1.5v-5.756Z" transform="translate(-313.045 -242.125)"/>
        <path id="Trazado_913257" data-name="Trazado 913257" d="M505.144,441.325a1.1,1.1,0,0,1-.577-2.046,3.829,3.829,0,1,0-4,0,1.1,1.1,0,0,1-1.153,1.883,6.032,6.032,0,1,1,6.3,0,1.1,1.1,0,0,1-.575.162" transform="translate(-441.706 -382.502)"/>
        <path id="Trazado_913258" data-name="Trazado 913258" d="M154.352,194.445a3.109,3.109,0,0,1-1.555-.415l-15.334-8.853a3.119,3.119,0,0,1-1.555-2.693V164.778a3.119,3.119,0,0,1,1.555-2.693l15.334-8.853a3.117,3.117,0,0,1,3.11,0l15.334,8.853a3.119,3.119,0,0,1,1.555,2.693V172.5a1.1,1.1,0,1,1-2.208,0v-7.727a.9.9,0,0,0-.451-.781L154.8,155.144a.9.9,0,0,0-.9,0L138.567,164a.9.9,0,0,0-.451.781v17.706a.9.9,0,0,0,.451.781l15.334,8.853a.9.9,0,0,0,.9,0l15.334-8.853a.9.9,0,0,0,.451-.781v-4.827a1.1,1.1,0,1,1,2.208,0v4.827a3.119,3.119,0,0,1-1.555,2.693l-15.334,8.853a3.11,3.11,0,0,1-1.555.415" transform="translate(-120.902 -135.944)"/>
      </g>
    </g>
  </g>
</svg>
