<svg xmlns="http://www.w3.org/2000/svg" xmlns:xlink="http://www.w3.org/1999/xlink" width="102.38" height="102.38" viewBox="0 0 102.38 102.38">
  <defs>
    <clipPath id="clip-path">
      <rect id="Rectángulo_403530" data-name="Rectángulo 403530" width="55.161" height="49.857" fill="none"/>
    </clipPath>
    <linearGradient id="linear-gradient" x1="0.5" x2="0.5" y2="1" gradientUnits="objectBoundingBox">
      <stop offset="0" stop-color="#007dfe"/>
      <stop offset="1" stop-color="#6b8be8"/>
    </linearGradient>
  </defs>
  <g id="Grupo_1102231" data-name="Grupo 1102231" transform="translate(-1102.197 -925.102)">
    <circle id="Elipse_11615" data-name="Elipse 11615" cx="49.69" cy="49.69" r="49.69" transform="translate(1103.697 926.602)" fill="#efedee" stroke="#007dfe" stroke-miterlimit="10" stroke-width="3"/>
    <g id="Grupo_1101931" data-name="Grupo 1101931" transform="translate(1125 952.495)">
      <g id="Grupo_1101930" data-name="Grupo 1101930" clip-path="url(#clip-path)">
        <path id="Trazado_913259" data-name="Trazado 913259" d="M58.112,46.974H14.62A4.774,4.774,0,0,1,9.846,42.2V14.62A4.774,4.774,0,0,1,14.62,9.846H58.112a4.774,4.774,0,0,1,4.774,4.774V42.2a4.774,4.774,0,0,1-4.774,4.774" transform="translate(-8.785 -8.785)" fill="#fa6d61"/>
        <path id="Trazado_913260" data-name="Trazado 913260" d="M245.41,124.678l-9.751-2.25,2.25,9.751,2.625-2.625,3,3,2.25-2.25-3-3Z" transform="translate(-210.27 -109.238)" fill="url(#linear-gradient)"/>
        <path id="Trazado_913261" data-name="Trazado 913261" d="M194.2,365.07H177.231l2.122-10.608h12.729Z" transform="translate(-158.137 -316.274)" fill="url(#linear-gradient)"/>
        <path id="Trazado_913262" data-name="Trazado 913262" d="M9.846,275.693v3.713a4.774,4.774,0,0,0,4.774,4.774H58.112a4.774,4.774,0,0,0,4.774-4.774v-3.713Z" transform="translate(-8.785 -245.991)" fill="#8ab2ee"/>
        <path id="Trazado_913263" data-name="Trazado 913263" d="M49.327,0H5.834A5.841,5.841,0,0,0,0,5.834v27.58a5.841,5.841,0,0,0,5.834,5.834H19.922l-1.7,8.486h-5.5a1.061,1.061,0,0,0,0,2.122h29.7a1.061,1.061,0,0,0,0-2.122h-5.5l-1.7-8.486H49.327a5.841,5.841,0,0,0,5.834-5.834V5.834A5.841,5.841,0,0,0,49.327,0M5.834,2.122H49.327a3.717,3.717,0,0,1,3.713,3.713V28.641H2.122V26.52H8.486a1.061,1.061,0,1,0,0-2.122H2.122V5.834A3.717,3.717,0,0,1,5.834,2.122M34.773,47.735H20.388l1.7-8.486h10.99ZM53.039,33.415a3.717,3.717,0,0,1-3.713,3.713H5.834a3.717,3.717,0,0,1-3.713-3.713V30.763H53.039v2.652Z"/>
        <path id="Trazado_913264" data-name="Trazado 913264" d="M238.43,299.629a2.122,2.122,0,1,0-2.122-2.122,2.124,2.124,0,0,0,2.122,2.122" transform="translate(-210.849 -263.562)"/>
        <path id="Trazado_913265" data-name="Trazado 913265" d="M228.089,123.634a1.061,1.061,0,0,0,1.784.512l1.875-1.875,2.25,2.25a1.061,1.061,0,0,0,1.5,0l2.25-2.25a1.061,1.061,0,0,0,0-1.5l-2.25-2.25,1.875-1.875a1.061,1.061,0,0,0-.512-1.784l-9.751-2.25a1.061,1.061,0,0,0-1.272,1.272Zm6.431-7.136-1.272,1.272a1.061,1.061,0,0,0,0,1.5l2.25,2.25-.75.75-2.25-2.25a1.061,1.061,0,0,0-1.5,0l-1.272,1.272-1.438-6.232Z" transform="translate(-201.483 -100.454)"/>
        <path id="Trazado_913266" data-name="Trazado 913266" d="M190.188,78.459a1.061,1.061,0,0,0,1.5-1.5L190.627,75.9a1.061,1.061,0,1,0-1.5,1.5Z" transform="translate(-168.474 -67.444)"/>
        <path id="Trazado_913267" data-name="Trazado 913267" d="M173.565,117.094h1.5a1.061,1.061,0,0,0,0-2.122h-1.5a1.061,1.061,0,0,0,0,2.122" transform="translate(-153.919 -102.585)"/>
        <path id="Trazado_913268" data-name="Trazado 913268" d="M190.189,144.82l-1.061,1.061a1.061,1.061,0,1,0,1.5,1.5l1.061-1.061a1.061,1.061,0,1,0-1.5-1.5" transform="translate(-168.475 -128.94)"/>
        <path id="Trazado_913269" data-name="Trazado 913269" d="M258.8,78.77a1.057,1.057,0,0,0,.75-.311l1.061-1.061a1.061,1.061,0,0,0-1.5-1.5l-1.061,1.061a1.061,1.061,0,0,0,.75,1.811" transform="translate(-229.972 -67.444)"/>
        <path id="Trazado_913270" data-name="Trazado 913270" d="M229.263,62.895a1.061,1.061,0,0,0,1.061-1.061v-1.5a1.061,1.061,0,1,0-2.122,0v1.5a1.061,1.061,0,0,0,1.061,1.061" transform="translate(-203.616 -52.887)"/>
        <path id="Trazado_913271" data-name="Trazado 913271" d="M98.544,227.932a1.039,1.039,0,0,0,.1.183,1.03,1.03,0,0,0,.293.293,1.051,1.051,0,0,0,.183.1,1.076,1.076,0,0,0,.2.062,1.072,1.072,0,0,0,.414,0,1.075,1.075,0,0,0,.2-.062,1.036,1.036,0,0,0,.183-.1,1.03,1.03,0,0,0,.293-.293,1.053,1.053,0,0,0,.1-.183,1,1,0,0,0,.06-.2,1.019,1.019,0,0,0,0-.414,1.029,1.029,0,0,0-.06-.2,1.072,1.072,0,0,0-.1-.183,1.03,1.03,0,0,0-.293-.293,1.052,1.052,0,0,0-.183-.1,1,1,0,0,0-.2-.06,1.044,1.044,0,0,0-.414,0,1,1,0,0,0-.2.06,1.037,1.037,0,0,0-.183.1,1.03,1.03,0,0,0-.293.293,1.079,1.079,0,0,0-.1.183,1.029,1.029,0,0,0-.06.2,1.019,1.019,0,0,0,0,.414,1,1,0,0,0,.06.2" transform="translate(-87.854 -202.067)"/>
      </g>
    </g>
  </g>
</svg>
