<svg xmlns="http://www.w3.org/2000/svg" xmlns:xlink="http://www.w3.org/1999/xlink" width="106.331" height="105.112" viewBox="0 0 106.331 105.112">
  <defs>
    <clipPath id="clip-path">
      <rect id="Rectángulo_403373" data-name="Rectángulo 403373" width="106.331" height="105.112" fill="none"/>
    </clipPath>
  </defs>
  <g id="Grupo_1102232" data-name="Grupo 1102232" transform="translate(-746.835 -1229.799)">
    <circle id="Elipse_11616" data-name="Elipse 11616" cx="49.69" cy="49.69" r="49.69" transform="translate(750.31 1232.665)" fill="#efedee" stroke="#007dfe" stroke-miterlimit="10" stroke-width="3"/>
    <g id="Grupo_1101819" data-name="Grupo 1101819" transform="translate(746.835 1229.799)">
      <path id="Trazado_912755" data-name="Trazado 912755" d="M106.331,100h0Z" transform="translate(0 5.112)" fill="#fff"/>
      <path id="Trazado_912722" data-name="Trazado 912722" d="M53.367,29.183v3.889H48.05V21.3h5.317Z" transform="translate(2.456 1.089)" fill="#6693ec"/>
      <path id="Trazado_912723" data-name="Trazado 912723" d="M57.6,35.317V45.828H44.308V28.8h3.934v3.889h5.317V28.8H57.6Z" transform="translate(2.265 1.472)" fill="#c4d5f8"/>
      <g id="Grupo_1101748" data-name="Grupo 1101748">
        <g id="Grupo_1101747" data-name="Grupo 1101747" clip-path="url(#clip-path)">
          <path id="Trazado_912724" data-name="Trazado 912724" d="M29.527,55V66.878a4.041,4.041,0,0,1-8.081,0V55Z" transform="translate(1.096 2.812)" fill="#9cb9f3"/>
          <path id="Trazado_912725" data-name="Trazado 912725" d="M80.106,55V66.878a4.041,4.041,0,0,1-8.082,0V55Z" transform="translate(3.682 2.812)" fill="#9cb9f3"/>
          <path id="Trazado_912726" data-name="Trazado 912726" d="M45.471,35v6.622H37.709l-8.187,14.4H21.547L33.456,35H45.471Z" transform="translate(1.102 1.789)" fill="#92b2f2"/>
          <path id="Trazado_912727" data-name="Trazado 912727" d="M68.862,35,80.877,56.022H72.9l-8.294-14.4H56.953V35H68.862Z" transform="translate(2.912 1.789)" fill="#92b2f2"/>
          <path id="Trazado_912728" data-name="Trazado 912728" d="M26.734,26.3a2.628,2.628,0,1,1-2.658,2.628A2.618,2.618,0,0,1,26.734,26.3" transform="translate(1.231 1.345)" fill="#add1f6"/>
          <path id="Trazado_912729" data-name="Trazado 912729" d="M72.893,22.5a3.259,3.259,0,1,1-3.3,3.258,3.228,3.228,0,0,1,3.3-3.258" transform="translate(3.558 1.15)" fill="#add1f6"/>
          <path id="Trazado_912730" data-name="Trazado 912730" d="M51.356,48.8a15.768,15.768,0,1,0,15.95,15.767A15.838,15.838,0,0,0,51.356,48.8" transform="translate(1.81 2.495)" fill="#ffe28c"/>
          <path id="Trazado_912731" data-name="Trazado 912731" d="M51.1,53.8A10.512,10.512,0,1,0,61.73,64.311,10.6,10.6,0,0,0,51.1,53.8" transform="translate(2.069 2.75)" fill="#ffedba"/>
          <path id="Trazado_912732" data-name="Trazado 912732" d="M75.937,33.8a1.367,1.367,0,1,1-1.382,1.366A1.4,1.4,0,0,1,75.937,33.8" transform="translate(3.811 1.728)"/>
          <path id="Trazado_912733" data-name="Trazado 912733" d="M70.878,72.5A1.367,1.367,0,1,1,69.5,73.866,1.476,1.476,0,0,1,70.878,72.5" transform="translate(3.553 3.706)"/>
          <path id="Trazado_912734" data-name="Trazado 912734" d="M63.291,46.3a1.367,1.367,0,1,1-1.381,1.366A1.4,1.4,0,0,1,63.291,46.3" transform="translate(3.165 2.367)"/>
          <path id="Trazado_912735" data-name="Trazado 912735" d="M62.077,23.8a1.367,1.367,0,1,1,0,2.734A1.5,1.5,0,0,1,60.7,25.061,1.311,1.311,0,0,1,62.077,23.8" transform="translate(3.103 1.217)"/>
          <path id="Trazado_912736" data-name="Trazado 912736" d="M59.549,46.3a1.367,1.367,0,1,1-1.382,1.366A1.333,1.333,0,0,1,59.549,46.3" transform="translate(2.974 2.367)"/>
          <path id="Trazado_912737" data-name="Trazado 912737" d="M51.329,67.2c.744,0,1.169-.315,1.169-.841a.745.745,0,0,0-.318-.631,6.347,6.347,0,0,0-.85-.42Zm-.744-4.625V60.679c-.745.1-1.064.315-1.064.841a.905.905,0,0,0,.318.631c.107.209.32.315.745.42m-1.6-3.784a2.971,2.971,0,0,1,1.382-.315V57h1.064v1.577a12.325,12.325,0,0,1,1.913.42,6.533,6.533,0,0,1,1.489.735l-1.064,2.1a1.333,1.333,0,0,0-.318-.209,2.4,2.4,0,0,0-.532-.316c-.212-.1-.532-.209-.744-.314a2.533,2.533,0,0,0-.85-.211v2.1l.531.106c.532.105.958.315,1.382.419a9.553,9.553,0,0,1,1.064.632,1.532,1.532,0,0,1,.638.945,2.262,2.262,0,0,1,.212,1.262,3.016,3.016,0,0,1-.318,1.472,2.491,2.491,0,0,1-.851.945,11.425,11.425,0,0,1-1.169.632,6.3,6.3,0,0,1-1.382.21v1.786H50.372V69.508a15.207,15.207,0,0,1-2.126-.42,15.154,15.154,0,0,1-1.914-.841l1.063-2.208a1.319,1.319,0,0,0,.32.211l.638.314.958.316a3.81,3.81,0,0,0,1.063.209v-2l-.744-.21a3.566,3.566,0,0,1-1.276-.526c-.318-.21-.638-.421-.958-.631a1.442,1.442,0,0,1-.531-.842,3.072,3.072,0,0,1-.213-1.051,2.882,2.882,0,0,1,.32-1.365,3.742,3.742,0,0,1,.744-1.051c.532-.211.85-.42,1.276-.631" transform="translate(2.369 2.914)"/>
          <path id="Trazado_912738" data-name="Trazado 912738" d="M41.846,46.3a1.367,1.367,0,1,1,0,2.734,1.5,1.5,0,0,1-1.382-1.473A1.312,1.312,0,0,1,41.846,46.3" transform="translate(2.069 2.367)"/>
          <path id="Trazado_912739" data-name="Trazado 912739" d="M38,46.3a1.367,1.367,0,1,1-1.382,1.366A1.4,1.4,0,0,1,38,46.3" transform="translate(1.872 2.367)"/>
          <path id="Trazado_912740" data-name="Trazado 912740" d="M36.788,23.8a1.367,1.367,0,1,1,0,2.734,1.5,1.5,0,0,1-1.382-1.473A1.312,1.312,0,0,1,36.788,23.8" transform="translate(1.81 1.217)"/>
          <path id="Trazado_912741" data-name="Trazado 912741" d="M32.944,73.8a1.367,1.367,0,1,1-1.383,1.366A1.4,1.4,0,0,1,32.944,73.8" transform="translate(1.613 3.773)"/>
          <path id="Trazado_912742" data-name="Trazado 912742" d="M24.143,37.5a1.367,1.367,0,1,1-1.382,1.366A1.4,1.4,0,0,1,24.143,37.5" transform="translate(1.164 1.917)"/>
          <path id="Trazado_912743" data-name="Trazado 912743" d="M76.129,72.2a5.236,5.236,0,0,1-5.318-5.256V55.066a1.383,1.383,0,0,1,2.766,0V66.944a2.658,2.658,0,0,0,5.317,0V55.066a1.382,1.382,0,0,1,2.764,0V66.944A5.639,5.639,0,0,1,76.129,72.2" transform="translate(3.62 2.745)"/>
          <path id="Trazado_912744" data-name="Trazado 912744" d="M80.944,57.455H72.969a1.225,1.225,0,0,1-1.17-.631L63.93,43.055H57.019a1.367,1.367,0,1,1,0-2.733h7.763a1.223,1.223,0,0,1,1.169.631l7.763,13.875H78.6L68.184,36.433H57.019a1.367,1.367,0,1,1,0-2.733H69.035a1.226,1.226,0,0,1,1.17.631L82.22,55.353a1.324,1.324,0,0,1,0,1.261,1.824,1.824,0,0,1-1.276.841" transform="translate(2.844 1.723)"/>
          <path id="Trazado_912745" data-name="Trazado 912745" d="M51.164,76.155A11.878,11.878,0,1,1,63.18,64.278,11.935,11.935,0,0,1,51.164,76.155m0-21.022a9.25,9.25,0,1,0,9.357,9.25,9.318,9.318,0,0,0-9.357-9.25" transform="translate(2.001 2.679)"/>
          <path id="Trazado_912746" data-name="Trazado 912746" d="M51.423,81.661A17.083,17.083,0,1,1,68.755,64.633,17.236,17.236,0,0,1,51.423,81.661m0-31.534A14.455,14.455,0,1,0,66.1,64.528a14.62,14.62,0,0,0-14.674-14.4" transform="translate(1.743 2.428)"/>
          <path id="Trazado_912747" data-name="Trazado 912747" d="M25.549,72.2a5.235,5.235,0,0,1-5.317-5.256V55.066a1.382,1.382,0,0,1,2.764,0V66.944a2.658,2.658,0,0,0,5.317,0V55.066A1.4,1.4,0,0,1,29.7,53.7a1.228,1.228,0,0,1,1.17,1.366V66.944A5.3,5.3,0,0,1,25.549,72.2" transform="translate(1.034 2.745)"/>
          <path id="Trazado_912748" data-name="Trazado 912748" d="M29.587,57.445H21.612a1.339,1.339,0,0,1-1.17-.631,1.324,1.324,0,0,1,0-1.261L32.457,34.531a1.225,1.225,0,0,1,1.17-.63H45.642a1.366,1.366,0,1,1,0,2.732H34.265L23.845,55.028h4.891L36.6,41.259a1.223,1.223,0,0,1,1.169-.632h7.763a1.367,1.367,0,1,1,0,2.734H38.625L30.756,57.13c-.318,0-.744.315-1.17.315" transform="translate(1.037 1.733)"/>
          <path id="Trazado_912749" data-name="Trazado 912749" d="M57.667,47.266H44.375A1.4,1.4,0,0,1,42.993,45.9V28.872a1.4,1.4,0,0,1,1.382-1.366h4.041a1.367,1.367,0,1,1,0,2.733H45.651V44.745H56.284V30.133H53.626a1.366,1.366,0,1,1,0-2.732h4.041a1.4,1.4,0,0,1,1.382,1.365V45.9a1.569,1.569,0,0,1-1.382,1.366" transform="translate(2.198 1.401)"/>
          <path id="Trazado_912750" data-name="Trazado 912750" d="M53.434,34.505H48.118a1.4,1.4,0,0,1-1.382-1.366V21.366A1.4,1.4,0,0,1,48.118,20h5.316a1.4,1.4,0,0,1,1.383,1.366V33.244a1.386,1.386,0,0,1-1.383,1.261M49.5,31.878h2.658v-9.25H49.5Z" transform="translate(2.389 1.022)"/>
          <path id="Trazado_912751" data-name="Trazado 912751" d="M53.434,37.633H48.117a1.367,1.367,0,1,1,0-2.733h5.317a1.367,1.367,0,1,1,0,2.733" transform="translate(2.389 1.784)"/>
          <path id="Trazado_912752" data-name="Trazado 912752" d="M53.434,41.433H48.117a1.367,1.367,0,1,1,0-2.733h5.317a1.367,1.367,0,1,1,0,2.733" transform="translate(2.389 1.978)"/>
          <path id="Trazado_912753" data-name="Trazado 912753" d="M26.8,32.889a3.995,3.995,0,1,1,4.041-3.994A4.085,4.085,0,0,1,26.8,32.889m0-5.256A1.367,1.367,0,1,0,28.184,29,1.569,1.569,0,0,0,26.8,27.633" transform="translate(1.164 1.273)"/>
          <path id="Trazado_912754" data-name="Trazado 912754" d="M72.96,30.45a4.625,4.625,0,1,1,4.679-4.625A4.692,4.692,0,0,1,72.96,30.45m0-6.517a2.008,2.008,0,0,0-2.02,2,1.944,1.944,0,0,0,2.02,2,2,2,0,1,0,0-3.994" transform="translate(3.491 1.084)"/>
        </g>
      </g>
    </g>
  </g>
</svg>
