<svg xmlns="http://www.w3.org/2000/svg" xmlns:xlink="http://www.w3.org/1999/xlink" width="102.38" height="102.38" viewBox="0 0 102.38 102.38">
  <defs>
    <clipPath id="clip-path">
      <rect id="Rectángulo_403537" data-name="Rectángulo 403537" width="54.885" height="50.533" fill="none"/>
    </clipPath>
  </defs>
  <g id="Grupo_1102228" data-name="Grupo 1102228" transform="translate(-538.835 -2789.346)">
    <g id="Grupo_1102226" data-name="Grupo 1102226">
      <circle id="Elipse_11571" data-name="Elipse 11571" cx="49.69" cy="49.69" r="49.69" transform="translate(540.335 2790.846)" fill="#efedee" stroke="#007dfe" stroke-miterlimit="10" stroke-width="3"/>
      <g id="Grupo_1101933" data-name="Grupo 1101933" transform="translate(562.583 2815.27)">
        <rect id="Rectángulo_403532" data-name="Rectángulo 403532" width="12.864" height="5.848" transform="translate(21.011 37.036)" fill="#9facba"/>
        <rect id="Rectángulo_403533" data-name="Rectángulo 403533" width="4.288" height="5.848" transform="translate(21.011 37.036)" fill="#8d9ca8"/>
        <g id="Grupo_1101934" data-name="Grupo 1101934">
          <g id="Grupo_1101933-2" data-name="Grupo 1101933" clip-path="url(#clip-path)">
            <path id="Trazado_913272" data-name="Trazado 913272" d="M202.168,345.456H189.3a.8.8,0,0,1-.8-.8V338.8a.8.8,0,0,1,.8-.8h12.864a.8.8,0,0,1,.8.8v5.848a.8.8,0,0,1-.8.8m-12.06-1.608h11.256v-4.24H190.108Z" transform="translate(-168.293 -301.768)"/>
            <path id="Trazado_913273" data-name="Trazado 913273" d="M7.5,295.145a2.144,2.144,0,0,0,2.144,2.144H58.633a2.144,2.144,0,0,0,2.144-2.144V291.5H7.5Z" transform="translate(-6.696 -260.252)" fill="#c5d3dd"/>
            <path id="Trazado_913274" data-name="Trazado 913274" d="M11.841,295.145V291.5H7.5v3.645a2.144,2.144,0,0,0,2.144,2.144h4.341a2.144,2.144,0,0,1-2.144-2.144" transform="translate(-6.696 -260.252)" fill="#b6c4cf"/>
            <path id="Trazado_913275" data-name="Trazado 913275" d="M51.937,291.4H48.346a.8.8,0,0,1,0-1.608h3.591a1.341,1.341,0,0,0,1.34-1.34v-2.841H1.608v2.841a1.341,1.341,0,0,0,1.34,1.34H44.594a.8.8,0,0,1,0,1.608H2.948A2.951,2.951,0,0,1,0,288.449V284.8a.8.8,0,0,1,.8-.8H54.081a.8.8,0,0,1,.8.8v3.645a2.951,2.951,0,0,1-2.948,2.948" transform="translate(0 -253.556)"/>
            <path id="Trazado_913276" data-name="Trazado 913276" d="M134.605,394.16H103.3a.8.8,0,1,1,0-1.608h31.3a.8.8,0,1,1,0,1.608" transform="translate(-91.512 -350.472)"/>
            <rect id="Rectángulo_403534" data-name="Rectángulo 403534" width="53.277" height="26.347" transform="translate(0.804 4.901)" fill="#dff6fd"/>
            <rect id="Rectángulo_403535" data-name="Rectángulo 403535" width="4.341" height="26.347" transform="translate(0.804 4.901)" fill="#c8effe"/>
            <path id="Trazado_913277" data-name="Trazado 913277" d="M54.081,66.176H.8a.8.8,0,0,1-.8-.8V39.025a.8.8,0,0,1,.8-.8H54.081a.8.8,0,0,1,.8.8V65.372a.8.8,0,0,1-.8.8M1.608,64.568H53.277V39.829H1.608Z" transform="translate(0 -34.124)"/>
            <path id="Trazado_913278" data-name="Trazado 913278" d="M58.633,7.5H9.644A2.144,2.144,0,0,0,7.5,9.644V11.6H60.777V9.644A2.144,2.144,0,0,0,58.633,7.5" transform="translate(-6.696 -6.696)" fill="#6bd9e7"/>
            <path id="Trazado_913279" data-name="Trazado 913279" d="M54.081,5.705H.8A.8.8,0,0,1,0,4.9V2.948A2.951,2.951,0,0,1,2.948,0h9.808a.8.8,0,0,1,0,1.608H2.948a1.341,1.341,0,0,0-1.34,1.34V4.1H53.277V2.948a1.341,1.341,0,0,0-1.34-1.34H16.508a.8.8,0,0,1,0-1.608H51.937a2.951,2.951,0,0,1,2.948,2.948V4.9a.8.8,0,0,1-.8.8" transform="translate(0 0)"/>
            <path id="Trazado_913280" data-name="Trazado 913280" d="M9.644,7.5A2.144,2.144,0,0,0,7.5,9.644V11.6h8.585V7.5Z" transform="translate(-6.696 -6.696)" fill="#6bd9e7"/>
            <path id="Trazado_913281" data-name="Trazado 913281" d="M13.985,7.5H9.644A2.144,2.144,0,0,0,7.5,9.644V11.6h4.341V9.644A2.144,2.144,0,0,1,13.985,7.5" transform="translate(-6.696 -6.696)" fill="#2ed1e2"/>
            <path id="Trazado_913282" data-name="Trazado 913282" d="M9.389,5.705H.8A.8.8,0,0,1,0,4.9V2.948A2.951,2.951,0,0,1,2.948,0H9.389a.8.8,0,0,1,.8.8V4.9a.8.8,0,0,1-.8.8M1.608,4.1H8.585V1.608H2.948a1.341,1.341,0,0,0-1.34,1.34Z" transform="translate(0 0)"/>
            <path id="Trazado_913283" data-name="Trazado 913283" d="M358.462,80.5V99.185h10.321a.536.536,0,0,0,.536-.536V81.036a.536.536,0,0,0-.536-.536Z" transform="translate(-320.036 -71.871)" fill="#fea613"/>
            <rect id="Rectángulo_403536" data-name="Rectángulo 403536" width="3.595" height="18.685" transform="translate(38.426 8.629)" fill="#fe9901"/>
            <path id="Trazado_913284" data-name="Trazado 913284" d="M362.087,93.293H351.766a.8.8,0,0,1-.8-.8V73.8a.8.8,0,0,1,.8-.8h10.321a1.341,1.341,0,0,1,1.34,1.34V91.953a1.341,1.341,0,0,1-1.34,1.34m-9.517-1.608h9.249V74.608H352.57Z" transform="translate(-313.34 -65.175)"/>
            <path id="Trazado_913285" data-name="Trazado 913285" d="M387.9,115.934v-5.669a.322.322,0,0,1,.322-.322h3.9a.322.322,0,0,1,.322.322v5.669a.322.322,0,0,1-.322.322h-3.9a.322.322,0,0,1-.322-.322" transform="translate(-346.323 -98.157)" fill="#fff"/>
            <path id="Trazado_913286" data-name="Trazado 913286" d="M385.432,110.363h-3.9a1.127,1.127,0,0,1-1.126-1.126v-5.669a1.127,1.127,0,0,1,1.126-1.126h3.9a1.127,1.127,0,0,1,1.126,1.126v5.669a1.127,1.127,0,0,1-1.126,1.126m-3.419-1.608h2.937v-4.7h-2.937Z" transform="translate(-339.627 -91.461)"/>
            <path id="Trazado_913287" data-name="Trazado 913287" d="M55.505,84.287H52.79a.536.536,0,0,1-.536-.536V81.036a.536.536,0,0,1,.536-.536h2.715a.536.536,0,0,1,.536.536v2.716a.536.536,0,0,1-.536.536" transform="translate(-46.653 -71.871)" fill="#fed402"/>
            <path id="Trazado_913288" data-name="Trazado 913288" d="M54.049,83.751V81.036a.536.536,0,0,1,.536-.536h-1.8a.536.536,0,0,0-.536.536v2.716a.536.536,0,0,0,.536.536h1.8a.536.536,0,0,1-.536-.536" transform="translate(-46.653 -71.871)" fill="#fac600"/>
            <path id="Trazado_913289" data-name="Trazado 913289" d="M55.505,153.773H52.79a.536.536,0,0,1-.536-.536v-2.715a.536.536,0,0,1,.536-.536h2.715a.536.536,0,0,1,.536.536v2.715a.536.536,0,0,1-.536.536" transform="translate(-46.653 -133.908)" fill="#00f2a6"/>
            <path id="Trazado_913290" data-name="Trazado 913290" d="M54.049,153.236v-2.716a.536.536,0,0,1,.536-.536h-1.8a.536.536,0,0,0-.536.536v2.716a.536.536,0,0,0,.536.536h1.8a.536.536,0,0,1-.536-.536" transform="translate(-46.653 -133.907)" fill="#05e39c"/>
            <path id="Trazado_913291" data-name="Trazado 913291" d="M55.505,223.258H52.79a.536.536,0,0,1-.536-.536v-2.716a.536.536,0,0,1,.536-.536h2.715a.536.536,0,0,1,.536.536v2.716a.536.536,0,0,1-.536.536" transform="translate(-46.653 -195.944)" fill="#6bd9e7"/>
            <path id="Trazado_913292" data-name="Trazado 913292" d="M54.049,222.722v-2.716a.536.536,0,0,1,.536-.536h-1.8a.536.536,0,0,0-.536.536v2.716a.536.536,0,0,0,.536.536h1.8a.536.536,0,0,1-.536-.536" transform="translate(-46.653 -195.944)" fill="#2ed1e2"/>
            <path id="Trazado_913293" data-name="Trazado 913293" d="M48.809,78.4H46.094a1.341,1.341,0,0,1-1.34-1.34V74.34A1.341,1.341,0,0,1,46.094,73h2.716a1.341,1.341,0,0,1,1.34,1.34v2.716a1.342,1.342,0,0,1-1.34,1.34m-2.447-1.608h2.18v-2.18h-2.18Z" transform="translate(-39.957 -65.175)"/>
            <path id="Trazado_913294" data-name="Trazado 913294" d="M48.809,147.881H46.094a1.341,1.341,0,0,1-1.34-1.34v-2.716a1.341,1.341,0,0,1,1.34-1.34h2.716a1.341,1.341,0,0,1,1.34,1.34v2.716a1.342,1.342,0,0,1-1.34,1.34m-2.447-1.608h2.18v-2.18h-2.18Z" transform="translate(-39.957 -127.212)"/>
            <path id="Trazado_913295" data-name="Trazado 913295" d="M48.809,217.366H46.094a1.341,1.341,0,0,1-1.34-1.34v-2.715a1.341,1.341,0,0,1,1.34-1.34h2.716a1.341,1.341,0,0,1,1.34,1.34v2.715a1.342,1.342,0,0,1-1.34,1.34m-2.447-1.608h2.18v-2.18h-2.18Z" transform="translate(-39.957 -189.248)"/>
            <path id="Trazado_913296" data-name="Trazado 913296" d="M156.579,99.185h-23.7a.536.536,0,0,1-.536-.536V81.036a.536.536,0,0,1,.536-.536h23.7Z" transform="translate(-118.153 -71.871)" fill="#fff"/>
            <path id="Trazado_913297" data-name="Trazado 913297" d="M149.883,93.293h-23.7a1.341,1.341,0,0,1-1.34-1.34V74.34a1.341,1.341,0,0,1,1.34-1.34h23.7a.8.8,0,0,1,.8.8V92.489a.8.8,0,0,1-.8.8m-23.436-1.608h22.632V74.608H126.447Z" transform="translate(-111.457 -65.175)"/>
            <path id="Trazado_913298" data-name="Trazado 913298" d="M205.863,149.982H192.3a.8.8,0,1,1,0-1.608h13.559a.8.8,0,1,1,0,1.608" transform="translate(-170.972 -132.469)"/>
            <path id="Trazado_913299" data-name="Trazado 913299" d="M159.55,149.982h-.931a.8.8,0,1,1,0-1.608h.931a.8.8,0,1,1,0,1.608" transform="translate(-140.898 -132.469)"/>
            <path id="Trazado_913300" data-name="Trazado 913300" d="M175.789,180.6h-17.17a.8.8,0,1,1,0-1.608h17.17a.8.8,0,1,1,0,1.608" transform="translate(-140.898 -159.807)"/>
            <path id="Trazado_913301" data-name="Trazado 913301" d="M167.709,211.224h-9.09a.8.8,0,1,1,0-1.608h9.09a.8.8,0,0,1,0,1.608" transform="translate(-140.898 -187.146)"/>
            <path id="Trazado_913302" data-name="Trazado 913302" d="M156.579,85.045h-24.24V81.036a.536.536,0,0,1,.536-.536h23.7Z" transform="translate(-118.153 -71.871)" fill="#4f66d0"/>
            <path id="Trazado_913303" data-name="Trazado 913303" d="M149.883,79.153h-24.24a.8.8,0,0,1-.8-.8V74.34a1.341,1.341,0,0,1,1.34-1.34h23.7a.8.8,0,0,1,.8.8v4.545a.8.8,0,0,1-.8.8m-23.436-1.608h22.632V74.608H126.447Z" transform="translate(-111.457 -65.175)"/>
            <path id="Trazado_913304" data-name="Trazado 913304" d="M136.884,85.045h-4.545V81.036a.536.536,0,0,1,.536-.536h4.009Z" transform="translate(-118.153 -71.871)" fill="#314dc9"/>
            <path id="Trazado_913305" data-name="Trazado 913305" d="M130.188,79.153h-4.545a.8.8,0,0,1-.8-.8V74.34a1.341,1.341,0,0,1,1.34-1.34h4.009a.8.8,0,0,1,.8.8v4.545a.8.8,0,0,1-.8.8m-3.741-1.608h2.937V74.608h-2.937Z" transform="translate(-111.457 -65.175)"/>
            <path id="Trazado_913306" data-name="Trazado 913306" d="M385.755,219.468H381.21a.8.8,0,1,1,0-1.608h4.545a.8.8,0,0,1,0,1.608" transform="translate(-339.628 -194.506)"/>
            <path id="Trazado_913307" data-name="Trazado 913307" d="M385.755,191.2H381.21a.8.8,0,1,1,0-1.608h4.545a.8.8,0,0,1,0,1.608" transform="translate(-339.628 -169.271)"/>
            <path id="Trazado_913308" data-name="Trazado 913308" d="M46.68,436.759H8.036a.536.536,0,0,1-.536-.536v-2.187a.536.536,0,0,1,.536-.536H46.68a.536.536,0,0,1,.536.536v2.187a.536.536,0,0,1-.536.536" transform="translate(-6.696 -387.03)" fill="#c5d3dd"/>
            <path id="Trazado_913309" data-name="Trazado 913309" d="M12.967,436.223v-2.187a.536.536,0,0,1,.536-.536H8.036a.536.536,0,0,0-.536.536v2.187a.536.536,0,0,0,.536.536H13.5a.536.536,0,0,1-.536-.536" transform="translate(-6.696 -387.03)" fill="#b6c4cf"/>
            <path id="Trazado_913310" data-name="Trazado 913310" d="M39.984,430.867H1.34A1.341,1.341,0,0,1,0,429.527V427.34A1.341,1.341,0,0,1,1.34,426h8.2a.8.8,0,1,1,0,1.608H1.608v1.651H39.716v-1.651H13.292a.8.8,0,1,1,0-1.608H39.984a1.341,1.341,0,0,1,1.34,1.34v2.187a1.341,1.341,0,0,1-1.34,1.34" transform="translate(0 -380.334)"/>
            <path id="Trazado_913311" data-name="Trazado 913311" d="M419.684,419.1h-9.648a.536.536,0,0,1-.536-.536v-1.2a3.641,3.641,0,0,1,3.642-3.642h2.9a3.641,3.641,0,0,1,3.642,3.642V419.1Z" transform="translate(-365.603 -369.374)" fill="#c5d3dd"/>
            <path id="Trazado_913312" data-name="Trazado 913312" d="M412.983,418.567v-1.2a3.641,3.641,0,0,1,3.35-3.629c-.1-.008-.193-.013-.292-.013h-2.9a3.642,3.642,0,0,0-3.642,3.642v1.2a.536.536,0,0,0,.536.536h3.484a.536.536,0,0,1-.536-.536" transform="translate(-365.602 -369.374)" fill="#b6c4cf"/>
            <path id="Trazado_913313" data-name="Trazado 913313" d="M412.988,413.211H403.34a1.341,1.341,0,0,1-1.34-1.34v-1.2a4.451,4.451,0,0,1,4.446-4.446h2.9a4.451,4.451,0,0,1,4.446,4.446v1.737a.8.8,0,0,1-.8.8m-9.38-1.608h8.576v-.933a2.841,2.841,0,0,0-2.838-2.838h-2.9a2.841,2.841,0,0,0-2.838,2.838Z" transform="translate(-358.907 -362.678)"/>
          </g>
        </g>
      </g>
    </g>
  </g>
</svg>
