<svg xmlns="http://www.w3.org/2000/svg" xmlns:xlink="http://www.w3.org/1999/xlink" width="48.448" height="40.906" viewBox="0 0 48.448 40.906">
  <defs>
    <clipPath id="clip-path">
      <rect id="Rect치ngulo_403540" data-name="Rect치ngulo 403540" width="33.25" height="33.245" fill="#12263f"/>
    </clipPath>
  </defs>
  <g id="Grupo_1102230" data-name="Grupo 1102230" transform="translate(-285 -3437.979)">
    <g id="Grupo_1100933" data-name="Grupo 1100933" transform="translate(-735.051 1041.979)">
      <g id="Grupo_1100929" data-name="Grupo 1100929" transform="translate(1020.051 2396)">
        <rect id="Rect치ngulo_402862" data-name="Rect치ngulo 402862" width="26.726" height="40.906" rx="13.363" transform="translate(0 0)" fill="#fa6d61"/>
        <circle id="Elipse_11523" data-name="Elipse 11523" cx="5.727" cy="5.727" r="5.727" transform="translate(0 0)" fill="#ffbe01"/>
      </g>
      <g id="Grupo_1101939" data-name="Grupo 1101939" transform="translate(1035.249 2403.662)">
        <g id="Grupo_1101939-2" data-name="Grupo 1101939" clip-path="url(#clip-path)">
          <path id="Trazado_913342" data-name="Trazado 913342" d="M3.274,344.914a.991.991,0,0,0,1,.98H5.7a.991.991,0,0,0,1-.98v-.192a4.405,4.405,0,0,0,.861-.481l.208.114A1.015,1.015,0,0,0,9.119,344l.715-1.183a.956.956,0,0,0,.106-.748.972.972,0,0,0-.476-.6l-.182-.1a3.952,3.952,0,0,0,0-.915l.182-.1a.974.974,0,0,0,.477-.6.957.957,0,0,0-.106-.749l-.712-1.181a1.016,1.016,0,0,0-1.351-.356l-.208.115a4.392,4.392,0,0,0-.861-.481V336.9a.991.991,0,0,0-1-.98H4.274a.991.991,0,0,0-1,.98v.192a4.4,4.4,0,0,0-.861.481l-.208-.114a1.015,1.015,0,0,0-1.351.354L.142,339a.956.956,0,0,0-.108.748.972.972,0,0,0,.476.6l.182.1a3.952,3.952,0,0,0,0,.915l-.182.1a.974.974,0,0,0-.477.606.957.957,0,0,0,.106.749L.854,344a1.017,1.017,0,0,0,1.351.356l.208-.115a4.392,4.392,0,0,0,.861.481Zm-.242-1.594a1.035,1.035,0,0,0-1.1-.079l-.18.1-.586-.97.139-.077a.973.973,0,0,0,.5-.98,2.822,2.822,0,0,1-.028-.407,2.787,2.787,0,0,1,.03-.409.972.972,0,0,0-.5-.978l-.139-.078.586-.97.181.1a1.039,1.039,0,0,0,1.1-.08,3.207,3.207,0,0,1,.711-.4.99.99,0,0,0,.638-.913v-.157H5.6v.157a.989.989,0,0,0,.638.913,3.247,3.247,0,0,1,.712.4,1.033,1.033,0,0,0,1.1.079l.18-.1.586.97-.139.077a.973.973,0,0,0-.5.98,2.82,2.82,0,0,1,.026.407,2.786,2.786,0,0,1-.03.409.972.972,0,0,0,.5.978l.139.078-.586.97-.181-.1a1.039,1.039,0,0,0-1.1.08,3.211,3.211,0,0,1-.711.4.99.99,0,0,0-.638.913v.157H4.382v-.157a.989.989,0,0,0-.638-.913,3.246,3.246,0,0,1-.712-.4" transform="translate(0 -312.65)" fill="#12263f"/>
          <path id="Trazado_913343" data-name="Trazado 913343" d="M45.423,379.2a2.137,2.137,0,1,0-2.137,2.137,2.137,2.137,0,0,0,2.137-2.137m-3.167,0a1.029,1.029,0,1,1,1.029,1.029,1.029,1.029,0,0,1-1.029-1.029" transform="translate(-38.298 -350.944)" fill="#12263f"/>
          <path id="Trazado_913344" data-name="Trazado 913344" d="M192,333.281v4.433a.554.554,0,0,0,.554.554H198.1a.554.554,0,0,0,.554-.554v-4.433a1.662,1.662,0,0,0-1.663-1.663h-.212a2.217,2.217,0,1,0-2.9,0h-.212A1.663,1.663,0,0,0,192,333.281m3.325-4.433a1.108,1.108,0,1,1-1.108,1.108,1.108,1.108,0,0,1,1.108-1.108m1.663,3.879a.554.554,0,0,1,.554.554v3.879h-4.433v-3.879a.554.554,0,0,1,.554-.554Z" transform="translate(-178.704 -305.023)" fill="#12263f"/>
          <path id="Trazado_913345" data-name="Trazado 913345" d="M158.128,12.186a6.093,6.093,0,1,0-4.8-2.328,6.093,6.093,0,0,0,4.8,2.328M153.17,5.5a4.991,4.991,0,0,1,4.943-4.4,5.109,5.109,0,0,1,.6.036A4.988,4.988,0,1,1,153.172,5.5v0Z" transform="translate(-141.497 0)" fill="#12263f"/>
          <path id="Trazado_913346" data-name="Trazado 913346" d="M210.636,44.908h-.831a.636.636,0,0,1-.693-.554H208A1.718,1.718,0,0,0,209.667,46v.567h1.108V46a1.718,1.718,0,0,0,1.663-1.65,1.738,1.738,0,0,0-1.8-1.663h-.831a.568.568,0,1,1,0-1.108h.831a.644.644,0,0,1,.693.554h1.108a1.718,1.718,0,0,0-1.663-1.65V39.92h-1.108v.567A1.718,1.718,0,0,0,208,42.137a1.738,1.738,0,0,0,1.8,1.663h.831a.568.568,0,1,1,0,1.108" transform="translate(-193.595 -37.155)" fill="#12263f"/>
          <path id="Trazado_913347" data-name="Trazado 913347" d="M88.388,199.124v-3.879a.554.554,0,0,0-.554-.554H76.75V191.92H75.642v2.771H64.558a.554.554,0,0,0-.554.554v3.879h1.108V195.8H75.642v3.325H76.75V195.8H87.279v3.325Z" transform="translate(-59.57 -178.625)" fill="#12263f"/>
          <path id="Trazado_913348" data-name="Trazado 913348" d="M340.191,338.148a.554.554,0,0,0-.784,0l-.2.2-.621-.621a3.611,3.611,0,1,0-.784.784l.621.621-.2.2a.554.554,0,0,0,0,.784l1.96,1.959a.554.554,0,0,0,.784,0l1.175-1.175a.554.554,0,0,0,0-.784Zm-2.743-.784a2.494,2.494,0,1,1,.73-1.763,2.494,2.494,0,0,1-.73,1.763m3.135,3.527-1.176-1.175.392-.392,1.175,1.176Z" transform="translate(-309.062 -308.984)" fill="#12263f"/>
        </g>
      </g>
    </g>
  </g>
</svg>
