<svg xmlns="http://www.w3.org/2000/svg" xmlns:xlink="http://www.w3.org/1999/xlink" width="102.38" height="102.38" viewBox="0 0 102.38 102.38">
  <defs>
    <clipPath id="clip-path">
      <rect id="Rectángulo_403353" data-name="Rectángulo 403353" width="73.955" height="86.991" fill="none"/>
    </clipPath>
  </defs>
  <g id="Grupo_1102351" data-name="Grupo 1102351" transform="translate(-538.836 -2031.694)">
    <circle id="Elipse_11586" data-name="Elipse 11586" cx="49.69" cy="49.69" r="49.69" transform="translate(540.336 2033.194)" fill="#efedee" stroke="#007dfe" stroke-miterlimit="10" stroke-width="3"/>
    <g id="Grupo_1101716" data-name="Grupo 1101716" transform="translate(548.048 2045.583)">
      <g id="Grupo_1101715" data-name="Grupo 1101715" clip-path="url(#clip-path)">
        <path id="Trazado_912439" data-name="Trazado 912439" d="M51.2,2a28.656,28.656,0,0,0-20,8.105l20,20.647Z" transform="translate(-12.836 -0.823)" fill="#fff"/>
        <path id="Trazado_912440" data-name="Trazado 912440" d="M50.377,31.106a1.178,1.178,0,0,1-.846-.358l-20-20.647a1.177,1.177,0,0,1,.026-1.664A29.778,29.778,0,0,1,50.377,0a1.177,1.177,0,0,1,1.177,1.177V29.929a1.177,1.177,0,0,1-1.177,1.177M32.059,9.327,49.2,27.022V2.379A27.4,27.4,0,0,0,32.059,9.327" transform="translate(-12.013 0)"/>
        <path id="Trazado_912441" data-name="Trazado 912441" d="M19.478,63.3,42.931,46.678l-20-20.647A28.723,28.723,0,0,0,19.478,63.3" transform="translate(-5.833 -10.71)" fill="#007dfe"/>
        <path id="Trazado_912442" data-name="Trazado 912442" d="M18.656,63.653a1.177,1.177,0,0,1-.961-.5,29.9,29.9,0,0,1,3.593-38.794,1.142,1.142,0,0,1,.838-.331,1.18,1.18,0,0,1,.827.357l20,20.647a1.178,1.178,0,0,1-.165,1.779L19.335,63.436a1.175,1.175,0,0,1-.679.217M22.1,26.89a27.547,27.547,0,0,0-3.144,33.931L40.307,45.688Z" transform="translate(-5.01 -9.887)"/>
        <path id="Trazado_912443" data-name="Trazado 912443" d="M85.878,40.592a28.3,28.3,0,0,0-.694-2.941c-.12-.414-.25-.823-.388-1.229q-.453-1.332-1.03-2.605c-.165-.37-.339-.735-.52-1.1q-.6-1.195-1.3-2.33c-.207-.331-.416-.66-.634-.981q-.812-1.194-1.737-2.3-.366-.439-.749-.866-.861-.953-1.806-1.831c-.278-.259-.563-.513-.852-.762q-.979-.846-2.032-1.6c-.313-.227-.63-.448-.953-.661-.735-.489-1.491-.946-2.272-1.365-.351-.19-.708-.372-1.068-.548A28.9,28.9,0,0,0,67,18.272c-.4-.144-.8-.283-1.205-.41a29.338,29.338,0,0,0-2.891-.746q-.68-.138-1.37-.245a29.234,29.234,0,0,0-3.321-.314c-.391-.015-.782-.03-1.177-.03a.57.57,0,0,0-.571.571V45.555l-2.032,1.439-5.547,3.931L36.4,59.774l-3.148,2.234a.568.568,0,0,0-.233.368.58.58,0,0,0,.1.428c.035.049.075.1.11.145.507.7,1.048,1.377,1.609,2.028.25.288.5.575.762.853.587.63,1.2,1.228,1.836,1.8q.427.384.866.749c.743.616,1.5,1.2,2.3,1.742.324.218.657.421.989.627q1.135.705,2.328,1.308c.361.18.724.357,1.092.523.852.385,1.726.72,2.613,1.023.406.137.813.27,1.225.39a29.349,29.349,0,0,0,2.931.706c.464.084.932.151,1.4.213a29.113,29.113,0,0,0,3.778.263l.08,0c.53,0,1.055-.016,1.576-.044a29.132,29.132,0,0,0,4.159-.523c.72-.144,1.428-.317,2.127-.512A29.1,29.1,0,0,0,71,71.632,29.744,29.744,0,0,0,82.818,59.809a29.111,29.111,0,0,0,2.463-6.1c.194-.7.368-1.409.512-2.129a29.6,29.6,0,0,0,.524-4.158c.026-.523.042-1.048.042-1.576,0-.026,0-.054,0-.081a29.731,29.731,0,0,0-.26-3.779q-.094-.705-.22-1.4" transform="translate(-13.581 -6.799)" fill="#fa6d61"/>
        <path id="Trazado_912444" data-name="Trazado 912444" d="M56.213,75.527l-.118,0a30.181,30.181,0,0,1-3.9-.273c-.484-.064-.971-.134-1.454-.222a30.072,30.072,0,0,1-3.052-.734c-.426-.124-.849-.261-1.271-.4-1-.341-1.888-.689-2.72-1.065-.38-.17-.757-.355-1.131-.541-.822-.415-1.635-.872-2.425-1.363l-.176-.108c-.286-.177-.572-.354-.85-.542-.771-.522-1.553-1.114-2.393-1.812-.305-.255-.606-.514-.9-.78-.68-.611-1.323-1.241-1.911-1.872-.268-.285-.53-.583-.79-.883-.633-.735-1.18-1.424-1.675-2.111-.055-.071-.085-.109-.112-.148a1.746,1.746,0,0,1,.418-2.445l22.71-16.1V16.274a1.75,1.75,0,0,1,1.748-1.748c.41,0,.817.015,1.223.031a30.616,30.616,0,0,1,3.453.327q.72.113,1.424.255a30.833,30.833,0,0,1,3.009.777c.421.131.84.276,1.255.427a30.012,30.012,0,0,1,2.953,1.25q.562.275,1.111.569c.78.419,1.577.9,2.364,1.421.333.22.665.451.993.689.719.516,1.43,1.078,2.11,1.665.3.258.6.522.885.791.657.612,1.29,1.252,1.878,1.9q.4.445.78.9c.637.765,1.245,1.57,1.806,2.394.227.333.444.675.659,1.018.492.795.949,1.609,1.359,2.426.19.378.371.757.543,1.144.4.878.758,1.79,1.07,2.706.144.423.28.849.4,1.281a30.081,30.081,0,0,1,.721,3.056c.088.483.164.966.229,1.454a31.1,31.1,0,0,1,.27,3.929v.085c0,.519-.015,1.053-.044,1.636a30.99,30.99,0,0,1-.545,4.327c-.141.708-.315,1.433-.533,2.215a30.616,30.616,0,0,1-9.234,14.7,30.659,30.659,0,0,1-5.621,3.944A30.326,30.326,0,0,1,64.39,74.4c-.77.215-1.494.39-2.212.533a30.494,30.494,0,0,1-4.327.544c-.557.03-1.109.046-1.638.046m-22.6-13.742c.388.519.812,1.045,1.289,1.6.238.274.479.549.729.816.543.583,1.136,1.164,1.764,1.728q.412.37.834.721c.779.646,1.5,1.194,2.205,1.671.251.17.51.33.77.49l.18.111c.732.454,1.484.877,2.237,1.258.34.169.69.34,1.044.5.767.347,1.587.667,2.511.983.386.131.777.258,1.172.373a28.072,28.072,0,0,0,2.817.679c.442.08.891.144,1.341.2a28.153,28.153,0,0,0,3.627.253l.073,0h0c.486,0,1-.015,1.512-.042a28.092,28.092,0,0,0,3.993-.5c.659-.131,1.327-.292,2.041-.491a27.962,27.962,0,0,0,5.853-2.363,28.135,28.135,0,0,0,13.712-17.2c.2-.725.362-1.394.491-2.044a28.529,28.529,0,0,0,.5-3.992c.027-.537.041-1.034.041-1.512v-.081a28.637,28.637,0,0,0-.25-3.626q-.09-.675-.211-1.341a27.829,27.829,0,0,0-.665-2.819c-.116-.4-.241-.792-.373-1.181-.287-.844-.62-1.685-.988-2.5-.161-.36-.327-.708-.5-1.054-.379-.754-.8-1.507-1.253-2.237-.2-.313-.4-.629-.607-.938-.518-.761-1.079-1.5-1.669-2.211q-.352-.423-.72-.832c-.541-.6-1.125-1.192-1.733-1.757q-.4-.373-.819-.732c-.628-.543-1.284-1.06-1.951-1.539-.3-.221-.605-.431-.913-.634-.731-.486-1.464-.926-2.182-1.311-.34-.184-.683-.358-1.028-.528a27.891,27.891,0,0,0-2.721-1.151c-.382-.139-.766-.272-1.155-.393a28.316,28.316,0,0,0-2.777-.717q-.65-.132-1.315-.235a28.122,28.122,0,0,0-3.184-.3l-.525-.019V44.732a1.177,1.177,0,0,1-.5.961Z" transform="translate(-12.759 -5.976)"/>
      </g>
    </g>
  </g>
</svg>
