<svg xmlns="http://www.w3.org/2000/svg" xmlns:xlink="http://www.w3.org/1999/xlink" width="101.428" height="101.428" viewBox="0 0 101.428 101.428">
  <defs>
    <clipPath id="clip-path">
      <rect id="Rectángulo_403571" data-name="Rectángulo 403571" width="60" height="50" transform="translate(-0.454 -0.379)" fill="none"/>
    </clipPath>
  </defs>
  <g id="Grupo_1102226" data-name="Grupo 1102226" transform="translate(-639.837 -1593.582)">
    <ellipse id="Elipse_11620" data-name="Elipse 11620" cx="49.214" cy="49.214" rx="49.214" ry="49.214" transform="translate(641.337 1595.082)" fill="#efedee" stroke="#007dfe" stroke-miterlimit="10" stroke-width="3"/>
    <g id="Grupo_1101975" data-name="Grupo 1101975" transform="translate(661.475 1619.352)">
      <rect id="Rectángulo_403567" data-name="Rectángulo 403567" width="39" height="23" transform="translate(15.576 17.649)" fill="#00b55b"/>
      <rect id="Rectángulo_403568" data-name="Rectángulo 403568" width="14" height="20" transform="translate(28.576 20.649)" fill="#ffb401"/>
      <rect id="Rectángulo_403569" data-name="Rectángulo 403569" width="20" height="19" transform="translate(0.576 29.649)" fill="#548aff"/>
      <g id="Grupo_1101974" data-name="Grupo 1101974" transform="translate(0.03 0.028)">
        <g id="Grupo_1101973" data-name="Grupo 1101973" clip-path="url(#clip-path)">
          <path id="Trazado_913417" data-name="Trazado 913417" d="M168,218.957h2.957l6.9-2.957h12.467a2.319,2.319,0,0,1,.792,4.5l-9.317,3.388,9.858,5.915h11.553a2.248,2.248,0,0,1,.617,4.409l-12.17,3.477H168Z" transform="translate(-147.324 -189.407)" fill="#ffceb6"/>
          <path id="Trazado_913418" data-name="Trazado 913418" d="M129.972,8h35.487a1.971,1.971,0,0,1,1.972,1.972V25.744a1.971,1.971,0,0,1-1.972,1.972H129.972A1.971,1.971,0,0,1,128,25.744V9.972A1.971,1.971,0,0,1,129.972,8" transform="translate(-112.252 -7.037)" fill="#02c26a"/>
          <path id="Trazado_913419" data-name="Trazado 913419" d="M405.915,120h-2.957A2.957,2.957,0,0,0,400,122.957v2.957h3.943a1.971,1.971,0,0,0,1.971-1.972Z" transform="translate(-350.737 -105.236)" fill="#e0edff"/>
          <rect id="Rectángulo_403570" data-name="Rectángulo 403570" width="14" height="20" transform="translate(28.546 0.621)" fill="#ffc431"/>
          <path id="Trazado_913420" data-name="Trazado 913420" d="M405.915,13.915h-2.957A2.957,2.957,0,0,1,400,10.957V8h3.943a1.971,1.971,0,0,1,1.971,1.972Z" transform="translate(-350.737 -7.037)" fill="#e0edff"/>
          <path id="Trazado_913421" data-name="Trazado 913421" d="M128,120h2.957a2.957,2.957,0,0,1,2.957,2.957v2.957h-3.943A1.971,1.971,0,0,1,128,123.943Z" transform="translate(-112.252 -105.236)" fill="#e0edff"/>
          <path id="Trazado_913422" data-name="Trazado 913422" d="M128,13.915h2.957a2.957,2.957,0,0,0,2.957-2.957V8h-3.943A1.971,1.971,0,0,0,128,9.972Z" transform="translate(-112.252 -7.037)" fill="#e0edff"/>
          <path id="Trazado_913423" data-name="Trazado 913423" d="M56.188,39.443V2.957A2.96,2.96,0,0,0,53.231,0H17.744a2.961,2.961,0,0,0-2.957,2.957v25.63H.986A.986.986,0,0,0,0,29.573H0V48.3a.986.986,0,0,0,.986.986H44.359a.987.987,0,0,0,.271-.038L56.8,45.773a3.233,3.233,0,0,0-.612-6.33M16.758,21.517a2.943,2.943,0,0,0,.986.17H27.6v1.972H16.758ZM18.729,13.8H16.758V7.886h1.972a3.948,3.948,0,0,0,3.943-3.943V1.972H27.6V9.858H22.672v1.972H27.6v7.886H22.672V17.744A3.947,3.947,0,0,0,18.729,13.8M52.245,7.886h1.972V13.8H52.245A3.947,3.947,0,0,0,48.3,17.744v1.972H43.373V11.829H48.3V9.858H43.373V1.972H48.3V3.943a3.948,3.948,0,0,0,3.943,3.943m-8.872,25.63H54.217v1.972H43.373Zm10.843-9.858H43.373V21.687h9.858a2.942,2.942,0,0,0,.986-.17ZM41.4,19.715H29.573V1.972H41.4ZM29.573,21.687H41.4V25.63H30.558a.985.985,0,0,0-.388.08l-.6.256Zm13.8,3.943H54.217V27.6H46.049a3.312,3.312,0,0,0-2.675-1.953Zm2.892,3.943h7.951v1.972H45.051a3.323,3.323,0,0,0,1.215-1.972M41.4,37.492l-4.619-2.771L41.4,33.041Zm1.972-.033H54.217V39.43H44.632l-1.259-.755ZM54.217,18.729a.987.987,0,0,1-.986.986H50.274V17.744a1.974,1.974,0,0,1,1.972-1.972h1.972Zm0-15.772V5.915H52.245a1.974,1.974,0,0,1-1.972-1.972V1.972h2.957a.987.987,0,0,1,.986.986M17.744,1.972H20.7V3.943a1.974,1.974,0,0,1-1.972,1.972H16.758V2.957a.987.987,0,0,1,.986-.986m-.986,13.8h1.972A1.974,1.974,0,0,1,20.7,17.744v1.972H17.744a.987.987,0,0,1-.986-.986Zm2.957,31.544H1.972V30.558H19.715ZM16.758,28.587V25.63H27.6V26.81l-4.145,1.777Zm39.5,15.29L44.221,47.316H21.687V30.558h1.972a.988.988,0,0,0,.388-.08L30.761,27.6H43.026a1.333,1.333,0,0,1,.456,2.586l-9.317,3.388a.986.986,0,0,0-.17,1.772l9.858,5.915a.984.984,0,0,0,.507.141H55.912a1.262,1.262,0,0,1,.347,2.475" transform="translate(-0.024 -0.023)" fill="#12233f"/>
          <path id="Trazado_913424" data-name="Trazado 913424" d="M266.952,50.921h-2.957v1.584h1.972V54.09h1.972V52.369c1.54-.437,2.347-1.795,1.8-3.032a2.992,2.992,0,0,0-2.788-1.584.811.811,0,1,1,0-1.584h2.957V44.584h-1.971V43h-1.972v1.721c-1.54.437-2.347,1.795-1.8,3.032a2.992,2.992,0,0,0,2.788,1.584.811.811,0,1,1,0,1.584" transform="translate(-231.489 -37.724)" fill="#12233f"/>
        </g>
      </g>
    </g>
  </g>
</svg>
