<svg xmlns="http://www.w3.org/2000/svg" xmlns:xlink="http://www.w3.org/1999/xlink" width="101.428" height="101.428" viewBox="0 0 101.428 101.428">
  <defs>
    <clipPath id="clip-path">
      <rect id="Rectángulo_403591" data-name="Rectángulo 403591" width="54" height="54" transform="translate(-0.051 -0.051)" fill="none"/>
    </clipPath>
  </defs>
  <g id="Grupo_1102227" data-name="Grupo 1102227" transform="translate(-901.811 -1593.582)">
    <ellipse id="Elipse_11622" data-name="Elipse 11622" cx="49.214" cy="49.214" rx="49.214" ry="49.214" transform="translate(903.311 1595.082)" fill="#efedee" stroke="#007dfe" stroke-miterlimit="10" stroke-width="3"/>
    <g id="Grupo_1101977" data-name="Grupo 1101977" transform="translate(926.102 1617.051)">
      <g id="Grupo_1101976" data-name="Grupo 1101976" clip-path="url(#clip-path)">
        <path id="Trazado_913425" data-name="Trazado 913425" d="M16.693,296H8v16.517a4.347,4.347,0,0,0,4.347,4.347h4.347" transform="translate(-7.131 -263.835)" fill="#2769b3"/>
        <path id="Trazado_913426" data-name="Trazado 913426" d="M48,60.16a4.347,4.347,0,0,0,4.347-4.347V8H88.858V60.16Z" transform="translate(-42.784 -7.131)" fill="#3c82c2"/>
        <path id="Trazado_913427" data-name="Trazado 913427" d="M153.034,8H120V50.6a6.085,6.085,0,0,0,6.086,6.085h26.948V8Z" transform="translate(-106.96 -7.131)" fill="#56a0d9"/>
        <path id="Trazado_913428" data-name="Trazado 913428" d="M32.341,41.739A1.738,1.738,0,0,0,30.6,40H9.739A1.738,1.738,0,0,0,8,41.739v12.17a1.738,1.738,0,0,0,1.739,1.739H30.6a1.738,1.738,0,0,0,1.739-1.739Z" transform="translate(-7.131 -35.653)" fill="#c8c8c8"/>
        <path id="Trazado_913429" data-name="Trazado 913429" d="M46.6,41.739A1.738,1.738,0,0,0,44.864,40H24V52.17a1.738,1.738,0,0,0,1.739,1.739H46.6Z" transform="translate(-21.392 -35.653)" fill="#dcdcdc"/>
        <path id="Trazado_913430" data-name="Trazado 913430" d="M57.739,72A1.739,1.739,0,1,1,56,73.739,1.739,1.739,0,0,1,57.739,72" transform="translate(-49.915 -64.176)" fill="#2769b3"/>
        <path id="Trazado_913431" data-name="Trazado 913431" d="M40,109.216v-1.739a3.477,3.477,0,0,1,6.955,0v1.739Z" transform="translate(-35.653 -92.699)" fill="#2769b3"/>
        <rect id="Rectángulo_403572" data-name="Rectángulo 403572" width="7" height="3" transform="translate(14.949 7.949)" fill="#fff"/>
        <rect id="Rectángulo_403573" data-name="Rectángulo 403573" width="8" height="1" transform="translate(14.949 15.949)" fill="#fff"/>
        <rect id="Rectángulo_403574" data-name="Rectángulo 403574" width="11" height="1" transform="translate(32.949 3.949)" fill="#fff"/>
        <rect id="Rectángulo_403575" data-name="Rectángulo 403575" width="16" height="2" transform="translate(27.949 6.949)" fill="#fff"/>
        <rect id="Rectángulo_403576" data-name="Rectángulo 403576" width="13" height="1" transform="translate(17.949 22.949)" fill="#fff"/>
        <rect id="Rectángulo_403577" data-name="Rectángulo 403577" width="18" height="2" transform="translate(11.949 25.949)" fill="#fff"/>
        <rect id="Rectángulo_403578" data-name="Rectángulo 403578" width="17" height="1" transform="translate(11.949 29.949)" fill="#fff"/>
        <rect id="Rectángulo_403579" data-name="Rectángulo 403579" width="8" height="1" transform="translate(16.949 43.949)" fill="#fff"/>
        <rect id="Rectángulo_403580" data-name="Rectángulo 403580" width="13" height="2" transform="translate(11.949 46.949)" fill="#fff"/>
        <rect id="Rectángulo_403581" data-name="Rectángulo 403581" width="11" height="2" transform="translate(11.949 32.949)" fill="#fff"/>
        <rect id="Rectángulo_403582" data-name="Rectángulo 403582" width="5" height="12" transform="translate(24.949 36.949)" fill="#b4b4b4"/>
        <path id="Trazado_913432" data-name="Trazado 913432" d="M280,360.693a9.6,9.6,0,0,1,3.367.61l4.3,1.614a6.015,6.015,0,0,0,4.965-.336l8.965-4.827a1.9,1.9,0,0,0,1-1.675,1.471,1.471,0,0,0-1.988-1.378l-5.077,1.9a9.6,9.6,0,0,1-3.367.61,1.739,1.739,0,1,0,0-3.477h-3.477l-.311-.124A22.561,22.561,0,0,0,280,352" transform="translate(-249.573 -313.749)" fill="#edb8ac"/>
        <path id="Trazado_913433" data-name="Trazado 913433" d="M256,336v6.955a2.608,2.608,0,0,0,2.608,2.608V336Z" transform="translate(-228.181 -299.488)" fill="#c8c8c8"/>
        <path id="Trazado_913434" data-name="Trazado 913434" d="M287.672,361.179a6.015,6.015,0,0,0,4.965-.336l8.965-4.827a1.893,1.893,0,0,0,.754-.751,1.469,1.469,0,0,0-1.741-.563l-5.077,1.9a9.6,9.6,0,0,1-3.367.61,1.739,1.739,0,1,0,0-3.477h-3.477l-.311-.124A22.561,22.561,0,0,0,280,352v6.955a9.6,9.6,0,0,1,3.367.61Z" transform="translate(-249.573 -313.749)" fill="#ffe1d4"/>
        <rect id="Rectángulo_403583" data-name="Rectángulo 403583" width="6" height="1" transform="translate(36.949 42.949)" fill="#edb8ac"/>
        <path id="Trazado_913435" data-name="Trazado 913435" d="M319.824,200A7.824,7.824,0,1,1,312,207.824,7.824,7.824,0,0,1,319.824,200" transform="translate(-278.096 -178.267)" fill="#e7b532"/>
        <path id="Trazado_913436" data-name="Trazado 913436" d="M326.955,200a7.818,7.818,0,1,0,7.824,7.824A7.785,7.785,0,0,0,326.955,200" transform="translate(-285.227 -178.267)" fill="#f9cb66"/>
        <path id="Trazado_913437" data-name="Trazado 913437" d="M341.216,224A5.216,5.216,0,1,1,336,229.216,5.216,5.216,0,0,1,341.216,224" transform="translate(-299.488 -199.659)" fill="#ffe1b2"/>
        <path id="Trazado_913438" data-name="Trazado 913438" d="M362.608,228.347a.869.869,0,1,1,.869-.869h1.739a2.6,2.6,0,0,0-1.739-2.448V224h-1.739v1.029a2.6,2.6,0,0,0,.869,5.056.869.869,0,1,1-.869.869H360a2.6,2.6,0,0,0,1.739,2.448v1.029h1.739V233.4a2.6,2.6,0,0,0-.869-5.056" transform="translate(-320.88 -199.659)" fill="#f9cb66"/>
        <path id="Trazado_913439" data-name="Trazado 913439" d="M51.557,39.989a2.352,2.352,0,0,0-.822.149L46.943,41.56V36.5a8.66,8.66,0,0,0,0-13.877V.869A.87.87,0,0,0,46.074,0H9.563a.87.87,0,0,0-.869.869V3.477H2.608A2.611,2.611,0,0,0,0,6.085v12.17a2.611,2.611,0,0,0,2.608,2.608H8.693V31.3H.869A.87.87,0,0,0,0,32.165V48.682A5.221,5.221,0,0,0,5.216,53.9H46.074a.87.87,0,0,0,.869-.869v-5.3l5.5-2.961A2.769,2.769,0,0,0,53.9,42.33,2.344,2.344,0,0,0,51.557,39.989ZM45.2,42.2l-.044.015a2.594,2.594,0,0,0,.044-.476Zm3.478-12.64A6.955,6.955,0,1,1,41.728,22.6a6.963,6.963,0,0,1,6.955,6.955M1.739,18.255V6.085a.871.871,0,0,1,.869-.869H23.472a.871.871,0,0,1,.869.869V18.256a.871.871,0,0,1-.869.869H2.608a.871.871,0,0,1-.869-.869m0,30.427V33.035H8.693V48.682a3.477,3.477,0,0,1-6.955,0M45.2,52.16H9.093a5.189,5.189,0,0,0,1.339-3.477V20.863h13.04a2.611,2.611,0,0,0,2.608-2.608V6.085a2.611,2.611,0,0,0-2.608-2.608H10.432V1.739H45.2V21.594a8.693,8.693,0,1,0,0,15.926v4.2a2.61,2.61,0,0,0-2.607-2.6h-3.31l-.156-.063A23.344,23.344,0,0,0,31.3,37.4v-.889a.87.87,0,0,0-.869-.869H25.211a.87.87,0,0,0-.869.869v6.955H16.516v1.739h7.825v1.739H12.171v1.739H24.341a.87.87,0,0,0,.869.869h5.216a.87.87,0,0,0,.869-.869V47.86a8.674,8.674,0,0,1,2.192.509l4.3,1.614a6.89,6.89,0,0,0,5.684-.385l1.728-.931ZM29.557,47.813H26.08V37.381h3.477ZM51.616,43.24l-8.965,4.827a5.207,5.207,0,0,1-4.248.287L34.1,46.74a10.416,10.416,0,0,0-2.8-.627V39.161a21.588,21.588,0,0,1,7.19,1.511l.31.124a.871.871,0,0,0,.324.063H42.6a.869.869,0,0,1,0,1.739H37.381v1.739H42.6a10.425,10.425,0,0,0,3.672-.666l5.076-1.9a.615.615,0,0,1,.815.564A1.031,1.031,0,0,1,51.616,43.24Z" fill="#12233f"/>
        <path id="Trazado_913440" data-name="Trazado 913440" d="M362.608,226.608a.871.871,0,0,1,.869.869h1.739a2.6,2.6,0,0,0-1.739-2.448V224h-1.739v1.029a2.6,2.6,0,0,0,.869,5.056.869.869,0,1,1-.869.869H360a2.6,2.6,0,0,0,1.739,2.448v1.029h1.739V233.4a2.6,2.6,0,0,0-.869-5.056.869.869,0,0,1,0-1.739" transform="translate(-320.88 -199.659)" fill="#12233f"/>
        <path id="Trazado_913441" data-name="Trazado 913441" d="M38.5,68.073a2.608,2.608,0,1,0-4.312,0A4.332,4.332,0,0,0,32,71.824v1.739a.87.87,0,0,0,.869.869h6.955a.87.87,0,0,0,.869-.869V71.824A4.332,4.332,0,0,0,38.5,68.073m-3.025-1.465a.869.869,0,1,1,.869.869.871.871,0,0,1-.869-.869m3.477,6.085H33.739v-.869a2.608,2.608,0,0,1,5.216,0Z" transform="translate(-28.523 -57.045)" fill="#12233f"/>
        <path id="Trazado_913442" data-name="Trazado 913442" d="M135.824,64h-6.955a.87.87,0,0,0-.869.869v3.477a.87.87,0,0,0,.869.869h6.955a.87.87,0,0,0,.869-.869V64.869a.87.87,0,0,0-.869-.869m-.869,3.477h-5.216V65.739h5.216Z" transform="translate(-114.091 -57.045)" fill="#12233f"/>
        <rect id="Rectángulo_403584" data-name="Rectángulo 403584" width="8" height="1" transform="translate(14.949 15.949)" fill="#12233f"/>
        <rect id="Rectángulo_403585" data-name="Rectángulo 403585" width="11" height="1" transform="translate(32.949 3.949)" fill="#12233f"/>
        <rect id="Rectángulo_403586" data-name="Rectángulo 403586" width="16" height="2" transform="translate(27.949 6.949)" fill="#12233f"/>
        <rect id="Rectángulo_403587" data-name="Rectángulo 403587" width="13" height="1" transform="translate(17.949 22.949)" fill="#12233f"/>
        <rect id="Rectángulo_403588" data-name="Rectángulo 403588" width="18" height="2" transform="translate(11.949 25.949)" fill="#12233f"/>
        <rect id="Rectángulo_403589" data-name="Rectángulo 403589" width="17" height="1" transform="translate(11.949 29.949)" fill="#12233f"/>
        <rect id="Rectángulo_403590" data-name="Rectángulo 403590" width="11" height="2" transform="translate(11.949 32.949)" fill="#12233f"/>
      </g>
    </g>
  </g>
</svg>
