<svg xmlns="http://www.w3.org/2000/svg" xmlns:xlink="http://www.w3.org/1999/xlink" width="101.428" height="101.428" viewBox="0 0 101.428 101.428">
  <defs>
    <clipPath id="clip-path">
      <rect id="Rectángulo_403595" data-name="Rectángulo 403595" width="54.579" height="59.528" fill="none"/>
    </clipPath>
  </defs>
  <g id="Grupo_1102228" data-name="Grupo 1102228" transform="translate(-1161.214 -1593.582)">
    <ellipse id="Elipse_11621" data-name="Elipse 11621" cx="49.214" cy="49.214" rx="49.214" ry="49.214" transform="translate(1162.714 1595.082)" fill="#efedee" stroke="#007dfe" stroke-miterlimit="10" stroke-width="3"/>
    <g id="Grupo_1101979" data-name="Grupo 1101979" transform="translate(1184.639 1611.473)">
      <g id="Grupo_1101978" data-name="Grupo 1101978" clip-path="url(#clip-path)">
        <path id="Trazado_913443" data-name="Trazado 913443" d="M90.843,88.414H51.665a1.026,1.026,0,0,0-1.023,1.023V116.58a1.026,1.026,0,0,0,1.023,1.023H90.843a1.026,1.026,0,0,0,1.023-1.023V89.437A1.026,1.026,0,0,0,90.843,88.414Z" transform="translate(-44.465 -77.629)" fill="#8d9ca8" fill-rule="evenodd"/>
        <rect id="Rectángulo_403592" data-name="Rectángulo 403592" width="16.196" height="29.189" transform="translate(18.691 10.785)" fill="#8192a5"/>
        <path id="Trazado_913444" data-name="Trazado 913444" d="M78.871,200.7H76.527a.512.512,0,0,1-.511-.511v-2.344a.512.512,0,0,1,.511-.511h2.344a.512.512,0,0,1,.511.511v2.344a.512.512,0,0,1-.511.511m0,8.369H76.527a.512.512,0,0,1-.511-.511v-2.344a.512.512,0,0,1,.511-.511h2.344a.512.512,0,0,1,.511.511v2.344a.512.512,0,0,1-.511.511m1.841-3.367h2.344a.512.512,0,0,1,.511.511v2.344a.512.512,0,0,1-.511.511H80.712a.512.512,0,0,1-.511-.511v-2.344a.512.512,0,0,1,.511-.511m-1.841-.818H76.527a.512.512,0,0,1-.511-.511v-2.344a.512.512,0,0,1,.511-.511h2.344a.512.512,0,0,1,.511.511v2.344a.512.512,0,0,1-.511.511m4.7-2.855v2.344a.512.512,0,0,1-.511.511H80.712a.512.512,0,0,1-.511-.511v-2.344a.512.512,0,0,1,.511-.511h2.344a.512.512,0,0,1,.511.511m-2.855-4.7h2.344a.512.512,0,0,1,.511.511v2.344a.512.512,0,0,1-.511.511H80.712a.512.512,0,0,1-.511-.511v-2.344a.512.512,0,0,1,.511-.511" transform="translate(-66.743 -173.264)" fill="#d8ecfe" fill-rule="evenodd"/>
        <path id="Trazado_913445" data-name="Trazado 913445" d="M93.53,200.7h-.818a.512.512,0,0,0,.511-.511v-2.344a.512.512,0,0,0-.511-.511h.818a.512.512,0,0,1,.511.511v2.344a.512.512,0,0,1-.511.511m0,8.369h-.818a.512.512,0,0,0,.511-.511v-2.344a.512.512,0,0,0-.511-.511h.818a.512.512,0,0,1,.511.511v2.344a.512.512,0,0,1-.511.511M96.9,205.7h.818a.512.512,0,0,1,.511.511v2.344a.512.512,0,0,1-.511.511H96.9a.512.512,0,0,0,.511-.511v-2.344A.512.512,0,0,0,96.9,205.7Zm-3.366-.818h-.818a.512.512,0,0,0,.511-.511v-2.344a.512.512,0,0,0-.511-.511h.818a.512.512,0,0,1,.511.511v2.344a.512.512,0,0,1-.511.511m4.7-2.855v2.344a.512.512,0,0,1-.511.511H96.9a.512.512,0,0,0,.511-.511v-2.344a.512.512,0,0,0-.511-.511h.818A.512.512,0,0,1,98.226,202.032Zm-1.329-4.7h.818a.512.512,0,0,1,.511.511v2.344a.512.512,0,0,1-.511.511H96.9a.512.512,0,0,0,.511-.511v-2.344A.512.512,0,0,0,96.9,197.336Z" transform="translate(-81.403 -173.264)" fill="#c4e2ff" fill-rule="evenodd"/>
        <path id="Trazado_913446" data-name="Trazado 913446" d="M73.276,135.484h7.142a.616.616,0,0,1,.614.614v1.845a.615.615,0,0,1-.614.614H73.276a.615.615,0,0,1-.614-.614V136.1a.615.615,0,0,1,.614-.614" transform="translate(-63.798 -118.957)" fill="#d8ecfe" fill-rule="evenodd"/>
        <path id="Trazado_913447" data-name="Trazado 913447" d="M129.532,135.484h.818a.615.615,0,0,1,.614.614v1.845a.615.615,0,0,1-.614.614h-.818a.615.615,0,0,0,.614-.614V136.1a.615.615,0,0,0-.614-.614" transform="translate(-113.731 -118.957)" fill="#c4e2ff" fill-rule="evenodd"/>
        <path id="Trazado_913448" data-name="Trazado 913448" d="M304.168,199.509h-2.344a.512.512,0,0,1-.511-.511v-2.344a.512.512,0,0,1,.511-.511h2.344a.512.512,0,0,1,.511.511V199a.512.512,0,0,1-.511.511m0,8.369h-2.344a.512.512,0,0,1-.511-.511v-2.344a.512.512,0,0,1,.511-.511h2.344a.512.512,0,0,1,.511.511v2.344a.512.512,0,0,1-.511.511m1.841-3.367h2.344a.512.512,0,0,1,.511.511v2.344a.512.512,0,0,1-.511.511h-2.344a.512.512,0,0,1-.511-.511v-2.344a.512.512,0,0,1,.511-.511m-1.841-.818h-2.344a.512.512,0,0,1-.511-.511v-2.344a.512.512,0,0,1,.511-.511h2.344a.512.512,0,0,1,.511.511v2.344a.512.512,0,0,1-.511.511m4.7-2.855v2.344a.512.512,0,0,1-.511.511h-2.344a.512.512,0,0,1-.511-.511v-2.344a.512.512,0,0,1,.511-.511h2.344a.512.512,0,0,1,.511.511m-2.855-4.7h2.344a.512.512,0,0,1,.511.511V199a.512.512,0,0,1-.511.511h-2.344A.512.512,0,0,1,305.5,199v-2.344a.512.512,0,0,1,.511-.511" transform="translate(-264.558 -172.217)" fill="#d8ecfe" fill-rule="evenodd"/>
        <path id="Trazado_913449" data-name="Trazado 913449" d="M318.828,199.509h-.818a.512.512,0,0,0,.511-.511v-2.344a.512.512,0,0,0-.511-.511h.818a.512.512,0,0,1,.511.511V199a.512.512,0,0,1-.511.511m0,8.369h-.818a.512.512,0,0,0,.511-.511v-2.344a.512.512,0,0,0-.511-.511h.818a.512.512,0,0,1,.511.511v2.344a.512.512,0,0,1-.511.511m3.366-3.367h.818a.512.512,0,0,1,.511.511v2.344a.512.512,0,0,1-.511.511h-.818a.512.512,0,0,0,.511-.511v-2.344a.512.512,0,0,0-.511-.511m-3.366-.818h-.818a.512.512,0,0,0,.511-.511v-2.344a.512.512,0,0,0-.511-.511h.818a.512.512,0,0,1,.511.511v2.344a.512.512,0,0,1-.511.511m4.7-2.855v2.344a.512.512,0,0,1-.511.511h-.818a.512.512,0,0,0,.511-.511v-2.344a.512.512,0,0,0-.511-.511h.818a.512.512,0,0,1,.511.511m-1.329-4.7h.818a.512.512,0,0,1,.511.511V199a.512.512,0,0,1-.511.511h-.818a.512.512,0,0,0,.511-.511v-2.344a.512.512,0,0,0-.511-.511" transform="translate(-279.218 -172.217)" fill="#c4e2ff" fill-rule="evenodd"/>
        <path id="Trazado_913450" data-name="Trazado 913450" d="M298.574,134.292h7.142a.615.615,0,0,1,.614.614v1.845a.615.615,0,0,1-.614.614h-7.142a.615.615,0,0,1-.614-.614v-1.845a.615.615,0,0,1,.614-.614" transform="translate(-261.614 -117.911)" fill="#d8ecfe" fill-rule="evenodd"/>
        <path id="Trazado_913451" data-name="Trazado 913451" d="M354.83,134.292h.818a.615.615,0,0,1,.614.614v1.845a.615.615,0,0,1-.614.614h-.818a.615.615,0,0,0,.614-.614v-1.845a.615.615,0,0,0-.614-.614" transform="translate(-311.547 -117.911)" fill="#c4e2ff" fill-rule="evenodd"/>
        <path id="Trazado_913452" data-name="Trazado 913452" d="M80.912,76.936H37.579a.615.615,0,0,0-.614.614V79.4a.615.615,0,0,0,.614.614H80.912a.615.615,0,0,0,.614-.614V77.55a.616.616,0,0,0-.614-.614" transform="translate(-32.456 -67.551)" fill="#8d9ca8" fill-rule="evenodd"/>
        <rect id="Rectángulo_403593" data-name="Rectángulo 403593" width="16.196" height="3.073" transform="translate(18.691 9.385)" fill="#8192a5"/>
        <path id="Trazado_913453" data-name="Trazado 913453" d="M36.965,88.711v1.023a.615.615,0,0,0,.614.614H80.912a.615.615,0,0,0,.614-.614V88.711a.615.615,0,0,1-.614.614H37.579A.615.615,0,0,1,36.965,88.711Z" transform="translate(-32.456 -77.89)" fill="#8192a5" fill-rule="evenodd"/>
        <rect id="Rectángulo_403594" data-name="Rectángulo 403594" width="16.196" height="1.023" transform="translate(18.691 11.435)" fill="#65788e"/>
        <path id="Trazado_913454" data-name="Trazado 913454" d="M211.615.976a.976.976,0,1,1,1.952,0v3.75a.976.976,0,1,1-1.952,0Z" transform="translate(-185.802)" fill="#8192a5" fill-rule="evenodd"/>
        <path id="Trazado_913455" data-name="Trazado 913455" d="M186.4,26.127h6.666a.821.821,0,0,1,.818.818V29.52a.821.821,0,0,1-.818.818H186.4a.821.821,0,0,1-.818-.818V26.945a.821.821,0,0,1,.818-.818" transform="translate(-162.946 -22.94)" fill="#8d9ca8" fill-rule="evenodd"/>
        <path id="Trazado_913456" data-name="Trazado 913456" d="M238.554,26.127h1.023a.821.821,0,0,1,.818.818V29.52a.821.821,0,0,1-.818.818h-1.023a.821.821,0,0,0,.818-.818V26.945a.821.821,0,0,0-.818-.818" transform="translate(-209.455 -22.94)" fill="#8192a5" fill-rule="evenodd"/>
        <path id="Trazado_913457" data-name="Trazado 913457" d="M164.314,50.645h11.7a1.026,1.026,0,0,1,1.023,1.023V84.441H163.291V51.668a1.026,1.026,0,0,1,1.023-1.023" transform="translate(-143.372 -44.467)" fill="#9facba" fill-rule="evenodd"/>
        <path id="Trazado_913458" data-name="Trazado 913458" d="M191.519,142.154h-2.344a.512.512,0,0,1-.511-.511V139.3a.512.512,0,0,1,.511-.511h2.344a.512.512,0,0,1,.511.511v2.344a.512.512,0,0,1-.511.511m0,4.184h-2.344a.512.512,0,0,1-.511-.511v-2.344a.512.512,0,0,1,.511-.511h2.344a.512.512,0,0,1,.511.511v2.344a.512.512,0,0,1-.511.511m4.7-2.855v2.344a.512.512,0,0,1-.511.511H193.36a.512.512,0,0,1-.511-.511v-2.344a.512.512,0,0,1,.511-.511H195.7a.512.512,0,0,1,.511.511m-2.855-4.7H195.7a.512.512,0,0,1,.511.511v2.344a.512.512,0,0,1-.511.511H193.36a.512.512,0,0,1-.511-.511V139.3a.512.512,0,0,1,.511-.511" transform="translate(-165.65 -121.858)" fill="#d8ecfe" fill-rule="evenodd"/>
        <path id="Trazado_913459" data-name="Trazado 913459" d="M206.179,142.154h-.818a.512.512,0,0,0,.511-.511V139.3a.512.512,0,0,0-.511-.511h.818a.512.512,0,0,1,.511.511v2.344A.512.512,0,0,1,206.179,142.154Zm0,4.184h-.818a.512.512,0,0,0,.511-.511v-2.344a.512.512,0,0,0-.511-.511h.818a.512.512,0,0,1,.511.511v2.344A.512.512,0,0,1,206.179,146.339Zm4.7-2.855v2.344a.512.512,0,0,1-.511.511h-.818a.512.512,0,0,0,.511-.511v-2.344a.512.512,0,0,0-.511-.511h.818a.512.512,0,0,1,.511.511m-1.33-4.7h.818a.512.512,0,0,1,.511.511v2.344a.512.512,0,0,1-.511.511h-.818a.512.512,0,0,0,.511-.511V139.3a.512.512,0,0,0-.511-.511" transform="translate(-180.31 -121.858)" fill="#c4e2ff" fill-rule="evenodd"/>
        <path id="Trazado_913460" data-name="Trazado 913460" d="M185.925,76.937h7.142a.615.615,0,0,1,.614.614V79.4a.615.615,0,0,1-.614.614h-7.142a.615.615,0,0,1-.614-.614V77.551a.615.615,0,0,1,.614-.614" transform="translate(-162.706 -67.552)" fill="#d8ecfe" fill-rule="evenodd"/>
        <path id="Trazado_913461" data-name="Trazado 913461" d="M242.181,76.937H243a.615.615,0,0,1,.614.614V79.4a.615.615,0,0,1-.614.614h-.818a.615.615,0,0,0,.614-.614V77.551a.615.615,0,0,0-.614-.614" transform="translate(-212.639 -67.552)" fill="#c4e2ff" fill-rule="evenodd"/>
        <path id="Trazado_913462" data-name="Trazado 913462" d="M195.98,237.064h-3.517a1.692,1.692,0,0,0-1.769,1.595v9.461h7.056v-9.461A1.692,1.692,0,0,0,195.98,237.064Z" transform="translate(-167.433 -208.146)" fill="#eceff1" fill-rule="evenodd"/>
        <path id="Trazado_913463" data-name="Trazado 913463" d="M193.486,237.064h-1.023a1.692,1.692,0,0,0-1.769,1.595v9.461h1.023v-9.461A1.692,1.692,0,0,1,193.486,237.064Z" transform="translate(-167.433 -208.146)" fill="#d1d1d6" fill-rule="evenodd"/>
        <path id="Trazado_913464" data-name="Trazado 913464" d="M3.593,174.948H49.281a1.2,1.2,0,0,1,0,2.4H1.2a1.2,1.2,0,0,1-1.2-1.2V135.382a1.2,1.2,0,0,1,1.2-1.2h0a1.2,1.2,0,0,1,1.2,1.2V173.75a1.2,1.2,0,0,0,1.2,1.2" transform="translate(0 -117.816)" fill="#12233f" fill-rule="evenodd"/>
        <path id="Trazado_913465" data-name="Trazado 913465" d="M39.378,294.261a.973.973,0,0,1-1.159-1.563l11.9-8.864a.973.973,0,0,1,1.2.032h0l4.355,3.6,7.219-6.268a.973.973,0,0,1,1.372.1l13.241,15.319.017-2.838a.972.972,0,0,1,1.541-.784l2.476,1.677,2.853-4-.8.192a.972.972,0,0,1-.45-1.891l3.325-.8a.972.972,0,0,1,1.17.72.983.983,0,0,1,.026.191h0l.125,3.417a.973.973,0,1,1-1.944.069l-.02-.556-3.251,4.562h0a.972.972,0,0,1-1.337.241l-1.781-1.207-.021,3.571a.973.973,0,0,1-1.708.669l-14.3-16.539-7.06,6.13a.975.975,0,0,1-1.3.056l-4.4-3.641Z" transform="translate(-33.212 -246.689)" fill="#ffe177" fill-rule="evenodd"/>
        <path id="Trazado_913466" data-name="Trazado 913466" d="M39.34,273.42a.974.974,0,1,1-1.1-1.609l12.352-8.434a.974.974,0,0,1,1.353.255l.02.03,3.767,5.439,9.243-7.568a.975.975,0,0,1,1.359.121l3.384,3.481,2.745-6.3a.974.974,0,0,1,1.483-.385l3.372,2.284,6.759-8.732-.6.077a.972.972,0,1,1-.244-1.929l3.392-.432a.973.973,0,0,1,1.092,1.033h0l-.247,3.41a.974.974,0,0,1-1.944-.137l.057-.786L78.3,262.649h0a.972.972,0,0,1-1.314.21l-3.2-2.171-2.849,6.534a.974.974,0,0,1-1.6.309l-3.814-3.923-9.367,7.671v0q-.03.025-.063.048a.973.973,0,0,1-1.353-.248l-3.841-5.546Z" transform="translate(-33.204 -219.253)" fill="#8ac9fe" fill-rule="evenodd"/>
      </g>
    </g>
  </g>
</svg>
