<svg xmlns="http://www.w3.org/2000/svg" xmlns:xlink="http://www.w3.org/1999/xlink" width="101.428" height="101.428" viewBox="0 0 101.428 101.428">
  <defs>
    <clipPath id="clip-path">
      <rect id="Rectángulo_403617" data-name="Rectángulo 403617" width="58.185" height="55.322" fill="none"/>
    </clipPath>
  </defs>
  <g id="Grupo_1102229" data-name="Grupo 1102229" transform="translate(-328.837 -2607.911)">
    <g id="Grupo_1102228" data-name="Grupo 1102228">
      <ellipse id="Elipse_11597" data-name="Elipse 11597" cx="49.214" cy="49.214" rx="49.214" ry="49.214" transform="translate(330.337 2609.411)" fill="#efedee" stroke="#007dfe" stroke-miterlimit="10" stroke-width="3"/>
      <g id="Grupo_1101991" data-name="Grupo 1101991" transform="translate(350.933 2629.448)">
        <g id="Grupo_1101990" data-name="Grupo 1101990" clip-path="url(#clip-path)">
          <path id="Trazado_913536" data-name="Trazado 913536" d="M201.3,5H169.028A1.02,1.02,0,0,0,168,6.028v5.188a1.02,1.02,0,0,1,1.028-1.028h32.3a1.02,1.02,0,0,1,1.028,1.028V6.028A1.056,1.056,0,0,0,201.3,5Z" transform="translate(-147.918 -4.402)" fill="#87d147"/>
          <path id="Trazado_913537" data-name="Trazado 913537" d="M218.822,25.156H226.4a5.437,5.437,0,0,1-2.1-2.845A.41.41,0,0,0,223.89,22H202.11a.41.41,0,0,0-.406.311,5.258,5.258,0,0,1-2.1,2.845Z" transform="translate(-175.74 -19.37)" fill="#b2e26d"/>
          <path id="Trazado_913538" data-name="Trazado 913538" d="M163.4,7.411a.592.592,0,0,1-.6-.6V1.626A1.627,1.627,0,0,1,164.426,0h32.3a1.627,1.627,0,0,1,1.626,1.626V6.814a.6.6,0,0,1-1.2,0,.429.429,0,0,0-.43-.43H164.45a.429.429,0,0,0-.43.43A.628.628,0,0,1,163.4,7.411ZM164.45,1.2a.429.429,0,0,0-.43.43v3.61a1.187,1.187,0,0,1,.43-.048h32.3a2.634,2.634,0,0,1,.43.048V1.626a.429.429,0,0,0-.43-.43Z" transform="translate(-143.339)" fill="#12233f"/>
          <path id="Trazado_913539" data-name="Trazado 913539" d="M221.822,21.351H195a.592.592,0,0,1-.6-.6.624.624,0,0,1,.263-.5,4.736,4.736,0,0,0,1.865-2.534,1.026,1.026,0,0,1,.98-.717h21.78a1,1,0,0,1,.98.741,4.736,4.736,0,0,0,1.865,2.534.633.633,0,0,1,.167.837.589.589,0,0,1-.478.239m-25.27-1.2h23.716a6.1,6.1,0,0,1-1.1-1.96H197.627A5.84,5.84,0,0,1,196.552,20.156Z" transform="translate(-171.162 -14.968)" fill="#12233f"/>
          <path id="Trazado_913540" data-name="Trazado 913540" d="M201.3,48.4H169.028A1.02,1.02,0,0,0,168,49.428v5.188a1.02,1.02,0,0,1,1.028-1.028h32.3a1.02,1.02,0,0,1,1.028,1.028V49.428A1.056,1.056,0,0,0,201.3,48.4Z" transform="translate(-147.918 -42.614)" fill="#87d147"/>
          <path id="Trazado_913541" data-name="Trazado 913541" d="M218.822,68.556H226.4a5.437,5.437,0,0,1-2.1-2.845.41.41,0,0,0-.406-.311H202.11a.41.41,0,0,0-.406.311,5.258,5.258,0,0,1-2.1,2.845Z" transform="translate(-175.74 -57.582)" fill="#b2e26d"/>
          <path id="Trazado_913542" data-name="Trazado 913542" d="M163.4,50.811a.592.592,0,0,1-.6-.6V45.026a1.627,1.627,0,0,1,1.626-1.626h32.3a1.627,1.627,0,0,1,1.626,1.626v5.188a.6.6,0,0,1-1.2,0,.429.429,0,0,0-.43-.43H164.45a.429.429,0,0,0-.43.43A.628.628,0,0,1,163.4,50.811ZM164.45,44.6a.429.429,0,0,0-.43.43v3.61a1.324,1.324,0,0,1,.43-.048h32.3a2.634,2.634,0,0,1,.43.048v-3.61a.429.429,0,0,0-.43-.43Z" transform="translate(-143.339 -38.212)" fill="#12233f"/>
          <path id="Trazado_913543" data-name="Trazado 913543" d="M221.822,64.751H195a.592.592,0,0,1-.6-.6.624.624,0,0,1,.263-.5,4.736,4.736,0,0,0,1.865-2.534,1.026,1.026,0,0,1,.98-.717h21.78a1,1,0,0,1,.98.741,4.826,4.826,0,0,0,1.865,2.534.633.633,0,0,1,.167.837.589.589,0,0,1-.478.239m-25.27-1.2h23.716a6.1,6.1,0,0,1-1.1-1.96H197.627A5.62,5.62,0,0,1,196.552,63.556Z" transform="translate(-171.162 -53.18)" fill="#12233f"/>
          <path id="Trazado_913544" data-name="Trazado 913544" d="M5.717,262.6H12a.7.7,0,0,1,.717.717v21.9a.7.7,0,0,1-.717.717H5.717A.7.7,0,0,1,5,285.216v-21.9a.7.7,0,0,1,.717-.717" transform="translate(-4.402 -231.21)" fill="#70d6f9"/>
          <path id="Trazado_913545" data-name="Trazado 913545" d="M72.923,274.4H69.6v20.178h3.323a.7.7,0,0,0,.717-.717V275.117a.7.7,0,0,0-.717-.717" transform="translate(-61.28 -241.599)" fill="#dae6f1"/>
          <path id="Trazado_913546" data-name="Trazado 913546" d="M148.722,294.049a3.058,3.058,0,0,0-4.04-1.411l-11.906,5.642a2.574,2.574,0,0,0,1.291-2.1c0-3.873-5.092-3.156-9.133-3.156-2.51,0-6.455-1.339-9.085-2.367a12.851,12.851,0,0,0-6-.789l-6.049.645V304.64l2.582-.287a20.638,20.638,0,0,1,7.65.574l8.3,2.176a18.451,18.451,0,0,0,13.938-1.865l11.38-7.244A3.119,3.119,0,0,0,148.722,294.049Z" transform="translate(-91.392 -255.152)" fill="#f9d0b4"/>
          <path id="Trazado_913547" data-name="Trazado 913547" d="M7.6,282.129H1.315A1.327,1.327,0,0,1,0,280.814v-21.9A1.327,1.327,0,0,1,1.315,257.6H7.6a1.327,1.327,0,0,1,1.315,1.315v21.9A1.3,1.3,0,0,1,7.6,282.129ZM1.315,258.8a.113.113,0,0,0-.12.12v21.9a.113.113,0,0,0,.12.12H7.6a.113.113,0,0,0,.12-.12v-21.9a.113.113,0,0,0-.12-.12Z" transform="translate(0 -226.807)" fill="#12233f"/>
          <path id="Trazado_913548" data-name="Trazado 913548" d="M68.521,290.773H65.2a.592.592,0,0,1-.6-.6V270a.592.592,0,0,1,.6-.6h3.323a1.327,1.327,0,0,1,1.315,1.315v18.743a1.311,1.311,0,0,1-1.315,1.315m-2.725-1.2h2.725a.113.113,0,0,0,.12-.12V270.715a.113.113,0,0,0-.12-.12H65.8Z" transform="translate(-56.878 -237.197)" fill="#12233f"/>
          <path id="Trazado_913549" data-name="Trazado 913549" d="M122.26,303.743a19.767,19.767,0,0,1-4.877-.622l-8.272-2.2a20.025,20.025,0,0,0-7.435-.55l-2.606.287a.612.612,0,0,1-.669-.526v-14.2a.6.6,0,0,1,.526-.6l6.049-.646a13.768,13.768,0,0,1,6.288.837c3.873,1.506,7.029,2.343,8.87,2.343.526,0,1.1-.024,1.626-.024,2.8-.072,5.666-.12,7.148,1.315a3.256,3.256,0,0,1,.932,2.462,4.642,4.642,0,0,1-.048.574l9.826-4.662a3.639,3.639,0,0,1,3.514,6.359l-11.38,7.244a.023.023,0,0,0-.024.024,18.47,18.47,0,0,1-9.467,2.582m-18.385-4.686a21.613,21.613,0,0,1,5.523.717l8.3,2.176a17.958,17.958,0,0,0,13.484-1.793l11.356-7.22a2.418,2.418,0,0,0,.741-3.371,2.47,2.47,0,0,0-3.108-.908l-11.81,5.618a10.706,10.706,0,0,1-3.634,1.363,27.091,27.091,0,0,1-4.805.5.6.6,0,1,1,0-1.2c2.271,0,8.8-.6,8.8-3.275a2.084,2.084,0,0,0-.574-1.6c-1.124-1.1-3.753-1.028-6.288-.98-.55.024-1.124.024-1.65.024-2.558,0-6.479-1.315-9.3-2.415a12.579,12.579,0,0,0-5.714-.765l-5.523.574v12.91l1.913-.215A17.928,17.928,0,0,1,103.875,299.057Z" transform="translate(-86.638 -250.597)" fill="#12233f"/>
          <path id="Trazado_913550" data-name="Trazado 913550" d="M201.3,91.8H169.028A1.02,1.02,0,0,0,168,92.828v18.457a1.02,1.02,0,0,0,1.028,1.028h32.3a1.02,1.02,0,0,0,1.028-1.028V92.828A1.056,1.056,0,0,0,201.3,91.8Z" transform="translate(-147.918 -80.826)" fill="#87d147"/>
          <path id="Trazado_913551" data-name="Trazado 913551" d="M214.98,112.449a5.254,5.254,0,0,1-3.538-3.538.41.41,0,0,0-.406-.311h-21.78a.41.41,0,0,0-.406.311,5.254,5.254,0,0,1-3.538,3.538.41.41,0,0,0-.311.406v7.961a.41.41,0,0,0,.311.406,5.254,5.254,0,0,1,3.538,3.538.41.41,0,0,0,.406.311h21.78a.41.41,0,0,0,.406-.311,5.254,5.254,0,0,1,3.538-3.538.41.41,0,0,0,.311-.406v-7.937a.539.539,0,0,0-.311-.43" transform="translate(-162.886 -95.618)" fill="#b2e26d"/>
          <path id="Trazado_913552" data-name="Trazado 913552" d="M268.986,129.2a5.786,5.786,0,1,1-5.786,5.786,5.786,5.786,0,0,1,5.786-5.786" transform="translate(-231.738 -113.756)" fill="#87d147"/>
          <path id="Trazado_913553" data-name="Trazado 913553" d="M293.3,157.512h-2.271a.6.6,0,0,1,0-1.2H293.3a.674.674,0,0,0,.669-.693.684.684,0,0,0-.669-.669h-1.411a1.877,1.877,0,0,1-.024-3.753h2.056a.6.6,0,0,1,0,1.2h-2.008a.681.681,0,0,0-.024,1.363h1.434a1.888,1.888,0,0,1,1.865,1.889A1.936,1.936,0,0,1,293.3,157.512Z" transform="translate(-255.334 -133.126)" fill="#12233f"/>
          <path id="Trazado_913554" data-name="Trazado 913554" d="M307.2,152.057a.592.592,0,0,1-.6-.6V144.6a.6.6,0,0,1,1.2,0v6.861a.607.607,0,0,1-.6.6" transform="translate(-269.95 -126.787)" fill="#12233f"/>
          <path id="Trazado_913555" data-name="Trazado 913555" d="M196.9,108.532H164.626A1.627,1.627,0,0,1,163,106.906V88.426a1.627,1.627,0,0,1,1.626-1.626h32.3a1.627,1.627,0,0,1,1.626,1.626v18.457A1.669,1.669,0,0,1,196.9,108.532ZM164.626,88a.429.429,0,0,0-.43.43v18.457a.429.429,0,0,0,.43.43h32.3a.429.429,0,0,0,.43-.43V88.426a.429.429,0,0,0-.43-.43Z" transform="translate(-143.515 -76.424)" fill="#12233f"/>
          <path id="Trazado_913556" data-name="Trazado 913556" d="M223.417,173.8H222.2a.6.6,0,0,1,0-1.2h1.219a.6.6,0,0,1,0,1.2" transform="translate(-195.111 -151.968)" fill="#12233f"/>
          <path id="Trazado_913557" data-name="Trazado 913557" d="M383.217,173.8H382a.6.6,0,0,1,0-1.2h1.219a.6.6,0,0,1,0,1.2" transform="translate(-335.809 -151.968)" fill="#12233f"/>
          <path id="Trazado_913558" data-name="Trazado 913558" d="M206.809,121.644h-21.78a1,1,0,0,1-.98-.741,4.675,4.675,0,0,0-3.132-3.132,1.026,1.026,0,0,1-.717-.98v-7.961a1,1,0,0,1,.741-.98,4.675,4.675,0,0,0,3.132-3.132,1.026,1.026,0,0,1,.98-.717h21.78a1,1,0,0,1,.98.741,4.674,4.674,0,0,0,3.132,3.132,1.08,1.08,0,0,1,.741.98v7.961a1,1,0,0,1-.741.98,4.674,4.674,0,0,0-3.132,3.132A1.181,1.181,0,0,1,206.809,121.644Zm-21.684-1.2h21.541a5.84,5.84,0,0,1,3.777-3.777v-7.722a5.84,5.84,0,0,1-3.777-3.777H185.125a5.84,5.84,0,0,1-3.777,3.777v7.722A5.84,5.84,0,0,1,185.125,120.448Z" transform="translate(-158.659 -91.568)" fill="#12233f"/>
          <path id="Trazado_913559" data-name="Trazado 913559" d="M264.583,136.967a6.383,6.383,0,1,1,6.383-6.383,6.382,6.382,0,0,1-6.383,6.383m0-11.571a5.188,5.188,0,1,0,5.188,5.188A5.183,5.183,0,0,0,264.583,125.4Z" transform="translate(-227.336 -109.353)" fill="#12233f"/>
        </g>
      </g>
    </g>
  </g>
</svg>
