<svg xmlns="http://www.w3.org/2000/svg" xmlns:xlink="http://www.w3.org/1999/xlink" width="101.428" height="101.428" viewBox="0 0 101.428 101.428">
  <defs>
    <clipPath id="clip-path">
      <rect id="Rectángulo_403613" data-name="Rectángulo 403613" width="57.882" height="60.499" fill="none"/>
    </clipPath>
  </defs>
  <g id="Grupo_1102230" data-name="Grupo 1102230" transform="translate(-749.286 -2607.911)">
    <ellipse id="Elipse_11596" data-name="Elipse 11596" cx="49.214" cy="49.214" rx="49.214" ry="49.214" transform="translate(750.786 2609.411)" fill="#efedee" stroke="#007dfe" stroke-miterlimit="10" stroke-width="3"/>
    <g id="Grupo_1101984" data-name="Grupo 1101984" transform="translate(770.871 2628.376)">
      <rect id="Rectángulo_403608" data-name="Rectángulo 403608" width="47.416" height="8.144" transform="translate(9.727 34.284)" fill="#ab6647"/>
      <path id="Trazado_913483" data-name="Trazado 913483" d="M231.33,278.81h9.977l-.939,4.58h-8.1Z" transform="translate(-202.885 -244.526)" fill="#794832" fill-rule="evenodd"/>
      <rect id="Rectángulo_403609" data-name="Rectángulo 403609" width="47.416" height="8.144" transform="translate(9.727 42.428)" fill="#93573d"/>
      <path id="Trazado_913484" data-name="Trazado 913484" d="M231.33,345.04h9.977l-.939,4.58h-8.1Z" transform="translate(-202.885 -302.612)" fill="#794832" fill-rule="evenodd"/>
      <g id="Grupo_1101983" data-name="Grupo 1101983">
        <g id="Grupo_1101982" data-name="Grupo 1101982" clip-path="url(#clip-path)">
          <path id="Trazado_913485" data-name="Trazado 913485" d="M83.139,318.422a3.345,3.345,0,0,1,0,4.717l-4.9,4.9a.558.558,0,0,0,.393.952H95.88l-10.545,5.836a6.392,6.392,0,0,1-3.234.835H62.48v-8.612H65.1a3.244,3.244,0,0,0,2.7-1.37,2.92,2.92,0,0,1,2.363-1.2,3.03,3.03,0,0,1,.384.025,3.241,3.241,0,0,0,2.777-.93c1.715-1.687,3.416-3.466,5.1-5.147A3.345,3.345,0,0,1,83.139,318.422Z" transform="translate(-54.797 -278.414)" fill="#f5cbaa" fill-rule="evenodd"/>
          <rect id="Rectángulo_403610" data-name="Rectángulo 403610" width="6.944" height="13.929" transform="translate(0.739 45.831)" fill="#ff6167"/>
          <rect id="Rectángulo_403611" data-name="Rectángulo 403611" width="35.774" height="18.832" transform="translate(5.704 9.926)" fill="#3ba673"/>
          <path id="Trazado_913486" data-name="Trazado 913486" d="M81.1,112.41h21.948a3.016,3.016,0,0,0,3.016,3.016v5.006a3.016,3.016,0,0,0-3.016,3.016H81.1a3.016,3.016,0,0,0-3.016-3.016v-5.006A3.016,3.016,0,0,0,81.1,112.41Z" transform="translate(-68.479 -98.588)" fill="#44c086" fill-rule="evenodd"/>
          <path id="Trazado_913487" data-name="Trazado 913487" d="M149.36,43.7a3.345,3.345,0,0,1,0-4.717l4.9-4.9a.558.558,0,0,0-.393-.952H136.62l10.545-5.836a6.392,6.392,0,0,1,3.234-.835h19.619v8.612h-2.624a3.244,3.244,0,0,0-2.7,1.37,2.92,2.92,0,0,1-2.363,1.2,3.032,3.032,0,0,1-.384-.025,3.241,3.241,0,0,0-2.777.93c-1.715,1.687-3.416,3.466-5.1,5.147a3.344,3.344,0,0,1-4.717,0" transform="translate(-119.821 -23.206)" fill="#f5cbaa" fill-rule="evenodd"/>
          <rect id="Rectángulo_403612" data-name="Rectángulo 403612" width="6.944" height="13.929" transform="translate(50.199 0.738)" fill="#155384"/>
          <path id="Trazado_913488" data-name="Trazado 913488" d="M56.4,13.929H50.936V1.476H56.4Zm-8.831-2.8A3.994,3.994,0,0,0,44.277,12.8a2.188,2.188,0,0,1-1.766.9,2.241,2.241,0,0,1-.287-.018,4,4,0,0,0-3.39,1.135c-1,.981-2,2.006-2.972,3-.7.713-1.423,1.451-2.127,2.156A2.6,2.6,0,0,1,30.059,16.3l4.9-4.9a1.295,1.295,0,0,0-.915-2.211H19.655L27.7,4.737a5.646,5.646,0,0,1,2.876-.743H49.463v7.137ZM29.018,21.013a4.077,4.077,0,0,1,0-5.761l.689-.692H13.283A3.764,3.764,0,0,1,10.34,17.5v3.675a3.769,3.769,0,0,1,2.943,2.944H33.9a3.771,3.771,0,0,1,2.947-2.944V18.921c-.679.694-1.383,1.407-2.067,2.093a4.079,4.079,0,0,1-5.76,0ZM6.442,28.02h34.3V15.3a2.6,2.6,0,0,0-.871.575c-.518.507-1.037,1.028-1.554,1.549v4.424a.736.736,0,0,1-.739.738A2.284,2.284,0,0,0,35.3,24.861a.734.734,0,0,1-.734.738H12.619a.739.739,0,0,1-.739-.738A2.28,2.28,0,0,0,9.6,22.582a.739.739,0,0,1-.739-.738V16.839A.739.739,0,0,1,9.6,16.1a2.28,2.28,0,0,0,2.279-2.279.739.739,0,0,1,.739-.738H31.186l2.419-2.421H6.442ZM57.143,0H50.2a.735.735,0,0,0-.734.738V2.518H30.578a7.125,7.125,0,0,0-3.591.927L16.606,9.188H5.7a.739.739,0,0,0-.739.738V28.758A.739.739,0,0,0,5.7,29.5H41.476a.739.739,0,0,0,.739-.738V15.164c.1.009.2.014.3.014a3.664,3.664,0,0,0,2.957-1.5,2.512,2.512,0,0,1,2.1-1.067h1.891v2.061a.734.734,0,0,0,.734.738h6.945a.739.739,0,0,0,.739-.738V.738A.738.738,0,0,0,57.143,0ZM23.592,20.508a1.166,1.166,0,1,0-1.167-1.166,1.172,1.172,0,0,0,1.167,1.166m0-3.807a2.641,2.641,0,1,0,2.64,2.641,2.642,2.642,0,0,0-2.64-2.641M41.079,49.835H24.271l4.1-4.1.291,1.419a.738.738,0,0,0,.724.589h8.1a.742.742,0,0,0,.724-.589l.815-3.991H56.4v6.67Zm-10.9,5.927,8.047-4.451H23.839a1.3,1.3,0,0,1-.92-2.211l4.9-4.9a2.6,2.6,0,0,0-3.672-3.673c-.7.7-1.429,1.441-2.127,2.153-.97.991-1.976,2.015-2.972,3a4,4,0,0,1-3.39,1.135,2.242,2.242,0,0,0-.287-.018,2.2,2.2,0,0,0-1.771.9,3.987,3.987,0,0,1-3.294,1.672H8.419V56.5H27.3a5.643,5.643,0,0,0,2.876-.743M6.945,59.023H1.473V46.569H6.945ZM19.474,43.166c-.488.493-.975.984-1.463,1.462a2.52,2.52,0,0,1-2.163.724,3.731,3.731,0,0,0-.478-.031,3.68,3.68,0,0,0-2.962,1.5,2.5,2.5,0,0,1-1.947,1.064V43.166Zm10.5,0a3.951,3.951,0,0,1-.4,1.114l.407,1.991h6.895l.638-3.1ZM10.461,35.022H27.842l.82,3.99a.739.739,0,0,0,.724.59h8.1a.743.743,0,0,0,.724-.59l.815-3.99H56.4V41.69H29.995a4.071,4.071,0,0,0-6.89-2.2c-.71.71-1.439,1.449-2.137,2.164-.015.014-.025.027-.041.041H10.462V35.022Zm27.057,0H29.35l.633,3.1h6.895Zm19.625-1.476H9.727a.739.739,0,0,0-.739.738V47.892H8.419V45.831a.736.736,0,0,0-.739-.738H.739A.739.739,0,0,0,0,45.831V59.761a.739.739,0,0,0,.739.738H7.68a.736.736,0,0,0,.739-.738V57.98H27.3a7.151,7.151,0,0,0,3.591-.927l10.376-5.742H57.143a.739.739,0,0,0,.739-.738V34.284A.739.739,0,0,0,57.143,33.546Z" fill="#12233f" fill-rule="evenodd"/>
        </g>
      </g>
    </g>
  </g>
</svg>
