<svg xmlns="http://www.w3.org/2000/svg" xmlns:xlink="http://www.w3.org/1999/xlink" width="101.428" height="101.428" viewBox="0 0 101.428 101.428">
  <defs>
    <clipPath id="clip-path">
      <rect id="Rect치ngulo_403615" data-name="Rect치ngulo 403615" width="52.226" height="58.355" fill="none"/>
    </clipPath>
  </defs>
  <g id="Grupo_1102231" data-name="Grupo 1102231" transform="translate(-1166.83 -2607.911)">
    <ellipse id="Elipse_11595" data-name="Elipse 11595" cx="49.214" cy="49.214" rx="49.214" ry="49.214" transform="translate(1168.33 2609.411)" fill="#efedee" stroke="#007dfe" stroke-miterlimit="10" stroke-width="3"/>
    <g id="Grupo_1101987" data-name="Grupo 1101987" transform="translate(1191.431 2629.448)">
      <rect id="Rect치ngulo_403614" data-name="Rect치ngulo 403614" width="50.124" height="26.52" transform="translate(1.051 15.904)" fill="#ade194"/>
      <g id="Grupo_1101986" data-name="Grupo 1101986">
        <g id="Grupo_1101985" data-name="Grupo 1101985" clip-path="url(#clip-path)">
          <path id="Trazado_913489" data-name="Trazado 913489" d="M79.018,183.063H44.11a3.719,3.719,0,0,0-3.879-3.536V167.151l.107,0a3.707,3.707,0,0,0,3.772-3.533H79.018a3.618,3.618,0,0,0,3.773,3.44H82.9v12.472a3.719,3.719,0,0,0-3.879,3.536" transform="translate(-35.451 -144.175)" fill="#97da7b"/>
          <path id="Trazado_913490" data-name="Trazado 913490" d="M12.573,153.3V140.927l.107,0a4.083,4.083,0,0,0,2.407-.841v-6.228H8.844v26.521h6.243v-6.229a4.092,4.092,0,0,0-2.514-.843" transform="translate(-7.793 -117.951)" fill="#97da7b"/>
          <path id="Trazado_913491" data-name="Trazado 913491" d="M40.339,187.114l-.107,0v12.376a4.091,4.091,0,0,1,2.514.843V186.273a4.081,4.081,0,0,1-2.407.841" transform="translate(-35.452 -164.141)" fill="#81d261"/>
          <path id="Trazado_913492" data-name="Trazado 913492" d="M170,173.34c0,5.371-3.473,9.724-7.757,9.724s-7.757-4.354-7.757-9.724,3.473-9.724,7.757-9.724S170,167.97,170,173.34" transform="translate(-136.13 -144.176)" fill="#fee97d"/>
          <path id="Trazado_913493" data-name="Trazado 913493" d="M156.983,173.34c0-4.838,2.818-8.85,6.509-9.6a6.259,6.259,0,0,0-1.248-.125c-4.284,0-7.757,4.354-7.757,9.724s3.473,9.724,7.757,9.724a6.268,6.268,0,0,0,1.248-.125c-3.691-.749-6.509-4.761-6.509-9.6" transform="translate(-136.13 -144.176)" fill="#fee45a"/>
          <path id="Trazado_913494" data-name="Trazado 913494" d="M76.755,232.346a1.948,1.948,0,1,1-1.939-1.768,1.86,1.86,0,0,1,1.939,1.768" transform="translate(-64.217 -203.181)" fill="#fee97d"/>
          <path id="Trazado_913495" data-name="Trazado 913495" d="M337.909,232.346a1.948,1.948,0,1,1-1.939-1.768,1.86,1.86,0,0,1,1.939,1.768" transform="translate(-294.342 -203.181)" fill="#fee97d"/>
          <path id="Trazado_913496" data-name="Trazado 913496" d="M154.471,266.8H118.118a.894.894,0,0,1,0-1.788h35.459v-10.5a.894.894,0,1,1,1.788,0v11.4a.894.894,0,0,1-.894.894" transform="translate(-103.296 -223.483)" fill="#12233f"/>
          <path id="Trazado_913497" data-name="Trazado 913497" d="M384.736,139.525a.894.894,0,0,1-.894-.894V128.123h-4.41a.894.894,0,0,1,0-1.788h5.3a.894.894,0,0,1,.894.894v11.4a.894.894,0,0,1-.894.894" transform="translate(-333.561 -111.324)" fill="#12233f"/>
          <path id="Trazado_913498" data-name="Trazado 913498" d="M7.55,154.643H2.212a.894.894,0,0,1-.894-.894v-26.52a.894.894,0,0,1,.894-.894H38.531a.894.894,0,1,1,0,1.788H3.106v24.731H7.55a.894.894,0,0,1,0,1.788" transform="translate(-1.161 -111.324)" fill="#12233f"/>
          <path id="Trazado_913499" data-name="Trazado 913499" d="M155.613,177.327c-4.77,0-8.651-4.763-8.651-10.618s3.881-10.618,8.651-10.618,8.651,4.763,8.651,10.618-3.881,10.618-8.651,10.618m0-19.448c-3.784,0-6.863,3.961-6.863,8.83s3.079,8.83,6.863,8.83,6.863-3.961,6.863-8.83-3.079-8.83-6.863-8.83" transform="translate(-129.5 -137.545)" fill="#12233f"/>
          <path id="Trazado_913500" data-name="Trazado 913500" d="M72.387,177.328H37.479a.894.894,0,0,1-.894-.894,2.832,2.832,0,0,0-2.985-2.642.894.894,0,0,1-.894-.894V160.522a.894.894,0,0,1,.872-.894l.107,0a2.836,2.836,0,0,0,2.9-2.64.894.894,0,0,1,.894-.894H72.387a.894.894,0,0,1,.894.894,2.731,2.731,0,0,0,2.879,2.546h.105a.894.894,0,0,1,.894.894V172.9a.894.894,0,0,1-.894.894,2.832,2.832,0,0,0-2.984,2.642.894.894,0,0,1-.894.894M38.275,175.54H71.591a4.634,4.634,0,0,1,3.781-3.458V161.258a4.542,4.542,0,0,1-3.779-3.378H38.277a4.584,4.584,0,0,1-3.783,3.458v10.744a4.634,4.634,0,0,1,3.781,3.458" transform="translate(-28.82 -137.546)" fill="#12233f"/>
          <path id="Trazado_913501" data-name="Trazado 913501" d="M68.184,228.377a2.667,2.667,0,1,1,2.833-2.662,2.755,2.755,0,0,1-2.833,2.662m0-3.536a.888.888,0,1,0,1.045.874.972.972,0,0,0-1.045-.874" transform="translate(-57.586 -196.551)" fill="#12233f"/>
          <path id="Trazado_913502" data-name="Trazado 913502" d="M329.338,228.377a2.667,2.667,0,1,1,2.833-2.662,2.755,2.755,0,0,1-2.833,2.662m0-3.536a.888.888,0,1,0,1.045.874.972.972,0,0,0-1.045-.874" transform="translate(-287.711 -196.551)" fill="#12233f"/>
          <path id="Trazado_913503" data-name="Trazado 913503" d="M195.344,217.033h-1.2a2.62,2.62,0,0,1-2.527-1.753.894.894,0,0,1,1.7-.559.851.851,0,0,0,.829.523h1.2a.888.888,0,1,0,0-1.748h-1.065a2.667,2.667,0,1,1,0-5.324h.952a2.62,2.62,0,0,1,2.527,1.753.894.894,0,1,1-1.7.559.852.852,0,0,0-.829-.524h-.952a.888.888,0,1,0,0,1.748h1.065a2.667,2.667,0,1,1,0,5.324" transform="translate(-168.698 -183.439)" fill="#12233f"/>
          <path id="Trazado_913504" data-name="Trazado 913504" d="M213.144,196.133a.894.894,0,0,1-.894-.894v-1.864a.894.894,0,1,1,1.788,0v1.864a.894.894,0,0,1-.894.894" transform="translate(-187.031 -169.611)" fill="#12233f"/>
          <path id="Trazado_913505" data-name="Trazado 913505" d="M213.144,271.346a.894.894,0,0,1-.894-.894v-1.864a.894.894,0,1,1,1.788,0v1.864a.894.894,0,0,1-.894.894" transform="translate(-187.031 -235.887)" fill="#12233f"/>
          <path id="Trazado_913506" data-name="Trazado 913506" d="M86.277,16.424a2.086,2.086,0,0,0-2.752-.231l-4.569,3.461V14.581c0-3.889-3.457-7.042-7.723-7.045L47.9,7.525c-4.269,0-7.731,3.152-7.731,7.044v7.966h3.879V14.614a3.723,3.723,0,0,1,3.882-3.539H71.323A3.6,3.6,0,0,1,75.077,14.5v5.157l-4.569-3.461a2.065,2.065,0,0,0-1.248-.411,2.032,2.032,0,0,0-1.5.643,1.676,1.676,0,0,0,.254,2.509l7.757,5.877a2.1,2.1,0,0,0,2.5,0l7.757-5.877a1.676,1.676,0,0,0,.254-2.509" transform="translate(-35.396 -6.631)" fill="#f07181"/>
          <path id="Trazado_913507" data-name="Trazado 913507" d="M70.386,19.48a2.963,2.963,0,0,1-1.789-.589L60.84,13.014a2.611,2.611,0,0,1-1.049-1.854,2.552,2.552,0,0,1,.675-1.97,2.92,2.92,0,0,1,2.164-.935,2.98,2.98,0,0,1,1.788.593l3.136,2.375V7.867a2.713,2.713,0,0,0-2.859-2.529H53.442a.894.894,0,1,1,0-1.788H64.694a4.5,4.5,0,0,1,4.648,4.317v5.156a.894.894,0,0,1-1.434.713l-4.569-3.461a1.181,1.181,0,0,0-.709-.231,1.131,1.131,0,0,0-.842.35.773.773,0,0,0-.216.6.845.845,0,0,0,.348.592l7.757,5.876a1.209,1.209,0,0,0,1.418,0l7.758-5.877A.843.843,0,0,0,79.2,11a.786.786,0,0,0-.215-.6,1.191,1.191,0,0,0-1.551-.121l-4.569,3.461a.894.894,0,0,1-1.434-.713V7.95c0-3.389-3.064-6.148-6.83-6.15L41.269,1.788h0a7.176,7.176,0,0,0-4.859,1.828,5.818,5.818,0,0,0-1.972,4.322v7.072h2.09V7.983A4.62,4.62,0,0,1,41.3,3.549h8.06a.894.894,0,1,1,0,1.788H41.3a2.836,2.836,0,0,0-2.988,2.645V15.9a.894.894,0,0,1-.894.894H33.539a.894.894,0,0,1-.894-.894V7.938A7.585,7.585,0,0,1,35.2,2.295,8.96,8.96,0,0,1,41.265,0h.005L64.6.011c4.751,0,8.617,3.564,8.617,7.938v3.274l3.135-2.375a2.962,2.962,0,0,1,3.953.342,2.554,2.554,0,0,1,.673,1.971,2.61,2.61,0,0,1-1.047,1.852l-7.759,5.877a2.963,2.963,0,0,1-1.788.589" transform="translate(-28.766)" fill="#12233f"/>
          <path id="Trazado_913508" data-name="Trazado 913508" d="M7.975,343.472a2.086,2.086,0,0,0,2.752.231l4.569-3.461v5.072c0,3.889,3.457,7.043,7.723,7.045l23.236.011c4.323,0,7.828-3.192,7.828-7.133v-7.9H50.2v7.9a3.776,3.776,0,0,1-3.938,3.59H22.929a3.6,3.6,0,0,1-3.754-3.422v-5.157l4.569,3.461a2.064,2.064,0,0,0,1.248.411,2.032,2.032,0,0,0,1.5-.643,1.676,1.676,0,0,0-.254-2.509l-7.757-5.877a2.1,2.1,0,0,0-2.5,0l-7.757,5.877a1.676,1.676,0,0,0-.254,2.509" transform="translate(-6.63 -294.91)" fill="#8ac9fe"/>
          <path id="Trazado_913509" data-name="Trazado 913509" d="M39.627,346.661h0l-23.236-.011c-4.751,0-8.617-3.564-8.617-7.94v-3.274l-3.135,2.375a2.962,2.962,0,0,1-3.953-.342A2.555,2.555,0,0,1,.011,335.5a2.608,2.608,0,0,1,1.048-1.851l7.758-5.878a3.011,3.011,0,0,1,3.577,0l7.758,5.878A2.609,2.609,0,0,1,21.2,335.5a2.552,2.552,0,0,1-.675,1.971,2.924,2.924,0,0,1-2.164.935,2.98,2.98,0,0,1-1.788-.593l-3.136-2.376v3.358a2.712,2.712,0,0,0,2.86,2.528H27.79a.894.894,0,0,1,0,1.788H16.3a4.5,4.5,0,0,1-4.648-4.316v-5.157a.894.894,0,0,1,1.434-.713l4.569,3.462a1.181,1.181,0,0,0,.709.231,1.134,1.134,0,0,0,.843-.351.785.785,0,0,0,.215-.6.843.843,0,0,0-.348-.591l-7.758-5.877a1.208,1.208,0,0,0-1.417,0l-7.758,5.878a.841.841,0,0,0-.347.59.787.787,0,0,0,.215.6,1.191,1.191,0,0,0,1.551.12l4.569-3.462a.894.894,0,0,1,1.434.713v5.073c0,3.39,3.064,6.149,6.829,6.151l23.235.011h0a7.282,7.282,0,0,0,4.93-1.855,5.9,5.9,0,0,0,2-4.384v-7.01h-2.09v7a4.673,4.673,0,0,1-4.832,4.483H31.872a.894.894,0,1,1,0-1.788h7.764a2.889,2.889,0,0,0,3.044-2.7v-7.9a.894.894,0,0,1,.894-.894h3.878a.894.894,0,0,1,.894.894v7.9a7.668,7.668,0,0,1-2.585,5.706,9.066,9.066,0,0,1-6.135,2.321" transform="translate(0 -288.306)" fill="#12233f"/>
        </g>
      </g>
    </g>
  </g>
</svg>
