<svg xmlns="http://www.w3.org/2000/svg" xmlns:xlink="http://www.w3.org/1999/xlink" width="101.428" height="101.428" viewBox="0 0 101.428 101.428">
  <defs>
    <clipPath id="clip-path">
      <rect id="Rectángulo_403618" data-name="Rectángulo 403618" width="57.209" height="57.329" fill="none"/>
    </clipPath>
  </defs>
  <g id="Grupo_1102232" data-name="Grupo 1102232" transform="translate(-538.862 -2926.007)">
    <ellipse id="Elipse_11599" data-name="Elipse 11599" cx="49.214" cy="49.214" rx="49.214" ry="49.214" transform="translate(540.362 2927.507)" fill="#efedee" stroke="#007dfe" stroke-miterlimit="10" stroke-width="3"/>
    <g id="Grupo_1101993" data-name="Grupo 1101993" transform="translate(561.446 2944.461)">
      <g id="Grupo_1101992" data-name="Grupo 1101992" clip-path="url(#clip-path)">
        <path id="Trazado_913560" data-name="Trazado 913560" d="M237.315,43.28l2.99,8.969h-2.768L232,46.713a3.138,3.138,0,0,1,2.75-3.11l2.556-.323Z" transform="translate(-205.241 -38.288)" fill="#d3a06c"/>
        <path id="Trazado_913561" data-name="Trazado 913561" d="M284.918,9.963l-.923,3-2.768,9h-5.536l-2.99-8.969-.7-2.1,4.614-.923,1.845,2.768,2.768-3.691Z" transform="translate(-240.627 -7.997)" fill="#d3a06c"/>
        <path id="Trazado_913562" data-name="Trazado 913562" d="M360.3,46.5l-5.536,5.536H352l2.768-9,2.787.351a3.138,3.138,0,0,1,2.75,3.11" transform="translate(-311.4 -38.076)" fill="#d3a06c"/>
        <path id="Trazado_913563" data-name="Trazado 913563" d="M264.609,121.04a1.851,1.851,0,0,1,1.845,1.845,1.859,1.859,0,0,1-1.845,1.845H249.845A1.851,1.851,0,0,1,248,122.885a1.859,1.859,0,0,1,1.845-1.845h14.764Z" transform="translate(-219.396 -107.079)" fill="#ccd1d9"/>
        <path id="Trazado_913564" data-name="Trazado 913564" d="M184.609,180.722V173.34H168.185a17.791,17.791,0,0,1-.185-2.547,17.327,17.327,0,0,1,7.945-14.561l4.973-3.193h11.073l4.973,3.193A17.312,17.312,0,0,1,187.6,188.1H185.31c-.24,0-.471-.009-.7-.018Z" transform="translate(-148.623 -135.388)" fill="#cf9e76"/>
        <path id="Trazado_913565" data-name="Trazado 913565" d="M149.223,343.785v3.709H128a9.227,9.227,0,1,0,0-18.454h21.223v14.745Z" transform="translate(-113.236 -291.088)" fill="#b4dd7f"/>
        <path id="Trazado_913566" data-name="Trazado 913566" d="M57.227,329.04A9.227,9.227,0,1,1,48,338.267a9.227,9.227,0,0,1,9.227-9.227" transform="translate(-42.464 -291.088)" fill="#fcd770"/>
        <path id="Trazado_913567" data-name="Trazado 913567" d="M17.227,300.731h4.614a9.227,9.227,0,0,0,0,18.454H11.691A3.69,3.69,0,0,1,8,315.494V297.04a3.69,3.69,0,0,0,3.691,3.691Z" transform="translate(-7.077 -262.779)" fill="#b4dd7f"/>
        <path id="Trazado_913568" data-name="Trazado 913568" d="M17.227,265.04v7.382H11.691a3.691,3.691,0,1,1,0-7.382Z" transform="translate(-7.077 -234.47)" fill="#a0d468"/>
        <path id="Trazado_913569" data-name="Trazado 913569" d="M192.016,289.795l1.845.029a12.86,12.86,0,0,1,.144-1.724l-1.825-.276a14.711,14.711,0,0,0-.164,1.971" transform="translate(-169.869 -254.626)" fill="#12233f"/>
        <path id="Trazado_913570" data-name="Trazado 913570" d="M203.356,195.124a14.522,14.522,0,0,0-6.068,8.047l1.768.528a12.679,12.679,0,0,1,5.3-7.023l1.176-.756-1-1.552Z" transform="translate(-174.533 -171.95)" fill="#12233f"/>
        <path id="Trazado_913571" data-name="Trazado 913571" d="M449.2,304.888l-1.845.034,0,.206a12.7,12.7,0,0,1-.084,1.463l1.833.211a14.7,14.7,0,0,0,.1-1.673Z" transform="translate(-395.683 -269.722)" fill="#12233f"/>
        <path id="Trazado_913572" data-name="Trazado 913572" d="M373.416,344.041l.6,1.747a14.526,14.526,0,0,0,9.363-10.024l-1.784-.476A12.682,12.682,0,0,1,373.416,344.041Z" transform="translate(-330.346 -296.616)" fill="#12233f"/>
        <path id="Trazado_913573" data-name="Trazado 913573" d="M48.836,20.07l-2.627-1.689a2.755,2.755,0,0,0-.649-5.308l4.267-4.267V8.424A4.064,4.064,0,0,0,46.272,4.4l-1.7-.212.886-2.878L40.23,0,37.876,3.137,36.411.939,30.166,2.189l.676,2.028L29.391,4.4a4.064,4.064,0,0,0-3.554,4.027v.382L30.1,13.073a2.755,2.755,0,0,0-.649,5.308L26.827,20.07a18.154,18.154,0,0,0-8.373,15.336c0,.542.032,1.083.079,1.623H11.073V29.647H4.614A4.619,4.619,0,0,0,0,34.261V52.715a4.619,4.619,0,0,0,4.614,4.614h32.3V53.638h2.068A18.232,18.232,0,0,0,48.836,20.07ZM46.043,6.228a2.219,2.219,0,0,1,1.91,1.842l-4.967,4.968H41.849l2.173-7.063ZM35.562,2.991,37.788,6.33l3.183-4.245,2.152.538-3.2,10.415h-4.19l-3.15-9.45ZM29.62,6.228,31.437,6l2.346,7.037H32.677L27.71,8.07A2.219,2.219,0,0,1,29.62,6.228Zm.83,8.655H45.213a.923.923,0,0,1,0,1.845H30.45a.923.923,0,0,1,0-1.845M4.614,31.493H9.227v5.536H4.614a2.768,2.768,0,1,1,0-5.536m0,23.991a2.772,2.772,0,0,1-2.768-2.768V37.95a4.589,4.589,0,0,0,2.768.925H8.946a10.126,10.126,0,0,0,0,16.609Zm10.15-16.609a8.3,8.3,0,1,1-8.3,8.3,8.314,8.314,0,0,1,8.3-8.3m20.3,16.609H20.581a10.126,10.126,0,0,0,0-16.609H35.063Zm1.845-17a4.568,4.568,0,0,0,1.845.391,2.768,2.768,0,0,1,0,5.536H36.909Zm2.068,13.309H36.909V46.256h1.845a4.614,4.614,0,0,0,0-9.227,2.768,2.768,0,0,1,0-5.536h2.768v2.768h1.845V29.647H39.677V27.8H37.832V29.74a4.622,4.622,0,0,0-3.691,4.52,4.566,4.566,0,0,0,.947,2.768h-14.7c-.053-.539-.09-1.081-.09-1.623a16.32,16.32,0,0,1,7.525-13.784l4.741-3.048H43.1l4.741,3.048a16.387,16.387,0,0,1-8.862,30.17Z" fill="#12233f"/>
        <path id="Trazado_913574" data-name="Trazado 913574" d="M98.768,365.958h1.845v-1.845a2.768,2.768,0,0,0,0-5.536H98.768a.923.923,0,1,1,0-1.845h2.768v.923h1.845v-2.768h-2.768V353.04H98.768v1.845a2.768,2.768,0,0,0,0,5.536h1.845a.923.923,0,0,1,0,1.845H97.845v-.923H96v2.768h2.768Z" transform="translate(-84.927 -312.32)" fill="#12233f"/>
        <path id="Trazado_913575" data-name="Trazado 913575" d="M250.768,357.654h1.845V353.04H248v1.845h2.768Z" transform="translate(-219.396 -312.32)" fill="#12233f"/>
        <path id="Trazado_913576" data-name="Trazado 913576" d="M252.614,425.04h-1.845v2.768H248v1.845h4.614Z" transform="translate(-219.396 -376.016)" fill="#12233f"/>
      </g>
    </g>
  </g>
</svg>
