<svg xmlns="http://www.w3.org/2000/svg" xmlns:xlink="http://www.w3.org/1999/xlink" width="102.38" height="102.695" viewBox="0 0 102.38 102.695">
  <defs>
    <clipPath id="clip-path">
      <rect id="Rectángulo_403354" data-name="Rectángulo 403354" width="75.88" height="90.03" fill="none"/>
    </clipPath>
  </defs>
  <g id="Grupo_1102352" data-name="Grupo 1102352" transform="translate(-958.785 -2031.694)">
    <circle id="Elipse_11571" data-name="Elipse 11571" cx="49.69" cy="49.69" r="49.69" transform="translate(960.285 2033.194)" fill="#efedee" stroke="#007dfe" stroke-miterlimit="10" stroke-width="3"/>
    <g id="Grupo_1101717" data-name="Grupo 1101717" transform="translate(972.035 2044.359)" clip-path="url(#clip-path)">
      <path id="Trazado_912448" data-name="Trazado 912448" d="M7.079,33.7a.684.684,0,0,0,.675.792H12.31a.673.673,0,0,0,.659-.548,27.282,27.282,0,0,1,21.6-21.3.671.671,0,0,0,.55-.659V7.477a.683.683,0,0,0-.788-.676A33.008,33.008,0,0,0,7.079,33.7" transform="translate(-2.976 -2.859)" fill="#fa6d61"/>
      <path id="Trazado_912449" data-name="Trazado 912449" d="M11.468,34.812H6.912A1.84,1.84,0,0,1,5.1,32.666,34.1,34.1,0,0,1,33.305,4.816a1.846,1.846,0,0,1,2.134,1.819v4.513a1.834,1.834,0,0,1-1.489,1.8A26.251,26.251,0,0,0,13.263,33.33a1.835,1.835,0,0,1-1.794,1.482M7.478,32.5H11.07A28.6,28.6,0,0,1,33.123,10.749V7.2A31.791,31.791,0,0,0,7.478,32.5" transform="translate(-2.134 -2.017)"/>
      <path id="Trazado_912450" data-name="Trazado 912450" d="M100.614,74.572a.671.671,0,0,0-.66.565A27.239,27.239,0,0,1,77.947,97.127a.669.669,0,0,0-.556.658V102.3a.684.684,0,0,0,.781.677,32.969,32.969,0,0,0,27.7-27.632.684.684,0,0,0-.68-.777Z" transform="translate(-32.578 -31.391)" fill="#fa6d61"/>
      <path id="Trazado_912451" data-name="Trazado 912451" d="M77.228,103.306h0a1.843,1.843,0,0,1-1.837-1.844V96.944a1.827,1.827,0,0,1,1.512-1.8A26.077,26.077,0,0,0,97.971,74.1a1.826,1.826,0,0,1,1.8-1.526h4.577a1.842,1.842,0,0,1,1.825,2.107,33.918,33.918,0,0,1-28.667,28.6,1.826,1.826,0,0,1-.28.022m.479-5.956V100.9A31.606,31.606,0,0,0,103.8,74.888h-3.616A28.409,28.409,0,0,1,77.707,97.35" transform="translate(-31.736 -30.549)"/>
      <path id="Trazado_912452" data-name="Trazado 912452" d="M90.094,74.572a.674.674,0,0,0-.647.5A17.062,17.062,0,0,1,77.876,86.751a.675.675,0,0,0-.486.643v4.534a.682.682,0,0,0,.825.668A22.628,22.628,0,0,0,95.33,75.391a.684.684,0,0,0-.671-.819Z" transform="translate(-32.577 -31.391)" fill="#007dfe"/>
      <path id="Trazado_912453" data-name="Trazado 912453" d="M77.225,92.929h0a1.84,1.84,0,0,1-1.834-1.843V86.552A1.823,1.823,0,0,1,76.7,84.8,15.956,15.956,0,0,0,87.489,73.919a1.841,1.841,0,0,1,1.763-1.347h4.565a1.839,1.839,0,0,1,1.434.686,1.82,1.82,0,0,1,.369,1.533A23.892,23.892,0,0,1,77.633,92.883a1.816,1.816,0,0,1-.408.046m.482-6.016V90.48A21.578,21.578,0,0,0,93.221,74.888h-3.6A18.3,18.3,0,0,1,77.707,86.913" transform="translate(-31.736 -30.549)"/>
      <path id="Trazado_912454" data-name="Trazado 912454" d="M75.764,35.672a2.861,2.861,0,0,0-2.023-.822L50.966,34.9a12.128,12.128,0,0,0-9.06-8.907V2.818a2.853,2.853,0,0,0-5.705.014V26a12.177,12.177,0,0,0-9.047,8.931l-22.576.044a2.839,2.839,0,0,0-2.843,2.821,2.786,2.786,0,0,0,.839,2,2.837,2.837,0,0,0,2.01.821l22.57-.035A12.136,12.136,0,0,0,36.2,49.482v22.2a2.844,2.844,0,0,0,2.854,2.825h0a2.843,2.843,0,0,0,2.009-.819,2.791,2.791,0,0,0,.841-2V49.479a12.167,12.167,0,0,0,9.06-8.932l22.783-.036a2.852,2.852,0,0,0,2.861-2.832,2.792,2.792,0,0,0-.845-2.006M39.171,46.666A8.768,8.768,0,1,1,47.94,37.9a8.769,8.769,0,0,1-8.769,8.768" transform="translate(-0.73 0)"/>
      <path id="Trazado_912455" data-name="Trazado 912455" d="M78.169,6.679a.686.686,0,0,0-.779.679v4.514a.673.673,0,0,0,.558.66,27.157,27.157,0,0,1,21.924,21.48.67.67,0,0,0,.66.554h4.592a.683.683,0,0,0,.677-.786,32.867,32.867,0,0,0-27.632-27.1" transform="translate(-32.577 -2.808)" fill="#fa6d61"/>
      <path id="Trazado_912456" data-name="Trazado 912456" d="M104.282,34.882H99.69a1.831,1.831,0,0,1-1.8-1.5A26.061,26.061,0,0,0,76.9,12.83a1.831,1.831,0,0,1-1.512-1.8V6.516A1.84,1.84,0,0,1,77.5,4.692a33.893,33.893,0,0,1,28.6,28.061,1.824,1.824,0,0,1-.412,1.477,1.846,1.846,0,0,1-1.408.652m-4.19-2.316h3.629A31.577,31.577,0,0,0,77.706,7.071v3.552a28.4,28.4,0,0,1,22.386,21.942" transform="translate(-31.735 -1.966)"/>
      <path id="Trazado_912457" data-name="Trazado 912457" d="M77.391,25.267v4.539a.674.674,0,0,0,.488.644A17.008,17.008,0,0,1,89.3,41.625a.675.675,0,0,0,.642.481h4.613a.682.682,0,0,0,.666-.832A22.564,22.564,0,0,0,78.216,24.6a.681.681,0,0,0-.825.668" transform="translate(-32.578 -10.348)" fill="#007dfe"/>
      <path id="Trazado_912458" data-name="Trazado 912458" d="M93.715,42.422H89.1a1.827,1.827,0,0,1-1.747-1.294A15.751,15.751,0,0,0,76.71,30.72a1.825,1.825,0,0,1-1.319-1.756V24.426a1.834,1.834,0,0,1,2.241-1.8A23.589,23.589,0,0,1,95.507,40.162a1.814,1.814,0,0,1-.344,1.555,1.833,1.833,0,0,1-1.448.7m-4.255-2.316H93.1A21.271,21.271,0,0,0,77.707,25.03V28.6a18.06,18.06,0,0,1,11.752,11.5" transform="translate(-31.736 -9.506)"/>
      <path id="Trazado_912459" data-name="Trazado 912459" d="M31.035,75a.674.674,0,0,0-.642-.482H25.806a.681.681,0,0,0-.668.828A22.576,22.576,0,0,0,42.265,92.094a.681.681,0,0,0,.82-.668v-4.52a.673.673,0,0,0-.493-.644A17.022,17.022,0,0,1,31.035,75" transform="translate(-10.574 -31.368)" fill="#007dfe"/>
      <path id="Trazado_912460" data-name="Trazado 912460" d="M41.568,92.427h0a1.807,1.807,0,0,1-.4-.045,23.88,23.88,0,0,1-18-17.611,1.814,1.814,0,0,1,.346-1.552,1.835,1.835,0,0,1,1.448-.7h4.587a1.827,1.827,0,0,1,1.748,1.3A15.952,15.952,0,0,0,42.07,84.306,1.843,1.843,0,0,1,43.4,86.064v4.52a1.844,1.844,0,0,1-1.833,1.843M25.575,74.833a21.567,21.567,0,0,0,15.51,15.148V86.429a18.3,18.3,0,0,1-11.891-11.6Z" transform="translate(-9.733 -30.526)"/>
      <path id="Trazado_912461" data-name="Trazado 912461" d="M12.9,75.07a.673.673,0,0,0-.661-.553H7.672a.684.684,0,0,0-.677.784,32.894,32.894,0,0,0,27.676,27.161.684.684,0,0,0,.78-.677V97.271a.669.669,0,0,0-.561-.66A27.176,27.176,0,0,1,12.9,75.07" transform="translate(-2.941 -31.368)" fill="#fa6d61"/>
      <path id="Trazado_912462" data-name="Trazado 912462" d="M33.929,102.786h0a1.808,1.808,0,0,1-.272-.02A33.888,33.888,0,0,1,5.009,74.642a1.823,1.823,0,0,1,.416-1.474,1.843,1.843,0,0,1,1.405-.651h4.564a1.833,1.833,0,0,1,1.8,1.5A26.055,26.055,0,0,0,34.251,94.629a1.826,1.826,0,0,1,1.516,1.8v4.513a1.844,1.844,0,0,1-1.838,1.843M7.39,74.833a31.572,31.572,0,0,0,26.06,25.554v-3.55a28.4,28.4,0,0,1-22.458-22Z" transform="translate(-2.099 -30.526)"/>
      <path id="Trazado_912463" data-name="Trazado 912463" d="M41.922,24.723A22.684,22.684,0,0,0,25.216,41.2a.681.681,0,0,0,.664.836H30.5a.679.679,0,0,0,.64-.474A17.083,17.083,0,0,1,42.275,30.588a.67.67,0,0,0,.478-.641V25.39a.681.681,0,0,0-.832-.666" transform="translate(-10.606 -10.399)" fill="#007dfe"/>
      <path id="Trazado_912464" data-name="Trazado 912464" d="M29.653,42.352H25.039a1.832,1.832,0,0,1-1.455-.712,1.809,1.809,0,0,1-.332-1.565A23.746,23.746,0,0,1,40.807,22.756a1.808,1.808,0,0,1,.429-.052,1.841,1.841,0,0,1,1.834,1.844V29.1a1.824,1.824,0,0,1-1.292,1.746A15.875,15.875,0,0,0,31.4,41.075a1.837,1.837,0,0,1-1.744,1.277m-4-2.316H29.3A18.194,18.194,0,0,1,40.753,28.749V25.161a21.432,21.432,0,0,0-15.1,14.874" transform="translate(-9.764 -9.557)"/>
      <path id="Trazado_912465" data-name="Trazado 912465" d="M51.244,59.074a8.768,8.768,0,1,0,8.769-8.769,8.769,8.769,0,0,0-8.769,8.769" transform="translate(-21.571 -21.176)" fill="#fff"/>
    </g>
  </g>
</svg>
