<svg xmlns="http://www.w3.org/2000/svg" xmlns:xlink="http://www.w3.org/1999/xlink" width="101.428" height="101.428" viewBox="0 0 101.428 101.428">
  <defs>
    <clipPath id="clip-path">
      <rect id="Rectángulo_403616" data-name="Rectángulo 403616" width="63.224" height="57.498" fill="none"/>
    </clipPath>
  </defs>
  <g id="Grupo_1102233" data-name="Grupo 1102233" transform="translate(-959.311 -2926.007)">
    <ellipse id="Elipse_11598" data-name="Elipse 11598" cx="49.214" cy="49.214" rx="49.214" ry="49.214" transform="translate(960.811 2927.507)" fill="#efedee" stroke="#007dfe" stroke-miterlimit="10" stroke-width="3"/>
    <g id="Grupo_1101989" data-name="Grupo 1101989" transform="translate(978.464 2944.376)">
      <g id="Grupo_1101988" data-name="Grupo 1101988" clip-path="url(#clip-path)">
        <path id="Trazado_913510" data-name="Trazado 913510" d="M119.433,128.656a48.631,48.631,0,0,0-7.408-7.184h-9.046a48.624,48.624,0,0,0-7.408,7.184c-3.7,4.433-7.408,10.55-7.408,17.285A11.328,11.328,0,0,0,99.491,157.27h16.021a11.328,11.328,0,0,0,11.328-11.328c0-6.735-3.7-12.853-7.408-17.285" transform="translate(-77.276 -106.472)" fill="#d9b1ee"/>
        <path id="Trazado_913511" data-name="Trazado 913511" d="M156.749,157.27a11.308,11.308,0,0,0,11.328-11.178c.056-6.795-3.676-12.97-7.407-17.436a48.63,48.63,0,0,0-7.408-7.184H149.61a48.625,48.625,0,0,1,7.408,7.184,36.083,36.083,0,0,1,5.574,8.853,1.825,1.825,0,0,1-.776,2.287,12.155,12.155,0,0,0-2.5,1.923L151.042,150a6.591,6.591,0,0,0-1.538,2.4,1.827,1.827,0,0,1-1.708,1.22h-7.686a6.523,6.523,0,0,0-4.9,2.217,11.276,11.276,0,0,0,5.519,1.434h16.021Z" transform="translate(-118.513 -106.472)" fill="#cb97e7"/>
        <path id="Trazado_913512" data-name="Trazado 913512" d="M180.916,188.656a9,9,0,1,1-9,9,9,9,0,0,1,9-9" transform="translate(-150.69 -165.36)" fill="#ffe177"/>
        <path id="Trazado_913513" data-name="Trazado 913513" d="M197.266,201.492A8.995,8.995,0,0,1,184.757,214a9,9,0,1,0,12.509-12.509" transform="translate(-161.942 -176.611)" fill="#ffd15b"/>
        <path id="Trazado_913514" data-name="Trazado 913514" d="M176.19,288.695l-8.278,8.278a2.853,2.853,0,0,0-.125,3.937,2.8,2.8,0,0,0,1.154.754H154.4a2.887,2.887,0,0,0,0,5.775h20.324a8.724,8.724,0,0,0,4.5-1.248l5.627-3.385a3.878,3.878,0,0,1,2-.555H195.1v-14.1h-6.046a3,3,0,0,1-1.192-.248l-2.265-.983a8.508,8.508,0,0,0-9.407,1.778" transform="translate(-132.802 -250.866)" fill="#ffbd86"/>
        <path id="Trazado_913515" data-name="Trazado 913515" d="M362.445,294.3H356.4a2.994,2.994,0,0,1-1.192-.248l-1.9-.825a24.941,24.941,0,0,1-10.875,20.354,8.724,8.724,0,0,0,4.132-1.24l5.627-3.385a3.878,3.878,0,0,1,2-.555h8.256Z" transform="translate(-300.147 -257.017)" fill="#f6a96c"/>
        <path id="Trazado_913516" data-name="Trazado 913516" d="M198.827,90h-9.909a2.216,2.216,0,0,1,0-4.433h9.909a2.216,2.216,0,0,1,0,4.433" transform="translate(-163.647 -75.002)" fill="#ffe177"/>
        <path id="Trazado_913517" data-name="Trazado 913517" d="M255.917,85.57h-4.082a2.216,2.216,0,0,1,0,4.433h4.082a2.216,2.216,0,0,0,0-4.433" transform="translate(-220.737 -75.003)" fill="#ffd15b"/>
        <path id="Trazado_913518" data-name="Trazado 913518" d="M191.612,8.957l-.933-.867a2.347,2.347,0,0,0-3.195,0l-.933.867a2.347,2.347,0,0,1-2.524.437l-1.333-.573a1.043,1.043,0,0,0-1.357,1.4l3.221,6.886H193.6l3.221-6.886a1.043,1.043,0,0,0-1.357-1.4l-1.333.573a2.347,2.347,0,0,1-2.524-.437" transform="translate(-158.856 -6.541)" fill="#d9b1ee"/>
        <path id="Trazado_913519" data-name="Trazado 913519" d="M257.348,17.841l-1.333.573a2.342,2.342,0,0,1-.878.189,1.027,1.027,0,0,1-.083.639l-3.221,6.886h3.651l3.221-6.886a1.043,1.043,0,0,0-1.357-1.4" transform="translate(-220.735 -15.561)" fill="#cb97e7"/>
        <path id="Trazado_913520" data-name="Trazado 913520" d="M403.151,99.926l-.065,0a.926.926,0,0,1-.86-.988l.281-4.046a.928.928,0,0,1,.988-.86l4.047.281a.926.926,0,0,1-.128,1.848l-3.123-.217-.217,3.123a.926.926,0,0,1-.923.862" transform="translate(-352.555 -82.416)" fill="#12233f"/>
        <path id="Trazado_913521" data-name="Trazado 913521" d="M366.446,221.283a.927.927,0,0,1-.9-.732,26.058,26.058,0,0,0-3.366-8.068.926.926,0,0,1,1.579-.968,27.894,27.894,0,0,1,3.6,8.647.926.926,0,0,1-.711,1.1.937.937,0,0,1-.2.021" transform="translate(-317.332 -185.008)" fill="#12233f"/>
        <path id="Trazado_913522" data-name="Trazado 913522" d="M180.135,124.259a.924.924,0,0,1-.733-.36c-.3-.39-.623-.79-.984-1.222a49.016,49.016,0,0,0-7.012-6.852h-8.416a48.117,48.117,0,0,0-5.121,4.721.926.926,0,0,1-1.348-1.27,47.162,47.162,0,0,1,5.6-5.121.926.926,0,0,1,.552-.182h9.045a.926.926,0,0,1,.552.182,49.027,49.027,0,0,1,7.567,7.335c.376.45.711.867,1.027,1.275a.926.926,0,0,1-.732,1.493" transform="translate(-136.972 -99.9)" fill="#12233f"/>
        <path id="Trazado_913523" data-name="Trazado 913523" d="M92.914,210.5a12.269,12.269,0,0,1-12.255-12.255c0-5.429,2.257-11.063,6.708-16.745a.926.926,0,0,1,1.458,1.142c-4.19,5.348-6.314,10.6-6.314,15.6a10.414,10.414,0,0,0,10.4,10.4.926.926,0,0,1,0,1.852" transform="translate(-70.699 -158.774)" fill="#12233f"/>
        <path id="Trazado_913524" data-name="Trazado 913524" d="M223.643,231.656a3.718,3.718,0,0,1-2.4-.685.926.926,0,1,1,1.014-1.55,2.031,2.031,0,0,0,1.47.383,1.152,1.152,0,0,0,1.143-.972.844.844,0,0,0-.622-1,8.689,8.689,0,0,1-2.39-1.152,2.569,2.569,0,0,1-.92-2.406,2.487,2.487,0,0,1,1.7-1.954,3.313,3.313,0,0,1,3.268.693.926.926,0,0,1-1.254,1.364,1.494,1.494,0,0,0-1.388-.314.658.658,0,0,0-.5.506.734.734,0,0,0,.235.653,7.4,7.4,0,0,0,1.864.863,2.7,2.7,0,0,1,1.831,3.053,3.017,3.017,0,0,1-2.958,2.517h-.1" transform="translate(-193.554 -194.709)" fill="#12233f"/>
        <path id="Trazado_913525" data-name="Trazado 913525" d="M237.812,287.142a.926.926,0,0,1-.926-.926v-1.1a.926.926,0,0,1,1.852,0v1.1a.926.926,0,0,1-.926.926" transform="translate(-207.634 -249.099)" fill="#12233f"/>
        <path id="Trazado_913526" data-name="Trazado 913526" d="M237.812,217.683a.926.926,0,0,1-.926-.926v-.888a.926.926,0,0,1,1.852,0v.888a.926.926,0,0,1-.926.926" transform="translate(-207.634 -188.401)" fill="#12233f"/>
        <path id="Trazado_913527" data-name="Trazado 913527" d="M174.341,201a9.922,9.922,0,1,1,9.922-9.922A9.933,9.933,0,0,1,174.341,201m0-17.992a8.07,8.07,0,1,0,8.07,8.07,8.079,8.079,0,0,0-8.07-8.07" transform="translate(-144.116 -158.786)" fill="#12233f"/>
        <path id="Trazado_913528" data-name="Trazado 913528" d="M281.123,415.654h-7.3a.926.926,0,0,1,0-1.852h7.3a7.8,7.8,0,0,0,4.019-1.115l5.627-3.385a4.807,4.807,0,0,1,2.477-.688H301.5a.926.926,0,1,1,0,1.852h-8.255a2.953,2.953,0,0,0-1.522.423l-5.627,3.385a9.65,9.65,0,0,1-4.973,1.38" transform="translate(-239.203 -358.156)" fill="#12233f"/>
        <path id="Trazado_913529" data-name="Trazado 913529" d="M156.518,301.795h-8.695a3.813,3.813,0,1,1,0-7.626h12.145a3.78,3.78,0,0,1,.714-4.42l8.277-8.278a9.437,9.437,0,0,1,10.431-1.972l2.265.983a2.066,2.066,0,0,0,.824.17h6.046a.926.926,0,1,1,0,1.852h-6.046a3.907,3.907,0,0,1-1.56-.323l-2.266-.983a7.576,7.576,0,0,0-8.383,1.582l-8.277,8.278a1.935,1.935,0,0,0-.1,2.654,1.884,1.884,0,0,0,.773.506.926.926,0,0,1-.3,1.8H147.823a1.961,1.961,0,0,0,0,3.922h8.695a.926.926,0,0,1,0,1.852" transform="translate(-126.227 -244.297)" fill="#12233f"/>
        <path id="Trazado_913530" data-name="Trazado 913530" d="M287.009,359.9a3.768,3.768,0,0,1-1.224-.205.926.926,0,0,1,.6-1.752,1.875,1.875,0,0,0,1.946-.45l5.805-5.805a.926.926,0,0,1,.655-.271h1.972a.926.926,0,1,1,0,1.852h-1.589l-5.534,5.534a3.714,3.714,0,0,1-2.633,1.1" transform="translate(-249.946 -308.024)" fill="#12233f"/>
        <path id="Trazado_913531" data-name="Trazado 913531" d="M187.036,11.493a.927.927,0,0,1-.838-1.319l3.221-6.886a.117.117,0,0,0-.152-.157l-1.333.573a3.274,3.274,0,0,1-3.52-.609l-.933-.867a1.426,1.426,0,0,0-1.934,0l-.934.867a3.274,3.274,0,0,1-3.52.609l-1.333-.573a.117.117,0,0,0-.152.157l3.221,6.886a.926.926,0,1,1-1.678.785l-3.221-6.886a1.969,1.969,0,0,1,2.561-2.643L177.825,2a1.421,1.421,0,0,0,1.528-.265l.934-.867a3.286,3.286,0,0,1,4.455,0l.933.867A1.422,1.422,0,0,0,187.2,2l1.333-.573A1.969,1.969,0,0,1,191.1,4.073l-3.221,6.886a.926.926,0,0,1-.839.534" transform="translate(-152.288 0)" fill="#12233f"/>
        <path id="Trazado_913532" data-name="Trazado 913532" d="M192.252,84.354h-9.909a3.143,3.143,0,1,1,0-6.285h9.909a3.143,3.143,0,1,1,0,6.285m-9.909-4.433a1.29,1.29,0,1,0,0,2.58h9.909a1.29,1.29,0,1,0,0-2.58Z" transform="translate(-157.072 -68.429)" fill="#12233f"/>
        <path id="Trazado_913533" data-name="Trazado 913533" d="M414.252,116.8a.926.926,0,0,1-.926-.926,28.1,28.1,0,0,0-8.246-19.959.926.926,0,0,1,1.312-1.307,29.939,29.939,0,0,1,8.786,21.266.926.926,0,0,1-.926.926" transform="translate(-354.822 -82.684)" fill="#12233f"/>
        <path id="Trazado_913534" data-name="Trazado 913534" d="M41.472,401.618l-.064,0-4.046-.281a.926.926,0,0,1,.129-1.848l3.123.217.217-3.123a.926.926,0,0,1,1.848.129l-.281,4.047a.926.926,0,0,1-.924.862" transform="translate(-31.992 -346.853)" fill="#12233f"/>
        <path id="Trazado_913535" data-name="Trazado 913535" d="M9.4,137.1a.923.923,0,0,1-.657-.274A30.13,30.13,0,0,1,8.825,94.3a.926.926,0,0,1,1.31,1.31,28.278,28.278,0,0,0-.075,39.916A.926.926,0,0,1,9.4,137.1" transform="translate(0 -82.416)" fill="#12233f"/>
      </g>
    </g>
  </g>
</svg>
