<svg xmlns="http://www.w3.org/2000/svg" xmlns:xlink="http://www.w3.org/1999/xlink" width="101.428" height="112.957" viewBox="0 0 101.428 112.957">
  <defs>
    <clipPath id="clip-path">
      <rect id="Rectángulo_403391" data-name="Rectángulo 403391" width="58.57" height="60.572" fill="none"/>
    </clipPath>
  </defs>
  <g id="Grupo_1102229" data-name="Grupo 1102229" transform="translate(-803.613 -4338.364)">
    <ellipse id="Elipse_11531" data-name="Elipse 11531" cx="20.631" cy="20.631" rx="20.631" ry="20.631" transform="translate(863.327 4410.059)" fill="#4b96e3"/>
    <g id="Grupo_1101842" data-name="Grupo 1101842" transform="translate(2163.378 18290.711)">
      <ellipse id="Elipse_11588" data-name="Elipse 11588" cx="49.214" cy="49.214" rx="49.214" ry="49.214" transform="translate(-1358.265 -13950.847)" fill="#efedee" stroke="#007dfe" stroke-miterlimit="10" stroke-width="3"/>
      <g id="Grupo_1101770" data-name="Grupo 1101770" transform="translate(-1338.361 -13930.047)">
        <g id="Grupo_1101769" data-name="Grupo 1101769" transform="translate(0 0)" clip-path="url(#clip-path)">
          <path id="Trazado_912906" data-name="Trazado 912906" d="M3.191,3.8A1.964,1.964,0,0,1,5.167,5.754,1.9,1.9,0,0,1,3.191,7.708,1.9,1.9,0,0,1,1.214,5.754,1.965,1.965,0,0,1,3.191,3.8" transform="translate(0.034 0.107)" fill="#add1f6"/>
          <path id="Trazado_912907" data-name="Trazado 912907" d="M52.59,1.3a3.223,3.223,0,0,1,3.225,3.189,3.225,3.225,0,0,1-6.45,0A3.157,3.157,0,0,1,52.59,1.3" transform="translate(1.402 0.036)" fill="#add1f6"/>
          <path id="Trazado_912908" data-name="Trazado 912908" d="M45.665,11.442v1.337a2.6,2.6,0,0,1-5.2,0V8.871a2.562,2.562,0,0,1,2.6-2.571,3.012,3.012,0,0,1,1.873.72,2.462,2.462,0,0,1,.728,1.851Z" transform="translate(1.149 0.178)" fill="#6693ec"/>
          <path id="Trazado_912909" data-name="Trazado 912909" d="M35.55,11.442v1.337a2.6,2.6,0,0,1-5.2,0V8.871a2.562,2.562,0,0,1,2.6-2.571,3.012,3.012,0,0,1,1.873.72,2.466,2.466,0,0,1,.728,1.851Z" transform="translate(0.862 0.178)" fill="#6693ec"/>
          <path id="Trazado_912910" data-name="Trazado 912910" d="M25.434,11.442v1.337a2.6,2.6,0,0,1-5.2,0V8.871a2.562,2.562,0,0,1,2.6-2.571,3.012,3.012,0,0,1,1.873.72,2.462,2.462,0,0,1,.728,1.851Z" transform="translate(0.574 0.178)" fill="#6693ec"/>
          <path id="Trazado_912911" data-name="Trazado 912911" d="M15.318,11.442v1.337a2.6,2.6,0,0,1-5.2,0V8.871a2.562,2.562,0,0,1,2.6-2.571,3.012,3.012,0,0,1,1.873.72,2.462,2.462,0,0,1,.728,1.851Z" transform="translate(0.287 0.178)" fill="#6693ec"/>
          <path id="Trazado_912912" data-name="Trazado 912912" d="M54.782,43.8v4.936a5.342,5.342,0,0,1-5.409,5.348H41.778V43.8Z" transform="translate(1.186 1.243)" fill="#cfddf9"/>
          <rect id="Rectángulo_403388" data-name="Rectángulo 403388" width="14.356" height="5.142" transform="translate(14.356 20.568)" fill="#cfddf9"/>
          <rect id="Rectángulo_403389" data-name="Rectángulo 403389" width="13.004" height="6.479" transform="translate(42.965 38.565)" fill="#c4def9"/>
          <rect id="Rectángulo_403390" data-name="Rectángulo 403390" width="14.356" height="6.479" transform="translate(28.609 32.188)" fill="#007eff"/>
          <path id="Trazado_912913" data-name="Trazado 912913" d="M28.212,25v6.479H13.96V25Z" transform="translate(0.396 0.709)" fill="#ff897e"/>
          <path id="Trazado_912914" data-name="Trazado 912914" d="M54.782,20V38h-13V20Z" transform="translate(1.186 0.567)" fill="#cfddf9"/>
          <path id="Trazado_912915" data-name="Trazado 912915" d="M55.931,16.648v3.6H1.315v-3.6A5.342,5.342,0,0,1,6.724,11.3h3.641v1.337a2.6,2.6,0,0,0,5.2,0V11.3h5.2v1.337a2.6,2.6,0,0,0,5.2,0V11.3h5.2v1.337a2.6,2.6,0,0,0,5.2,0V11.3h5.2v1.337a2.6,2.6,0,0,0,5.2,0V11.3h3.642a5.432,5.432,0,0,1,5.513,5.348" transform="translate(0.037 0.32)" fill="#add1f6"/>
          <path id="Trazado_912916" data-name="Trazado 912916" d="M53.145,56.3a1.338,1.338,0,1,1-1.352,1.337A1.37,1.37,0,0,1,53.145,56.3" transform="translate(1.471 1.598)"/>
          <path id="Trazado_912917" data-name="Trazado 912917" d="M42.175,43.979V54.263H27.819V37.5H42.175Z" transform="translate(0.79 1.064)" fill="#f2f6fd"/>
          <path id="Trazado_912918" data-name="Trazado 912918" d="M36.758,1.3a1.37,1.37,0,0,1,1.352,1.337,1.352,1.352,0,0,1-2.7,0A1.37,1.37,0,0,1,36.758,1.3" transform="translate(1.005 0.036)"/>
          <path id="Trazado_912919" data-name="Trazado 912919" d="M27.856,2.5a1.369,1.369,0,0,1,1.352,1.337,1.284,1.284,0,0,1-1.352,1.234A1.369,1.369,0,0,1,26.5,3.734,1.284,1.284,0,0,1,27.856,2.5" transform="translate(0.753 0.071)"/>
          <path id="Trazado_912920" data-name="Trazado 912920" d="M28.212,37.676V54.439H13.96V31.3H28.212Z" transform="translate(0.396 0.888)" fill="#cfddf9"/>
          <path id="Trazado_912921" data-name="Trazado 912921" d="M16.526,1.3a1.37,1.37,0,0,1,1.352,1.337,1.352,1.352,0,0,1-2.7,0A1.37,1.37,0,0,1,16.526,1.3" transform="translate(0.431 0.036)"/>
          <path id="Trazado_912922" data-name="Trazado 912922" d="M14.319,31.442V54.581H6.724a5.342,5.342,0,0,1-5.409-5.348V26.3h13Z" transform="translate(0.037 0.746)" fill="#f2f6fd"/>
          <path id="Trazado_912923" data-name="Trazado 912923" d="M14.319,25.142v1.337h-13V20h13Z" transform="translate(0.037 0.567)" fill="#ffc92b"/>
          <path id="Trazado_912924" data-name="Trazado 912924" d="M2.566,56.3a1.338,1.338,0,1,1,0,2.675,1.338,1.338,0,1,1,0-2.675" transform="translate(0.034 1.598)"/>
          <path id="Trazado_912925" data-name="Trazado 912925" d="M55.609,21.374H14A1.337,1.337,0,1,1,14,18.7H55.609a1.369,1.369,0,0,1,1.352,1.337,1.535,1.535,0,0,1-1.352,1.337" transform="translate(0.359 0.531)"/>
          <path id="Trazado_912926" data-name="Trazado 912926" d="M14,55.71a1.369,1.369,0,0,1-1.352-1.337V31.337a1.352,1.352,0,0,1,2.7,0V54.476A1.536,1.536,0,0,1,14,55.71" transform="translate(0.359 0.851)"/>
          <path id="Trazado_912927" data-name="Trazado 912927" d="M27.856,55.534A1.369,1.369,0,0,1,26.5,54.2V37.537a1.352,1.352,0,0,1,2.7,0V54.3a1.356,1.356,0,0,1-1.352,1.234" transform="translate(0.753 1.027)"/>
          <path id="Trazado_912928" data-name="Trazado 912928" d="M27.856,26.516A1.369,1.369,0,0,1,26.5,25.179V20.037a1.352,1.352,0,0,1,2.7,0v5.142a1.369,1.369,0,0,1-1.352,1.337" transform="translate(0.753 0.531)"/>
          <path id="Trazado_912929" data-name="Trazado 912929" d="M41.816,55.358a1.369,1.369,0,0,1-1.352-1.337V43.737a1.352,1.352,0,0,1,2.7,0V54.021a1.535,1.535,0,0,1-1.352,1.337" transform="translate(1.149 1.203)"/>
          <path id="Trazado_912930" data-name="Trazado 912930" d="M41.816,32.892a1.369,1.369,0,0,1-1.352-1.337V20.037a1.352,1.352,0,0,1,2.7,0V31.658a1.536,1.536,0,0,1-1.352,1.234" transform="translate(1.149 0.531)"/>
          <path id="Trazado_912931" data-name="Trazado 912931" d="M54.713,39.621a1.369,1.369,0,0,1-1.352-1.337v-21.6A4.15,4.15,0,0,0,49.2,12.574H45.558a1.336,1.336,0,1,1,0-2.673H49.2a6.71,6.71,0,0,1,6.762,6.685v21.6a1.381,1.381,0,0,1-1.248,1.439" transform="translate(1.255 0.281)"/>
          <path id="Trazado_912932" data-name="Trazado 912932" d="M50.455,55.852H6.762A6.71,6.71,0,0,1,0,49.167V26.337A1.369,1.369,0,0,1,1.352,25,1.369,1.369,0,0,1,2.7,26.337V49.27a4.15,4.15,0,0,0,4.162,4.114H50.455a4.15,4.15,0,0,0,4.161-4.114V44.334a1.353,1.353,0,0,1,2.706,0V49.27a6.852,6.852,0,0,1-6.867,6.582" transform="translate(0 0.709)"/>
          <path id="Trazado_912933" data-name="Trazado 912933" d="M1.352,21.621A1.369,1.369,0,0,1,0,20.284v-3.6A6.711,6.711,0,0,1,6.762,10H10.4a1.337,1.337,0,1,1,0,2.674H6.762A4.15,4.15,0,0,0,2.6,16.787v3.5a1.353,1.353,0,0,1-1.248,1.337" transform="translate(0 0.284)"/>
          <path id="Trazado_912934" data-name="Trazado 912934" d="M20.413,12.574h-5.2a1.337,1.337,0,1,1,0-2.674h5.2a1.337,1.337,0,1,1,0,2.674" transform="translate(0.394 0.281)"/>
          <path id="Trazado_912935" data-name="Trazado 912935" d="M30.529,12.574h-5.2a1.337,1.337,0,1,1,0-2.674h5.2a1.337,1.337,0,1,1,0,2.674" transform="translate(0.681 0.281)"/>
          <path id="Trazado_912936" data-name="Trazado 912936" d="M40.644,12.574h-5.2a1.337,1.337,0,1,1,0-2.674h5.2a1.337,1.337,0,1,1,0,2.674" transform="translate(0.968 0.281)"/>
          <path id="Trazado_912937" data-name="Trazado 912937" d="M12.754,16.624A3.929,3.929,0,0,1,8.8,12.716V8.808A3.929,3.929,0,0,1,12.754,4.9a4.238,4.238,0,0,1,2.809,1.131,3.553,3.553,0,0,1,1.145,2.777v3.908a3.929,3.929,0,0,1-3.953,3.908m0-9.05A1.369,1.369,0,0,0,11.4,8.911v3.908a1.352,1.352,0,0,0,2.7,0V8.911a1.248,1.248,0,0,0-.416-.926,1.277,1.277,0,0,0-.936-.411" transform="translate(0.25 0.139)"/>
          <path id="Trazado_912938" data-name="Trazado 912938" d="M22.87,16.624a3.929,3.929,0,0,1-3.953-3.908V8.808A3.929,3.929,0,0,1,22.87,4.9a4.236,4.236,0,0,1,2.809,1.131,3.553,3.553,0,0,1,1.145,2.777v3.908a3.929,3.929,0,0,1-3.953,3.908m0-9.05a1.369,1.369,0,0,0-1.352,1.337v3.908a1.352,1.352,0,0,0,2.7,0V8.911a1.25,1.25,0,0,0-.415-.926,1.279,1.279,0,0,0-.937-.411" transform="translate(0.537 0.139)"/>
          <path id="Trazado_912939" data-name="Trazado 912939" d="M32.985,16.624a3.929,3.929,0,0,1-3.953-3.908V8.808A3.929,3.929,0,0,1,32.985,4.9a4.236,4.236,0,0,1,2.809,1.131,3.951,3.951,0,0,1,1.145,2.777v3.908a3.929,3.929,0,0,1-3.953,3.908m0-9.05a1.369,1.369,0,0,0-1.352,1.337v3.908a1.352,1.352,0,0,0,2.7,0V8.911a1.25,1.25,0,0,0-.415-.926,1.279,1.279,0,0,0-.937-.411" transform="translate(0.824 0.139)"/>
          <path id="Trazado_912940" data-name="Trazado 912940" d="M43.1,16.624a3.929,3.929,0,0,1-3.953-3.908V8.808A3.929,3.929,0,0,1,43.1,4.9a4.238,4.238,0,0,1,2.809,1.131,3.951,3.951,0,0,1,1.145,2.777v3.908A3.929,3.929,0,0,1,43.1,16.624m0-9.05A1.369,1.369,0,0,0,41.75,8.911v3.908a1.352,1.352,0,0,0,2.7,0V8.911a1.248,1.248,0,0,0-.416-.926,1.277,1.277,0,0,0-.936-.411" transform="translate(1.112 0.139)"/>
          <path id="Trazado_912941" data-name="Trazado 912941" d="M14.356,27.75h-13A1.369,1.369,0,0,1,0,26.413V20.037A1.369,1.369,0,0,1,1.352,18.7h13a1.369,1.369,0,0,1,1.352,1.337v5.142a1.443,1.443,0,0,1-.208.616,1.456,1.456,0,0,1,.208.618,1.535,1.535,0,0,1-1.352,1.337M2.6,25.179H13V21.271H2.6Z" transform="translate(0 0.531)"/>
          <path id="Trazado_912942" data-name="Trazado 912942" d="M28.25,32.75H14a1.369,1.369,0,0,1-1.352-1.337V25.037A1.369,1.369,0,0,1,14,23.7H28.25A1.369,1.369,0,0,1,29.6,25.037v6.478A1.356,1.356,0,0,1,28.25,32.75m-13-2.571H27V26.271H15.246Z" transform="translate(0.359 0.673)"/>
          <path id="Trazado_912943" data-name="Trazado 912943" d="M42.213,39.052H27.856A1.369,1.369,0,0,1,26.5,37.716V31.237A1.37,1.37,0,0,1,27.856,29.9H42.213a1.369,1.369,0,0,1,1.352,1.337v6.479a1.534,1.534,0,0,1-1.352,1.336m-13-2.571H40.964V32.573H29.209Z" transform="translate(0.753 0.849)"/>
          <path id="Trazado_912944" data-name="Trazado 912944" d="M54.819,45.253h-13a1.369,1.369,0,0,1-1.353-1.337V37.437A1.37,1.37,0,0,1,41.816,36.1h13a1.37,1.37,0,0,1,1.353,1.338v6.479a1.537,1.537,0,0,1-1.353,1.337M43.065,42.682h10.4V38.774h-10.4Z" transform="translate(1.149 1.025)"/>
          <path id="Trazado_912945" data-name="Trazado 912945" d="M50.624,58.874H6.41a1.337,1.337,0,1,1,0-2.674H50.624a1.369,1.369,0,0,1,1.352,1.337,1.535,1.535,0,0,1-1.352,1.337" transform="translate(0.144 1.595)"/>
          <path id="Trazado_912946" data-name="Trazado 912946" d="M3.225,8.976A3.223,3.223,0,0,1,0,5.788a3.225,3.225,0,0,1,6.45,0A3.223,3.223,0,0,1,3.225,8.976m0-3.908a.668.668,0,0,0-.624.617.668.668,0,0,0,.624.617.667.667,0,0,0,.624-.617.6.6,0,0,0-.624-.617" transform="translate(0 0.073)"/>
          <path id="Trazado_912947" data-name="Trazado 912947" d="M52.627,9.05A4.592,4.592,0,0,1,48.05,4.525a4.578,4.578,0,0,1,9.155,0A4.592,4.592,0,0,1,52.627,9.05m0-6.479a1.964,1.964,0,0,0-1.977,1.954,1.9,1.9,0,0,0,1.977,1.954,1.954,1.954,0,1,0,0-3.908" transform="translate(1.364 0)"/>
        </g>
      </g>
    </g>
  </g>
</svg>
