<svg xmlns="http://www.w3.org/2000/svg" xmlns:xlink="http://www.w3.org/1999/xlink" width="502.147" height="444.513" viewBox="0 0 502.147 444.513">
  <defs>
    <linearGradient id="linear-gradient" x1="0.5" x2="0.5" y2="1" gradientUnits="objectBoundingBox">
      <stop offset="0" stop-color="#007dfe"/>
      <stop offset="1" stop-color="#6b8be8"/>
    </linearGradient>
  </defs>
  <g id="Grupo_1102228" data-name="Grupo 1102228" transform="translate(-540.213 -1460.816)">
    <path id="Trazado_914065" data-name="Trazado 914065" d="M17.553,8.672H15.2L14.794,10H12.963l2.607-7.109h1.611L19.809,10H17.968ZM15.615,7.349h1.528l-.767-2.466ZM16.6.986h1.738L16.982,2.52l-1.343,0Zm6.846,5.22L22.9,6.167a.973.973,0,0,0-1,.488V10H20.263V4.717h1.543l.054.679a1.274,1.274,0,0,1,1.157-.776,1.6,1.6,0,0,1,.459.059ZM26.5,10.1a2.716,2.716,0,0,1-1.968-.725,2.5,2.5,0,0,1-.752-1.887V7.349a3.245,3.245,0,0,1,.3-1.431,2.2,2.2,0,0,1,.876-.959,2.646,2.646,0,0,1,1.367-.339,2.287,2.287,0,0,1,1.758.691,2.715,2.715,0,0,1,.645,1.926v.64H25.459a1.186,1.186,0,0,0,.386.7,1.148,1.148,0,0,0,.771.254,1.479,1.479,0,0,0,1.221-.547l.752.889a2.1,2.1,0,0,1-.872.676A2.945,2.945,0,0,1,26.5,10.1Zm-.186-4.209q-.723,0-.859.957h1.66V6.719a.815.815,0,0,0-.2-.613A.8.8,0,0,0,26.318,5.889ZM32.368,10a1.858,1.858,0,0,1-.156-.474,1.53,1.53,0,0,1-1.27.571,1.874,1.874,0,0,1-1.27-.452,1.438,1.438,0,0,1-.522-1.135,1.478,1.478,0,0,1,.635-1.3,3.234,3.234,0,0,1,1.846-.439h.508v-.28q0-.731-.63-.731a.515.515,0,0,0-.586.579H29.277A1.475,1.475,0,0,1,29.929,5.1a2.739,2.739,0,0,1,1.663-.478,2.4,2.4,0,0,1,1.6.493,1.715,1.715,0,0,1,.6,1.353V8.8a2.4,2.4,0,0,0,.225,1.113V10Zm-1.03-1.074a.918.918,0,0,0,.51-.132.826.826,0,0,0,.291-.3V7.651H31.66q-.859,0-.859.771a.471.471,0,0,0,.151.364A.548.548,0,0,0,31.337,8.926Zm5.645-1.606a3.227,3.227,0,0,1,.542-1.978,1.784,1.784,0,0,1,1.514-.723,1.517,1.517,0,0,1,1.191.557V2.5h1.65V10H40.4l-.083-.566a1.558,1.558,0,0,1-1.289.664,1.781,1.781,0,0,1-1.494-.723A3.33,3.33,0,0,1,36.982,7.319Zm1.646.1q0,1.406.82,1.406a.81.81,0,0,0,.781-.459V6.357a.788.788,0,0,0-.771-.469q-.762,0-.825,1.23ZM45.371,10.1A2.716,2.716,0,0,1,43.4,9.373a2.5,2.5,0,0,1-.752-1.887V7.349a3.245,3.245,0,0,1,.3-1.431,2.2,2.2,0,0,1,.876-.959,2.646,2.646,0,0,1,1.367-.339,2.287,2.287,0,0,1,1.758.691A2.715,2.715,0,0,1,47.6,7.236v.64H44.326a1.186,1.186,0,0,0,.386.7,1.148,1.148,0,0,0,.771.254A1.479,1.479,0,0,0,46.7,8.281l.752.889a2.1,2.1,0,0,1-.872.676A2.945,2.945,0,0,1,45.371,10.1Zm-.186-4.209q-.723,0-.859.957h1.66V6.719a.815.815,0,0,0-.2-.613A.8.8,0,0,0,45.185,5.889ZM18.715,15.4a3.186,3.186,0,0,1-.554,1.965,1.777,1.777,0,0,1-1.5.735,1.523,1.523,0,0,1-1.2-.532v2.466H13.823V12.717h1.538l.049.488a1.523,1.523,0,0,1,1.245-.586,1.791,1.791,0,0,1,1.519.72,3.225,3.225,0,0,1,.542,1.98Zm-1.646-.1q0-1.406-.82-1.406a.774.774,0,0,0-.781.42v2.08a.8.8,0,0,0,.791.439q.786,0,.811-1.357ZM22,18.1a2.716,2.716,0,0,1-1.968-.725,2.5,2.5,0,0,1-.752-1.887v-.137a3.245,3.245,0,0,1,.3-1.431,2.2,2.2,0,0,1,.876-.959,2.646,2.646,0,0,1,1.367-.339,2.287,2.287,0,0,1,1.758.691,2.715,2.715,0,0,1,.645,1.926v.64H20.952a1.186,1.186,0,0,0,.386.7,1.148,1.148,0,0,0,.771.254,1.479,1.479,0,0,0,1.221-.547l.752.889a2.1,2.1,0,0,1-.872.676A2.945,2.945,0,0,1,22,18.1Zm-.186-4.209q-.723,0-.859.957h1.66v-.127a.815.815,0,0,0-.2-.613A.8.8,0,0,0,21.811,13.889Zm-.02-3.394H23.53l-1.357,1.533-1.343,0Zm6.289,3.711-.542-.039a.973.973,0,0,0-1,.488V18H24.9V12.717H26.44l.054.679a1.274,1.274,0,0,1,1.157-.776,1.6,1.6,0,0,1,.459.059Zm.293,1.113a3.227,3.227,0,0,1,.542-1.978,1.784,1.784,0,0,1,1.514-.723,1.517,1.517,0,0,1,1.191.557V10.5h1.65V18H31.792l-.083-.566a1.558,1.558,0,0,1-1.289.664,1.781,1.781,0,0,1-1.494-.723A3.33,3.33,0,0,1,28.374,15.319Zm1.646.1q0,1.406.82,1.406a.81.81,0,0,0,.781-.459V14.357a.788.788,0,0,0-.771-.469q-.762,0-.825,1.23ZM35.942,18h-1.65V12.717h1.65Zm-1.748-6.646a.734.734,0,0,1,.254-.576,1.08,1.08,0,0,1,1.318,0,.781.781,0,0,1,0,1.152,1.08,1.08,0,0,1-1.318,0A.734.734,0,0,1,34.194,11.354Zm2.554,3.965a3.227,3.227,0,0,1,.542-1.978,1.784,1.784,0,0,1,1.514-.723,1.517,1.517,0,0,1,1.191.557V10.5h1.65V18H40.166l-.083-.566a1.558,1.558,0,0,1-1.289.664,1.781,1.781,0,0,1-1.494-.723A3.33,3.33,0,0,1,36.748,15.319Zm1.646.1q0,1.406.82,1.406a.81.81,0,0,0,.781-.459V14.357a.788.788,0,0,0-.771-.469q-.762,0-.825,1.23ZM45.556,18a1.858,1.858,0,0,1-.156-.474,1.53,1.53,0,0,1-1.27.571,1.874,1.874,0,0,1-1.27-.452,1.438,1.438,0,0,1-.522-1.135,1.478,1.478,0,0,1,.635-1.3,3.234,3.234,0,0,1,1.846-.439h.508v-.28q0-.731-.63-.731a.515.515,0,0,0-.586.579H42.465a1.475,1.475,0,0,1,.652-1.244,2.739,2.739,0,0,1,1.663-.478,2.4,2.4,0,0,1,1.6.493,1.715,1.715,0,0,1,.6,1.353V16.8a2.4,2.4,0,0,0,.225,1.113V18Zm-1.03-1.074a.918.918,0,0,0,.51-.132.826.826,0,0,0,.291-.3v-.845h-.479q-.859,0-.859.771a.471.471,0,0,0,.151.364A.548.548,0,0,0,44.526,16.926Z" transform="translate(613.453 1758.14)" fill="#12263f"/>
    <path id="Trazado_914066" data-name="Trazado 914066" d="M6.289,7.593a2.6,2.6,0,0,1-.4,1.311,2.416,2.416,0,0,1-1.028.881A3.5,3.5,0,0,1,3.35,10.1a2.792,2.792,0,0,1-2.207-.913A3.77,3.77,0,0,1,.337,6.606V6.255A4.3,4.3,0,0,1,.7,4.426,2.756,2.756,0,0,1,1.748,3.215,2.922,2.922,0,0,1,3.33,2.788a3.064,3.064,0,0,1,2.08.681A2.691,2.691,0,0,1,6.3,5.347H4.595a1.273,1.273,0,0,0-.327-.933,1.346,1.346,0,0,0-.937-.283,1.024,1.024,0,0,0-.937.479A3.075,3.075,0,0,0,2.08,6.138v.5a3.4,3.4,0,0,0,.286,1.626,1.045,1.045,0,0,0,.984.488,1.316,1.316,0,0,0,.9-.278,1.181,1.181,0,0,0,.332-.884Zm.527-.283A3.118,3.118,0,0,1,7.124,5.9a2.2,2.2,0,0,1,.884-.95A2.662,2.662,0,0,1,9.36,4.619a2.429,2.429,0,0,1,1.87.735,2.82,2.82,0,0,1,.684,2v.059a2.736,2.736,0,0,1-.686,1.96A2.436,2.436,0,0,1,9.37,10.1a2.463,2.463,0,0,1-1.812-.676,2.645,2.645,0,0,1-.737-1.833Zm1.646.1a1.966,1.966,0,0,0,.229,1.074.765.765,0,0,0,.679.342q.879,0,.9-1.353V7.31q0-1.421-.908-1.421-.825,0-.894,1.226Zm6.943,1.1a.38.38,0,0,0-.22-.337,3.342,3.342,0,0,0-.835-.264,3.807,3.807,0,0,1-1.016-.359,1.7,1.7,0,0,1-.61-.54,1.288,1.288,0,0,1-.21-.728,1.46,1.46,0,0,1,.6-1.2,2.474,2.474,0,0,1,1.572-.471,2.741,2.741,0,0,1,1.68.474A1.481,1.481,0,0,1,17,6.338h-1.65q0-.635-.669-.635a.663.663,0,0,0-.435.144.446.446,0,0,0-.176.359.409.409,0,0,0,.215.356,2.03,2.03,0,0,0,.686.225A5.928,5.928,0,0,1,15.8,7a1.5,1.5,0,0,1,1.191,1.47,1.384,1.384,0,0,1-.642,1.177,2.816,2.816,0,0,1-1.663.454,2.873,2.873,0,0,1-1.211-.244,2.025,2.025,0,0,1-.83-.664,1.5,1.5,0,0,1-.3-.884h1.538a.636.636,0,0,0,.244.535,1,1,0,0,0,.6.168.79.79,0,0,0,.505-.137A.437.437,0,0,0,15.405,8.516ZM19.678,3.4V4.717h.869V5.859h-.869V8.276a.617.617,0,0,0,.107.415.576.576,0,0,0,.425.117,2.414,2.414,0,0,0,.41-.029V9.956a3.037,3.037,0,0,1-.928.142,1.724,1.724,0,0,1-1.255-.4,1.641,1.641,0,0,1-.405-1.216V5.859h-.674V4.717h.674V3.4ZM20.84,7.31A3.118,3.118,0,0,1,21.147,5.9a2.2,2.2,0,0,1,.884-.95,2.662,2.662,0,0,1,1.353-.332,2.429,2.429,0,0,1,1.87.735,2.82,2.82,0,0,1,.684,2v.059a2.736,2.736,0,0,1-.686,1.96,2.436,2.436,0,0,1-1.858.725,2.463,2.463,0,0,1-1.812-.676,2.645,2.645,0,0,1-.737-1.833Zm1.646.1a1.966,1.966,0,0,0,.229,1.074.765.765,0,0,0,.679.342q.879,0,.9-1.353V7.31q0-1.421-.908-1.421-.825,0-.894,1.226Zm6.943,1.1a.38.38,0,0,0-.22-.337,3.342,3.342,0,0,0-.835-.264,3.807,3.807,0,0,1-1.016-.359,1.7,1.7,0,0,1-.61-.54,1.288,1.288,0,0,1-.21-.728,1.46,1.46,0,0,1,.6-1.2,2.474,2.474,0,0,1,1.572-.471,2.741,2.741,0,0,1,1.68.474,1.481,1.481,0,0,1,.635,1.245h-1.65q0-.635-.669-.635a.663.663,0,0,0-.435.144.446.446,0,0,0-.176.359.409.409,0,0,0,.215.356A2.03,2.03,0,0,0,29,6.787a5.928,5.928,0,0,1,.828.21,1.5,1.5,0,0,1,1.191,1.47,1.384,1.384,0,0,1-.642,1.177,2.816,2.816,0,0,1-1.663.454A2.873,2.873,0,0,1,27.5,9.854a2.025,2.025,0,0,1-.83-.664,1.5,1.5,0,0,1-.3-.884H27.91a.636.636,0,0,0,.244.535,1,1,0,0,0,.6.168.79.79,0,0,0,.505-.137A.437.437,0,0,0,29.429,8.516ZM5.015,16.168H2.251V19H.537V11.891H5.293v1.323H2.251V14.85H5.015ZM7.666,19H6.016V13.717h1.65ZM5.918,12.354a.734.734,0,0,1,.254-.576.958.958,0,0,1,.659-.225.958.958,0,0,1,.659.225.781.781,0,0,1,0,1.152.958.958,0,0,1-.659.225.958.958,0,0,1-.659-.225A.734.734,0,0,1,5.918,12.354Zm4.531,1.362v5.464a1.918,1.918,0,0,1-.537,1.445,2.063,2.063,0,0,1-1.484.508,3.5,3.5,0,0,1-.776-.083V19.806a3.148,3.148,0,0,0,.464.044.6.6,0,0,0,.684-.679V13.717ZM8.677,12.354a.734.734,0,0,1,.254-.576,1.08,1.08,0,0,1,1.318,0,.781.781,0,0,1,0,1.152,1.08,1.08,0,0,1-1.318,0A.734.734,0,0,1,8.677,12.354Zm2.5,3.955a3.118,3.118,0,0,1,.308-1.409,2.2,2.2,0,0,1,.884-.95,2.662,2.662,0,0,1,1.353-.332,2.429,2.429,0,0,1,1.87.735,2.82,2.82,0,0,1,.684,2v.059a2.736,2.736,0,0,1-.686,1.96,2.436,2.436,0,0,1-1.858.725,2.463,2.463,0,0,1-1.812-.676,2.645,2.645,0,0,1-.737-1.833Zm1.646.1a1.966,1.966,0,0,0,.229,1.074.765.765,0,0,0,.679.342q.879,0,.9-1.353V16.31q0-1.421-.908-1.421-.825,0-.894,1.226Zm6.943,1.1a.38.38,0,0,0-.22-.337,3.342,3.342,0,0,0-.835-.264,3.807,3.807,0,0,1-1.016-.359,1.7,1.7,0,0,1-.61-.54,1.288,1.288,0,0,1-.21-.728,1.46,1.46,0,0,1,.6-1.2,2.474,2.474,0,0,1,1.572-.471,2.741,2.741,0,0,1,1.68.474,1.481,1.481,0,0,1,.635,1.245h-1.65q0-.635-.669-.635a.663.663,0,0,0-.435.144.446.446,0,0,0-.176.359.409.409,0,0,0,.215.356,2.03,2.03,0,0,0,.686.225,5.929,5.929,0,0,1,.828.21,1.5,1.5,0,0,1,1.191,1.47,1.384,1.384,0,0,1-.642,1.177,2.816,2.816,0,0,1-1.663.454,2.873,2.873,0,0,1-1.211-.244,2.025,2.025,0,0,1-.83-.664,1.5,1.5,0,0,1-.3-.884h1.538a.636.636,0,0,0,.244.535,1,1,0,0,0,.6.168.79.79,0,0,0,.505-.137A.437.437,0,0,0,19.761,17.516Z" transform="translate(860.175 1790.306)" fill="#12263f"/>
    <path id="Trazado_914067" data-name="Trazado 914067" d="M6.289,7.593a2.6,2.6,0,0,1-.4,1.311,2.416,2.416,0,0,1-1.028.881A3.5,3.5,0,0,1,3.35,10.1a2.792,2.792,0,0,1-2.207-.913A3.77,3.77,0,0,1,.337,6.606V6.255A4.3,4.3,0,0,1,.7,4.426,2.756,2.756,0,0,1,1.748,3.215,2.922,2.922,0,0,1,3.33,2.788a3.064,3.064,0,0,1,2.08.681A2.691,2.691,0,0,1,6.3,5.347H4.595a1.273,1.273,0,0,0-.327-.933,1.346,1.346,0,0,0-.937-.283,1.024,1.024,0,0,0-.937.479A3.075,3.075,0,0,0,2.08,6.138v.5a3.4,3.4,0,0,0,.286,1.626,1.045,1.045,0,0,0,.984.488,1.316,1.316,0,0,0,.9-.278,1.181,1.181,0,0,0,.332-.884Zm.527-.283A3.118,3.118,0,0,1,7.124,5.9a2.2,2.2,0,0,1,.884-.95A2.662,2.662,0,0,1,9.36,4.619a2.429,2.429,0,0,1,1.87.735,2.82,2.82,0,0,1,.684,2v.059a2.736,2.736,0,0,1-.686,1.96A2.436,2.436,0,0,1,9.37,10.1a2.463,2.463,0,0,1-1.812-.676,2.645,2.645,0,0,1-.737-1.833Zm1.646.1a1.966,1.966,0,0,0,.229,1.074.765.765,0,0,0,.679.342q.879,0,.9-1.353V7.31q0-1.421-.908-1.421-.825,0-.894,1.226Zm6.943,1.1a.38.38,0,0,0-.22-.337,3.342,3.342,0,0,0-.835-.264,3.807,3.807,0,0,1-1.016-.359,1.7,1.7,0,0,1-.61-.54,1.288,1.288,0,0,1-.21-.728,1.46,1.46,0,0,1,.6-1.2,2.474,2.474,0,0,1,1.572-.471,2.741,2.741,0,0,1,1.68.474A1.481,1.481,0,0,1,17,6.338h-1.65q0-.635-.669-.635a.663.663,0,0,0-.435.144.446.446,0,0,0-.176.359.409.409,0,0,0,.215.356,2.03,2.03,0,0,0,.686.225A5.928,5.928,0,0,1,15.8,7a1.5,1.5,0,0,1,1.191,1.47,1.384,1.384,0,0,1-.642,1.177,2.816,2.816,0,0,1-1.663.454,2.873,2.873,0,0,1-1.211-.244,2.025,2.025,0,0,1-.83-.664,1.5,1.5,0,0,1-.3-.884h1.538a.636.636,0,0,0,.244.535,1,1,0,0,0,.6.168.79.79,0,0,0,.505-.137A.437.437,0,0,0,15.405,8.516ZM19.678,3.4V4.717h.869V5.859h-.869V8.276a.617.617,0,0,0,.107.415.576.576,0,0,0,.425.117,2.414,2.414,0,0,0,.41-.029V9.956a3.037,3.037,0,0,1-.928.142,1.724,1.724,0,0,1-1.255-.4,1.641,1.641,0,0,1-.405-1.216V5.859h-.674V4.717h.674V3.4ZM20.84,7.31A3.118,3.118,0,0,1,21.147,5.9a2.2,2.2,0,0,1,.884-.95,2.662,2.662,0,0,1,1.353-.332,2.429,2.429,0,0,1,1.87.735,2.82,2.82,0,0,1,.684,2v.059a2.736,2.736,0,0,1-.686,1.96,2.436,2.436,0,0,1-1.858.725,2.463,2.463,0,0,1-1.812-.676,2.645,2.645,0,0,1-.737-1.833Zm1.646.1a1.966,1.966,0,0,0,.229,1.074.765.765,0,0,0,.679.342q.879,0,.9-1.353V7.31q0-1.421-.908-1.421-.825,0-.894,1.226Zm6.943,1.1a.38.38,0,0,0-.22-.337,3.342,3.342,0,0,0-.835-.264,3.807,3.807,0,0,1-1.016-.359,1.7,1.7,0,0,1-.61-.54,1.288,1.288,0,0,1-.21-.728,1.46,1.46,0,0,1,.6-1.2,2.474,2.474,0,0,1,1.572-.471,2.741,2.741,0,0,1,1.68.474,1.481,1.481,0,0,1,.635,1.245h-1.65q0-.635-.669-.635a.663.663,0,0,0-.435.144.446.446,0,0,0-.176.359.409.409,0,0,0,.215.356A2.03,2.03,0,0,0,29,6.787a5.928,5.928,0,0,1,.828.21,1.5,1.5,0,0,1,1.191,1.47,1.384,1.384,0,0,1-.642,1.177,2.816,2.816,0,0,1-1.663.454A2.873,2.873,0,0,1,27.5,9.854a2.025,2.025,0,0,1-.83-.664,1.5,1.5,0,0,1-.3-.884H27.91a.636.636,0,0,0,.244.535,1,1,0,0,0,.6.168.79.79,0,0,0,.505-.137A.437.437,0,0,0,29.429,8.516Zm7.681-.449,1.416-5.176h1.914L38.047,10H36.172L33.8,2.891h1.9ZM43.633,10a1.858,1.858,0,0,1-.156-.474,1.53,1.53,0,0,1-1.27.571,1.875,1.875,0,0,1-1.27-.452,1.438,1.438,0,0,1-.522-1.135,1.478,1.478,0,0,1,.635-1.3A3.234,3.234,0,0,1,42.9,6.772H43.4v-.28q0-.731-.63-.731a.515.515,0,0,0-.586.579H40.542A1.475,1.475,0,0,1,41.194,5.1a2.739,2.739,0,0,1,1.663-.478,2.4,2.4,0,0,1,1.6.493,1.715,1.715,0,0,1,.6,1.353V8.8a2.4,2.4,0,0,0,.225,1.113V10ZM42.6,8.926a.918.918,0,0,0,.51-.132.826.826,0,0,0,.291-.3V7.651h-.479q-.859,0-.859.771a.471.471,0,0,0,.151.364A.548.548,0,0,0,42.6,8.926Zm6.558-2.72-.542-.039a.973.973,0,0,0-1,.488V10H45.977V4.717H47.52l.054.679a1.274,1.274,0,0,1,1.157-.776,1.6,1.6,0,0,1,.459.059ZM51.489,10h-1.65V4.717h1.65ZM49.741,3.354A.734.734,0,0,1,50,2.778a1.08,1.08,0,0,1,1.318,0,.734.734,0,0,1,.254.576.734.734,0,0,1-.254.576,1.08,1.08,0,0,1-1.318,0A.734.734,0,0,1,49.741,3.354ZM55.479,10a1.858,1.858,0,0,1-.156-.474,1.53,1.53,0,0,1-1.27.571,1.875,1.875,0,0,1-1.27-.452,1.438,1.438,0,0,1-.522-1.135,1.478,1.478,0,0,1,.635-1.3,3.234,3.234,0,0,1,1.846-.439h.508v-.28q0-.731-.63-.731a.515.515,0,0,0-.586.579H52.388A1.475,1.475,0,0,1,53.04,5.1,2.739,2.739,0,0,1,54.7,4.619a2.4,2.4,0,0,1,1.6.493,1.715,1.715,0,0,1,.6,1.353V8.8a2.4,2.4,0,0,0,.225,1.113V10Zm-1.03-1.074a.918.918,0,0,0,.51-.132.826.826,0,0,0,.291-.3V7.651h-.479q-.859,0-.859.771a.471.471,0,0,0,.151.364A.548.548,0,0,0,54.448,8.926ZM62.715,7.4a3.22,3.22,0,0,1-.537,2,1.8,1.8,0,0,1-1.514.7,1.561,1.561,0,0,1-1.3-.64L59.3,10H57.822V2.5h1.646V5.142a1.506,1.506,0,0,1,1.187-.522,1.8,1.8,0,0,1,1.523.708,3.237,3.237,0,0,1,.537,1.992Zm-1.65-.1a2.148,2.148,0,0,0-.2-1.085.683.683,0,0,0-.623-.324.788.788,0,0,0-.771.424v2.1a.792.792,0,0,0,.781.419.7.7,0,0,0,.737-.565A4.061,4.061,0,0,0,61.064,7.3ZM65.176,10h-1.65V2.5h1.65Zm3.569.1a2.716,2.716,0,0,1-1.968-.725,2.5,2.5,0,0,1-.752-1.887V7.349a3.245,3.245,0,0,1,.3-1.431,2.2,2.2,0,0,1,.876-.959,2.646,2.646,0,0,1,1.367-.339,2.287,2.287,0,0,1,1.758.691,2.715,2.715,0,0,1,.645,1.926v.64H67.7a1.186,1.186,0,0,0,.386.7,1.148,1.148,0,0,0,.771.254,1.479,1.479,0,0,0,1.221-.547l.752.889a2.1,2.1,0,0,1-.872.676A2.945,2.945,0,0,1,68.745,10.1ZM68.56,5.889q-.723,0-.859.957h1.66V6.719a.815.815,0,0,0-.2-.613A.8.8,0,0,0,68.56,5.889ZM74.4,8.516a.38.38,0,0,0-.22-.337,3.342,3.342,0,0,0-.835-.264,3.807,3.807,0,0,1-1.016-.359,1.7,1.7,0,0,1-.61-.54,1.288,1.288,0,0,1-.21-.728,1.46,1.46,0,0,1,.6-1.2,2.474,2.474,0,0,1,1.572-.471,2.741,2.741,0,0,1,1.68.474A1.481,1.481,0,0,1,76,6.338h-1.65q0-.635-.669-.635a.663.663,0,0,0-.435.144.446.446,0,0,0-.176.359.409.409,0,0,0,.215.356,2.03,2.03,0,0,0,.686.225,5.929,5.929,0,0,1,.828.21,1.5,1.5,0,0,1,1.191,1.47,1.384,1.384,0,0,1-.642,1.177,2.816,2.816,0,0,1-1.663.454,2.873,2.873,0,0,1-1.211-.244,2.025,2.025,0,0,1-.83-.664,1.5,1.5,0,0,1-.3-.884h1.538a.636.636,0,0,0,.244.535,1,1,0,0,0,.6.168.79.79,0,0,0,.505-.137A.437.437,0,0,0,74.4,8.516ZM.254,16.319A3.227,3.227,0,0,1,.8,14.342a1.784,1.784,0,0,1,1.514-.723,1.517,1.517,0,0,1,1.191.557V11.5h1.65V19H3.672l-.083-.566A1.558,1.558,0,0,1,2.3,19.1a1.781,1.781,0,0,1-1.494-.723A3.33,3.33,0,0,1,.254,16.319Zm1.646.1q0,1.406.82,1.406a.81.81,0,0,0,.781-.459V15.357a.788.788,0,0,0-.771-.469q-.762,0-.825,1.23ZM8.643,19.1a2.716,2.716,0,0,1-1.968-.725,2.5,2.5,0,0,1-.752-1.887v-.137a3.245,3.245,0,0,1,.3-1.431,2.2,2.2,0,0,1,.876-.959,2.646,2.646,0,0,1,1.367-.339,2.287,2.287,0,0,1,1.758.691,2.715,2.715,0,0,1,.645,1.926v.64H7.6a1.186,1.186,0,0,0,.386.7,1.148,1.148,0,0,0,.771.254,1.479,1.479,0,0,0,1.221-.547l.752.889a2.1,2.1,0,0,1-.872.676A2.945,2.945,0,0,1,8.643,19.1Zm-.186-4.209q-.723,0-.859.957h1.66v-.127a.815.815,0,0,0-.2-.613A.8.8,0,0,0,8.457,14.889Zm5.356,1.421a3.118,3.118,0,0,1,.308-1.409,2.2,2.2,0,0,1,.884-.95,2.662,2.662,0,0,1,1.353-.332,2.429,2.429,0,0,1,1.87.735,2.82,2.82,0,0,1,.684,2v.059a2.736,2.736,0,0,1-.686,1.96,2.436,2.436,0,0,1-1.858.725,2.463,2.463,0,0,1-1.812-.676,2.645,2.645,0,0,1-.737-1.833Zm1.646.1a1.966,1.966,0,0,0,.229,1.074.765.765,0,0,0,.679.342q.879,0,.9-1.353V16.31q0-1.421-.908-1.421-.825,0-.894,1.226Zm9.082-.015a3.186,3.186,0,0,1-.554,1.965,1.777,1.777,0,0,1-1.5.735,1.523,1.523,0,0,1-1.2-.532v2.466H19.648V13.717h1.538l.049.488a1.523,1.523,0,0,1,1.245-.586,1.791,1.791,0,0,1,1.519.72,3.225,3.225,0,0,1,.542,1.98Zm-1.646-.1q0-1.406-.82-1.406a.774.774,0,0,0-.781.42v2.08a.8.8,0,0,0,.791.439q.786,0,.811-1.357Zm4.927,2.8a2.716,2.716,0,0,1-1.968-.725,2.5,2.5,0,0,1-.752-1.887v-.137a3.245,3.245,0,0,1,.3-1.431,2.2,2.2,0,0,1,.876-.959,2.646,2.646,0,0,1,1.367-.339,2.287,2.287,0,0,1,1.758.691,2.715,2.715,0,0,1,.645,1.926v.64H26.777a1.186,1.186,0,0,0,.386.7,1.148,1.148,0,0,0,.771.254,1.479,1.479,0,0,0,1.221-.547l.752.889a2.1,2.1,0,0,1-.872.676A2.945,2.945,0,0,1,27.822,19.1Zm-.186-4.209q-.723,0-.859.957h1.66v-.127a.815.815,0,0,0-.2-.613A.8.8,0,0,0,27.637,14.889Zm6.27.317-.542-.039a.973.973,0,0,0-1,.488V19H30.723V13.717h1.543l.054.679a1.274,1.274,0,0,1,1.157-.776,1.6,1.6,0,0,1,.459.059ZM37.329,19a1.858,1.858,0,0,1-.156-.474,1.53,1.53,0,0,1-1.27.571,1.874,1.874,0,0,1-1.27-.452,1.438,1.438,0,0,1-.522-1.135,1.478,1.478,0,0,1,.635-1.3,3.234,3.234,0,0,1,1.846-.439H37.1v-.28q0-.731-.63-.731a.515.515,0,0,0-.586.579H34.238A1.475,1.475,0,0,1,34.89,14.1a2.739,2.739,0,0,1,1.663-.478,2.4,2.4,0,0,1,1.6.493,1.715,1.715,0,0,1,.6,1.353V17.8a2.4,2.4,0,0,0,.225,1.113V19ZM36.3,17.926a.918.918,0,0,0,.51-.132.826.826,0,0,0,.291-.3v-.845h-.479q-.859,0-.859.771a.471.471,0,0,0,.151.364A.548.548,0,0,0,36.3,17.926Zm5.6-.1a.732.732,0,0,0,.537-.188.689.689,0,0,0,.186-.525H44.16a1.827,1.827,0,0,1-.623,1.426,2.316,2.316,0,0,1-1.6.557,2.345,2.345,0,0,1-1.816-.723,2.847,2.847,0,0,1-.664-2V16.3a3.218,3.218,0,0,1,.3-1.414,2.151,2.151,0,0,1,.852-.942,2.541,2.541,0,0,1,1.318-.33,2.287,2.287,0,0,1,1.636.571,2.026,2.026,0,0,1,.605,1.548H42.617a.9.9,0,0,0-.2-.63.691.691,0,0,0-.537-.22q-.64,0-.747.815a5.754,5.754,0,0,0-.034.713,2.26,2.26,0,0,0,.19,1.1A.659.659,0,0,0,41.895,17.828ZM46.592,19h-1.65V13.717h1.65Zm-1.748-6.646a.734.734,0,0,1,.254-.576,1.08,1.08,0,0,1,1.318,0,.781.781,0,0,1,0,1.152,1.08,1.08,0,0,1-1.318,0A.734.734,0,0,1,44.844,12.354ZM47.4,16.31a3.118,3.118,0,0,1,.308-1.409,2.2,2.2,0,0,1,.884-.95,2.662,2.662,0,0,1,1.353-.332,2.429,2.429,0,0,1,1.87.735,2.82,2.82,0,0,1,.684,2v.059a2.736,2.736,0,0,1-.686,1.96,2.436,2.436,0,0,1-1.858.725,2.463,2.463,0,0,1-1.812-.676,2.645,2.645,0,0,1-.737-1.833Zm1.646.1a1.966,1.966,0,0,0,.229,1.074.765.765,0,0,0,.679.342q.879,0,.9-1.353V16.31q0-1.421-.908-1.421-.825,0-.894,1.226ZM50.166,11.5H51.9l-1.357,1.533-1.343,0Zm4.565,2.217.054.62a1.792,1.792,0,0,1,1.509-.718,1.507,1.507,0,0,1,1.233.493,2.348,2.348,0,0,1,.422,1.484V19H56.3V15.665a.892.892,0,0,0-.161-.588.745.745,0,0,0-.586-.188.785.785,0,0,0-.718.381V19H53.188V13.717Z" transform="translate(860.175 1695.995)" fill="#12263f"/>
    <path id="Trazado_914068" data-name="Trazado 914068" d="M33.223,7.588V10H31.509V2.891h2.837a3.3,3.3,0,0,1,1.443.3,2.263,2.263,0,0,1,.972.854A2.334,2.334,0,0,1,37.105,5.3a2.057,2.057,0,0,1-.745,1.663,3.09,3.09,0,0,1-2.043.623Zm0-1.323h1.123a1.059,1.059,0,0,0,.759-.249.925.925,0,0,0,.261-.7,1.144,1.144,0,0,0-.269-.8.951.951,0,0,0-.732-.3H33.223Zm7.866,3.164a1.7,1.7,0,0,1-1.411.669,1.664,1.664,0,0,1-1.316-.505,2.125,2.125,0,0,1-.447-1.453V4.717h1.646V8.149a.591.591,0,0,0,.659.679.86.86,0,0,0,.806-.405V4.717h1.655V10H41.138Zm4-4.712.054.62a1.792,1.792,0,0,1,1.509-.718,1.507,1.507,0,0,1,1.233.493A2.348,2.348,0,0,1,48.311,6.6V10h-1.65V6.665a.892.892,0,0,0-.161-.588.745.745,0,0,0-.586-.188.785.785,0,0,0-.718.381V10H43.55V4.717ZM51.138,3.4V4.717h.869V5.859h-.869V8.276a.617.617,0,0,0,.107.415.576.576,0,0,0,.425.117,2.414,2.414,0,0,0,.41-.029V9.956a3.037,3.037,0,0,1-.928.142A1.724,1.724,0,0,1,49.9,9.7a1.641,1.641,0,0,1-.405-1.216V5.859h-.674V4.717h.674V3.4ZM52.3,7.31A3.118,3.118,0,0,1,52.608,5.9a2.2,2.2,0,0,1,.884-.95,2.662,2.662,0,0,1,1.353-.332,2.429,2.429,0,0,1,1.87.735,2.82,2.82,0,0,1,.684,2v.059a2.736,2.736,0,0,1-.686,1.96,2.436,2.436,0,0,1-1.858.725,2.463,2.463,0,0,1-1.812-.676,2.645,2.645,0,0,1-.737-1.833Zm1.646.1a1.966,1.966,0,0,0,.229,1.074.765.765,0,0,0,.679.342q.879,0,.9-1.353V7.31q0-1.421-.908-1.421-.825,0-.894,1.226Zm6.46-.093a3.227,3.227,0,0,1,.542-1.978,1.784,1.784,0,0,1,1.514-.723,1.517,1.517,0,0,1,1.191.557V2.5H65.3V10H63.824l-.083-.566a1.558,1.558,0,0,1-1.289.664,1.781,1.781,0,0,1-1.494-.723A3.33,3.33,0,0,1,60.406,7.319Zm1.646.1q0,1.406.82,1.406a.81.81,0,0,0,.781-.459V6.357a.788.788,0,0,0-.771-.469q-.762,0-.825,1.23ZM68.795,10.1a2.716,2.716,0,0,1-1.968-.725,2.5,2.5,0,0,1-.752-1.887V7.349a3.245,3.245,0,0,1,.3-1.431,2.2,2.2,0,0,1,.876-.959,2.646,2.646,0,0,1,1.367-.339,2.287,2.287,0,0,1,1.758.691,2.715,2.715,0,0,1,.645,1.926v.64H67.75a1.186,1.186,0,0,0,.386.7,1.148,1.148,0,0,0,.771.254,1.479,1.479,0,0,0,1.221-.547l.752.889a2.1,2.1,0,0,1-.872.676A2.945,2.945,0,0,1,68.795,10.1Zm-.186-4.209q-.723,0-.859.957h1.66V6.719a.815.815,0,0,0-.2-.613A.8.8,0,0,0,68.609,5.889ZM31.5,19.1a2.716,2.716,0,0,1-1.968-.725,2.5,2.5,0,0,1-.752-1.887v-.137a3.245,3.245,0,0,1,.3-1.431,2.2,2.2,0,0,1,.876-.959,2.646,2.646,0,0,1,1.367-.339,2.287,2.287,0,0,1,1.758.691,2.715,2.715,0,0,1,.645,1.926v.64H30.46a1.186,1.186,0,0,0,.386.7,1.148,1.148,0,0,0,.771.254,1.479,1.479,0,0,0,1.221-.547l.752.889a2.1,2.1,0,0,1-.872.676A2.945,2.945,0,0,1,31.5,19.1Zm-.186-4.209q-.723,0-.859.957h1.66v-.127a.815.815,0,0,0-.2-.613A.8.8,0,0,0,31.319,14.889ZM34.185,16.3a3.171,3.171,0,0,1,.547-1.973,1.8,1.8,0,0,1,1.509-.713,1.534,1.534,0,0,1,1.3.664l.117-.566h1.426v7.314h-1.65V18.561a1.532,1.532,0,0,1-1.2.537,1.78,1.78,0,0,1-1.492-.725A3.348,3.348,0,0,1,34.185,16.3Zm1.646.1q0,1.421.82,1.421a.794.794,0,0,0,.781-.43v-2.09a.777.777,0,0,0-.771-.42q-.767,0-.825,1.226Zm7.329,2.021a1.7,1.7,0,0,1-1.411.669,1.664,1.664,0,0,1-1.316-.505,2.125,2.125,0,0,1-.447-1.453V13.717h1.646v3.433a.591.591,0,0,0,.659.679.86.86,0,0,0,.806-.405V13.717h1.655V19H43.209ZM47.388,19h-1.65V13.717h1.65ZM45.64,12.354a.734.734,0,0,1,.254-.576,1.08,1.08,0,0,1,1.318,0,.781.781,0,0,1,0,1.152,1.08,1.08,0,0,1-1.318,0A.734.734,0,0,1,45.64,12.354ZM50.137,19h-1.65V11.5h1.65Zm2.749,0h-1.65V13.717h1.65Zm-1.748-6.646a.734.734,0,0,1,.254-.576,1.08,1.08,0,0,1,1.318,0,.781.781,0,0,1,0,1.152,1.08,1.08,0,0,1-1.318,0A.734.734,0,0,1,51.138,12.354ZM58.8,16.4a3.22,3.22,0,0,1-.537,2,1.8,1.8,0,0,1-1.514.7,1.561,1.561,0,0,1-1.3-.64L55.386,19H53.912V11.5h1.646v2.642a1.506,1.506,0,0,1,1.187-.522,1.8,1.8,0,0,1,1.523.708,3.237,3.237,0,0,1,.537,1.992Zm-1.65-.1a2.148,2.148,0,0,0-.2-1.085.683.683,0,0,0-.623-.324.788.788,0,0,0-.771.424v2.1a.792.792,0,0,0,.781.419.7.7,0,0,0,.737-.565A4.061,4.061,0,0,0,57.154,16.3Zm5.571-1.091-.542-.039a.973.973,0,0,0-1,.488V19H59.542V13.717h1.543l.054.679a1.274,1.274,0,0,1,1.157-.776,1.6,1.6,0,0,1,.459.059ZM65.054,19H63.4V13.717h1.65Zm-1.748-6.646a.734.734,0,0,1,.254-.576,1.08,1.08,0,0,1,1.318,0,.781.781,0,0,1,0,1.152,1.08,1.08,0,0,1-1.318,0A.734.734,0,0,1,63.306,12.354ZM65.86,16.31a3.118,3.118,0,0,1,.308-1.409,2.2,2.2,0,0,1,.884-.95,2.662,2.662,0,0,1,1.353-.332,2.429,2.429,0,0,1,1.87.735,2.82,2.82,0,0,1,.684,2v.059a2.736,2.736,0,0,1-.686,1.96,2.436,2.436,0,0,1-1.858.725,2.463,2.463,0,0,1-1.812-.676,2.645,2.645,0,0,1-.737-1.833Zm1.646.1a1.966,1.966,0,0,0,.229,1.074.765.765,0,0,0,.679.342q.879,0,.9-1.353V16.31q0-1.421-.908-1.421-.825,0-.894,1.226Z" transform="translate(757.763 1612.446)" fill="#12263f"/>
    <path id="Trazado_914069" data-name="Trazado 914069" d="M5.552,10H3.843V2.891H5.552ZM8.179,4.717l.054.62a1.792,1.792,0,0,1,1.509-.718,1.507,1.507,0,0,1,1.233.493A2.348,2.348,0,0,1,11.4,6.6V10H9.746V6.665a.892.892,0,0,0-.161-.588A.745.745,0,0,0,9,5.889a.785.785,0,0,0-.718.381V10H6.636V4.717Zm3.936,2.6A3.567,3.567,0,0,1,12.378,5.9a2.123,2.123,0,0,1,.757-.95,2,2,0,0,1,1.147-.334,1.586,1.586,0,0,1,1.289.557l.059-.459h1.494V9.8a2.227,2.227,0,0,1-.325,1.213,2.084,2.084,0,0,1-.94.791,3.455,3.455,0,0,1-1.426.276,2.981,2.981,0,0,1-1.125-.22,2.032,2.032,0,0,1-.833-.571l.688-.967a1.509,1.509,0,0,0,1.211.542.98.98,0,0,0,1.094-1.123V9.575a1.545,1.545,0,0,1-1.2.522,1.909,1.909,0,0,1-1.562-.74,3.065,3.065,0,0,1-.6-1.98Zm1.65.1a1.879,1.879,0,0,0,.244,1.028.77.77,0,0,0,.684.378.874.874,0,0,0,.776-.356V6.25a.852.852,0,0,0-.767-.361.775.775,0,0,0-.688.393A2.143,2.143,0,0,0,13.765,7.422Zm7.49-1.216-.542-.039a.973.973,0,0,0-1,.488V10H18.071V4.717h1.543l.054.679a1.274,1.274,0,0,1,1.157-.776,1.6,1.6,0,0,1,.459.059ZM24.312,10.1a2.716,2.716,0,0,1-1.968-.725,2.5,2.5,0,0,1-.752-1.887V7.349a3.245,3.245,0,0,1,.3-1.431,2.2,2.2,0,0,1,.876-.959,2.646,2.646,0,0,1,1.367-.339,2.287,2.287,0,0,1,1.758.691,2.715,2.715,0,0,1,.645,1.926v.64H23.267a1.186,1.186,0,0,0,.386.7,1.148,1.148,0,0,0,.771.254,1.479,1.479,0,0,0,1.221-.547l.752.889a2.1,2.1,0,0,1-.872.676A2.945,2.945,0,0,1,24.312,10.1Zm-.186-4.209q-.723,0-.859.957h1.66V6.719a.815.815,0,0,0-.2-.613A.8.8,0,0,0,24.126,5.889Zm5.84,2.627a.38.38,0,0,0-.22-.337,3.342,3.342,0,0,0-.835-.264A3.807,3.807,0,0,1,27.9,7.556a1.7,1.7,0,0,1-.61-.54,1.288,1.288,0,0,1-.21-.728,1.46,1.46,0,0,1,.6-1.2,2.474,2.474,0,0,1,1.572-.471,2.741,2.741,0,0,1,1.68.474,1.481,1.481,0,0,1,.635,1.245h-1.65q0-.635-.669-.635a.663.663,0,0,0-.435.144.446.446,0,0,0-.176.359.409.409,0,0,0,.215.356,2.03,2.03,0,0,0,.686.225,5.928,5.928,0,0,1,.828.21,1.5,1.5,0,0,1,1.191,1.47,1.384,1.384,0,0,1-.642,1.177,2.816,2.816,0,0,1-1.663.454,2.873,2.873,0,0,1-1.211-.244,2.025,2.025,0,0,1-.83-.664,1.5,1.5,0,0,1-.3-.884h1.538a.636.636,0,0,0,.244.535,1,1,0,0,0,.6.168.79.79,0,0,0,.505-.137A.437.437,0,0,0,29.966,8.516ZM32.114,7.31A3.118,3.118,0,0,1,32.422,5.9a2.2,2.2,0,0,1,.884-.95,2.662,2.662,0,0,1,1.353-.332,2.429,2.429,0,0,1,1.87.735,2.82,2.82,0,0,1,.684,2v.059a2.736,2.736,0,0,1-.686,1.96,2.436,2.436,0,0,1-1.858.725,2.463,2.463,0,0,1-1.812-.676,2.645,2.645,0,0,1-.737-1.833Zm1.646.1a1.966,1.966,0,0,0,.229,1.074.765.765,0,0,0,.679.342q.879,0,.9-1.353V7.31q0-1.421-.908-1.421-.825,0-.894,1.226ZM45.332,7.4a3.186,3.186,0,0,1-.554,1.965,1.777,1.777,0,0,1-1.5.735,1.523,1.523,0,0,1-1.2-.532v2.466H40.439V4.717h1.538l.049.488a1.523,1.523,0,0,1,1.245-.586,1.791,1.791,0,0,1,1.519.72,3.225,3.225,0,0,1,.542,1.98Zm-1.646-.1q0-1.406-.82-1.406a.774.774,0,0,0-.781.42v2.08a.8.8,0,0,0,.791.439q.786,0,.811-1.357Zm2.163.015A3.118,3.118,0,0,1,46.157,5.9a2.2,2.2,0,0,1,.884-.95,2.662,2.662,0,0,1,1.353-.332,2.429,2.429,0,0,1,1.87.735,2.82,2.82,0,0,1,.684,2v.059a2.736,2.736,0,0,1-.686,1.96A2.436,2.436,0,0,1,48.4,10.1a2.463,2.463,0,0,1-1.812-.676,2.645,2.645,0,0,1-.737-1.833Zm1.646.1a1.966,1.966,0,0,0,.229,1.074.765.765,0,0,0,.679.342q.879,0,.9-1.353V7.31q0-1.421-.908-1.421-.825,0-.894,1.226Zm7.373-1.206-.542-.039a.973.973,0,0,0-1,.488V10H51.685V4.717h1.543l.054.679a1.274,1.274,0,0,1,1.157-.776,1.6,1.6,0,0,1,.459.059ZM10.615,17.066l1.416-5.176h1.914L11.553,19H9.678L7.3,11.891H9.2ZM16.729,19.1a2.716,2.716,0,0,1-1.968-.725,2.5,2.5,0,0,1-.752-1.887v-.137a3.245,3.245,0,0,1,.3-1.431,2.2,2.2,0,0,1,.876-.959,2.646,2.646,0,0,1,1.367-.339,2.287,2.287,0,0,1,1.758.691,2.715,2.715,0,0,1,.645,1.926v.64H15.684a1.186,1.186,0,0,0,.386.7,1.148,1.148,0,0,0,.771.254,1.479,1.479,0,0,0,1.221-.547l.752.889a2.1,2.1,0,0,1-.872.676A2.945,2.945,0,0,1,16.729,19.1Zm-.186-4.209q-.723,0-.859.957h1.66v-.127a.815.815,0,0,0-.2-.613A.8.8,0,0,0,16.543,14.889Zm4.585-1.172.054.62a1.792,1.792,0,0,1,1.509-.718,1.507,1.507,0,0,1,1.233.493,2.348,2.348,0,0,1,.422,1.484V19H22.7V15.665a.892.892,0,0,0-.161-.588.745.745,0,0,0-.586-.188.785.785,0,0,0-.718.381V19H19.585V13.717ZM27.173,12.4v1.313h.869v1.143h-.869v2.417a.617.617,0,0,0,.107.415.576.576,0,0,0,.425.117,2.414,2.414,0,0,0,.41-.029v1.177a3.037,3.037,0,0,1-.928.142,1.724,1.724,0,0,1-1.255-.4,1.641,1.641,0,0,1-.405-1.216V14.859h-.674V13.717h.674V12.4ZM31.665,19a1.858,1.858,0,0,1-.156-.474,1.53,1.53,0,0,1-1.27.571,1.874,1.874,0,0,1-1.27-.452,1.438,1.438,0,0,1-.522-1.135,1.478,1.478,0,0,1,.635-1.3,3.234,3.234,0,0,1,1.846-.439h.508v-.28q0-.731-.63-.731a.515.515,0,0,0-.586.579H28.574a1.475,1.475,0,0,1,.652-1.244,2.739,2.739,0,0,1,1.663-.478,2.4,2.4,0,0,1,1.6.493,1.715,1.715,0,0,1,.6,1.353V17.8a2.4,2.4,0,0,0,.225,1.113V19Zm-1.03-1.074a.918.918,0,0,0,.51-.132.826.826,0,0,0,.291-.3v-.845h-.479q-.859,0-.859.771a.471.471,0,0,0,.151.364A.548.548,0,0,0,30.635,17.926Zm6.128-.41a.38.38,0,0,0-.22-.337,3.342,3.342,0,0,0-.835-.264,3.807,3.807,0,0,1-1.016-.359,1.7,1.7,0,0,1-.61-.54,1.288,1.288,0,0,1-.21-.728,1.46,1.46,0,0,1,.6-1.2,2.474,2.474,0,0,1,1.572-.471,2.741,2.741,0,0,1,1.68.474,1.481,1.481,0,0,1,.635,1.245h-1.65q0-.635-.669-.635a.663.663,0,0,0-.435.144.446.446,0,0,0-.176.359.409.409,0,0,0,.215.356,2.03,2.03,0,0,0,.686.225,5.928,5.928,0,0,1,.828.21,1.5,1.5,0,0,1,1.191,1.47,1.384,1.384,0,0,1-.642,1.177,2.816,2.816,0,0,1-1.663.454,2.873,2.873,0,0,1-1.211-.244,2.025,2.025,0,0,1-.83-.664,1.5,1.5,0,0,1-.3-.884h1.538a.636.636,0,0,0,.244.535,1,1,0,0,0,.6.168.79.79,0,0,0,.505-.137A.437.437,0,0,0,36.763,17.516Zm4.971-1.406a7.462,7.462,0,0,1,.317-2.217,5.35,5.35,0,0,1,.876-1.738,3.113,3.113,0,0,1,1.243-1l.313.811a3.183,3.183,0,0,0-1.057,1.57,7.657,7.657,0,0,0-.378,2.5v.215A7.806,7.806,0,0,0,43.42,18.8a3.17,3.17,0,0,0,1.062,1.582l-.312.811a3.082,3.082,0,0,1-1.243-1,5.269,5.269,0,0,1-.876-1.731,7.5,7.5,0,0,1-.317-2.139Zm6.338.957,1.416-5.176H51.4L49.009,19H47.134l-2.373-7.109h1.9Zm6.465-.82a6.962,6.962,0,0,1-.337,2.178,5.56,5.56,0,0,1-.93,1.77,3.1,3.1,0,0,1-1.282,1l-.312-.811a3.215,3.215,0,0,0,1.05-1.562A7.543,7.543,0,0,0,53.11,16.4v-.3a7.806,7.806,0,0,0-.374-2.549,3.17,3.17,0,0,0-1.062-1.582l.313-.811a3.153,3.153,0,0,1,1.272.994,5.492,5.492,0,0,1,.928,1.743,6.9,6.9,0,0,1,.349,2.136Z" transform="translate(905.436 1502.759)" fill="#12263f"/>
    <path id="Trazado_914070" data-name="Trazado 914070" d="M4.575,8.672H2.227L1.816,10H-.015L2.593,2.891H4.2L6.831,10H4.99ZM2.637,7.349H4.165L3.4,4.883ZM3.623.986H5.361L4,2.52l-1.343,0Zm6.846,5.22-.542-.039a.973.973,0,0,0-1,.488V10H7.285V4.717H8.828l.054.679a1.274,1.274,0,0,1,1.157-.776,1.6,1.6,0,0,1,.459.059ZM13.525,10.1a2.716,2.716,0,0,1-1.968-.725,2.5,2.5,0,0,1-.752-1.887V7.349a3.245,3.245,0,0,1,.3-1.431,2.2,2.2,0,0,1,.876-.959,2.646,2.646,0,0,1,1.367-.339,2.287,2.287,0,0,1,1.758.691,2.715,2.715,0,0,1,.645,1.926v.64H12.48a1.186,1.186,0,0,0,.386.7,1.148,1.148,0,0,0,.771.254,1.479,1.479,0,0,0,1.221-.547l.752.889a2.1,2.1,0,0,1-.872.676A2.945,2.945,0,0,1,13.525,10.1ZM13.34,5.889q-.723,0-.859.957h1.66V6.719a.815.815,0,0,0-.2-.613A.8.8,0,0,0,13.34,5.889ZM19.39,10a1.858,1.858,0,0,1-.156-.474,1.53,1.53,0,0,1-1.27.571,1.874,1.874,0,0,1-1.27-.452,1.438,1.438,0,0,1-.522-1.135,1.478,1.478,0,0,1,.635-1.3,3.234,3.234,0,0,1,1.846-.439h.508v-.28q0-.731-.63-.731a.515.515,0,0,0-.586.579H16.3A1.475,1.475,0,0,1,16.951,5.1a2.739,2.739,0,0,1,1.663-.478,2.4,2.4,0,0,1,1.6.493,1.715,1.715,0,0,1,.6,1.353V8.8a2.4,2.4,0,0,0,.225,1.113V10Zm-1.03-1.074a.918.918,0,0,0,.51-.132.826.826,0,0,0,.291-.3V7.651h-.479q-.859,0-.859.771a.471.471,0,0,0,.151.364A.548.548,0,0,0,18.359,8.926ZM24,7.319a3.227,3.227,0,0,1,.542-1.978,1.784,1.784,0,0,1,1.514-.723,1.517,1.517,0,0,1,1.191.557V2.5H28.9V10H27.422l-.083-.566a1.558,1.558,0,0,1-1.289.664,1.781,1.781,0,0,1-1.494-.723A3.33,3.33,0,0,1,24,7.319Zm1.646.1q0,1.406.82,1.406a.81.81,0,0,0,.781-.459V6.357a.788.788,0,0,0-.771-.469q-.762,0-.825,1.23ZM32.393,10.1a2.716,2.716,0,0,1-1.968-.725,2.5,2.5,0,0,1-.752-1.887V7.349a3.245,3.245,0,0,1,.3-1.431,2.2,2.2,0,0,1,.876-.959,2.646,2.646,0,0,1,1.367-.339,2.287,2.287,0,0,1,1.758.691,2.715,2.715,0,0,1,.645,1.926v.64H31.348a1.186,1.186,0,0,0,.386.7,1.148,1.148,0,0,0,.771.254,1.479,1.479,0,0,0,1.221-.547l.752.889a2.1,2.1,0,0,1-.872.676A2.945,2.945,0,0,1,32.393,10.1Zm-.186-4.209q-.723,0-.859.957h1.66V6.719a.815.815,0,0,0-.2-.613A.8.8,0,0,0,32.207,5.889ZM6.357,18.121a2.756,2.756,0,0,1-1.157.708,4.991,4.991,0,0,1-1.67.269A2.978,2.978,0,0,1,1.3,18.243a3.459,3.459,0,0,1-.894-2.378l0-.615a4.243,4.243,0,0,1,.371-1.833A2.756,2.756,0,0,1,1.833,12.21a3,3,0,0,1,1.6-.422A3.149,3.149,0,0,1,5.5,12.4a2.576,2.576,0,0,1,.857,1.814H4.7a1.348,1.348,0,0,0-.381-.85,1.229,1.229,0,0,0-.83-.254,1.118,1.118,0,0,0-1,.547,2.92,2.92,0,0,0-.356,1.563v.43a2.859,2.859,0,0,0,.364,1.6,1.287,1.287,0,0,0,1.145.535,1.44,1.44,0,0,0,1-.3v-1.1H3.452V15.2H6.357Zm3.9.879a1.858,1.858,0,0,1-.156-.474,1.53,1.53,0,0,1-1.27.571,1.874,1.874,0,0,1-1.27-.452,1.438,1.438,0,0,1-.522-1.135,1.478,1.478,0,0,1,.635-1.3,3.234,3.234,0,0,1,1.846-.439h.508v-.28q0-.731-.63-.731a.515.515,0,0,0-.586.579H7.163A1.475,1.475,0,0,1,7.815,14.1a2.739,2.739,0,0,1,1.663-.478,2.4,2.4,0,0,1,1.6.493,1.715,1.715,0,0,1,.6,1.353V17.8a2.4,2.4,0,0,0,.225,1.113V19Zm-1.03-1.074a.918.918,0,0,0,.51-.132.826.826,0,0,0,.291-.3v-.845H9.546q-.859,0-.859.771a.471.471,0,0,0,.151.364A.548.548,0,0,0,9.224,17.926ZM14.1,13.717l.054.62a1.792,1.792,0,0,1,1.509-.718,1.507,1.507,0,0,1,1.233.493,2.348,2.348,0,0,1,.422,1.484V19h-1.65V15.665a.892.892,0,0,0-.161-.588.745.745,0,0,0-.586-.188.785.785,0,0,0-.718.381V19H12.554V13.717ZM21.2,19a1.858,1.858,0,0,1-.156-.474,1.53,1.53,0,0,1-1.27.571,1.874,1.874,0,0,1-1.27-.452,1.438,1.438,0,0,1-.522-1.135,1.478,1.478,0,0,1,.635-1.3,3.234,3.234,0,0,1,1.846-.439h.508v-.28q0-.731-.63-.731a.515.515,0,0,0-.586.579H18.11a1.475,1.475,0,0,1,.652-1.244,2.739,2.739,0,0,1,1.663-.478,2.4,2.4,0,0,1,1.6.493,1.715,1.715,0,0,1,.6,1.353V17.8a2.4,2.4,0,0,0,.225,1.113V19Zm-1.03-1.074a.918.918,0,0,0,.51-.132.826.826,0,0,0,.291-.3v-.845h-.479q-.859,0-.859.771a.471.471,0,0,0,.151.364A.548.548,0,0,0,20.171,17.926Zm4.873-4.209.054.62a1.792,1.792,0,0,1,1.509-.718,1.507,1.507,0,0,1,1.233.493,2.348,2.348,0,0,1,.422,1.484V19h-1.65V15.665a.892.892,0,0,0-.161-.588.745.745,0,0,0-.586-.188.785.785,0,0,0-.718.381V19H23.5V13.717Zm6.362,4.111a.732.732,0,0,0,.537-.188.689.689,0,0,0,.186-.525h1.543a1.827,1.827,0,0,1-.623,1.426,2.316,2.316,0,0,1-1.6.557,2.345,2.345,0,0,1-1.816-.723,2.847,2.847,0,0,1-.664-2V16.3a3.218,3.218,0,0,1,.3-1.414,2.151,2.151,0,0,1,.852-.942,2.541,2.541,0,0,1,1.318-.33,2.287,2.287,0,0,1,1.636.571,2.026,2.026,0,0,1,.605,1.548H32.129a.9.9,0,0,0-.2-.63.691.691,0,0,0-.537-.22q-.64,0-.747.815a5.754,5.754,0,0,0-.034.713,2.26,2.26,0,0,0,.19,1.1A.659.659,0,0,0,31.406,17.828ZM36.1,19h-1.65V13.717H36.1Zm-1.748-6.646a.734.734,0,0,1,.254-.576,1.08,1.08,0,0,1,1.318,0,.781.781,0,0,1,0,1.152,1.08,1.08,0,0,1-1.318,0A.734.734,0,0,1,34.355,12.354ZM40.093,19a1.858,1.858,0,0,1-.156-.474,1.53,1.53,0,0,1-1.27.571,1.874,1.874,0,0,1-1.27-.452,1.438,1.438,0,0,1-.522-1.135,1.478,1.478,0,0,1,.635-1.3,3.234,3.234,0,0,1,1.846-.439h.508v-.28q0-.731-.63-.731a.515.515,0,0,0-.586.579H37a1.475,1.475,0,0,1,.652-1.244,2.739,2.739,0,0,1,1.663-.478,2.4,2.4,0,0,1,1.6.493,1.715,1.715,0,0,1,.6,1.353V17.8a2.4,2.4,0,0,0,.225,1.113V19Zm-1.03-1.074a.918.918,0,0,0,.51-.132.826.826,0,0,0,.291-.3v-.845h-.479q-.859,0-.859.771a.471.471,0,0,0,.151.364A.548.548,0,0,0,39.063,17.926Zm6.128-.41a.38.38,0,0,0-.22-.337,3.342,3.342,0,0,0-.835-.264,3.807,3.807,0,0,1-1.016-.359,1.7,1.7,0,0,1-.61-.54,1.288,1.288,0,0,1-.21-.728,1.46,1.46,0,0,1,.6-1.2,2.474,2.474,0,0,1,1.572-.471,2.741,2.741,0,0,1,1.68.474,1.481,1.481,0,0,1,.635,1.245h-1.65q0-.635-.669-.635a.663.663,0,0,0-.435.144.446.446,0,0,0-.176.359.409.409,0,0,0,.215.356,2.03,2.03,0,0,0,.686.225,5.928,5.928,0,0,1,.828.21,1.5,1.5,0,0,1,1.191,1.47,1.384,1.384,0,0,1-.642,1.177,2.816,2.816,0,0,1-1.663.454,2.873,2.873,0,0,1-1.211-.244,2.025,2.025,0,0,1-.83-.664,1.5,1.5,0,0,1-.3-.884h1.538a.636.636,0,0,0,.244.535,1,1,0,0,0,.6.168.79.79,0,0,0,.505-.137A.437.437,0,0,0,45.19,17.516Z" transform="translate(995.573 1547.228)" fill="#12263f"/>
    <path id="Trazado_914071" data-name="Trazado 914071" d="M6.289,7.593a2.6,2.6,0,0,1-.4,1.311,2.416,2.416,0,0,1-1.028.881A3.5,3.5,0,0,1,3.35,10.1a2.792,2.792,0,0,1-2.207-.913A3.77,3.77,0,0,1,.337,6.606V6.255A4.3,4.3,0,0,1,.7,4.426,2.756,2.756,0,0,1,1.748,3.215,2.922,2.922,0,0,1,3.33,2.788a3.064,3.064,0,0,1,2.08.681A2.691,2.691,0,0,1,6.3,5.347H4.595a1.273,1.273,0,0,0-.327-.933,1.346,1.346,0,0,0-.937-.283,1.024,1.024,0,0,0-.937.479A3.075,3.075,0,0,0,2.08,6.138v.5a3.4,3.4,0,0,0,.286,1.626,1.045,1.045,0,0,0,.984.488,1.316,1.316,0,0,0,.9-.278,1.181,1.181,0,0,0,.332-.884Zm.527-.283A3.118,3.118,0,0,1,7.124,5.9a2.2,2.2,0,0,1,.884-.95A2.662,2.662,0,0,1,9.36,4.619a2.429,2.429,0,0,1,1.87.735,2.82,2.82,0,0,1,.684,2v.059a2.736,2.736,0,0,1-.686,1.96A2.436,2.436,0,0,1,9.37,10.1a2.463,2.463,0,0,1-1.812-.676,2.645,2.645,0,0,1-.737-1.833Zm1.646.1a1.966,1.966,0,0,0,.229,1.074.765.765,0,0,0,.679.342q.879,0,.9-1.353V7.31q0-1.421-.908-1.421-.825,0-.894,1.226Zm6.943,1.1a.38.38,0,0,0-.22-.337,3.342,3.342,0,0,0-.835-.264,3.807,3.807,0,0,1-1.016-.359,1.7,1.7,0,0,1-.61-.54,1.288,1.288,0,0,1-.21-.728,1.46,1.46,0,0,1,.6-1.2,2.474,2.474,0,0,1,1.572-.471,2.741,2.741,0,0,1,1.68.474A1.481,1.481,0,0,1,17,6.338h-1.65q0-.635-.669-.635a.663.663,0,0,0-.435.144.446.446,0,0,0-.176.359.409.409,0,0,0,.215.356,2.03,2.03,0,0,0,.686.225A5.928,5.928,0,0,1,15.8,7a1.5,1.5,0,0,1,1.191,1.47,1.384,1.384,0,0,1-.642,1.177,2.816,2.816,0,0,1-1.663.454,2.873,2.873,0,0,1-1.211-.244,2.025,2.025,0,0,1-.83-.664,1.5,1.5,0,0,1-.3-.884h1.538a.636.636,0,0,0,.244.535,1,1,0,0,0,.6.168.79.79,0,0,0,.505-.137A.437.437,0,0,0,15.405,8.516ZM19.678,3.4V4.717h.869V5.859h-.869V8.276a.617.617,0,0,0,.107.415.576.576,0,0,0,.425.117,2.414,2.414,0,0,0,.41-.029V9.956a3.037,3.037,0,0,1-.928.142,1.724,1.724,0,0,1-1.255-.4,1.641,1.641,0,0,1-.405-1.216V5.859h-.674V4.717h.674V3.4ZM20.84,7.31A3.118,3.118,0,0,1,21.147,5.9a2.2,2.2,0,0,1,.884-.95,2.662,2.662,0,0,1,1.353-.332,2.429,2.429,0,0,1,1.87.735,2.82,2.82,0,0,1,.684,2v.059a2.736,2.736,0,0,1-.686,1.96,2.436,2.436,0,0,1-1.858.725,2.463,2.463,0,0,1-1.812-.676,2.645,2.645,0,0,1-.737-1.833Zm1.646.1a1.966,1.966,0,0,0,.229,1.074.765.765,0,0,0,.679.342q.879,0,.9-1.353V7.31q0-1.421-.908-1.421-.825,0-.894,1.226Zm6.943,1.1a.38.38,0,0,0-.22-.337,3.342,3.342,0,0,0-.835-.264,3.807,3.807,0,0,1-1.016-.359,1.7,1.7,0,0,1-.61-.54,1.288,1.288,0,0,1-.21-.728,1.46,1.46,0,0,1,.6-1.2,2.474,2.474,0,0,1,1.572-.471,2.741,2.741,0,0,1,1.68.474,1.481,1.481,0,0,1,.635,1.245h-1.65q0-.635-.669-.635a.663.663,0,0,0-.435.144.446.446,0,0,0-.176.359.409.409,0,0,0,.215.356A2.03,2.03,0,0,0,29,6.787a5.928,5.928,0,0,1,.828.21,1.5,1.5,0,0,1,1.191,1.47,1.384,1.384,0,0,1-.642,1.177,2.816,2.816,0,0,1-1.663.454A2.873,2.873,0,0,1,27.5,9.854a2.025,2.025,0,0,1-.83-.664,1.5,1.5,0,0,1-.3-.884H27.91a.636.636,0,0,0,.244.535,1,1,0,0,0,.6.168.79.79,0,0,0,.505-.137A.437.437,0,0,0,29.429,8.516Zm-23.311,4.7H3.984V19H2.271V13.214H.176V11.891H6.118Zm-.576,3.1A3.118,3.118,0,0,1,5.85,14.9a2.2,2.2,0,0,1,.884-.95,2.662,2.662,0,0,1,1.353-.332,2.429,2.429,0,0,1,1.87.735,2.82,2.82,0,0,1,.684,2v.059a2.736,2.736,0,0,1-.686,1.96A2.436,2.436,0,0,1,8.1,19.1a2.463,2.463,0,0,1-1.812-.676,2.645,2.645,0,0,1-.737-1.833Zm1.646.1a1.966,1.966,0,0,0,.229,1.074.765.765,0,0,0,.679.342q.879,0,.9-1.353V16.31q0-1.421-.908-1.421-.825,0-.894,1.226ZM13.281,12.4v1.313h.869v1.143h-.869v2.417a.617.617,0,0,0,.107.415.576.576,0,0,0,.425.117,2.414,2.414,0,0,0,.41-.029v1.177a3.037,3.037,0,0,1-.928.142,1.724,1.724,0,0,1-1.255-.4,1.641,1.641,0,0,1-.405-1.216V14.859h-.674V13.717h.674V12.4ZM17.773,19a1.858,1.858,0,0,1-.156-.474,1.53,1.53,0,0,1-1.27.571,1.874,1.874,0,0,1-1.27-.452,1.438,1.438,0,0,1-.522-1.135,1.478,1.478,0,0,1,.635-1.3,3.234,3.234,0,0,1,1.846-.439h.508v-.28q0-.731-.63-.731a.515.515,0,0,0-.586.579H14.683a1.475,1.475,0,0,1,.652-1.244A2.739,2.739,0,0,1,17,13.619a2.4,2.4,0,0,1,1.6.493,1.715,1.715,0,0,1,.6,1.353V17.8a2.4,2.4,0,0,0,.225,1.113V19Zm-1.03-1.074a.918.918,0,0,0,.51-.132.826.826,0,0,0,.291-.3v-.845h-.479q-.859,0-.859.771a.471.471,0,0,0,.151.364A.548.548,0,0,0,16.743,17.926ZM21.841,19H20.19V11.5h1.65Zm3.569.1a2.716,2.716,0,0,1-1.968-.725,2.5,2.5,0,0,1-.752-1.887v-.137a3.245,3.245,0,0,1,.3-1.431,2.2,2.2,0,0,1,.876-.959,2.646,2.646,0,0,1,1.367-.339,2.287,2.287,0,0,1,1.758.691,2.715,2.715,0,0,1,.645,1.926v.64H24.365a1.186,1.186,0,0,0,.386.7,1.148,1.148,0,0,0,.771.254,1.479,1.479,0,0,0,1.221-.547l.752.889a2.1,2.1,0,0,1-.872.676A2.945,2.945,0,0,1,25.41,19.1Zm-.186-4.209q-.723,0-.859.957h1.66v-.127a.815.815,0,0,0-.2-.613A.8.8,0,0,0,25.225,14.889Zm5.84,2.627a.38.38,0,0,0-.22-.337,3.342,3.342,0,0,0-.835-.264,3.807,3.807,0,0,1-1.016-.359,1.7,1.7,0,0,1-.61-.54,1.288,1.288,0,0,1-.21-.728,1.46,1.46,0,0,1,.6-1.2,2.474,2.474,0,0,1,1.572-.471,2.741,2.741,0,0,1,1.68.474,1.481,1.481,0,0,1,.635,1.245h-1.65q0-.635-.669-.635a.663.663,0,0,0-.435.144.446.446,0,0,0-.176.359.409.409,0,0,0,.215.356,2.03,2.03,0,0,0,.686.225,5.929,5.929,0,0,1,.828.21,1.5,1.5,0,0,1,1.191,1.47,1.384,1.384,0,0,1-.642,1.177,2.816,2.816,0,0,1-1.663.454,2.873,2.873,0,0,1-1.211-.244,2.025,2.025,0,0,1-.83-.664,1.5,1.5,0,0,1-.3-.884h1.538a.636.636,0,0,0,.244.535,1,1,0,0,0,.6.168.79.79,0,0,0,.505-.137A.437.437,0,0,0,31.064,17.516Z" transform="translate(975.272 1627.933)" fill="#12263f"/>
    <path id="Trazado_912360" data-name="Trazado 912360" d="M122.04-10366.12H105.894v-1.586H122.04Z" transform="translate(476.264 11893.073)" fill="#12263f"/>
    <path id="Trazado_912367" data-name="Trazado 912367" d="M122.04-10366.12H105.894v-1.586H122.04Z" transform="translate(476.264 12023.178)" fill="#12263f"/>
    <path id="Trazado_912362" data-name="Trazado 912362" d="M122.04-10366.12H105.894v-1.586H122.04Z" transform="translate(476.264 11958.126)" fill="#12263f"/>
    <path id="Trazado_912364" data-name="Trazado 912364" d="M122.04-10366.12H105.894v-1.586H122.04Z" transform="translate(476.264 12088.229)" fill="#12263f"/>
    <path id="Trazado_912369" data-name="Trazado 912369" d="M122.04-10366.12H105.894v-1.586H122.04Z" transform="translate(476.264 12153.282)" fill="#12263f"/>
    <path id="Trazado_912361" data-name="Trazado 912361" d="M122.04-10366.12H105.894v-1.586H122.04Z" transform="translate(476.264 11924.806)" fill="#12263f"/>
    <path id="Trazado_912366" data-name="Trazado 912366" d="M122.04-10366.12H105.894v-1.586H122.04Z" transform="translate(476.264 12054.91)" fill="#12263f"/>
    <path id="Trazado_912370" data-name="Trazado 912370" d="M122.04-10366.12H105.894v-1.586H122.04Z" transform="translate(476.264 12119.962)" fill="#12263f"/>
    <path id="Trazado_912363" data-name="Trazado 912363" d="M122.04-10366.12H105.894v-1.586H122.04Z" transform="translate(476.264 11989.858)" fill="#12263f"/>
    <path id="Trazado_912365" data-name="Trazado 912365" d="M122.04-10366.12H105.894v-1.586H122.04Z" transform="translate(476.264 12119.962)" fill="#12263f"/>
    <path id="Trazado_912368" data-name="Trazado 912368" d="M122.04-10366.12H105.894v-1.586H122.04Z" transform="translate(476.264 12185.015)" fill="#12263f"/>
    <path id="Trazado_912371" data-name="Trazado 912371" d="M136.54-10150.262h-1.587v-13.041h1.587Z" transform="translate(493.311 12012.986)" fill="#12263f"/>
    <path id="Trazado_912374" data-name="Trazado 912374" d="M136.54-10150.262h-1.587v-13.041h1.587Z" transform="translate(598.03 12012.986)" fill="#12263f"/>
    <path id="Trazado_912372" data-name="Trazado 912372" d="M136.54-10150.262h-1.587v-13.041h1.587Z" transform="translate(544.084 12012.986)" fill="#12263f"/>
    <path id="Trazado_912373" data-name="Trazado 912373" d="M136.54-10150.262h-1.587v-13.041h1.587Z" transform="translate(648.802 12012.986)" fill="#12263f"/>
    <path id="Trazado_912375" data-name="Trazado 912375" d="M136.54-10150.262h-1.587v-13.041h1.587Z" transform="translate(701.162 12012.986)" fill="#12263f"/>
    <path id="Trazado_912376" data-name="Trazado 912376" d="M136.54-10150.262h-1.587v-13.041h1.587Z" transform="translate(755.108 12012.986)" fill="#12263f"/>
    <path id="Trazado_912377" data-name="Trazado 912377" d="M136.54-10150.262h-1.587v-13.041h1.587Z" transform="translate(807.467 12012.986)" fill="#12263f"/>
    <path id="Trazado_912378" data-name="Trazado 912378" d="M136.54-10150.262h-1.587v-13.041h1.587Z" transform="translate(859.826 12012.986)" fill="#12263f"/>
    <path id="Trazado_912379" data-name="Trazado 912379" d="M116.753-10040.665l-1-1.234,407.325-329.4,1,1.232Z" transform="translate(482.049 11890.965)" fill="#fa6d61"/>
    <path id="Trazado_912380" data-name="Trazado 912380" d="M533.162-10159.618H116.074l-.3-1.526,423.3-171.813.6,1.472L120.138-10161.2H533.162Z" transform="translate(482.061 11913.462)" fill="url(#linear-gradient)"/>
    <path id="Trazado_912381" data-name="Trazado 912381" d="M266.747-10102.583a.793.793,0,0,1-.793-.794v-.008a.793.793,0,0,1,.793-.793.793.793,0,0,1,.793.793v.008A.793.793,0,0,1,266.747-10102.583Zm0-6.354a.794.794,0,0,1-.793-.793v-.01a.793.793,0,0,1,.793-.794.793.793,0,0,1,.793.794v.01A.794.794,0,0,1,266.747-10108.937Zm0-6.355a.794.794,0,0,1-.793-.794v-.008a.794.794,0,0,1,.793-.794.794.794,0,0,1,.793.794v.008A.794.794,0,0,1,266.747-10115.293Zm0-6.356a.793.793,0,0,1-.793-.793v-.007a.793.793,0,0,1,.793-.793.793.793,0,0,1,.793.793v.007A.793.793,0,0,1,266.747-10121.649Zm0-6.354a.793.793,0,0,1-.793-.793v-.01a.793.793,0,0,1,.793-.793.793.793,0,0,1,.793.793v.01A.793.793,0,0,1,266.747-10128Zm0-6.355a.793.793,0,0,1-.793-.792v-.011a.794.794,0,0,1,.793-.792.794.794,0,0,1,.793.792v.011A.793.793,0,0,1,266.747-10134.359Zm0-6.355a.794.794,0,0,1-.793-.792v-.009a.792.792,0,0,1,.793-.793.792.792,0,0,1,.793.793v.009A.794.794,0,0,1,266.747-10140.715Zm0-6.354a.794.794,0,0,1-.793-.795v-.007a.794.794,0,0,1,.793-.795.794.794,0,0,1,.793.795v.007A.794.794,0,0,1,266.747-10147.069Zm0-6.356a.793.793,0,0,1-.793-.792v-.009a.794.794,0,0,1,.793-.794.794.794,0,0,1,.793.794v.009A.793.793,0,0,1,266.747-10153.426Zm0-6.355a.793.793,0,0,1-.793-.792v-.01a.792.792,0,0,1,.793-.792.792.792,0,0,1,.793.792v.01A.793.793,0,0,1,266.747-10159.781Zm0-6.354a.793.793,0,0,1-.793-.793v-.009a.793.793,0,0,1,.793-.793.793.793,0,0,1,.793.793v.009A.793.793,0,0,1,266.747-10166.136Zm0-6.355a.793.793,0,0,1-.793-.793v-.009a.793.793,0,0,1,.793-.793.793.793,0,0,1,.793.793v.009A.793.793,0,0,1,266.747-10172.491Zm0-6.354a.793.793,0,0,1-.793-.794v-.009a.794.794,0,0,1,.793-.794.794.794,0,0,1,.793.794v.009A.793.793,0,0,1,266.747-10178.846Zm0-6.356a.793.793,0,0,1-.793-.793v-.009a.793.793,0,0,1,.793-.793.793.793,0,0,1,.793.793v.009A.793.793,0,0,1,266.747-10185.2Zm0-6.355a.793.793,0,0,1-.793-.793v-.009a.793.793,0,0,1,.793-.793.793.793,0,0,1,.793.793v.009A.793.793,0,0,1,266.747-10191.558Zm0-6.354a.793.793,0,0,1-.793-.793v-.01a.793.793,0,0,1,.793-.792.793.793,0,0,1,.793.792v.01A.793.793,0,0,1,266.747-10197.912Zm0-6.356a.793.793,0,0,1-.793-.793v-.009a.793.793,0,0,1,.793-.792.793.793,0,0,1,.793.792v.009A.793.793,0,0,1,266.747-10204.269Zm0-6.354a.794.794,0,0,1-.793-.795v-.007a.794.794,0,0,1,.793-.795.794.794,0,0,1,.793.795v.007A.794.794,0,0,1,266.747-10210.622Zm0-6.357a.791.791,0,0,1-.793-.792v-.01a.794.794,0,0,1,.793-.792.794.794,0,0,1,.793.792v.01A.791.791,0,0,1,266.747-10216.979Zm0-6.354a.793.793,0,0,1-.793-.792v-.009a.793.793,0,0,1,.793-.794.793.793,0,0,1,.793.794v.009A.793.793,0,0,1,266.747-10223.334Zm0-6.354a.8.8,0,0,1-.793-.794v-.009a.792.792,0,0,1,.793-.793.792.792,0,0,1,.793.793v.009A.8.8,0,0,1,266.747-10229.687Zm0-6.356a.793.793,0,0,1-.793-.795v-.009a.794.794,0,0,1,.793-.793.794.794,0,0,1,.793.793v.009A.793.793,0,0,1,266.747-10236.044Zm0-6.356a.793.793,0,0,1-.793-.792v-.009a.794.794,0,0,1,.793-.794.794.794,0,0,1,.793.794v.009A.793.793,0,0,1,266.747-10242.4Zm0-6.354a.793.793,0,0,1-.793-.794v-.01a.793.793,0,0,1,.793-.793.793.793,0,0,1,.793.793v.01A.793.793,0,0,1,266.747-10248.754Zm0-6.356a.793.793,0,0,1-.793-.793v-.007a.793.793,0,0,1,.793-.795.793.793,0,0,1,.793.795v.007A.793.793,0,0,1,266.747-10255.11Zm0-6.354a.8.8,0,0,1-.793-.795v-.009a.793.793,0,0,1,.793-.793.793.793,0,0,1,.793.793v.009A.8.8,0,0,1,266.747-10261.464Zm0-6.356a.793.793,0,0,1-.793-.794v-.01a.794.794,0,0,1,.793-.793.794.794,0,0,1,.793.793v.01A.793.793,0,0,1,266.747-10267.82Zm0-6.356a.792.792,0,0,1-.793-.793v-.008a.794.794,0,0,1,.793-.794.794.794,0,0,1,.793.794v.008A.792.792,0,0,1,266.747-10274.177Zm0-6.354a.793.793,0,0,1-.793-.793v-.009a.794.794,0,0,1,.793-.795.794.794,0,0,1,.793.795v.009A.793.793,0,0,1,266.747-10280.53Z" transform="translate(570.162 11943.28)" fill="#707070"/>
    <path id="Trazado_914072" data-name="Trazado 914072" d="M1.039,10.383a12.079,12.079,0,0,1,.473-3.391,9.85,9.85,0,0,1,1.41-2.953A6,6,0,0,1,4.867,2.164l.3.953A6.222,6.222,0,0,0,3.293,5.789a11.583,11.583,0,0,0-.8,4.023l-.008.664a11.643,11.643,0,0,0,1.1,5.234,6.252,6.252,0,0,0,1.578,2.078l-.3.883a6.192,6.192,0,0,1-1.984-1.937A10.859,10.859,0,0,1,1.039,10.383ZM10.43,9.336,13.4,3.625h1.7L11.18,10.758V15H9.68V10.758L5.758,3.625H7.477Zm9.406,1.125a12.084,12.084,0,0,1-.457,3.34,9.876,9.876,0,0,1-1.4,2.949,6.127,6.127,0,0,1-1.973,1.922l-.3-.883a6.281,6.281,0,0,0,1.934-2.863,12.387,12.387,0,0,0,.746-4.309v-.25a12.861,12.861,0,0,0-.344-3.051,10.3,10.3,0,0,0-.957-2.527A5.838,5.838,0,0,0,15.7,3.047l.3-.883A6.1,6.1,0,0,1,17.973,4.07a9.9,9.9,0,0,1,1.4,2.945A12.363,12.363,0,0,1,19.836,10.461Z" transform="translate(541.698 1470.956)" fill="#12263f"/>
    <path id="Trazado_914073" data-name="Trazado 914073" d="M1.039,10.383a12.079,12.079,0,0,1,.473-3.391,9.85,9.85,0,0,1,1.41-2.953A6,6,0,0,1,4.867,2.164l.3.953A6.222,6.222,0,0,0,3.293,5.789a11.583,11.583,0,0,0-.8,4.023l-.008.664a11.643,11.643,0,0,0,1.1,5.234,6.252,6.252,0,0,0,1.578,2.078l-.3.883a6.192,6.192,0,0,1-1.984-1.937A10.859,10.859,0,0,1,1.039,10.383Zm9.461-2.4,2.727-4.359h1.766L11.4,9.266,15.078,15H13.3l-2.8-4.437L7.688,15H5.914L9.6,9.266,6,3.625H7.758Zm9.43,2.477a12.084,12.084,0,0,1-.457,3.34,9.876,9.876,0,0,1-1.4,2.949A6.127,6.127,0,0,1,16.1,18.672l-.3-.883a6.281,6.281,0,0,0,1.934-2.863,12.387,12.387,0,0,0,.746-4.309v-.25a12.861,12.861,0,0,0-.344-3.051,10.3,10.3,0,0,0-.957-2.527A5.838,5.838,0,0,0,15.8,3.047l.3-.883A6.1,6.1,0,0,1,18.066,4.07a9.9,9.9,0,0,1,1.4,2.945A12.363,12.363,0,0,1,19.93,10.461Z" transform="translate(959.08 1886.657)" fill="#12263f"/>
    <path id="Trazado_914074" data-name="Trazado 914074" d="M2.036,2.891l2.324,5.8,2.324-5.8H7.9V10H6.963V7.231l.088-2.988L4.717,10H4L1.67,4.258l.093,2.974V10H.825V2.891ZM10.4,10h-.9V4.717h.9ZM9.419,3.315a.539.539,0,0,1,.134-.371.5.5,0,0,1,.4-.151.512.512,0,0,1,.4.151.534.534,0,0,1,.137.371.516.516,0,0,1-.137.366.521.521,0,0,1-.4.146.513.513,0,0,1-.4-.146A.521.521,0,0,1,9.419,3.315ZM12.822,10h-.9V2.5h.9Zm7.417-1.831a1.017,1.017,0,0,0-.315-.757,2.817,2.817,0,0,0-1.062-.557,3.4,3.4,0,0,1-1.516-.828,1.825,1.825,0,0,1-.476-1.3,1.877,1.877,0,0,1,.466-1.313,1.982,1.982,0,0,1,1.282-.61V1.738h.728V2.813a1.882,1.882,0,0,1,1.277.688,2.474,2.474,0,0,1,.457,1.577h-.9a1.7,1.7,0,0,0-.327-1.1,1.075,1.075,0,0,0-.884-.407,1.22,1.22,0,0,0-.889.3,1.12,1.12,0,0,0-.308.839,1.023,1.023,0,0,0,.325.795,2.991,2.991,0,0,0,1.069.538,4.5,4.5,0,0,1,1.162.533,1.869,1.869,0,0,1,.615.676,1.955,1.955,0,0,1,.2.9,1.81,1.81,0,0,1-.5,1.328,2.2,2.2,0,0,1-1.389.6v.933h-.723v-.933a2.106,2.106,0,0,1-1.423-.647A2.183,2.183,0,0,1,16.6,7.905h.9a1.437,1.437,0,0,0,.356,1.045,1.346,1.346,0,0,0,1.011.366,1.516,1.516,0,0,0,1.006-.308A1.039,1.039,0,0,0,20.239,8.169Z" transform="translate(543.349 1518.228)" fill="#12263f"/>
    <path id="Trazado_914075" data-name="Trazado 914075" d="M3.56,10H2.651V3.979L.83,4.648v-.82l2.588-.972H3.56Zm6.46-2.388h.986V8.35H10.02V10H9.111V8.35H5.874V7.817L9.058,2.891h.962Zm-3.12,0H9.111V4.126L9,4.321Zm4.985,3.8-.513-.352a2.356,2.356,0,0,0,.479-1.318V8.931h.884v.708a2.224,2.224,0,0,1-.242.986A2.309,2.309,0,0,1,11.885,11.416ZM16.753,10h-.908V3.979l-1.821.669v-.82l2.588-.972h.142Zm6.191-7.114v.767h-.166a2.378,2.378,0,0,0-1.68.625,2.6,2.6,0,0,0-.723,1.7,1.928,1.928,0,0,1,1.533-.645,1.844,1.844,0,0,1,1.482.654,2.524,2.524,0,0,1,.554,1.689,2.516,2.516,0,0,1-.6,1.758,2.06,2.06,0,0,1-1.6.659,2.029,2.029,0,0,1-1.655-.784,3.106,3.106,0,0,1-.635-2.019V6.948a4.68,4.68,0,0,1,.837-3,3.075,3.075,0,0,1,2.493-1.062Zm-1.187,3.2a1.518,1.518,0,0,0-1.4.977V7.4a2.332,2.332,0,0,0,.4,1.416,1.185,1.185,0,0,0,.986.537A1.148,1.148,0,0,0,22.7,8.9a1.864,1.864,0,0,0,.349-1.177A1.865,1.865,0,0,0,22.7,6.541,1.135,1.135,0,0,0,21.758,6.089Zm7.715.879a4.131,4.131,0,0,1-.542,2.358,1.928,1.928,0,0,1-1.694.771,1.942,1.942,0,0,1-1.685-.754,3.921,3.921,0,0,1-.566-2.253V5.884a4.039,4.039,0,0,1,.542-2.329,1.942,1.942,0,0,1,1.7-.762,1.96,1.96,0,0,1,1.689.735A3.9,3.9,0,0,1,29.473,5.8Zm-.9-1.235a3.31,3.31,0,0,0-.322-1.672,1.109,1.109,0,0,0-1.021-.525,1.1,1.1,0,0,0-1.011.522,3.232,3.232,0,0,0-.327,1.606V7.109a3.363,3.363,0,0,0,.334,1.7,1.107,1.107,0,0,0,1.013.549,1.092,1.092,0,0,0,.994-.518,3.241,3.241,0,0,0,.339-1.631Z" transform="translate(539.383 1640.398)" fill="#12263f"/>
    <path id="Trazado_914076" data-name="Trazado 914076" d="M5.249,10H.591V9.351L3.052,6.616a5.847,5.847,0,0,0,.754-1.008,1.683,1.683,0,0,0,.208-.8,1.276,1.276,0,0,0-.337-.913,1.178,1.178,0,0,0-.9-.356,1.4,1.4,0,0,0-1.047.383,1.464,1.464,0,0,0-.374,1.067h-.9A2.1,2.1,0,0,1,1.086,3.4a2.344,2.344,0,0,1,1.692-.605,2.252,2.252,0,0,1,1.567.52A1.774,1.774,0,0,1,4.922,4.7,4.067,4.067,0,0,1,3.584,7.2L1.68,9.263H5.249ZM6.27,11.416l-.513-.352a2.356,2.356,0,0,0,.479-1.318V8.931h.884v.708a2.224,2.224,0,0,1-.242.986A2.309,2.309,0,0,1,6.27,11.416Zm3.213-5.41h.679a1.492,1.492,0,0,0,1.006-.337,1.126,1.126,0,0,0,.366-.884,1.1,1.1,0,0,0-1.245-1.25,1.3,1.3,0,0,0-.935.334A1.171,1.171,0,0,0,9,4.756H8.1a1.814,1.814,0,0,1,.618-1.4,2.25,2.25,0,0,1,1.57-.559,2.224,2.224,0,0,1,1.577.532A1.923,1.923,0,0,1,12.437,4.8a1.561,1.561,0,0,1-.3.9,1.813,1.813,0,0,1-.818.649,1.747,1.747,0,0,1,.906.615,1.709,1.709,0,0,1,.32,1.05,1.939,1.939,0,0,1-.625,1.519,2.34,2.34,0,0,1-1.626.562,2.4,2.4,0,0,1-1.628-.542,1.8,1.8,0,0,1-.627-1.431h.908a1.162,1.162,0,0,0,.366.9,1.393,1.393,0,0,0,.981.337,1.367,1.367,0,0,0,1-.342,1.317,1.317,0,0,0,.347-.981,1.2,1.2,0,0,0-.381-.952,1.659,1.659,0,0,0-1.1-.342H9.482Zm7.847-3.12v.767h-.166a2.378,2.378,0,0,0-1.68.625,2.6,2.6,0,0,0-.723,1.7,1.928,1.928,0,0,1,1.533-.645,1.844,1.844,0,0,1,1.482.654,2.524,2.524,0,0,1,.554,1.689,2.516,2.516,0,0,1-.6,1.758,2.06,2.06,0,0,1-1.6.659,2.029,2.029,0,0,1-1.655-.784,3.106,3.106,0,0,1-.635-2.019V6.948a4.68,4.68,0,0,1,.837-3,3.076,3.076,0,0,1,2.493-1.062Zm-1.187,3.2a1.518,1.518,0,0,0-1.4.977V7.4a2.332,2.332,0,0,0,.4,1.416,1.185,1.185,0,0,0,.986.537,1.148,1.148,0,0,0,.959-.449,1.864,1.864,0,0,0,.349-1.177,1.865,1.865,0,0,0-.354-1.184A1.135,1.135,0,0,0,16.143,6.089Zm7.715.879a4.131,4.131,0,0,1-.542,2.358,1.928,1.928,0,0,1-1.694.771,1.942,1.942,0,0,1-1.685-.754A3.921,3.921,0,0,1,19.37,7.09V5.884a4.039,4.039,0,0,1,.542-2.329,1.942,1.942,0,0,1,1.7-.762,1.96,1.96,0,0,1,1.689.735A3.9,3.9,0,0,1,23.857,5.8Zm-.9-1.235a3.31,3.31,0,0,0-.322-1.672,1.109,1.109,0,0,0-1.021-.525,1.1,1.1,0,0,0-1.011.522,3.232,3.232,0,0,0-.327,1.606V7.109a3.363,3.363,0,0,0,.334,1.7,1.107,1.107,0,0,0,1.013.549,1.092,1.092,0,0,0,.994-.518,3.241,3.241,0,0,0,.339-1.631Z" transform="translate(540.969 1737.184)" fill="#12263f"/>
    <path id="Trazado_914077" data-name="Trazado 914077" d="M5.049,6.968a4.131,4.131,0,0,1-.542,2.358,1.928,1.928,0,0,1-1.694.771,1.942,1.942,0,0,1-1.685-.754A3.921,3.921,0,0,1,.562,7.09V5.884A4.039,4.039,0,0,1,1.1,3.555a1.942,1.942,0,0,1,1.7-.762,1.96,1.96,0,0,1,1.689.735A3.9,3.9,0,0,1,5.049,5.8Zm-.9-1.235A3.31,3.31,0,0,0,3.823,4.06,1.109,1.109,0,0,0,2.8,3.535a1.1,1.1,0,0,0-1.011.522,3.232,3.232,0,0,0-.327,1.606V7.109a3.363,3.363,0,0,0,.334,1.7,1.107,1.107,0,0,0,1.013.549,1.092,1.092,0,0,0,.994-.518,3.241,3.241,0,0,0,.339-1.631ZM6.27,11.416l-.513-.352a2.356,2.356,0,0,0,.479-1.318V8.931h.884v.708a2.224,2.224,0,0,1-.242.986A2.309,2.309,0,0,1,6.27,11.416Zm6.357-4.448a4.131,4.131,0,0,1-.542,2.358,1.928,1.928,0,0,1-1.694.771,1.942,1.942,0,0,1-1.685-.754A3.921,3.921,0,0,1,8.14,7.09V5.884a4.039,4.039,0,0,1,.542-2.329,1.942,1.942,0,0,1,1.7-.762,1.96,1.96,0,0,1,1.689.735A3.9,3.9,0,0,1,12.627,5.8Zm-.9-1.235A3.31,3.31,0,0,0,11.4,4.06a1.109,1.109,0,0,0-1.021-.525,1.1,1.1,0,0,0-1.011.522,3.232,3.232,0,0,0-.327,1.606V7.109a3.363,3.363,0,0,0,.334,1.7,1.107,1.107,0,0,0,1.013.549,1.092,1.092,0,0,0,.994-.518,3.241,3.241,0,0,0,.339-1.631Z" transform="translate(543.349 1854.793)" fill="#12263f"/>
    <path id="Trazado_914078" data-name="Trazado 914078" d="M4.053,6.875a2.21,2.21,0,0,1-.676.542,1.835,1.835,0,0,1-.862.205,1.894,1.894,0,0,1-1.072-.3,1.968,1.968,0,0,1-.706-.852A2.9,2.9,0,0,1,.488,5.254,2.96,2.96,0,0,1,.759,3.97,1.991,1.991,0,0,1,1.528,3.1a2.193,2.193,0,0,1,1.162-.3,1.985,1.985,0,0,1,1.663.789,3.44,3.44,0,0,1,.608,2.151V6a4.6,4.6,0,0,1-.82,3.03A3.152,3.152,0,0,1,1.665,10H1.489V9.238h.19A2.487,2.487,0,0,0,3.4,8.656,2.5,2.5,0,0,0,4.053,6.875Zm-1.392,0A1.4,1.4,0,0,0,3.5,6.6a1.641,1.641,0,0,0,.559-.688V5.547A2.486,2.486,0,0,0,3.672,4.1,1.179,1.179,0,0,0,1.738,4a1.883,1.883,0,0,0-.361,1.2,1.96,1.96,0,0,0,.349,1.2A1.105,1.105,0,0,0,2.661,6.875ZM6.27,11.416l-.513-.352a2.356,2.356,0,0,0,.479-1.318V8.931h.884v.708a2.224,2.224,0,0,1-.242.986A2.309,2.309,0,0,1,6.27,11.416Zm6.357-4.448a4.131,4.131,0,0,1-.542,2.358,1.928,1.928,0,0,1-1.694.771,1.942,1.942,0,0,1-1.685-.754A3.921,3.921,0,0,1,8.14,7.09V5.884a4.039,4.039,0,0,1,.542-2.329,1.942,1.942,0,0,1,1.7-.762,1.96,1.96,0,0,1,1.689.735A3.9,3.9,0,0,1,12.627,5.8Zm-.9-1.235A3.31,3.31,0,0,0,11.4,4.06a1.109,1.109,0,0,0-1.021-.525,1.1,1.1,0,0,0-1.011.522,3.232,3.232,0,0,0-.327,1.606V7.109a3.363,3.363,0,0,0,.334,1.7,1.107,1.107,0,0,0,1.013.549,1.092,1.092,0,0,0,.994-.518,3.241,3.241,0,0,0,.339-1.631Zm6.519,1.235A4.131,4.131,0,0,1,17.7,9.326a1.928,1.928,0,0,1-1.694.771,1.942,1.942,0,0,1-1.685-.754,3.921,3.921,0,0,1-.566-2.253V5.884A4.039,4.039,0,0,1,14.3,3.555,1.942,1.942,0,0,1,16,2.793a1.96,1.96,0,0,1,1.689.735A3.9,3.9,0,0,1,18.242,5.8Zm-.9-1.235a3.31,3.31,0,0,0-.322-1.672A1.109,1.109,0,0,0,16,3.535a1.1,1.1,0,0,0-1.011.522,3.232,3.232,0,0,0-.327,1.606V7.109a3.363,3.363,0,0,0,.334,1.7,1.107,1.107,0,0,0,1.013.549A1.092,1.092,0,0,0,17,8.843a3.241,3.241,0,0,0,.339-1.631Zm5.522,1.143a2.21,2.21,0,0,1-.676.542,1.835,1.835,0,0,1-.862.205,1.894,1.894,0,0,1-1.072-.3,1.968,1.968,0,0,1-.706-.852A2.9,2.9,0,0,1,19.3,5.254a2.96,2.96,0,0,1,.271-1.284,1.991,1.991,0,0,1,.769-.874,2.193,2.193,0,0,1,1.162-.3,1.985,1.985,0,0,1,1.663.789,3.44,3.44,0,0,1,.608,2.151V6a4.6,4.6,0,0,1-.82,3.03A3.152,3.152,0,0,1,20.474,10H20.3V9.238h.19a2.487,2.487,0,0,0,1.719-.582A2.5,2.5,0,0,0,22.861,6.875Zm-1.392,0a1.4,1.4,0,0,0,.837-.278,1.641,1.641,0,0,0,.559-.688V5.547A2.486,2.486,0,0,0,22.48,4.1,1.179,1.179,0,0,0,20.547,4a1.883,1.883,0,0,0-.361,1.2,1.96,1.96,0,0,0,.349,1.2A1.105,1.105,0,0,0,21.47,6.875Z" transform="translate(817.869 1867.485)" fill="#12263f"/>
    <path id="Trazado_912384" data-name="Trazado 912384" d="M297.508-10218.447h-1.587v-39.721h1.587Z" transform="translate(668.712 11865.372)" fill="#12263f"/>
    <path id="Trazado_912385" data-name="Trazado 912385" d="M297.508-10218.447h-1.587v-39.721h1.587Z" transform="translate(668.712 11760.927)" fill="#12263f"/>
    <path id="Trazado_912386" data-name="Trazado 912386" d="M297.508-10218.447h-1.587v-39.721h1.587Z" transform="translate(541.165 11870.614)" fill="#12263f"/>
    <path id="Trazado_912383" data-name="Trazado 912383" d="M297.508-10198.567h-1.587v-59.6h1.587v59.6Z" transform="translate(556.929 12028.17)" fill="#12263f"/>
    <path id="Trazado_912383-2" data-name="Trazado 912383" d="M297.508-10198.567h-1.587v-59.6h1.587v59.6Z" transform="translate(556.929 11935.751)" fill="#12263f"/>
    <path id="Trazado_912359" data-name="Trazado 912359" d="M536.781-10018.73H115.57v-389.66h1.587v388.071H536.781Z" transform="translate(481.94 11869.207)" fill="#12263f"/>
    <path id="Trazado_914063" data-name="Trazado 914063" d="M4,0,8,7H0Z" transform="matrix(-0.978, 0.208, -0.208, -0.978, 1010.691, 1524.092)" fill="#fa6d61"/>
  </g>
</svg>
