<svg id="Grupo_1102002" data-name="Grupo 1102002" xmlns="http://www.w3.org/2000/svg" xmlns:xlink="http://www.w3.org/1999/xlink" width="139.501" height="148.862" viewBox="0 0 139.501 148.862">
  <defs>
    <clipPath id="clip-path">
      <rect id="Rectángulo_403619" data-name="Rectángulo 403619" width="139.501" height="148.862" fill="none"/>
    </clipPath>
  </defs>
  <g id="Grupo_1102001" data-name="Grupo 1102001" clip-path="url(#clip-path)">
    <path id="Trazado_913582" data-name="Trazado 913582" d="M115.943,77.415A38.708,38.708,0,1,1,154.65,38.708a2.181,2.181,0,1,1-4.361,0,34.346,34.346,0,1,0-34.346,34.346,2.181,2.181,0,1,1,0,4.361" transform="translate(-54.779)" fill="#12233f"/>
    <path id="Trazado_913583" data-name="Trazado 913583" d="M330.541,131.738l-.1,0a2.18,2.18,0,0,1-2.075-2.281c.025-.541.038-1.093.038-1.642a2.181,2.181,0,0,1,4.361,0c0,.617-.015,1.238-.044,1.847a2.181,2.181,0,0,1-2.176,2.078" transform="translate(-232.889 -89.105)" fill="#12233f"/>
    <path id="Trazado_913584" data-name="Trazado 913584" d="M237.488,188.285a2.181,2.181,0,0,1-.56-4.288,34.1,34.1,0,0,0,3.341-1.078A2.181,2.181,0,1,1,241.82,187a38.622,38.622,0,0,1-3.769,1.216,2.189,2.189,0,0,1-.563.074m10.485-4.672a2.181,2.181,0,0,1-1.192-4.008,34.743,34.743,0,0,0,2.842-2.066,2.181,2.181,0,1,1,2.74,3.393,39.061,39.061,0,0,1-3.2,2.327,2.174,2.174,0,0,1-1.189.354m8.514-7.693a2.181,2.181,0,0,1-1.7-3.55,34.569,34.569,0,0,0,2.066-2.844,2.181,2.181,0,0,1,3.654,2.381,39.15,39.15,0,0,1-2.327,3.2,2.176,2.176,0,0,1-1.7.811m5.722-9.95a2.182,2.182,0,0,1-2.038-2.957,34.166,34.166,0,0,0,1.078-3.342,2.18,2.18,0,0,1,4.214,1.122,38.539,38.539,0,0,1-1.215,3.771,2.182,2.182,0,0,1-2.038,1.406" transform="translate(-166.893 -112.099)" fill="#12233f"/>
    <path id="Trazado_913585" data-name="Trazado 913585" d="M205.048,255.526a2.181,2.181,0,0,1,0-4.361c.548,0,1.1-.013,1.642-.038a2.181,2.181,0,0,1,.206,4.356c-.61.029-1.231.043-1.847.043" transform="translate(-143.884 -178.111)" fill="#12233f"/>
    <path id="Trazado_913586" data-name="Trazado 913586" d="M51.315,367.719H10.407A2.907,2.907,0,0,1,7.5,364.811v-9.56a2.907,2.907,0,0,1,2.907-2.908H51.315a2.907,2.907,0,0,1,2.907,2.908v9.56a2.908,2.908,0,0,1-2.908,2.908" transform="translate(-5.319 -249.901)" fill="#ffe177"/>
    <path id="Trazado_913587" data-name="Trazado 913587" d="M21.456,364.811v-9.56a2.907,2.907,0,0,1,2.907-2.908H10.407A2.907,2.907,0,0,0,7.5,355.251v9.56a2.907,2.907,0,0,0,2.907,2.908H24.363a2.907,2.907,0,0,1-2.907-2.908" transform="translate(-5.319 -249.901)" fill="#ffd15b"/>
    <path id="Trazado_913588" data-name="Trazado 913588" d="M46,364.58H5.088A5.094,5.094,0,0,1,0,359.492v-9.56a5.094,5.094,0,0,1,5.088-5.088H46a5.094,5.094,0,0,1,5.088,5.088v9.56A5.1,5.1,0,0,1,46,364.58M5.088,349.205a.728.728,0,0,0-.727.727v9.56a.728.728,0,0,0,.727.727H46a.728.728,0,0,0,.727-.727v-9.559a.728.728,0,0,0-.727-.727Z" transform="translate(0 -244.582)" fill="#12233f"/>
    <path id="Trazado_913589" data-name="Trazado 913589" d="M51.315,314.84H10.407A2.907,2.907,0,0,1,7.5,311.932v-9.56a2.907,2.907,0,0,1,2.907-2.907H51.315a2.907,2.907,0,0,1,2.907,2.907v9.56a2.908,2.908,0,0,1-2.908,2.907" transform="translate(-5.319 -212.397)" fill="#ffd15b"/>
    <path id="Trazado_913590" data-name="Trazado 913590" d="M21.456,311.932v-9.56a2.907,2.907,0,0,1,2.907-2.907H10.407A2.907,2.907,0,0,0,7.5,302.372v9.56a2.907,2.907,0,0,0,2.907,2.907H24.363a2.907,2.907,0,0,1-2.907-2.907" transform="translate(-5.319 -212.397)" fill="#ffc344"/>
    <path id="Trazado_913591" data-name="Trazado 913591" d="M46,311.7H5.088A5.094,5.094,0,0,1,0,306.613v-9.56a5.094,5.094,0,0,1,5.088-5.088,2.181,2.181,0,0,1,0,4.361.727.727,0,0,0-.727.727v9.56a.728.728,0,0,0,.727.727H46a.728.728,0,0,0,.727-.727v-9.56a.727.727,0,0,0-.727-.727,2.181,2.181,0,0,1,0-4.361,5.094,5.094,0,0,1,5.088,5.088v9.56A5.094,5.094,0,0,1,46,311.7" transform="translate(0 -207.077)" fill="#12233f"/>
    <path id="Trazado_913592" data-name="Trazado 913592" d="M51.315,261.96H10.407A2.907,2.907,0,0,1,7.5,259.052v-9.56a2.907,2.907,0,0,1,2.907-2.908H51.315a2.907,2.907,0,0,1,2.907,2.908v9.56a2.908,2.908,0,0,1-2.908,2.908" transform="translate(-5.319 -174.891)" fill="#ffe177"/>
    <path id="Trazado_913593" data-name="Trazado 913593" d="M21.456,259.052v-9.56a2.907,2.907,0,0,1,2.907-2.908H10.407A2.907,2.907,0,0,0,7.5,249.492v9.56a2.907,2.907,0,0,0,2.907,2.908H24.363a2.907,2.907,0,0,1-2.907-2.908" transform="translate(-5.319 -174.891)" fill="#ffd15b"/>
    <path id="Trazado_913594" data-name="Trazado 913594" d="M46,258.821H30.233a2.181,2.181,0,0,1,0-4.361H46a.728.728,0,0,0,.727-.727v-9.56a.728.728,0,0,0-.727-.727H5.088a.728.728,0,0,0-.727.727v9.56a.728.728,0,0,0,.727.727H20.057a2.181,2.181,0,0,1,0,4.361H5.088A5.094,5.094,0,0,1,0,253.733v-9.56a5.094,5.094,0,0,1,5.088-5.088H46a5.094,5.094,0,0,1,5.088,5.088v9.56A5.094,5.094,0,0,1,46,258.821" transform="translate(0 -169.572)" fill="#12233f"/>
    <path id="Trazado_913595" data-name="Trazado 913595" d="M51.315,209.08H10.407A2.907,2.907,0,0,1,7.5,206.172v-9.56a2.907,2.907,0,0,1,2.907-2.907H51.315a2.907,2.907,0,0,1,2.907,2.907v9.56a2.908,2.908,0,0,1-2.908,2.907" transform="translate(-5.319 -137.386)" fill="#ffd15b"/>
    <path id="Trazado_913596" data-name="Trazado 913596" d="M21.456,206.172v-9.56a2.907,2.907,0,0,1,2.907-2.907H10.407A2.907,2.907,0,0,0,7.5,196.612v9.56a2.907,2.907,0,0,0,2.907,2.907H24.363a2.907,2.907,0,0,1-2.907-2.907" transform="translate(-5.319 -137.386)" fill="#ffc344"/>
    <path id="Trazado_913597" data-name="Trazado 913597" d="M46,205.941H5.088A5.094,5.094,0,0,1,0,200.853v-9.56A5.094,5.094,0,0,1,5.088,186.2H46a5.094,5.094,0,0,1,5.088,5.088v9.56A5.094,5.094,0,0,1,46,205.941M5.088,190.566a.728.728,0,0,0-.727.727v9.56a.727.727,0,0,0,.727.727H46a.728.728,0,0,0,.727-.727v-9.559a.728.728,0,0,0-.727-.727Z" transform="translate(0 -132.066)" fill="#12233f"/>
    <path id="Trazado_913598" data-name="Trazado 913598" d="M51.315,156.2H10.407A2.907,2.907,0,0,1,7.5,153.292v-9.56a2.907,2.907,0,0,1,2.907-2.907H51.315a2.907,2.907,0,0,1,2.907,2.907v9.56a2.908,2.908,0,0,1-2.908,2.907" transform="translate(-5.319 -99.881)" fill="#ffe177"/>
    <path id="Trazado_913599" data-name="Trazado 913599" d="M21.456,153.292v-9.56a2.907,2.907,0,0,1,2.907-2.907H10.407A2.907,2.907,0,0,0,7.5,143.732v9.56a2.907,2.907,0,0,0,2.907,2.907H24.363a2.907,2.907,0,0,1-2.907-2.907" transform="translate(-5.319 -99.881)" fill="#ffd15b"/>
    <path id="Trazado_913600" data-name="Trazado 913600" d="M46,153.061H5.088A5.094,5.094,0,0,1,0,147.973v-9.56a5.094,5.094,0,0,1,5.088-5.088H46a5.094,5.094,0,0,1,5.088,5.088v9.56A5.094,5.094,0,0,1,46,153.061M5.088,137.686a.727.727,0,0,0-.727.727v9.56a.728.728,0,0,0,.727.727H46a.728.728,0,0,0,.727-.727v-9.559a.727.727,0,0,0-.727-.727Z" transform="translate(0 -94.561)" fill="#12233f"/>
    <path id="Trazado_913601" data-name="Trazado 913601" d="M173.833,367.719H132.925a2.907,2.907,0,0,1-2.907-2.908v-9.56a2.907,2.907,0,0,1,2.907-2.908h40.907a2.907,2.907,0,0,1,2.907,2.908v9.56a2.907,2.907,0,0,1-2.907,2.908" transform="translate(-92.216 -249.901)" fill="#ffe177"/>
    <path id="Trazado_913602" data-name="Trazado 913602" d="M143.974,364.811v-9.56a2.907,2.907,0,0,1,2.907-2.908H132.925a2.907,2.907,0,0,0-2.907,2.908v9.56a2.907,2.907,0,0,0,2.907,2.908h13.956a2.907,2.907,0,0,1-2.907-2.908" transform="translate(-92.216 -249.901)" fill="#ffd15b"/>
    <path id="Trazado_913603" data-name="Trazado 913603" d="M168.514,364.58H127.606a5.094,5.094,0,0,1-5.088-5.088v-9.56a5.094,5.094,0,0,1,5.088-5.088h40.907a5.094,5.094,0,0,1,5.088,5.088v9.56a5.094,5.094,0,0,1-5.088,5.088m-40.907-15.375a.728.728,0,0,0-.727.727v9.56a.728.728,0,0,0,.727.727h40.907a.728.728,0,0,0,.727-.727v-9.56a.728.728,0,0,0-.727-.727Z" transform="translate(-86.896 -244.582)" fill="#12233f"/>
    <path id="Trazado_913604" data-name="Trazado 913604" d="M173.833,314.84H132.925a2.907,2.907,0,0,1-2.907-2.907v-9.56a2.907,2.907,0,0,1,2.907-2.907h40.907a2.907,2.907,0,0,1,2.907,2.907v9.56a2.908,2.908,0,0,1-2.907,2.907" transform="translate(-92.216 -212.397)" fill="#ffd15b"/>
    <path id="Trazado_913605" data-name="Trazado 913605" d="M143.974,311.932v-9.56a2.907,2.907,0,0,1,2.907-2.907H132.925a2.907,2.907,0,0,0-2.907,2.907v9.56a2.907,2.907,0,0,0,2.907,2.907h13.956a2.907,2.907,0,0,1-2.907-2.907" transform="translate(-92.216 -212.397)" fill="#ffc344"/>
    <path id="Trazado_913606" data-name="Trazado 913606" d="M168.514,311.7H127.606a5.094,5.094,0,0,1-5.088-5.088v-9.56a5.094,5.094,0,0,1,5.088-5.088h40.907a5.094,5.094,0,0,1,5.088,5.088v9.56a5.094,5.094,0,0,1-5.088,5.088m-40.907-15.375a.727.727,0,0,0-.727.727v9.56a.728.728,0,0,0,.727.727h40.907a.728.728,0,0,0,.727-.727v-9.56a.727.727,0,0,0-.727-.727Z" transform="translate(-86.896 -207.077)" fill="#12233f"/>
    <path id="Trazado_913607" data-name="Trazado 913607" d="M173.833,261.96H132.925a2.907,2.907,0,0,1-2.907-2.908v-9.56a2.907,2.907,0,0,1,2.907-2.908h40.907a2.907,2.907,0,0,1,2.907,2.908v9.56a2.907,2.907,0,0,1-2.907,2.908" transform="translate(-92.216 -174.891)" fill="#ffe177"/>
    <path id="Trazado_913608" data-name="Trazado 913608" d="M143.974,259.052v-9.56a2.907,2.907,0,0,1,2.907-2.908H132.925a2.907,2.907,0,0,0-2.907,2.908v9.56a2.907,2.907,0,0,0,2.907,2.908h13.956a2.907,2.907,0,0,1-2.907-2.908" transform="translate(-92.216 -174.891)" fill="#ffd15b"/>
    <path id="Trazado_913609" data-name="Trazado 913609" d="M168.514,258.821H127.606a5.094,5.094,0,0,1-5.088-5.088v-9.56a5.094,5.094,0,0,1,5.088-5.088h40.907a5.094,5.094,0,0,1,5.088,5.088v9.56a5.094,5.094,0,0,1-5.088,5.088m-40.907-15.375a.728.728,0,0,0-.727.727v9.56a.728.728,0,0,0,.727.727h40.907a.728.728,0,0,0,.727-.727v-9.56a.728.728,0,0,0-.727-.727Z" transform="translate(-86.896 -169.572)" fill="#12233f"/>
    <path id="Trazado_913610" data-name="Trazado 913610" d="M151.12,49.6a24.287,24.287,0,1,1-24.287,24.287A24.287,24.287,0,0,1,151.12,49.6" transform="translate(-89.957 -35.178)" fill="#ffe177"/>
    <path id="Trazado_913611" data-name="Trazado 913611" d="M140.789,73.885A24.294,24.294,0,0,1,158.1,50.621a24.287,24.287,0,1,0,0,46.529,24.294,24.294,0,0,1-17.309-23.265" transform="translate(-89.957 -35.178)" fill="#ffd15b"/>
    <path id="Trazado_913612" data-name="Trazado 913612" d="M145.8,95.035A26.468,26.468,0,1,1,160.859,46.8a2.181,2.181,0,1,1-2.484,3.584,22.07,22.07,0,1,0,6.354,6.751,2.18,2.18,0,1,1,3.731-2.258A26.471,26.471,0,0,1,145.8,95.035" transform="translate(-84.637 -29.859)" fill="#12233f"/>
    <path id="Trazado_913613" data-name="Trazado 913613" d="M189.379,114.919H183.1a6.758,6.758,0,0,1-6.751-6.751,2.181,2.181,0,0,1,4.361,0,2.392,2.392,0,0,0,2.389,2.389h6.283a2.392,2.392,0,0,0,2.389-2.389v-1.333a2.392,2.392,0,0,0-2.389-2.389H183.1a6.758,6.758,0,0,1-6.751-6.75V96.364a6.758,6.758,0,0,1,6.751-6.75h6.283a6.758,6.758,0,0,1,6.75,6.75,2.181,2.181,0,0,1-4.361,0,2.392,2.392,0,0,0-2.389-2.389H183.1a2.392,2.392,0,0,0-2.389,2.389V97.7a2.392,2.392,0,0,0,2.389,2.389h6.283a6.758,6.758,0,0,1,6.75,6.75v1.333a6.758,6.758,0,0,1-6.75,6.751" transform="translate(-125.073 -63.559)" fill="#12233f"/>
    <path id="Trazado_913614" data-name="Trazado 913614" d="M205.048,83.756a2.18,2.18,0,0,1-2.181-2.181V77.387a2.181,2.181,0,1,1,4.361,0v4.189a2.18,2.18,0,0,1-2.181,2.181" transform="translate(-143.884 -53.34)" fill="#12233f"/>
    <path id="Trazado_913615" data-name="Trazado 913615" d="M205.048,170.2a2.18,2.18,0,0,1-2.181-2.181v-4.189a2.181,2.181,0,0,1,4.361,0v4.189a2.18,2.18,0,0,1-2.181,2.181" transform="translate(-143.884 -114.652)" fill="#12233f"/>
    <path id="Trazado_913616" data-name="Trazado 913616" d="M146.527,177.91H120.948a.994.994,0,0,0-.993.993v6.618a.994.994,0,0,0,.993.993h11.885L95.211,224.135H56.526a4.274,4.274,0,0,0-3.042,1.26l-39.1,39.1,6.083,6.083,37.844-37.844H96.993a4.274,4.274,0,0,0,3.042-1.26L138.916,192.6v11.785a.994.994,0,0,0,.993.993h6.618a.994.994,0,0,0,.993-.993V178.9a.994.994,0,0,0-.993-.993" transform="translate(-10.199 -126.183)" fill="#00f2a6"/>
    <path id="Trazado_913617" data-name="Trazado 913617" d="M15.144,267.443A2.175,2.175,0,0,1,13.6,266.8l-6.083-6.083a2.181,2.181,0,0,1,0-3.084l39.1-39.1a6.441,6.441,0,0,1,4.584-1.9H88.988l33.261-33.261h-6.621a3.177,3.177,0,0,1-3.173-3.173v-6.618a3.177,3.177,0,0,1,3.173-3.173h25.579a3.177,3.177,0,0,1,3.173,3.174v25.478a3.177,3.177,0,0,1-3.173,3.173H134.59a3.177,3.177,0,0,1-3.173-3.173v-6.521L96.257,227.7a6.44,6.44,0,0,1-4.584,1.9H53.891L16.686,266.8a2.175,2.175,0,0,1-1.542.638m-3-8.264,3,3,36.3-36.3a2.182,2.182,0,0,1,1.542-.638H91.674a2.106,2.106,0,0,0,1.5-.621l38.882-38.882a2.181,2.181,0,0,1,3.723,1.542v10.6h4.242v-23.1h-23.2v4.242h10.7a2.181,2.181,0,0,1,1.542,3.723L91.434,220.357a2.182,2.182,0,0,1-1.542.638H51.206a2.106,2.106,0,0,0-1.5.621Zm129.063-84.408h0Z" transform="translate(-4.88 -120.864)" fill="#12233f"/>
    <path id="Trazado_913618" data-name="Trazado 913618" d="M15.826,447.224A8.326,8.326,0,1,1,7.5,455.55a8.327,8.327,0,0,1,8.326-8.326" transform="translate(-5.319 -317.195)" fill="#fd6930"/>
    <path id="Trazado_913619" data-name="Trazado 913619" d="M14.478,455.55a8.326,8.326,0,0,1,4.837-7.56,8.326,8.326,0,1,0,0,15.12,8.326,8.326,0,0,1-4.837-7.56" transform="translate(-5.319 -317.195)" fill="#fd5426"/>
    <path id="Trazado_913620" data-name="Trazado 913620" d="M10.507,460.738a10.507,10.507,0,1,1,10.507-10.507,10.519,10.519,0,0,1-10.507,10.507m0-16.653a6.146,6.146,0,1,0,6.146,6.146,6.153,6.153,0,0,0-6.146-6.146" transform="translate(0 -311.876)" fill="#12233f"/>
    <path id="Trazado_913621" data-name="Trazado 913621" d="M134.634,470.5H122.7V457.431a.872.872,0,0,1,.872-.872h10.194a.872.872,0,0,1,.872.872Z" transform="translate(-87.023 -323.816)" fill="#fd6930"/>
    <path id="Trazado_913622" data-name="Trazado 913622" d="M129.092,456.559h-5.524a.872.872,0,0,0-.872.872V470.5h5.524V457.431a.872.872,0,0,1,.872-.872" transform="translate(-87.023 -323.816)" fill="#fd5426"/>
    <path id="Trazado_913623" data-name="Trazado 913623" d="M129.315,467.36H117.377a2.18,2.18,0,0,1-2.181-2.181V452.113a3.056,3.056,0,0,1,3.053-3.053h10.194a3.056,3.056,0,0,1,3.053,3.053v13.066a2.18,2.18,0,0,1-2.181,2.181M119.557,463h7.577v-9.577h-7.577Z" transform="translate(-81.703 -318.497)" fill="#12233f"/>
    <path id="Trazado_913624" data-name="Trazado 913624" d="M211.77,453.92H199.832V434.057a.872.872,0,0,1,.872-.872H210.9a.872.872,0,0,1,.872.872Z" transform="translate(-141.732 -307.238)" fill="#fd6930"/>
    <path id="Trazado_913625" data-name="Trazado 913625" d="M205.648,433.185h-4.943a.872.872,0,0,0-.872.872V453.92h4.943V434.057a.872.872,0,0,1,.872-.872" transform="translate(-141.732 -307.238)" fill="#fd5426"/>
    <path id="Trazado_913626" data-name="Trazado 913626" d="M206.451,450.782H194.513a2.18,2.18,0,0,1-2.181-2.181V428.739a3.056,3.056,0,0,1,3.053-3.053h10.194a3.056,3.056,0,0,1,3.053,3.053V448.6a2.18,2.18,0,0,1-2.181,2.181m-9.758-4.361h7.577V430.047h-7.577Z" transform="translate(-136.412 -301.919)" fill="#12233f"/>
    <path id="Trazado_913627" data-name="Trazado 913627" d="M288.907,453.92H276.969V434.057a.872.872,0,0,1,.872-.872h10.194a.872.872,0,0,1,.872.872Z" transform="translate(-196.441 -307.238)" fill="#ffe177"/>
    <path id="Trazado_913628" data-name="Trazado 913628" d="M282.784,433.185h-4.943a.872.872,0,0,0-.872.872V453.92h4.943V434.057a.872.872,0,0,1,.872-.872" transform="translate(-196.441 -307.238)" fill="#ffd15b"/>
    <path id="Trazado_913629" data-name="Trazado 913629" d="M366.043,401.165H354.105V359.677a.872.872,0,0,1,.872-.872h10.194a.872.872,0,0,1,.872.872Z" transform="translate(-251.15 -254.484)" fill="#ffe177"/>
    <path id="Trazado_913630" data-name="Trazado 913630" d="M359.92,358.8h-4.943a.872.872,0,0,0-.872.872v41.488h4.943V359.677a.872.872,0,0,1,.872-.872" transform="translate(-251.15 -254.484)" fill="#ffd15b"/>
    <path id="Trazado_913631" data-name="Trazado 913631" d="M283.588,450.782H271.65a2.18,2.18,0,0,1-2.181-2.181V428.739a3.056,3.056,0,0,1,3.053-3.053h10.194a3.056,3.056,0,0,1,3.053,3.053V448.6a2.18,2.18,0,0,1-2.181,2.181m-9.758-4.361h7.577V430.047H273.83Z" transform="translate(-191.122 -301.919)" fill="#12233f"/>
    <path id="Trazado_913632" data-name="Trazado 913632" d="M360.724,398.026H348.786a2.18,2.18,0,0,1-2.181-2.181V354.358a3.056,3.056,0,0,1,3.053-3.053h10.194a3.056,3.056,0,0,1,3.053,3.053v16.358a2.181,2.181,0,1,1-4.361,0v-15.05h-7.577v38h7.577V380.892a2.181,2.181,0,1,1,4.361,0v14.954a2.18,2.18,0,0,1-2.181,2.181" transform="translate(-245.831 -249.164)" fill="#12233f"/>
    <path id="Trazado_913633" data-name="Trazado 913633" d="M443.179,359.315H431.241V300.671a.872.872,0,0,1,.872-.872h10.194a.872.872,0,0,1,.872.872Z" transform="translate(-305.859 -212.633)" fill="#00f2a6"/>
    <path id="Trazado_913634" data-name="Trazado 913634" d="M437.057,299.8h-4.943a.872.872,0,0,0-.872.872v58.644h4.943V300.671a.872.872,0,0,1,.872-.872" transform="translate(-305.86 -212.633)" fill="#05e39c"/>
    <path id="Trazado_913635" data-name="Trazado 913635" d="M437.86,356.176H425.922A2.18,2.18,0,0,1,423.741,354V295.352a3.056,3.056,0,0,1,3.053-3.053h10.194a3.056,3.056,0,0,1,3.053,3.053V354a2.18,2.18,0,0,1-2.181,2.181m-9.758-4.361h7.577V296.66H428.1Z" transform="translate(-300.54 -207.314)" fill="#12233f"/>
    <path id="Trazado_913636" data-name="Trazado 913636" d="M219.024,501.361H117.378a2.181,2.181,0,0,1,0-4.361H219.024a2.181,2.181,0,0,1,0,4.361" transform="translate(-81.704 -352.499)" fill="#12233f"/>
  </g>
</svg>
