<svg xmlns="http://www.w3.org/2000/svg" xmlns:xlink="http://www.w3.org/1999/xlink" width="101.428" height="101.428" viewBox="0 0 101.428 101.428">
  <defs>
    <clipPath id="clip-path">
      <rect id="Rectángulo_403620" data-name="Rectángulo 403620" width="57.214" height="57.947" fill="none"/>
    </clipPath>
  </defs>
  <g id="Grupo_1102226" data-name="Grupo 1102226" transform="translate(-327.551 -4062.527)">
    <ellipse id="Elipse_11600" data-name="Elipse 11600" cx="49.214" cy="49.214" rx="49.214" ry="49.214" transform="translate(329.051 4064.027)" fill="#efedee" stroke="#007dfe" stroke-miterlimit="10" stroke-width="3"/>
    <g id="Grupo_1102006" data-name="Grupo 1102006" transform="translate(349.658 4081.873)">
      <g id="Grupo_1102005" data-name="Grupo 1102005" clip-path="url(#clip-path)">
        <path id="Trazado_913637" data-name="Trazado 913637" d="M40.913,345.162h5.074a1.134,1.134,0,0,1,1.132,1.132v14.9H39.781v-14.9a1.134,1.134,0,0,1,1.132-1.132" transform="translate(-35.279 -306.097)" fill="#fe646f" fill-rule="evenodd"/>
        <path id="Trazado_913638" data-name="Trazado 913638" d="M84.61,345.162h1.132a1.134,1.134,0,0,1,1.132,1.132v14.9H85.742v-14.9a1.134,1.134,0,0,0-1.132-1.132" transform="translate(-75.034 -306.097)" fill="#fd4755" fill-rule="evenodd"/>
        <path id="Trazado_913639" data-name="Trazado 913639" d="M166.365,280h-5.074a1.134,1.134,0,0,0-1.132,1.132V303.4H167.5V281.13A1.134,1.134,0,0,0,166.365,280Z" transform="translate(-142.033 -248.308)" fill="#ffe177" fill-rule="evenodd"/>
        <path id="Trazado_913640" data-name="Trazado 913640" d="M206.122,280H204.99a1.134,1.134,0,0,1,1.132,1.132V303.4h1.132V281.13A1.134,1.134,0,0,0,206.122,280Z" transform="translate(-181.79 -248.308)" fill="#ffd064" fill-rule="evenodd"/>
        <path id="Trazado_913641" data-name="Trazado 913641" d="M402.047,150.744h5.074a1.134,1.134,0,0,1,1.132,1.132v36.9h-7.337v-36.9A1.134,1.134,0,0,1,402.047,150.744Z" transform="translate(-355.54 -133.683)" fill="#6cf5c2" fill-rule="evenodd"/>
        <path id="Trazado_913642" data-name="Trazado 913642" d="M445.744,150.744h1.132a1.134,1.134,0,0,1,1.132,1.132v36.9h-1.132v-36.9A1.134,1.134,0,0,0,445.744,150.744Z" transform="translate(-395.296 -133.683)" fill="#00e499" fill-rule="evenodd"/>
        <path id="Trazado_913643" data-name="Trazado 913643" d="M286.745,211.955h-5.074a1.134,1.134,0,0,0-1.132,1.132V243.06h7.337V213.087A1.134,1.134,0,0,0,286.745,211.955Z" transform="translate(-248.788 -187.966)" fill="#8ac9fe" fill-rule="evenodd"/>
        <path id="Trazado_913644" data-name="Trazado 913644" d="M326.5,211.955h-1.132a1.134,1.134,0,0,1,1.132,1.132V243.06h1.132V213.087A1.134,1.134,0,0,0,326.5,211.955Z" transform="translate(-288.544 -187.966)" fill="#60b7ff" fill-rule="evenodd"/>
        <path id="Trazado_913645" data-name="Trazado 913645" d="M9.139,469.534H62.277a1.134,1.134,0,0,1,1.132,1.132V472.3a1.134,1.134,0,0,1-1.132,1.132H9.139A1.134,1.134,0,0,1,8.007,472.3v-1.637a1.134,1.134,0,0,1,1.132-1.132" transform="translate(-7.101 -416.393)" fill="#837683" fill-rule="evenodd"/>
        <path id="Trazado_913646" data-name="Trazado 913646" d="M62.277,469.534a1.134,1.134,0,0,1,1.132,1.132V472.3a1.134,1.134,0,0,1-1.132,1.132H9.139A1.134,1.134,0,0,1,8.007,472.3H61.145a1.134,1.134,0,0,0,1.132-1.132Z" transform="translate(-7.101 -416.393)" fill="#685e68" fill-rule="evenodd"/>
        <path id="Trazado_913647" data-name="Trazado 913647" d="M11.087,11.1a10.545,10.545,0,1,1,0,14.914,10.546,10.546,0,0,1,0-14.914" transform="translate(-7.093 -7.107)" fill="#ffd064" fill-rule="evenodd"/>
        <path id="Trazado_913648" data-name="Trazado 913648" d="M32.425,23.64a8.777,8.777,0,1,1-8.777,8.777,8.777,8.777,0,0,1,8.777-8.777" transform="translate(-20.972 -20.964)" fill="#ffe177" fill-rule="evenodd"/>
        <path id="Trazado_913649" data-name="Trazado 913649" d="M8.812,16.743a4.611,4.611,0,0,0,1.764.688v.7a.877.877,0,0,0,1.754,0v-.678a4.83,4.83,0,0,0,2.175-.866,2.866,2.866,0,0,0,1.2-2.44,3.264,3.264,0,0,0-1.65-2.784A6.98,6.98,0,0,0,11.6,10.55,4.478,4.478,0,0,1,9.93,9.99,1.3,1.3,0,0,1,9.3,8.931a1.485,1.485,0,0,1,.572-1.258A2.393,2.393,0,0,1,10.913,7.2a2.846,2.846,0,0,1,1.257.029,2.283,2.283,0,0,1,1.58,1.358.877.877,0,1,0,1.617-.679A4,4,0,0,0,12.6,5.53c-.089-.023-.176-.042-.265-.058V4.778a.877.877,0,0,0-1.754,0v.706h-.005a4.172,4.172,0,0,0-1.807.83,3.188,3.188,0,0,0-1.216,2.7,2.962,2.962,0,0,0,1.429,2.445,6.156,6.156,0,0,0,2.345.822,5.293,5.293,0,0,1,1.834.582,1.536,1.536,0,0,1,.792,1.163c.009.074.013.126.014.161a1.2,1.2,0,0,1-.513,1.008,3.142,3.142,0,0,1-1.489.537c-.148.018-.28.028-.389.032a3.123,3.123,0,0,1-1.793-.478,2.015,2.015,0,0,1-.859-1.2.875.875,0,0,0-1.7.419A3.739,3.739,0,0,0,8.812,16.743Zm-7-5.291a9.641,9.641,0,1,1,9.641,9.642,9.653,9.653,0,0,1-9.641-9.642M0,11.452A11.453,11.453,0,1,1,11.453,22.9,11.465,11.465,0,0,1,0,11.452M55.4,54.047H1.811v2.089H55.4Zm-50-1.811h5.526V39.97H5.408Zm13.624,0h5.526V32.595H19.032Zm13.624,0h5.526V24.894H32.656Zm13.623,0h5.526V17.967H46.28Zm10.935.905v3.9a.906.906,0,0,1-.908.905H.906A.906.906,0,0,1,0,57.041v-3.9a.906.906,0,0,1,.906-.905H3.6V39.064a.906.906,0,0,1,.9-.905H11.84a.905.905,0,0,1,.9.905V52.236h4.477V31.689a.905.905,0,0,1,.9-.905h7.338a.905.905,0,0,1,.906.905V52.236h4.476V23.989a.905.905,0,0,1,.906-.905h7.337a.906.906,0,0,1,.906.905V52.236h4.475V17.061a.905.905,0,0,1,.906-.905h7.339a.905.905,0,0,1,.9.905V52.236h2.691A.906.906,0,0,1,57.214,53.141ZM45.94,3.494a.905.905,0,0,1,.854-.954l5.87-.318a.9.9,0,0,1,.716.293.92.92,0,0,1,.23.742l-.849,5.815a.906.906,0,0,1-.9.775.974.974,0,0,1-.128-.009.9.9,0,0,1-.763-1.026L51.453,5.5a132.954,132.954,0,0,1-22.73,16.323A148.784,148.784,0,0,1,4.028,32.97a.906.906,0,1,1-.6-1.71A137.569,137.569,0,0,0,50.225,4.167l-3.332.181A.9.9,0,0,1,45.94,3.494Z" fill="#12233f" fill-rule="evenodd"/>
      </g>
    </g>
  </g>
</svg>
