<svg xmlns="http://www.w3.org/2000/svg" xmlns:xlink="http://www.w3.org/1999/xlink" width="101.428" height="101.428" viewBox="0 0 101.428 101.428">
  <defs>
    <clipPath id="clip-path">
      <rect id="Rectángulo_403631" data-name="Rectángulo 403631" width="57.319" height="57.024" fill="none"/>
    </clipPath>
  </defs>
  <g id="Grupo_1102228" data-name="Grupo 1102228" transform="translate(-1169.26 -4062.527)">
    <ellipse id="Elipse_11602" data-name="Elipse 11602" cx="49.214" cy="49.214" rx="49.214" ry="49.214" transform="translate(1170.76 4064.027)" fill="#efedee" stroke="#007dfe" stroke-miterlimit="10" stroke-width="3"/>
    <g id="Grupo_1102010" data-name="Grupo 1102010" transform="translate(1189.193 4084.488)">
      <g id="Grupo_1102009" data-name="Grupo 1102009" clip-path="url(#clip-path)">
        <path id="Trazado_913663" data-name="Trazado 913663" d="M355.3,53.727a2.062,2.062,0,0,0,2.056-2.056v-1.51a2.062,2.062,0,0,0-2.056-2.056H342.38a2.062,2.062,0,0,0-2.056,2.056v1.51a2.062,2.062,0,0,0,2.056,2.056,2.062,2.062,0,0,0-2.056,2.056v1.51a2.062,2.062,0,0,0,2.056,2.056,2.062,2.062,0,0,0-2.056,2.056v1.51a2.062,2.062,0,0,0,2.056,2.056,2.062,2.062,0,0,0-2.056,2.056v1.51a2.062,2.062,0,0,0,2.056,2.056H355.3a2.062,2.062,0,0,0,2.056-2.056v-1.51a2.062,2.062,0,0,0-2.056-2.056,2.062,2.062,0,0,0,2.056-2.056v-1.51a2.062,2.062,0,0,0-2.056-2.056,2.062,2.062,0,0,0,2.056-2.056v-1.51A2.062,2.062,0,0,0,355.3,53.727Z" transform="translate(-300.995 -42.546)" fill="#ffe177" fill-rule="evenodd"/>
        <path id="Trazado_913664" data-name="Trazado 913664" d="M457.235,53.727a2.062,2.062,0,0,0,2.056-2.056v-1.51a2.062,2.062,0,0,0-2.056-2.056h-1.662a2.062,2.062,0,0,1,2.056,2.056v1.51a2.062,2.062,0,0,1-2.056,2.056,2.062,2.062,0,0,1,2.056,2.056v1.51a2.062,2.062,0,0,1-2.056,2.056,2.062,2.062,0,0,1,2.056,2.056v1.51a2.062,2.062,0,0,1-2.056,2.056,2.062,2.062,0,0,1,2.056,2.056v1.51a2.062,2.062,0,0,1-2.056,2.056h1.662a2.062,2.062,0,0,0,2.056-2.056v-1.51a2.062,2.062,0,0,0-2.056-2.056,2.062,2.062,0,0,0,2.056-2.056v-1.51a2.062,2.062,0,0,0-2.056-2.056,2.062,2.062,0,0,0,2.056-2.056v-1.51a2.063,2.063,0,0,0-2.056-2.056" transform="translate(-402.926 -42.546)" fill="#ffd064" fill-rule="evenodd"/>
        <path id="Trazado_913665" data-name="Trazado 913665" d="M355.3,108H342.38a2.062,2.062,0,0,0-2.056,2.056v1.51a2.062,2.062,0,0,0,2.056,2.056H355.3a2.062,2.062,0,0,0,2.056-2.056v-1.51A2.062,2.062,0,0,0,355.3,108Zm0-11.244H342.38a2.062,2.062,0,0,0-2.056,2.056v1.51a2.062,2.062,0,0,0,2.056,2.056H355.3a2.062,2.062,0,0,0,2.056-2.056v-1.51A2.062,2.062,0,0,0,355.3,96.756Z" transform="translate(-300.995 -85.575)" fill="#ffd064" fill-rule="evenodd"/>
        <path id="Trazado_913666" data-name="Trazado 913666" d="M457.235,108h-1.662a2.062,2.062,0,0,1,2.056,2.056v1.51a2.062,2.062,0,0,1-2.056,2.056h1.662a2.062,2.062,0,0,0,2.056-2.056v-1.51A2.062,2.062,0,0,0,457.235,108m0-11.244h-1.66a2.062,2.062,0,0,1,2.054,2.056v1.51a2.062,2.062,0,0,1-2.056,2.056h1.662a2.062,2.062,0,0,0,2.056-2.056v-1.51a2.062,2.062,0,0,0-2.056-2.056" transform="translate(-402.926 -85.575)" fill="#ffc338" fill-rule="evenodd"/>
        <path id="Trazado_913667" data-name="Trazado 913667" d="M286.357,8.131a8.494,8.494,0,1,1-8.494,8.494,8.494,8.494,0,0,1,8.494-8.494" transform="translate(-245.752 -7.191)" fill="#ffc338" fill-rule="evenodd"/>
        <path id="Trazado_913668" data-name="Trazado 913668" d="M345.8,8.132a8.494,8.494,0,0,1,0,16.988c-.245,0-.487-.011-.727-.031a8.494,8.494,0,0,0,0-16.925c.24-.02.482-.031.727-.031" transform="translate(-305.193 -7.192)" fill="#f5b829" fill-rule="evenodd"/>
        <path id="Trazado_913669" data-name="Trazado 913669" d="M15.067,142.476q.018-17.711,0-17.683H9.181a.931.931,0,0,0-.929.929v15.825a.931.931,0,0,0,.929.929h5.886Z" transform="translate(-7.298 -110.371)" fill="#d1d1d6" fill-rule="evenodd"/>
        <path id="Trazado_913670" data-name="Trazado 913670" d="M8.252,125.722a.931.931,0,0,1,.929-.929h5.892v17.683h-.929V125.722Z" transform="translate(-7.298 -110.372)" fill="#b1b1b5" fill-rule="evenodd"/>
        <path id="Trazado_913671" data-name="Trazado 913671" d="M80.841,101.774c-6.854-1.18-10.838-2.042-14.822,1.773V121.23c3.14,2.359,7.287,4.38,7.287,8.841v5.368A6.457,6.457,0,0,0,79.745,129v-4.164a6.2,6.2,0,0,0-1.786-3.278C87.929,119,83.685,101.652,80.841,101.774Z" transform="translate(-58.39 -89.126)" fill="#f6dccd" fill-rule="evenodd"/>
        <path id="Trazado_913672" data-name="Trazado 913672" d="M67.584,113.869a11.208,11.208,0,0,0-1.564,1.262v17.683c3.14,2.359,7.287,4.38,7.287,8.841v5.368a6.417,6.417,0,0,0,4.5-1.843,6.386,6.386,0,0,1-3.3.914v-5.368c0-4.462-4.147-6.482-7.287-8.841V114.2q.181-.173.361-.333" transform="translate(-58.391 -100.71)" fill="#f1cbbc" fill-rule="evenodd"/>
        <path id="Trazado_913673" data-name="Trazado 913673" d="M173.193,108.391h4.13a2.558,2.558,0,0,1,0,5.116h1.526a2.558,2.558,0,0,1,0,5.117h1.8a2.558,2.558,0,1,1,0,5.117h-1.078a2.558,2.558,0,1,1,0,5.116h-6.373a2.558,2.558,0,1,1,0-5.116h-1.078a2.558,2.558,0,1,1,0-5.117h1.078a2.558,2.558,0,1,1,0-5.117,2.558,2.558,0,1,1,0-5.116Z" transform="translate(-149.963 -95.865)" fill="#f6dccd" fill-rule="evenodd"/>
        <path id="Trazado_913674" data-name="Trazado 913674" d="M181.444,108.391h4.13a2.566,2.566,0,0,1,2.558,2.558h-9.246A2.566,2.566,0,0,1,181.444,108.391Z" transform="translate(-158.214 -95.865)" fill="#f1cbbc" fill-rule="evenodd"/>
        <path id="Trazado_913675" data-name="Trazado 913675" d="M185.574,152.666H187.1a2.566,2.566,0,0,1,2.558,2.558H178.886a2.566,2.566,0,0,1,2.558-2.558Z" transform="translate(-158.214 -135.024)" fill="#f1cbbc" fill-rule="evenodd"/>
        <path id="Trazado_913676" data-name="Trazado 913676" d="M178.852,196.94h1.8a2.566,2.566,0,0,1,2.558,2.558H169.56a2.566,2.566,0,0,1,2.558-2.558h6.733Z" transform="translate(-149.965 -174.181)" fill="#f1cbbc" fill-rule="evenodd"/>
        <path id="Trazado_913677" data-name="Trazado 913677" d="M187.818,241.215a2.566,2.566,0,0,1,2.558,2.558h-11.49a2.566,2.566,0,0,1,2.558-2.558Z" transform="translate(-158.214 -213.34)" fill="#f1cbbc" fill-rule="evenodd"/>
        <path id="Trazado_913678" data-name="Trazado 913678" d="M361.719,306.022l-6.329-7.454a.46.46,0,0,1,.35-.757h2.948V283.7a.923.923,0,0,1,.919-.919h4.924a.922.922,0,0,1,.919.919v14.112H368.4a.46.46,0,0,1,.35.757l-6.329,7.454A.46.46,0,0,1,361.719,306.022Z" transform="translate(-314.223 -250.1)" fill="#fe646f" fill-rule="evenodd"/>
        <path id="Trazado_913679" data-name="Trazado 913679" d="M409.262,306.022l-.227-.268,6.1-7.186a.46.46,0,0,0-.35-.757h1.156a.459.459,0,0,1,.35.757l-6.329,7.454a.46.46,0,0,1-.7,0m1.657-23.243a.922.922,0,0,1,.919.919v14.112h1.156V283.7a.922.922,0,0,0-.919-.919Z" transform="translate(-361.766 -250.1)" fill="#fd4755" fill-rule="evenodd"/>
        <path id="Trazado_913680" data-name="Trazado 913680" d="M47.87,54.922,42.545,48.65h1.944a.925.925,0,0,0,.924-.925l-.005-14.108,4.919,0V47.726a.925.925,0,0,0,.924.925h1.944Zm.354.417h0M54.2,46.8H52.175V33.614a1.847,1.847,0,0,0-1.844-1.845H45.408a1.847,1.847,0,0,0-1.844,1.845V46.8H41.541a1.384,1.384,0,0,0-1.055,2.28l6.329,7.454a1.381,1.381,0,0,0,1.055.489h0a1.381,1.381,0,0,0,1.055-.489l6.329-7.454A1.384,1.384,0,0,0,54.2,46.8ZM40.627,15.767a.924.924,0,0,1-.924-.924v-.379A3.439,3.439,0,0,1,37,11.965a.924.924,0,0,1,1.794-.447,1.81,1.81,0,0,0,1.927,1.2,2.241,2.241,0,0,0,1.551-.563.708.708,0,0,0,.161-.594c-.052-.431-.32-.959-1.944-1.226-2.578-.423-3.18-1.778-3.232-2.842A3,3,0,0,1,39.7,4.45v-.4a.924.924,0,1,1,1.849,0v.388A3.427,3.427,0,0,1,43.989,6.5a.924.924,0,1,1-1.7.716,1.769,1.769,0,0,0-2.1-.981c-.188.042-1.127.3-1.085,1.163.011.229.04.837,1.685,1.107,2.124.348,3.294,1.3,3.48,2.827a2.544,2.544,0,0,1-.6,2.026,3.674,3.674,0,0,1-2.115,1.12v.364A.924.924,0,0,1,40.627,15.767Zm14.843,4.62a1.134,1.134,0,0,1-1.133,1.133H41.4a1.134,1.134,0,0,1-1.133-1.133v-1.5c.119,0,.238.01.358.01a9.388,9.388,0,0,0,4.522-1.155h9.187a1.134,1.134,0,0,1,1.133,1.133Zm0,5.625a1.134,1.134,0,0,1-1.133,1.134H41.4a1.134,1.134,0,0,1-1.133-1.134V24.5A1.135,1.135,0,0,1,41.4,23.369H54.337A1.135,1.135,0,0,1,55.47,24.5ZM33.027,9.448a7.6,7.6,0,1,0,7.6-7.6,7.609,7.609,0,0,0-7.6,7.6m14.5,6.446a9.449,9.449,0,0,0,2.163-3.778h4.646A1.135,1.135,0,0,1,55.47,13.25v1.511a1.134,1.134,0,0,1-1.133,1.134Zm6.809-9.4A1.134,1.134,0,0,1,55.47,7.623V9.135a1.134,1.134,0,0,1-1.123,1.133H50.039c.023-.27.038-.543.038-.819A9.4,9.4,0,0,0,49.6,6.491Zm2.983,12.385a2.972,2.972,0,0,0-.826-2.057,2.973,2.973,0,0,0,.826-2.058V13.25a2.974,2.974,0,0,0-.826-2.058,2.971,2.971,0,0,0,.826-2.057V7.623a2.985,2.985,0,0,0-2.982-2.981H48.758a9.447,9.447,0,1,0-10.326,14c-.006.08-.011.158-.011.238v1.512a2.969,2.969,0,0,0,.825,2.057,2.972,2.972,0,0,0-.825,2.058v1.51A2.986,2.986,0,0,0,41.4,29H54.337a2.986,2.986,0,0,0,2.982-2.983V24.5a2.972,2.972,0,0,0-.826-2.058,2.969,2.969,0,0,0,.826-2.057ZM30.748,26.963H22.192a1.642,1.642,0,0,1,0-3.284h8.556a1.642,1.642,0,0,1,0,3.284M29.667,32.1H23.273a1.642,1.642,0,1,1,0-3.283h6.394a1.642,1.642,0,1,1,0,3.283m-9.2,7.832V35.817a5.36,5.36,0,0,0-1.521-2.7.925.925,0,0,1-.109-1.177,4.117,4.117,0,0,0,.823-3.324c-.466-2.04-2.73-3.532-3.682-4.078a.924.924,0,1,1,.921-1.6A13.25,13.25,0,0,1,18.856,24.3a3.507,3.507,0,0,1,1.624-2.017,3.484,3.484,0,0,1,.43-4.658q-.053-.049-.1-.1a3.48,3.48,0,0,1-.473-4.345c-5.307-.905-8.473-1.23-11.642,1.613,0,.178,0,.414,0,.709q0,1.111,0,3.328,0,4.318-.007,12.839c.353.258.716.513,1.094.78,2.848,2.008,6.075,4.283,6.075,8.554v4.385A5.544,5.544,0,0,0,20.467,39.927ZM1.849,15.314H6.844c0,1.644,0,5.936,0,15.891H1.849V15.314Zm25.567-1.9a1.642,1.642,0,1,1,0,3.283h0l-3.286,0-.853,0h0a1.642,1.642,0,0,1,0-3.283Zm3.173,6.774a1.643,1.643,0,0,1-1.642,1.642H23.273a1.642,1.642,0,1,1,0-3.284l.854,0,3.29,0h1.53a1.644,1.644,0,0,1,1.642,1.642m1.323,1.842a3.491,3.491,0,0,1,.548,6.333,3.488,3.488,0,0,1-2.793,5.581H23.273a3.457,3.457,0,0,1-1.746-.469,6.241,6.241,0,0,1,.78,2.147.941.941,0,0,1,.009.127v4.177a7.391,7.391,0,0,1-7.384,7.382.924.924,0,0,1-.924-.924V41c0-3.311-2.57-5.124-5.292-7.042-.416-.293-.844-.6-1.26-.9H.924A.925.925,0,0,1,0,32.129V14.39a.925.925,0,0,1,.924-.925H7.4c4.077-3.7,8.216-2.985,14.409-1.91l.634.109a3.5,3.5,0,0,1,.831-.1h4.143a3.489,3.489,0,0,1,2.91,5.417,3.49,3.49,0,0,1,1.586,5.049Z" fill="#12233f" fill-rule="evenodd"/>
      </g>
    </g>
  </g>
</svg>
